<?xml version="1.0" encoding="UTF-8" standalone="no"?>
<!-- Generator: Adobe Illustrator 17.1.0, SVG Export Plug-In . SVG Version: 6.00 Build 0)  -->

<svg
   xmlns:dc="http://purl.org/dc/elements/1.1/"
   xmlns:cc="http://creativecommons.org/ns#"
   xmlns:rdf="http://www.w3.org/1999/02/22-rdf-syntax-ns#"
   xmlns:svg="http://www.w3.org/2000/svg"
   xmlns="http://www.w3.org/2000/svg"
   xmlns:sodipodi="http://sodipodi.sourceforge.net/DTD/sodipodi-0.dtd"
   xmlns:inkscape="http://www.inkscape.org/namespaces/inkscape"
   version="1.1"
   id="Layer_1"
   x="0px"
   y="0px"
   viewBox="0 0 202.22664 226"
   enable-background="new 0 0 835 636"
   xml:space="preserve"
   inkscape:version="0.91 r13725"
   sodipodi:docname="flljr-creature-craze-logo.svg"
   width="202.22664"
   height="226"><metadata
   id="metadata13597"><rdf:RDF><cc:Work
       rdf:about=""><dc:format>image/svg+xml</dc:format><dc:type
         rdf:resource="http://purl.org/dc/dcmitype/StillImage" /><dc:title></dc:title></cc:Work></rdf:RDF></metadata><defs
   id="defs13595" /><sodipodi:namedview
   pagecolor="#ffffff"
   bordercolor="#666666"
   borderopacity="1"
   objecttolerance="10"
   gridtolerance="10"
   guidetolerance="10"
   inkscape:pageopacity="0"
   inkscape:pageshadow="2"
   inkscape:window-width="2560"
   inkscape:window-height="1377"
   id="namedview13593"
   showgrid="false"
   fit-margin-top="0"
   fit-margin-left="0"
   fit-margin-right="0"
   fit-margin-bottom="0"
   inkscape:zoom="3.4555818"
   inkscape:cx="113.37503"
   inkscape:cy="130.3952"
   inkscape:window-x="2552"
   inkscape:window-y="-8"
   inkscape:window-maximized="1"
   inkscape:current-layer="Layer_1" />




























<g
   id="g14207"
   transform="matrix(1.020316,0,0,1.020316,-329.15394,-178.45327)"><g
     style="fill:#000000"
     id="g13461">
	<path
   style="fill:#000000"
   id="path13463"
   d="m 344.2,301.2 c 6.9,0 12.7,2.4 12.7,9.6 0,5.1 -3.9,9.6 -9.3,9.6 -5.7,0 -8.1,-8 -2.9,-8 3.1,0 3.3,1.3 3.7,4.4 l 0.5,0 c 2.8,0 3.3,-2.3 3.3,-4.3 0,-4.5 -3.6,-6.1 -7.9,-6.1 -9.8,0 -13.5,10.2 -13.5,17.9 0,7.1 2.6,14.9 12.1,14.9 7.6,0 7.6,-14.3 12.6,-10.4 0.4,0.6 1.7,1.5 1.7,2.4 -2.5,5.6 -8.4,11.5 -17,11.5 -11.3,0 -17.6,-8.6 -17.6,-18.6 0,-11.4 8.5,-22.9 21.6,-22.9 z"
   inkscape:connector-curvature="0" />
	<path
   style="fill:#000000"
   id="path13465"
   d="m 361.3,343.5 c 0.6,0 2.2,-13.4 -0.8,-31.1 l 4.5,0.3 0.2,2.2 c 2.5,-2.4 6,-4.3 9.4,-4.3 5.2,0 6.2,5 6.2,10.2 0,7.5 -10.1,7.1 -10.1,0.8 0,-3 1.7,-4.7 5,-4.7 0.8,0 1.2,0.1 2.1,0.3 l 0,-0.1 c -0.6,-1.7 -2.8,-2.4 -4.3,-2.4 -13.3,0 -3.2,28.8 -3.9,28 l -8.3,0.8 z m 16.8,-26.1 c 0.1,0 0.1,-0.2 0,-0.2 -0.1,0.1 -0.1,0.2 0,0.2 z"
   inkscape:connector-curvature="0" />
	<path
   style="fill:#000000"
   id="path13467"
   d="m 394.3,313.6 c 6.3,0 8.7,6 9.2,11.4 l -14.1,3.2 c 0,3.2 0.6,6 2.2,8.8 2.2,4 9.5,3.3 9.6,-2 l 0,-0.2 c -0.7,0.8 -1.5,1 -2.6,1 -2.1,0 -3.5,-1.1 -3.5,-3.3 0.2,-2.1 1.9,-4.3 4.1,-4.3 l 0.3,0 c 2.8,0 4.8,1.7 4.8,4.5 0,4.9 -2.9,9.9 -8.3,9.9 l -0.4,0 c -8.7,0 -11.4,-8.6 -11.7,-15.9 0,-6 3.9,-13.1 10.4,-13.1 z m -4.6,11.5 9.9,-1.4 c 0,-2.4 -2,-6.1 -4.7,-6.1 -3.3,0 -5.2,4.7 -5.2,7.5 z"
   inkscape:connector-curvature="0" />
	<path
   style="fill:#000000"
   id="path13469"
   d="m 422.5,326.9 c 0,-4.2 -0.3,-11.9 -6.6,-11.9 -2.4,0 -4.7,1.6 -4.7,4.2 0,1.4 1,1.7 2,1.7 0,-1.5 0.1,-3 2,-3 1.2,0 2.2,0.8 2.2,2.1 0,2.4 -1.8,3.4 -4.1,3.4 -2.4,0 -4.6,-1.4 -4.6,-4.1 0,-4.7 5,-7.3 9.1,-7.3 3.8,0 9.3,2.2 9.3,6.9 0,3.7 0.9,20.7 1.2,22.7 l 0,0.2 c -1.5,0.2 -4.8,0.7 -6.1,0.7 l 0,-3.5 c -4.7,5.1 -14.4,6.2 -15.8,-0.7 -2.8,-10.4 7.6,-14.8 16.1,-11.4 z m -7.8,12.1 c 3.2,0 8.2,-2.8 8.2,-6.3 0,-2.7 -3.3,-4.6 -6,-4.6 -3.7,0 -5.7,2.5 -5.7,6 0,2.2 0.9,4.9 3.5,4.9 z"
   inkscape:connector-curvature="0" />
	<path
   style="fill:#000000"
   id="path13471"
   d="m 429.8,322.6 3.7,-0.3 c 0.2,-5.1 0,-6.2 -0.5,-16.5 l 7,0.4 -2,15.9 7.7,-1.3 -1.1,3.9 -6.6,0.3 c 0.1,5.5 0.5,17.3 6.6,18 3.8,0 6.5,-1.9 5.5,-5.5 -2.2,3.4 -6.9,2.4 -6.9,-2 0,-6.3 8.1,-5.2 9,0.5 0.9,6 -2,10.1 -7.6,10.1 -10.6,0 -12.9,-10.1 -11.2,-20.7 l -2.8,0.7 -0.8,-3.5 z"
   inkscape:connector-curvature="0" />
	<path
   style="fill:#000000"
   id="path13473"
   d="m 468.7,338.6 c -7.6,7 -16,1 -16.3,-8.6 0,-1.8 0,-10.1 -1.5,-11.6 l 8.1,-0.9 c 0.1,4.7 -6.2,20 3.7,20 9.4,0 4.3,-15.9 2.2,-20.4 2.7,-0.5 5.1,-0.6 7.9,-0.6 -0.5,5.4 -1.4,11.9 0.9,24.5 l -4.1,0.5 -0.9,-2.9 z"
   inkscape:connector-curvature="0" />
	<path
   style="fill:#000000"
   id="path13475"
   d="m 475.9,343.5 c 0.5,0 2.1,-13 -0.7,-30.1 l 4.3,0.3 0.2,2.2 c 2.5,-2.4 5.8,-4.2 9.1,-4.2 5,0 6,4.9 6,9.9 0,7.2 -9.8,6.9 -9.8,0.7 0,-2.9 1.7,-4.5 4.8,-4.5 0.8,0 1.2,0 2,0.3 l 0,-0.1 c -0.5,-1.6 -2.7,-2.4 -4.2,-2.4 -12.9,0 -3.1,27.8 -3.8,27.1 l -7.9,0.8 z M 492,318.3 c 0.1,0 0.1,-0.1 0,-0.1 0,-0.1 0,0.1 0,0.1 z"
   inkscape:connector-curvature="0" />
	<path
   style="fill:#000000"
   id="path13477"
   d="m 507.1,313.6 c 6.3,0 8.7,6 9.2,11.4 l -14.1,3.2 c 0,3.2 0.6,6 2.2,8.8 2.2,4 9.5,3.3 9.6,-2 l 0,-0.2 c -0.7,0.8 -1.5,1 -2.6,1 -2.1,0 -3.5,-1.1 -3.5,-3.3 0.2,-2.1 1.9,-4.3 4.1,-4.3 l 0.3,0 c 2.8,0 4.8,1.7 4.8,4.5 0,4.9 -2.9,9.9 -8.3,9.9 l -0.4,0 c -8.7,0 -11.4,-8.6 -11.7,-15.9 0,-6 3.9,-13.1 10.4,-13.1 z m -4.7,11.5 9.9,-1.4 c 0,-2.4 -2,-6.1 -4.7,-6.1 -3.3,0 -5.2,4.7 -5.2,7.5 z"
   inkscape:connector-curvature="0" />
</g><g
     style="fill:#000000"
     id="g13479">
	<path
   style="fill:#000000"
   id="path13481"
   d="m 362,341.6 c 8.9,0 16.5,3.2 16.5,12.5 0,6.6 -5,12.5 -12,12.5 -7.4,0 -10.5,-10.3 -3.7,-10.3 4,0 4.3,1.7 4.9,5.7 l 0.6,0 c 3.6,0 4.2,-3 4.2,-5.6 0,-5.9 -4.7,-7.9 -10.3,-7.9 -12.6,0 -17.5,13.3 -17.5,23.2 0,9.3 3.4,19.3 15.7,19.3 9.8,0 9.8,-18.5 16.3,-13.4 0.5,0.8 2.2,1.9 2.2,3.1 -3.2,7.2 -10.9,14.9 -22.1,14.9 -14.7,0 -22.8,-11.1 -22.8,-24.1 0,-15.1 11,-29.9 28,-29.9 z"
   inkscape:connector-curvature="0" />
	<path
   style="fill:#000000"
   id="path13483"
   d="m 382.1,396.4 c 0.8,0 3,-18.5 -1.1,-43 l 6.2,0.4 0.3,3.1 c 3.5,-3.4 8.3,-6 13,-6 7.2,0 8.6,7 8.6,14.1 0,10.4 -13.9,9.9 -13.9,1.1 0,-4.2 2.4,-6.5 6.9,-6.5 1.1,0 1.7,0.1 2.9,0.4 l 0,-0.1 c -0.8,-2.3 -3.9,-3.4 -6,-3.4 -18.4,0 -4.4,39.7 -5.4,38.7 l -11.5,1.2 z m 23.1,-36 c 0.1,0 0.1,-0.2 0,-0.2 -0.1,0 -0.1,0.2 0,0.2 z"
   inkscape:connector-curvature="0" />
	<path
   style="fill:#000000"
   id="path13485"
   d="m 431.3,372.7 c 0,-6 -0.4,-17 -9.4,-17 -3.4,0 -6.8,2.3 -6.8,6.1 0,2 1.5,2.4 2.8,2.4 0,-2.2 0.1,-4.2 2.9,-4.2 1.8,0 3.1,1.2 3.1,3 0,3.5 -2.6,4.8 -5.8,4.8 -3.5,0 -6.5,-2 -6.5,-5.8 0,-6.7 7.1,-10.4 13,-10.4 5.5,0 13.2,3.2 13.2,9.8 0,5.4 1.3,29.6 1.7,32.5 l 0,0.4 c -2.2,0.3 -6.8,1.1 -8.7,1 l 0,-5 c -6.7,7.3 -20.6,8.8 -22.6,-1.1 -4,-15.1 10.9,-21.4 23.1,-16.5 z M 420.1,390 c 4.6,0 11.7,-4 11.7,-8.9 0,-3.8 -4.7,-6.5 -8.5,-6.5 -5.3,0 -8.2,3.5 -8.2,8.5 0,3.1 1.3,6.9 5,6.9 z"
   inkscape:connector-curvature="0" />
	<path
   style="fill:#000000"
   id="path13487"
   d="m 442.4,395.5 22.5,-31.2 c 0,0 -0.1,-0.1 -0.2,-0.1 -3.9,0 -8.5,0.8 -12.6,0.8 l -0.6,0 c 2.6,0.8 4.5,2.8 4.5,6 0,3.3 -2.7,5.8 -5.6,5.8 -8,0 -7,-8.1 -7.4,-14.3 -0.1,-2.4 -0.9,-4.8 -1.6,-6.9 0,-0.1 -0.1,-0.2 -0.1,-0.3 6.3,3.2 26.2,4.4 29.5,2.7 l 3.9,7.3 -0.1,0.2 c -0.6,0.8 -1.1,1.5 -20.6,22 5.5,-1.9 9.7,3 15.8,3.3 -4.8,-5.8 -1.2,-10.3 3.4,-10.3 3.8,0 5.8,2 5.8,6.4 0,18 -28.7,-0.4 -36.1,9.4 -0.3,0 -0.5,-0.2 -0.5,-0.8 z m 6.1,-30.2 c 0.5,0 1.8,-0.1 2.2,-0.6 -0.9,-0.1 -1.8,-0.7 -2.6,-0.7 0,0.4 0,1.3 0.4,1.3 z"
   inkscape:connector-curvature="0" />
	<path
   style="fill:#000000"
   id="path13489"
   d="m 494.1,350 c 9.8,0 13.5,9.3 14.3,17.7 l -22,4.9 c 0,5 0.9,9.3 3.4,13.6 3.4,6.3 14.8,5 14.9,-3.1 l 0,-0.3 c -1.1,1.3 -2.4,1.6 -4,1.6 -3.3,0 -5.4,-1.8 -5.4,-5.1 0.3,-3.3 3,-6.7 6.4,-6.7 l 0.5,0 c 4.3,0 7.5,2.6 7.5,7 0,7.6 -4.5,15.3 -12.9,15.3 l -0.7,0 c -13.5,0 -17.7,-13.3 -18.2,-24.7 0.1,-9 6.1,-20.2 16.2,-20.2 z m -7.2,17.9 15.4,-2.1 c 0,-3.7 -3.1,-9.5 -7.3,-9.5 -5.1,0 -8.1,7.3 -8.1,11.6 z"
   inkscape:connector-curvature="0" />
</g><g
     style="fill:#000000"
     id="g13491">
	<path
   style="fill:#000000"
   id="path13493"
   d="m 361.3,270.4 c -0.2,-0.4 -0.6,-0.7 -0.4,-1.2 0,0 0,-0.1 -0.1,-0.1 -1,-0.7 -0.4,-1.5 -0.1,-2.3 0.4,-0.8 0.9,-1.6 1.3,-2.4 0.2,-0.4 0.2,-1 0.2,-1.5 -0.1,-1.5 0.5,-2.7 1.3,-3.9 0.4,-0.6 0.9,-1.1 1.5,-1.6 0.3,-0.3 0.8,-0.4 1.3,-0.4 1,0 1.5,-1.2 1.2,-2 0,-0.1 -0.1,-0.2 -0.2,-0.2 -0.8,-0.3 -1.7,-0.7 -2.5,-1 -1.4,-0.5 -2.8,-0.8 -4.3,-0.5 -0.1,0 -0.2,0 -0.3,0 -0.1,0 -0.1,0 -0.4,-0.1 0.3,-0.2 0.5,-0.4 0.7,-0.5 1.2,-0.5 2.4,-0.7 3.7,-0.5 0.7,0.2 1.5,0.1 2.2,0.2 -0.6,-1.2 -3.3,-2.3 -6.1,-2.4 0.3,-0.8 0.8,-1.3 1.5,-1.7 1.1,-0.6 2.3,-0.3 3.4,0 1.3,0.4 2.6,0.9 3.6,1.8 0.1,0.1 0.4,0.1 0.5,0 0.7,-0.2 1.1,-0.1 1.4,0.5 0.3,0.6 0.6,1.2 0.8,1.8 0.4,1.4 0.6,2.8 0.3,4.3 0,0.2 0.1,0.5 0.2,0.7 0.2,0.4 0.4,0.7 0.5,1.1 0.1,0.1 0.2,0.3 0.3,0.4 0.6,0.4 0.6,0.7 0.2,1.4 -0.6,1.1 -1.2,2.3 -1.8,3.4 -0.1,0.3 0,0.6 0,0.9 0,0.2 0,0.5 -0.1,0.6 -0.2,0.1 -0.4,0 -0.6,-0.1 -0.3,-0.1 -0.6,-0.4 -0.9,-0.6 -0.2,0.5 -0.5,0.4 -0.9,0.4 -0.5,0 -1,-0.2 -1.5,-0.1 -1.2,0.1 -1.6,1 -1.9,2 -0.1,0.6 -0.2,1.2 -0.4,1.8 -0.1,0.2 -0.3,0.5 -0.4,0.7 -0.2,-0.2 -0.4,-0.4 -0.6,-0.6 -0.1,0.3 -0.1,0.6 -0.2,1 -0.1,0.7 -0.3,0.8 -1,0.4 -0.1,0.1 -0.1,0.3 -0.2,0.4 -0.3,0.1 -0.8,0 -1.2,-0.1 z"
   inkscape:connector-curvature="0" />
</g><g
     style="fill:#000000"
     id="g13495">
	<path
   style="fill:#000000"
   id="path13497"
   d="m 432.2,217.5 c -0.1,-0.5 -0.2,-1 -0.2,-1.4 0.1,-1.7 0.8,-2.9 2.3,-3.8 1.2,-0.7 2.4,-0.9 3.7,-0.8 1.5,0.1 3,0.7 4.1,1.9 1.6,1.7 2.2,3.6 2.1,5.9 0,1 -0.1,1.9 0.2,2.8 0.3,1 1,1.6 2.1,1.8 0.8,0.2 2.3,1.4 2.3,2.6 0,0.9 -0.1,1.8 -1,2.4 -0.2,0.1 -0.5,0.2 -0.7,0.3 0.2,-0.5 0.5,-0.9 0.7,-1.4 0.4,-1 -0.3,-2.3 -1.4,-2.6 -1,-0.2 -2,-0.6 -2.8,-1.3 -1,-0.9 -1.5,-2.1 -1.2,-3.4 0.4,-1.5 -0.1,-2.7 -0.6,-4 -0.4,-1 -1.1,-1.7 -1.9,-2.3 -0.7,-0.6 -1.5,-0.7 -2.4,-0.7 -0.6,0.1 -1.2,0.1 -1.7,0.4 -1,0.6 -1.4,1.9 -0.6,3.1 0.6,0.9 1.6,1.4 2.5,2.1 1.3,1 2.7,1.9 3.8,3.1 0.7,0.8 1.2,1.6 1.6,2.6 0.3,0.8 0.5,1.6 0.5,2.5 0,1.5 -0.5,2.8 -2,3.5 -0.9,0.4 -1.9,0.2 -2.8,-0.1 -1.2,-0.4 -2,-1.3 -2.8,-2.2 -0.1,-0.1 -0.1,-0.2 -0.3,-0.3 -0.1,0.1 -0.1,0.2 -0.1,0.3 -0.2,1 -1.3,2.1 -2.7,2.1 -1.2,0 -2,-0.5 -2.8,-1.4 -0.6,-0.7 -1.4,-1.3 -2.1,-1.8 -0.5,-0.4 -1.1,-0.2 -1.3,0.4 -0.2,0.5 -0.3,1.1 -0.4,1.6 -0.1,0.5 -0.3,0.9 -0.8,1.1 -0.6,0.3 -1.2,0.8 -1.9,1.1 -0.2,0.1 -0.5,0.2 -0.7,0.1 -0.5,-0.1 -1.2,0.4 -1.3,1 0,0.2 0,0.5 -0.4,0.5 0,-0.2 0,-0.5 0,-0.7 -0.2,-0.1 -0.5,-0.2 -0.7,-0.2 0,0 0,-0.1 0,-0.1 0.2,0 0.4,-0.1 0.5,-0.2 0.5,-0.2 0.8,-0.5 1,-1.1 0.5,-1.4 0.7,-2.9 1.4,-4.2 0.3,-0.6 0.8,-1 1.5,-1.2 0.3,-0.1 0.6,-0.2 1,-0.4 1.4,-0.5 2.5,0.1 3.6,0.9 0.6,0.5 1.1,1.1 1.7,1.6 0.4,0.3 0.9,0.6 1.3,0.7 0.5,0.1 0.8,-0.2 0.7,-0.7 -0.1,-0.4 -0.2,-0.8 -0.5,-1 -0.6,-0.5 -1.2,-0.8 -1.8,-1.2 -1.1,-0.7 -2.2,-1.5 -3.1,-2.5 -0.7,-0.7 -0.8,-1.6 -0.6,-2.5 0.2,-1.1 0.7,-2.1 1.6,-2.9 0.8,-0.7 1.8,-0.9 2.8,-0.4 0.4,0.3 0.5,0.3 0.6,0.4 z m 3.2,3.1 c 0.1,0.2 0.1,0.3 0.1,0.4 0.3,0.6 0.6,1.2 0.8,1.8 0.3,1 0.6,2 0.9,3.1 0.3,1 0.8,1.7 1.7,2.2 0.6,0.3 1.2,0.5 1.8,0.2 0.6,-0.3 1,-1.5 0.7,-2.1 -0.5,-0.8 -1,-1.7 -1.6,-2.4 -0.7,-0.9 -1.6,-1.7 -2.7,-2.3 -0.6,-0.3 -1.1,-0.5 -1.7,-0.9 z m -0.9,4.5 c 0,0 0,-0.1 0,0 0,-0.3 -0.2,-0.5 -0.3,-0.7 -0.3,-0.8 -0.5,-1.5 -0.8,-2.3 -0.2,-0.6 -0.6,-1.1 -1.2,-1.4 -0.4,-0.2 -1.1,-0.1 -1.4,0.2 -0.4,0.4 -0.5,0.9 -0.2,1.3 0.4,0.6 0.9,1.2 1.6,1.5 0.2,0.1 0.5,0.3 0.7,0.4 0.5,0.3 1,0.7 1.6,1 z m -10.7,3.7 c -0.4,0.2 -0.6,0.4 -0.6,0.8 0,0.1 0.1,0.2 0.1,0.3 0.1,0 0.2,-0.1 0.3,-0.1 0.2,-0.3 0.4,-0.6 0.2,-1 z"
   inkscape:connector-curvature="0" />
</g><g
     style="fill:#000000"
     id="g13499">
	<path
   style="fill:#000000"
   id="path13501"
   d="m 359.8,242.8 c 0,0.2 0.1,0.3 0.1,0.5 0.1,0.5 0.1,1.1 0.1,1.6 0,0.3 -0.1,0.5 -0.1,0.8 0,0.3 0,0.5 0.1,0.8 0,0.3 0.2,0.6 0.3,0.9 0.1,0.4 0.2,0.7 0.1,1.1 0,0.2 -0.1,0.4 -0.2,0.6 -0.3,0.4 -0.7,0.5 -1.1,0.7 -0.5,0.2 -1,0.4 -1.4,0.6 -0.2,0.1 -0.3,0.2 -0.5,0.4 -0.3,0.3 -0.7,0.6 -1,0.8 -0.3,0.2 -0.7,0.4 -1.1,0.5 0,0 -0.1,0 -0.1,0.1 0.2,0.1 0.5,0.1 0.7,0.2 0.4,0.1 0.8,0.1 1.1,0.2 0.2,0 0.4,0.1 0.6,0.1 0.3,0.1 0.6,0.3 0.9,0.5 0.2,0.1 0.2,0.4 -0.1,0.6 -0.2,0.1 -0.4,0.2 -0.5,0.2 -0.5,0.1 -1,0.2 -1.5,0.4 -0.6,0.2 -1.2,0.4 -1.8,0.6 -0.4,0.2 -0.7,0.4 -1.1,0.6 -0.1,0 -0.1,0.1 -0.1,0.1 -0.4,0.4 -0.6,1 -0.9,1.5 -0.1,0.3 -0.2,0.5 0,0.7 0.1,0.3 0,0.6 -0.4,0.7 -0.4,0.1 -0.8,0 -1,-0.3 -0.1,-0.1 -0.2,-0.3 -0.2,-0.5 0,-0.1 0.1,-0.1 0.1,-0.2 0.2,-0.2 0.4,-0.3 0.7,-0.3 0.2,0 0.3,-0.1 0.4,-0.3 0.1,-0.3 0.2,-0.5 0.3,-0.8 0,-0.1 0.1,-0.2 0.1,-0.3 -0.2,-0.1 -0.4,0 -0.6,0 -0.2,0.1 -0.5,0.1 -0.7,0.2 -0.2,0 -0.2,0.2 -0.3,0.3 -0.1,0.2 -0.2,0.4 -0.4,0.4 -0.2,0 -0.3,0 -0.4,-0.1 -0.3,-0.2 -0.4,-0.5 -0.4,-0.8 0,-0.2 0.1,-0.3 0.2,-0.4 0.1,-0.1 0.3,-0.1 0.4,-0.2 0.2,-0.1 0.3,0 0.4,0.1 0.1,0 0.1,0.1 0.2,0.2 0.1,0.1 0.1,0.1 0.2,0.1 0.3,-0.1 0.7,-0.2 1,-0.4 0.1,-0.1 0.2,-0.2 0.3,-0.3 -0.1,-0.1 -0.1,-0.1 -0.2,-0.2 -0.1,-0.1 -0.2,-0.1 -0.4,-0.2 -0.1,-0.1 -0.2,-0.1 -0.3,0 -0.2,0.2 -0.5,0.1 -0.7,0 -0.2,-0.2 -0.3,-0.4 -0.2,-0.7 0.2,-0.4 0.6,-0.5 0.9,-0.3 0.1,0 0.1,0.1 0.1,0.1 0.1,0.2 0.3,0.3 0.5,0.4 0.2,0.2 0.5,0.1 0.7,0.2 0.5,0 1.1,0 1.6,-0.2 0.3,-0.1 0.5,-0.2 0.7,-0.5 -0.2,0 -0.3,0 -0.5,0 -0.3,0 -0.6,0 -0.9,-0.1 -0.3,0 -0.7,-0.1 -1,-0.1 -0.3,0 -0.5,-0.1 -0.8,-0.2 -0.2,0 -0.3,-0.1 -0.5,-0.2 0,0 -0.1,0 -0.1,-0.1 -0.1,-0.1 -0.2,-0.2 0,-0.3 0.3,-0.3 0.6,-0.6 0.9,-0.8 0.2,-0.2 0.5,-0.4 0.7,-0.6 0.2,-0.2 0.5,-0.3 0.7,-0.5 0.4,-0.2 0.7,-0.5 1.1,-0.7 -0.2,0 -0.3,0 -0.5,0 -0.5,0.1 -1,0.1 -1.6,0 -0.2,0 -0.3,0 -0.5,-0.1 -0.3,-0.1 -0.6,-0.3 -0.8,-0.6 -0.4,-0.4 -0.7,-0.9 -1.1,-1.4 0,0 0,0 0,0 0,0.1 0,0.2 -0.1,0.3 -0.1,0.6 -0.1,1.1 -0.2,1.7 0,0.2 -0.1,0.4 -0.1,0.6 -0.1,0.2 -0.2,0.3 -0.4,0.3 -0.3,0 -0.7,0 -1,0 -0.7,0 -1.4,-0.1 -2.1,0 -0.5,0 -1,0.1 -1.4,0.2 -0.4,0.1 -0.8,0.2 -1.2,0.4 -0.3,0.1 -0.5,0.3 -0.7,0.5 0,0 -0.1,0.1 -0.1,0.2 0,0.1 0,0.1 0,0.2 0,0.2 -0.1,0.3 -0.3,0.4 -0.3,0.2 -0.7,0.1 -0.9,-0.2 -0.1,-0.1 -0.1,-0.2 -0.2,-0.3 -0.1,-0.1 -0.1,-0.2 0,-0.3 0.2,-0.2 0.4,-0.3 0.6,-0.3 0.1,0 0.2,0 0.2,0.1 0.1,0 0.2,0 0.3,-0.1 0.3,-0.2 0.5,-0.4 0.7,-0.7 0.1,-0.1 0,-0.2 -0.1,-0.3 -0.4,-0.2 -0.8,-0.3 -1.2,-0.3 -0.2,0 -0.4,0 -0.5,0.2 -0.2,0.1 -0.4,0.2 -0.7,0.1 -0.2,-0.1 -0.4,-0.3 -0.3,-0.6 0.1,-0.3 0.2,-0.5 0.4,-0.7 0.2,-0.1 0.4,-0.1 0.6,0 0.3,0.1 0.4,0.3 0.5,0.6 0,0.1 0,0.1 0.1,0.1 0.2,0 0.4,0 0.6,0 0.2,0 0.3,0.1 0.5,0 0.2,0 0.4,-0.1 0.6,-0.1 0,-0.3 -0.1,-0.6 -0.3,-0.7 -0.1,0 -0.2,0 -0.2,-0.1 -0.2,0 -0.4,0 -0.5,-0.1 -0.3,-0.1 -0.4,-0.3 -0.4,-0.5 0,-0.3 0.2,-0.5 0.5,-0.6 0.4,-0.1 0.8,0 1,0.4 0.1,0.1 0.1,0.2 0.1,0.3 0,0.1 0,0.2 0.1,0.3 0.2,0.3 0.5,0.5 0.9,0.7 0.1,0 0.1,0 0.2,0 0.1,-0.1 0.1,-0.3 0,-0.4 -0.1,-0.2 -0.2,-0.3 -0.1,-0.5 0.1,-0.2 0.2,-0.3 0.4,-0.3 0.2,0 0.4,0 0.6,0.1 0.2,0.1 0.2,0.3 0.2,0.5 0,0.2 -0.1,0.3 -0.3,0.4 -0.1,0.1 -0.3,0.1 -0.3,0.3 -0.1,0.2 0,0.4 0.2,0.5 0.4,0.1 0.8,0.1 1.1,0.1 0.5,0 1,-0.1 1.5,-0.2 0.1,0 0.1,-0.1 0.1,-0.2 0,-0.3 -0.1,-0.6 -0.1,-1 0,-0.3 -0.1,-0.7 -0.1,-1 0,-0.5 -0.2,-1 -0.3,-1.6 -0.1,-0.2 -0.1,-0.4 -0.2,-0.6 -0.2,-0.3 -0.5,-0.5 -0.9,-0.6 -0.4,0 -0.8,-0.1 -1.2,-0.2 -0.2,0 -0.5,-0.1 -0.7,-0.1 -0.3,-0.1 -0.6,-0.2 -0.8,-0.4 -0.2,-0.2 -0.3,-0.3 -0.3,-0.6 0,-0.3 0,-0.6 0,-0.9 0,-0.3 -0.1,-0.6 -0.2,-0.9 -0.3,-0.5 -0.4,-1.1 -0.2,-1.7 0.1,-0.3 0.3,-0.5 0.6,-0.6 0.3,-0.1 0.6,-0.2 0.9,-0.3 0.2,-0.1 0.4,-0.1 0.6,-0.2 0.3,-0.1 0.6,-0.2 0.9,-0.4 0.1,-0.1 0.3,-0.1 0.4,-0.2 0.5,-0.1 0.9,0 1.4,0.3 0.2,0.1 0.4,0.3 0.6,0.6 0.1,0.1 0.2,0.3 0.4,0.4 0.2,0.2 0.4,0.3 0.5,0.5 0.2,0.3 0.6,0.4 0.9,0.4 0.2,0 0.4,-0.1 0.6,-0.2 0.4,-0.2 0.8,-0.3 1.3,-0.5 0.3,-0.1 0.6,-0.3 0.9,-0.5 0.3,-0.1 0.5,-0.3 0.8,-0.4 0.3,-0.1 0.3,-0.1 0.1,-0.4 -0.2,-0.5 -0.5,-1 -0.8,-1.5 -0.2,-0.2 -0.3,-0.4 -0.5,-0.6 -0.1,-0.1 -0.2,-0.1 -0.4,-0.1 -0.1,0.1 -0.2,0.2 -0.2,0.4 0,0.1 0,0.2 0,0.3 0,0.3 -0.2,0.5 -0.5,0.5 -0.2,0 -0.3,-0.1 -0.4,-0.2 -0.1,-0.1 -0.2,-0.2 -0.2,-0.3 -0.2,-0.3 0,-0.7 0.4,-0.7 0.1,0 0.1,0 0.2,0 0.1,0 0.1,0 0.2,0 0.1,-0.1 0.1,-0.2 0.1,-0.3 0,0 0,-0.1 -0.1,-0.1 -0.4,-0.2 -0.7,-0.4 -1.2,-0.4 -0.1,0 -0.2,0 -0.2,0.1 -0.3,0.2 -0.5,0.2 -0.8,0 -0.2,-0.1 -0.3,-0.3 -0.4,-0.5 -0.1,-0.2 0,-0.5 0.2,-0.7 0.1,-0.1 0.4,-0.1 0.6,0 0.2,0.1 0.3,0.2 0.4,0.4 0.2,0.3 0.4,0.3 0.7,0.2 0.1,0 0.1,0 0.2,-0.1 0.2,-0.1 0.2,-0.1 0.1,-0.3 -0.1,-0.3 -0.2,-0.5 -0.4,-0.7 -0.1,-0.1 -0.2,-0.3 -0.4,-0.5 0,0 0,0 0,-0.1 -0.1,-0.1 -0.1,-0.2 -0.3,-0.1 -0.4,0.1 -0.7,0 -0.9,-0.3 -0.1,-0.1 -0.1,-0.3 -0.1,-0.5 0.1,-0.3 0.2,-0.5 0.4,-0.7 0.3,-0.2 0.7,0 0.8,0.3 0.1,0.2 0,0.4 0.1,0.5 0,0.1 0,0.1 0.1,0.2 0.3,0.4 0.6,0.7 1,0.9 0.1,0.1 0.2,0.1 0.3,-0.1 0.2,-0.3 0.3,-0.7 0.2,-1.1 0,-0.1 -0.1,-0.2 -0.2,-0.3 -0.1,-0.1 -0.2,-0.2 -0.2,-0.2 -0.1,-0.2 -0.1,-0.5 0,-0.6 0,-0.1 0.1,-0.1 0.2,-0.1 0.2,0 0.4,0 0.6,0.1 0.2,0.1 0.4,0.4 0.4,0.7 0,0.1 -0.1,0.2 -0.2,0.3 -0.2,0.1 -0.2,0.4 -0.2,0.6 0,0.6 0.2,1.2 0.4,1.8 0.2,0.4 0.3,0.7 0.5,1.1 0.2,0.4 0.5,0.8 0.7,1.2 0.3,0.4 0.6,0.8 0.9,1.2 0.1,0.1 0.2,0.3 0.3,0.5 0.1,0.2 0.1,0.3 -0.1,0.4 -0.3,0.2 -0.5,0.5 -0.8,0.7 -0.3,0.2 -0.6,0.5 -0.9,0.7 -0.1,0.1 -0.2,0.2 -0.4,0.4 0.1,0 0.2,0 0.3,0 0.6,0 1.1,0 1.7,0.2 0.1,0 0.2,0.1 0.3,0.1 0.5,0.2 0.9,0.5 1.3,0.9 0.2,0.2 0.4,0.4 0.5,0.6 0,0 0,0 0.1,0.1 0,-0.3 0,-0.6 0,-0.9 0,-0.4 0,-0.8 0.1,-1.3 0,-0.3 0.1,-0.6 0.1,-0.9 0,-0.2 0.1,-0.5 0.1,-0.7 0,-0.1 0.1,-0.1 0.2,-0.1 0.2,0 0.4,0.1 0.6,0.3 0.2,0.2 0.4,0.4 0.6,0.6 0.2,0.2 0.4,0.5 0.6,0.7 0.1,0.2 0.3,0.3 0.4,0.5 0.2,0.2 0.3,0.4 0.4,0.6 0.1,-0.2 0.1,-0.5 0.1,-0.7 -0.2,-0.7 -0.5,-1.3 -1,-1.9 -0.1,-0.1 -0.2,-0.2 -0.4,-0.2 -0.2,-0.1 -0.4,-0.1 -0.6,-0.1 -0.3,0 -0.6,-0.3 -0.6,-0.6 0,-0.2 0.2,-0.5 0.4,-0.5 0.2,-0.1 0.4,0 0.6,0.1 0.2,0.2 0.2,0.3 0.2,0.6 0.2,0.1 0.6,0.3 0.8,0.4 0,-0.1 0,-0.3 0,-0.4 0,-0.4 -0.1,-0.7 -0.2,-1 0,0 -0.1,-0.1 -0.1,-0.1 -0.1,0 -0.2,0 -0.3,-0.1 -0.2,-0.1 -0.3,-0.2 -0.3,-0.4 0,-0.1 0,-0.3 0,-0.4 0,-0.2 0.1,-0.3 0.2,-0.4 0.3,-0.2 0.6,-0.2 0.9,0 0.3,0.2 0.4,0.5 0.2,0.7 -0.3,0.3 -0.2,0.6 -0.1,0.9 0.1,0.3 0.2,0.5 0.4,0.7 0,0.1 0.1,0.1 0.1,0.2 0.1,-0.1 0.2,-0.2 0.3,-0.4 0.2,-0.3 0.3,-0.5 0.5,-0.8 0.1,-0.1 0.1,-0.2 0,-0.3 -0.1,-0.2 -0.2,-0.5 -0.1,-0.7 0.1,-0.3 0.2,-0.4 0.5,-0.4 0.2,0 0.4,0.1 0.5,0.2 0.2,0.2 0.3,0.3 0.4,0.6 0.1,0.2 0,0.4 -0.2,0.5 -0.1,0.1 -0.2,0.1 -0.4,0.1 -0.1,0 -0.2,0.1 -0.3,0.2 -0.3,0.5 -0.6,1.1 -0.8,1.7 -0.1,0.2 -0.1,0.4 -0.1,0.6 0,0.5 0.1,1 0.2,1.5 0.1,0.6 0.3,1.1 0.5,1.6 0.1,0.4 0.3,0.8 0.5,1.3 0.1,0.2 0.1,0.4 0,0.6 0,0.2 -0.3,0.3 -0.5,0.2 -0.4,-0.2 -0.7,-0.3 -1,-0.6 -0.3,-0.3 -0.6,-0.6 -0.9,-0.9 0.2,-0.4 0,-0.6 -0.4,-0.9 0.1,0.1 0.1,0.1 0,0 z"
   inkscape:connector-curvature="0" />
</g><g
     style="fill:#000000"
     id="g13503">
	<path
   style="fill:#000000"
   id="path13505"
   d="m 380.6,227.1 c 0,-0.3 0,-0.5 0,-0.8 0,0 0,0 0,-0.1 0.1,-0.7 0.3,-1.4 0.9,-1.9 0,0 0,-0.1 0,-0.1 -0.1,-0.3 0.1,-0.6 0.3,-0.7 0.3,-0.2 0.6,-0.3 0.9,-0.4 0.3,-0.1 0.7,-0.1 1.1,-0.2 0.4,0 0.7,0 1.1,0 0.2,0 0.4,0.1 0.7,0.1 1.2,0.2 2.1,0.7 2.8,1.6 0.7,0.9 1.3,1.8 2,2.7 0.1,0.1 0.1,0.2 0.2,0.2 0.6,0.3 1.1,0.8 1.5,1.4 1,1.5 1.3,3.2 1.4,4.9 0.1,1 0,2.1 -0.2,3.1 0,0.2 0,0.4 0.1,0.5 0.2,0.5 0.5,1 0.7,1.5 0.4,0.9 0.8,1.8 1.1,2.7 0.1,0.1 0,0.3 0.1,0.5 0,0 -0.1,0 -0.1,0 -0.1,-0.1 -0.3,-0.3 -0.4,-0.4 -0.1,-0.1 -0.3,-0.3 -0.4,-0.5 0.1,0.4 0.2,0.7 0.3,1 0,0.1 0,0.1 0,0.2 -0.1,0 -0.2,0 -0.2,0 -0.2,-0.1 -0.3,-0.2 -0.5,-0.4 1.3,2.3 2.8,4.4 3.6,6.9 0,0.1 0,0.2 0,0.3 -0.1,0.1 -0.3,0.1 -0.4,0 -0.1,-0.1 -0.2,-0.2 -0.3,-0.3 -0.3,-0.3 -0.5,-0.7 -0.8,-1 0,0.1 0,0.2 0.1,0.2 0.3,0.8 0.5,1.5 0.8,2.3 0.1,0.2 0,0.5 0,0.7 -0.1,0 -0.1,0 -0.2,0 -0.2,-0.2 -0.4,-0.3 -0.5,-0.5 -0.4,-0.7 -0.8,-1.4 -1.2,-2.1 -0.3,-0.6 -0.5,-1.2 -0.8,-1.8 0.2,0.6 0.4,1.2 0.6,1.8 0.2,0.6 0.3,1.1 0.4,1.7 0,0.1 0,0.3 -0.1,0.3 -0.1,0 -0.2,0 -0.3,-0.1 -0.2,-0.2 -0.4,-0.4 -0.6,-0.7 -0.1,-0.2 -0.2,-0.4 -0.3,-0.6 -0.1,0.3 -0.3,0.4 -0.5,0.2 -0.2,-0.2 -0.5,-0.3 -0.6,-0.6 -0.3,-0.6 -0.7,-1.2 -0.9,-1.9 -0.7,-2.1 -1.4,-4.3 -2.1,-6.4 -0.1,-0.2 -0.1,-0.4 -0.2,-0.7 -0.3,0.4 -0.8,0.4 -1.2,0.5 -0.4,0 -0.6,-0.1 -0.8,-0.4 0,-0.1 -0.1,-0.1 -0.2,-0.1 -0.3,0 -0.5,0 -0.8,-0.1 -0.1,0 -0.1,0 -0.2,0 -0.3,0.2 -0.6,0.4 -1,0.3 -0.2,0 -0.4,-0.1 -0.5,-0.3 0,-0.2 -0.1,-0.2 -0.3,-0.2 -1.2,-0.1 -2.3,-0.2 -3.5,-0.4 0,0 -0.1,0 -0.1,-0.1 -0.2,-0.3 -0.1,-0.5 -0.1,-0.8 0.1,-0.2 0.3,-0.2 0.4,-0.2 1,0.1 2,0.2 3,0.3 0.1,0 0.3,0 0.3,0 0.2,-0.3 0.5,-0.3 0.7,-0.4 0.2,-0.1 0.3,-0.2 0.3,-0.5 -0.1,-0.5 -0.1,-1 -0.2,-1.5 0,0 0,-0.1 -0.1,-0.1 -0.3,-0.3 -0.6,-0.7 -0.9,-1 -0.2,0.1 -0.4,0 -0.5,-0.1 -0.3,-0.3 -0.5,-0.5 -0.7,-0.9 -0.4,-0.6 -0.5,-1.3 -0.5,-2 -0.1,-1.2 0,-2.4 0.6,-3.6 0,0 0,-0.1 0,0 -0.3,-0.1 -0.6,-0.2 -1,-0.3 0,0 0,0 0,0.1 -0.1,0.3 -0.2,0.6 -0.2,0.9 0,0.2 -0.1,0.2 -0.3,0.1 -0.2,-0.2 -0.4,-0.4 -0.6,-0.6 -0.4,0 -0.6,-0.6 -0.7,-1.2 z"
   inkscape:connector-curvature="0" />
</g><g
     style="fill:#000000"
     id="g13507">
	<path
   style="fill:#000000"
   id="path13509"
   d="m 464.1,247.8 c 0.2,0.2 0.4,0.4 0.8,0.8 0.2,-0.6 0.5,-1 0.5,-1.4 -0.1,-1.1 -0.3,-2.2 -1.2,-3.1 -0.7,-0.6 -1.5,-0.7 -2.2,-0.1 -1,0.8 -1.4,2.5 -0.8,3.7 0.2,0.5 0.6,1 0.9,1.4 2.1,2.6 3.5,5.5 4.3,8.8 0.3,1.4 0.2,2.7 -0.5,3.9 -0.4,0.6 -0.2,1.3 0.4,1.6 1,0.5 1.2,1.5 1.6,2.3 0.7,1.4 1.3,2.8 1.9,4.1 0,0.1 0.2,0.2 0.3,0.3 1.5,1.6 3.1,3.1 4.6,4.8 1.2,1.3 0.5,3 -1.3,3.3 -1,0.2 -2.1,0 -3.2,-0.1 0.8,-0.4 1.6,-0.8 2.6,-1.4 -0.7,-0.4 -1.2,-0.6 -1.6,-0.9 -0.7,-0.5 -1.5,-1 -2.1,-1.6 -0.8,-0.7 -1.6,-1.5 -2.2,-2.3 -0.7,-1 -1.4,-2 -2,-3.1 -0.4,-0.8 -0.8,-0.8 -1.6,-0.5 -1.5,0.6 -2.8,1.6 -4.1,2.7 -0.2,0.1 -0.3,0.5 -0.3,0.7 0.1,1.7 0.3,3.4 0.5,5.1 0,0.5 0.1,0.9 0.1,1.4 -1.5,0 -2.9,0 -4.3,0 0,-0.1 0,-0.2 -0.1,-0.2 0.3,-0.2 0.7,-0.4 1,-0.4 0.5,-0.1 0.7,-0.3 0.5,-0.9 -0.4,-1.1 -0.8,-2.3 -1.2,-3.4 -0.2,1.1 -0.3,2.4 -0.5,3.6 -0.2,1.4 -0.3,1.4 -1.8,1.5 -0.8,0 -1.6,0 -2.3,0 0,0 -0.1,-0.1 -0.3,-0.2 0.5,-0.2 1,-0.3 1.4,-0.5 0.3,-0.1 0.6,-0.4 0.7,-0.6 0.1,-0.8 0,-1.6 0,-2.5 -0.1,-0.1 -0.2,-0.1 -0.3,-0.2 -0.9,1 -1.9,2 -2.8,3 -0.7,0.8 -1.5,1.2 -2.6,1.1 -0.6,-0.1 -1.2,0 -1.8,0 0,-0.1 -0.1,-0.2 -0.1,-0.3 0.4,-0.3 0.7,-0.7 1.1,-1 0.5,-0.4 1.2,-0.7 1.6,-1.2 1.2,-1.8 2.5,-3.6 3.5,-5.4 0.6,-1.1 0,-2.2 -0.7,-3.2 -0.4,-0.6 -0.8,-1.1 -1.2,-1.7 -0.9,-0.1 -2,-0.2 -3,-0.3 -0.2,0 -0.5,-0.2 -0.6,-0.4 -0.4,-0.8 -0.8,-1.7 -1,-2.5 -0.2,-1.2 0,-1.5 1.6,-2.1 0.8,-0.3 1.8,-0.2 2.6,-0.3 0.5,0 1.1,0 1.6,-0.1 1.8,-0.3 3.5,-0.8 5.3,-0.9 1.8,-0.1 3.7,0.2 5.5,0.4 1.5,0.2 1.9,0 1.7,-1.6 -0.3,-2.6 -1.5,-4.9 -2.9,-7 -0.9,-1.3 -1.7,-2.7 -1.6,-4.3 0.1,-1.8 1.4,-3.6 3.2,-4.2 2,-0.6 4.1,0.4 4.7,2.5 0.2,0.9 0.3,1.8 0.3,2.7 0,0.9 -0.6,1.5 -1.5,1.7 -0.3,0.1 -0.8,-0.1 -1.1,-0.3 -0.2,-0.2 0,-0.7 0,-1 -0.2,-0.2 -0.1,-0.2 0,-0.2 z M 455,267 c 0.1,1.2 0.2,2.3 0.3,3.2 0.4,-0.9 0.8,-2 1.2,-3 -0.5,0 -0.9,-0.1 -1.5,-0.2 z"
   inkscape:connector-curvature="0" />
</g><g
     style="fill:#000000"
     id="g13511">
	<path
   style="fill:#000000"
   id="path13513"
   d="m 477.4,213.8 c 0,0.4 0.1,0.9 0.1,1.3 0,0.5 0,1 0.1,1.4 0.1,1.2 0.3,2.5 1,3.5 0.1,0.1 0.2,0.3 0.2,0.4 -0.1,1.3 -0.1,2.6 -0.2,3.9 -0.1,0.9 -0.5,1.1 -1.4,0.9 -0.2,0 -0.4,0 -0.7,0 -0.3,0 -0.6,0 -0.8,-0.1 -0.2,-0.1 -0.3,-0.5 -0.2,-0.6 0.2,-0.3 0.5,-0.6 0.7,-0.6 0.5,0 0.6,-0.3 0.7,-0.6 0.3,-1.1 -0.1,-2 -1,-2.7 -0.3,-0.3 -0.6,-0.6 -0.9,-1 -0.5,-0.5 -0.9,-1.1 -1.3,-1.6 -0.6,-0.6 -1.5,-0.6 -2,0.2 -0.5,0.7 -1,1.5 -0.8,2.4 0.2,1.7 -0.7,2.8 -1.7,3.9 -0.1,0.2 -0.3,0.4 -0.4,0.5 -0.2,0.2 -0.5,0.6 -0.7,0.6 -0.7,0.1 -1.4,0.1 -2.1,0 -0.5,-0.1 -0.6,-0.5 -0.3,-0.9 0.3,-0.4 0.8,-0.5 1.3,-0.5 0.3,0 0.7,-0.2 0.8,-0.4 0.8,-1.2 1,-2.4 0.6,-3.8 0,-0.1 -0.1,-0.2 -0.1,-0.3 -0.1,-0.9 -0.1,-0.9 -1,-0.9 -1.3,0 -2.6,0 -4,-0.1 -0.5,0 -0.9,-0.2 -1.4,-0.3 -0.4,-0.1 -0.9,-0.2 -1.3,-0.3 -0.4,-0.1 -0.5,0.2 -0.6,0.6 -0.1,0.7 -0.1,1.3 -0.2,2 -0.2,1.2 -0.4,2.4 -0.6,3.6 -0.1,0.4 0,0.8 0,1.1 0.1,0.6 -0.1,1 -0.7,1.2 -0.3,0.1 -0.5,0.2 -0.7,0.4 -0.1,0.1 -0.3,0.1 -0.4,0.1 -0.7,0 -1.4,0.1 -2.1,0 -0.2,0 -0.5,-0.3 -0.6,-0.5 -0.1,-0.2 0.2,-0.5 0.4,-0.6 0.3,-0.3 0.7,-0.5 1.1,-0.7 0.2,-0.1 0.3,-0.4 0.3,-0.5 0.1,-1.5 0.1,-3.1 0.2,-4.6 0.1,-1.3 -0.5,-2.4 -1,-3.5 -0.3,-0.6 -0.6,-1.1 -1,-1.7 -0.3,-0.4 -0.5,-0.8 -0.9,-1.1 -0.4,-0.4 -0.6,-0.9 -0.7,-1.5 -0.5,-1.7 -1.3,-3.2 -3.1,-4 -0.4,-0.2 -0.8,-0.3 -1.3,-0.1 -0.3,0.1 -0.6,0.1 -0.9,0.1 -0.4,0 -0.6,-0.1 -0.7,-0.6 -0.1,-0.6 -0.3,-1.1 -0.5,-1.6 -0.1,-0.4 -0.1,-0.7 0.2,-0.9 1.3,-0.8 2.2,-2 3.7,-2.4 0.2,-0.1 0.4,-0.3 0.6,-0.4 0.2,-0.2 0.8,-0.1 1.1,0.1 0.2,0.1 0.4,0.2 0.6,0.2 1,0.2 1.9,0.7 2.6,1.3 0.8,0.7 1.6,1.5 2.4,2.3 1.3,1.3 2.9,1.9 4.7,1.8 0.8,0 1.5,-0.2 2.3,-0.4 1,-0.2 2.1,-0.4 3.1,-0.6 0.4,-0.1 0.9,-0.2 1.3,-0.3 2.3,-0.8 4.6,-0.8 6.6,0.8 0.9,0.7 1.4,1.7 2.1,2.6 0.5,0.7 0.9,1.6 1.3,2.3 0.6,1 1.7,1.5 2.6,2.1 1.7,1 3.6,1.6 5.6,1.8 1,0.1 2,0.2 3,0.3 0.7,0.1 1.3,0.1 1.6,-0.7 0,-0.1 0.3,-0.2 0.4,-0.3 0.1,0.2 0.2,0.3 0.2,0.5 0,0.6 -0.4,1.3 -1.1,1.5 -0.7,0.2 -1.4,0.3 -2.1,0.3 -1.4,-0.1 -2.9,-0.2 -4.3,-0.4 -1.1,-0.2 -2.2,-0.5 -3.2,-0.9 -0.8,-0.3 -1.6,-0.7 -2.4,-1.1 -0.9,-0.5 -1.5,-1.3 -2.1,-2 -0.1,-0.1 -0.2,-0.2 -0.3,-0.4 0.4,0.4 0.4,0.5 0.3,0.5 z"
   inkscape:connector-curvature="0" />
</g><g
     style="fill:#000000"
     id="g13515">
	<path
   style="fill:#000000"
   id="path13517"
   d="m 370.5,215.7 c 1.9,-1.9 3.8,-3.8 5.7,-5.7 0,0 0,0 0,-0.1 -1.3,0.8 -2.6,1.5 -3.8,2.3 2.1,-1.9 4.7,-3.2 6.9,-5 0,0 0,-0.1 0,-0.1 -0.4,0.1 -0.8,0.1 -1.3,0.2 -1,0.2 -1.9,0.5 -2.9,0.8 -0.1,0 -0.3,0 -0.4,0 1.9,-0.4 3.7,-1.1 5.4,-2 -0.8,0.1 -1.5,0.2 -2.3,0.4 0,0 0,-0.1 0,-0.1 0.1,0 0.2,-0.1 0.3,-0.1 0.8,-0.2 1.6,-0.4 2.4,-0.6 0.3,-0.1 0.6,-0.4 0.9,-0.6 0.2,-0.1 0.5,-0.2 0.8,-0.3 0.1,-0.1 0.3,-0.1 0.4,-0.2 0.4,-0.4 0.7,-0.8 1.1,-1.2 0.1,-0.1 0.1,-0.2 0.1,-0.4 -0.8,-0.4 -0.8,-0.4 -0.6,-1.4 -0.2,0.1 -0.4,0.2 -0.6,0.3 -0.1,0 -0.3,0 -0.3,-0.1 -0.1,-0.1 -0.2,-0.3 -0.2,-0.5 0,-0.1 0.1,-0.2 0.1,-0.2 0.1,-0.1 0.3,-0.1 0.4,-0.2 0,0 0,-0.1 0,-0.1 -0.3,0.1 -0.6,0.1 -0.9,0.2 -0.3,-0.5 0.4,-0.8 0.4,-1.3 -0.4,0 -0.3,-0.4 -0.3,-0.7 -0.5,0 -0.4,-0.3 -0.3,-0.6 0.1,-0.2 0.2,-0.4 -0.1,-0.6 -0.1,0 0,-0.2 0,-0.3 0,-0.1 0.1,-0.3 -0.2,-0.4 0,0 0,-0.2 0,-0.3 0,-0.2 0,-0.5 0,-0.7 0,-0.1 -0.1,-0.2 0,-0.3 0.1,-0.4 0.1,-0.8 0,-1.2 0,-0.3 -0.1,-0.5 -0.2,-0.7 -0.1,-0.2 -0.1,-0.4 -0.1,-0.6 0.2,-0.6 0.2,-1.2 0,-1.9 -0.3,-0.7 -0.2,-0.8 0.6,-0.7 -0.2,-0.4 -0.4,-0.8 -0.6,-1.1 0,0 0.1,-0.1 0.1,-0.1 0.5,0.2 1,0.5 1.5,0.7 -0.7,-0.9 -1.3,-1.9 -1.8,-2.9 0,0 0.1,-0.1 0.1,-0.1 0.6,0.4 1.2,0.9 1.8,1.3 -0.3,-0.6 -0.5,-1.1 -0.7,-1.6 0,0 0.1,-0.1 0.1,-0.1 1.2,0.6 1.8,1.8 2.8,2.6 0,0 0.1,0 0.1,-0.1 -0.5,-0.8 -1.1,-1.6 -1.6,-2.4 0,0 0.1,-0.1 0.1,-0.1 0.1,0 0.3,0 0.4,0.1 0.3,0.2 0.5,0.4 0.8,0.7 0.7,0.8 1.3,1.6 2,2.4 0.6,0.7 1.2,1.3 1.9,2 0,-0.2 0.1,-0.4 0.1,-0.5 0.1,-0.1 0.2,-0.2 0.4,-0.4 0,-0.1 0,-0.4 0,-0.7 0,-0.2 0.1,-0.3 0.2,-0.5 0.1,0.1 0.3,0.1 0.4,0.2 0.2,0.2 0.4,0.5 0.6,0.7 -0.1,-0.9 -0.4,-1.7 0.1,-2.5 0,0 0.1,0 0.1,0 0.1,0.2 0.2,0.3 0.2,0.5 0.2,1 0.7,1.8 1.5,2.5 0.3,0.3 0.7,0.4 1.1,0.5 -0.2,-1.2 -0.4,-2.4 -0.5,-3.7 0.4,0 0.5,0.3 0.6,0.5 0.3,0.5 0.5,1.1 0.7,1.6 0.1,0.3 0.3,0.7 0.4,1 0,0 0.1,0 0.1,0 0,-0.1 0,-0.3 0,-0.4 0,-0.8 -0.1,-1.6 -0.1,-2.4 0,-0.1 0.1,-0.3 0.2,-0.4 0.1,0.1 0.3,0.2 0.3,0.4 0.2,1 0.4,2 0.5,3 0.1,0.9 0,1.8 -0.1,2.6 0,0.2 -0.2,0.4 -0.3,0.6 -0.2,0.3 -0.1,0.5 0.2,0.7 0.3,0.2 0.5,0.5 0.3,0.8 -0.2,0.3 -0.4,0.7 -0.6,0.9 -0.4,0.3 -0.8,0.7 -0.9,1.2 -0.2,0.7 -0.5,1.4 -0.5,2.3 0.5,0 0.9,0 1.3,0 0.6,0 1.1,-0.1 1.7,0 0.5,0.1 1,0.3 1.4,0.5 0.8,0.5 0.9,2.2 0.2,2.9 -0.1,0.1 -0.2,0.1 -0.4,0.3 0.3,-0.8 0.3,-0.8 -0.4,-1.4 0.1,0.3 -0.3,0.7 0.2,0.9 -0.4,0.3 -0.9,0.2 -1.3,0.1 -0.5,-0.1 -1,-0.3 -1.5,-0.1 0,0 -0.1,0 -0.1,0 -0.6,-0.3 -1.1,-0.1 -1.7,0.1 -0.5,0.2 -0.9,0.4 -1.3,0.7 -1,0.6 -2,0.7 -3.1,0.7 -0.5,0 -1,-0.1 -1.5,-0.1 0,0.6 0,1.1 0,1.7 -0.1,0 -0.2,0 -0.3,0 0.1,0.7 -0.2,1.1 -0.6,1.6 -0.1,0.1 -0.3,0.2 -0.4,0.2 -0.1,0 -0.3,-0.2 -0.2,-0.4 0,-0.2 0.1,-0.5 0.2,-0.7 0,-0.1 0.1,-0.2 0.2,-0.3 -0.3,-0.1 -0.4,0 -0.5,0.2 -0.4,0.8 -0.8,1.5 -1.5,2.1 -0.3,0.2 -0.6,0.4 -1,0.6 -0.1,0 -0.2,0 -0.4,0 0,-0.1 0.1,-0.2 0.1,-0.3 0.1,-0.2 0.2,-0.4 0.4,-0.7 0,0 -0.1,0 -0.1,-0.1 -0.2,0.2 -0.5,0.4 -0.7,0.7 -0.7,0.6 -1.4,1.2 -2,1.7 -0.2,0.2 -0.5,0.3 -0.8,0.2 -0.1,0 -0.2,0.1 -0.3,0.1 -0.8,0.7 -1.6,1.4 -2.4,2.1 -0.2,0.2 -0.5,0.4 -0.8,0.6 0,0 -0.1,-0.1 -0.1,-0.1 0.5,-0.8 1.3,-1.5 1.9,-2.2 0,0 -0.1,-0.1 -0.1,-0.1 -0.9,0.8 -1.9,1.7 -2.8,2.5 -1,0.8 -2,1.5 -3.1,2.2 0.4,-0.8 1.2,-1.2 1.9,-1.8 0.6,-0.6 1.3,-1.3 1.9,-1.9 0.6,-0.6 1.2,-1.3 1.8,-2 0.6,-0.6 1.2,-1.3 1.9,-1.9 0,0 -0.1,-0.1 -0.1,-0.1 -3.1,2.1 -5.8,4.4 -8.6,6.7 0,0.1 0,0.1 0,0 z"
   inkscape:connector-curvature="0" />
</g><g
     style="fill:#000000"
     id="g13519">
	<path
   style="fill:#000000"
   id="path13521"
   d="m 475.4,261.7 c 0.2,-0.1 0.4,-0.1 0.6,-0.2 0.3,0 0.7,0 1,0 1,0 1.4,-0.4 1.8,-1.3 0.6,-1.6 1.2,-3.3 1.8,-4.9 0.3,-0.8 0.5,-1.6 0.4,-2.4 0,-0.2 0,-0.4 0,-0.6 0.2,-1.2 -0.1,-2.3 -0.5,-3.3 -0.3,-0.8 -0.9,-1.6 -1.8,-2 -0.1,-0.1 -0.3,-0.2 -0.4,-0.3 -0.5,-0.6 -1.1,-0.8 -1.8,-0.9 -0.2,0 -0.3,-0.1 -0.5,-0.1 -1.1,-0.4 -2.2,-0.4 -3.3,0.2 -0.3,0.2 -0.7,0.2 -1.1,0.3 -1,0.1 -1.8,-0.3 -2.3,-1.2 -0.8,-1.6 -0.8,-3.4 0.9,-4.6 0.8,-0.6 1.7,-1.2 2.5,-1.8 0.8,-0.6 1.4,-1.2 1.7,-2.2 0.2,-0.7 0.1,-1.3 -0.6,-1.8 -0.2,-0.1 -0.5,-0.2 -0.7,-0.1 -0.5,0 -1,0.2 -1.5,0.2 -0.7,0.1 -1.2,0.3 -1.6,0.9 -0.3,0.4 -0.6,0.8 -0.9,1.1 -0.1,0.1 -0.3,0.2 -0.4,0.3 -0.7,-1.2 -0.3,-2.8 0.9,-3.5 0.4,-0.2 0.7,-0.5 1,-0.8 1.1,-1.1 2.6,-1.1 3.7,0.1 1,1.1 1.6,2.3 1.3,3.8 -0.1,0.6 -0.4,1.2 -0.6,1.6 0.5,-0.2 1.1,-0.5 1.7,-0.5 1.6,-0.2 3.1,0.3 4.3,1.2 0.8,0.6 1.6,1.3 2.3,2.1 0.9,0.9 1.8,1.7 2.8,2.3 0.7,0.4 1.4,0.9 2.1,1.3 0.9,0.5 1.1,1.5 1.6,2.3 0,0 -0.1,0.1 -0.1,0.1 -0.3,-0.2 -0.6,-0.3 -0.9,-0.5 0,0.1 0,0.2 -0.1,0.5 -0.2,-0.1 -0.3,-0.2 -0.4,-0.3 -0.5,-0.4 -0.9,-0.8 -1.4,-1.1 -0.2,-0.1 -0.4,-0.5 -0.8,-0.1 0,0 -0.2,0 -0.2,0 -1.3,-0.5 -2.7,-0.4 -4,-0.2 -0.6,0.1 -1.1,0.4 -1.1,1.1 0,0.4 -0.1,0.7 -0.1,1.1 0,0.7 0.3,1.3 0.8,1.8 0.7,0.8 1.4,1.7 2,2.6 0.3,0.4 0.3,0.7 0.2,1.2 -0.7,2.4 -1.3,4.9 -2,7.3 0,0.1 0,0.2 0,0.3 0.2,1.3 -0.6,1.9 -1.8,1.6 -0.4,-0.1 -0.9,-0.2 -1.4,0.1 -0.4,0.2 -0.9,0.2 -1.4,0.2 -0.3,0 -0.5,-0.1 -0.8,-0.1 -0.5,0.1 -0.7,-0.3 -1,-0.4 0.1,-0.3 0.1,-0.3 0.1,-0.4 z m 6.1,-11.5 c 0,0 -0.1,0 -0.1,0.1 0.2,0.5 0.3,1.1 0.6,1.6 0.2,0.5 0.2,1 -0.1,1.5 -0.1,0.2 -0.2,0.3 -0.3,0.5 -0.8,2.3 -1.6,4.6 -2.3,6.9 0,0.1 -0.1,0.4 0,0.4 0.1,0.1 0.3,0.1 0.5,0 0.8,-0.3 1.3,-0.8 1.5,-1.6 0.3,-1 0.6,-2 0.9,-3 0.4,-1.4 0.7,-2.9 0.5,-4.4 0,-0.1 0,-0.2 0,-0.3 -0.4,-0.5 -0.8,-1.1 -1.2,-1.7 z m -8.1,-10.5 c -1,0.6 -1.8,1.2 -2.5,2.1 -0.2,0.3 -0.4,0.6 -0.4,0.9 0,0.4 0.1,0.8 0.4,1 0.1,0.1 0.6,0 0.9,-0.2 0.5,-0.3 0.7,-0.8 0.7,-1.4 0,-0.8 0.2,-1.4 0.6,-2.1 0.1,0 0.2,-0.1 0.3,-0.3 z"
   inkscape:connector-curvature="0" />
</g><g
     style="fill:#000000"
     id="g13523">
	<path
   style="fill:#000000"
   id="path13525"
   d="m 501.7,256.7 c -0.2,0.2 -0.4,0.2 -0.5,0.3 -0.2,0.2 -0.5,0 -0.6,-0.3 -0.4,-0.9 -0.9,-1.8 -1.3,-2.7 0,-0.1 -0.1,-0.1 -0.2,-0.3 0,0.4 -0.1,0.7 -0.1,1 0,2.6 -0.1,5.1 -0.1,7.7 -0.1,3.7 -0.2,7.5 -0.3,11.2 0,0.2 -0.1,0.5 -0.2,0.7 -0.1,0 -0.1,0 -0.2,0 -0.1,-0.5 -0.1,-1 -0.2,-1.5 -0.5,-4.6 -0.9,-9.3 -1.4,-13.9 -0.3,-2.9 -0.7,-5.7 -1,-8.6 0,-0.2 -0.1,-0.4 -0.1,-0.6 -0.1,-0.3 -0.2,-0.5 -0.6,-0.4 -0.3,0.1 -0.4,-0.1 -0.5,-0.4 0,-0.2 -0.2,-0.3 -0.2,-0.5 -0.3,-0.5 -0.5,-0.9 -0.8,-1.4 -0.1,-0.2 -0.2,-0.5 -0.6,-0.4 -0.1,0 -0.4,-0.2 -0.4,-0.3 -0.4,-0.8 -0.8,-1.7 -1.1,-2.5 -0.1,-0.3 -0.3,-0.6 -0.4,-0.9 -0.4,-0.8 -0.6,-1.7 -0.4,-2.7 0.1,-0.5 0.1,-1 -0.1,-1.5 -0.1,-0.4 -0.2,-0.7 -0.3,-1.1 0,-0.1 -0.1,-0.2 -0.2,-0.2 -0.3,-0.1 -0.6,-0.1 -0.9,-0.2 0,0.3 -0.1,0.5 -0.1,0.9 -0.2,-0.2 -0.3,-0.2 -0.4,-0.4 -0.5,-0.8 -0.7,-1.7 -0.3,-2.7 0.1,-0.2 0.1,-0.5 0.1,-0.7 -0.1,-0.5 0.1,-0.8 0.5,-0.9 1.1,-0.2 2.1,-0.3 3.2,0.1 0.5,0.2 0.9,0.6 1.3,1 0.7,0.7 1.3,1.4 1.9,2.2 0.5,0.6 1.1,1.1 1.3,1.8 0.4,1.4 1.4,2.4 1.9,3.7 0.2,0.6 0.4,1.3 0.6,1.9 0.3,1.2 0.6,2.3 0.8,3.5 0.2,0.8 0.2,1.7 0.3,2.6 0,0.3 0.1,0.6 0.2,1 0.4,1.4 0.9,2.7 1.3,4.1 0.1,0.5 0.1,1.1 0.1,1.4 z"
   inkscape:connector-curvature="0" />
</g><g
     style="fill:#000000"
     id="g13527">
	<path
   style="fill:#000000"
   id="path13529"
   d="m 423.7,179.2 c 0.2,0 0.4,-0.1 0.6,-0.1 0.2,-0.1 0.5,-0.1 0.7,-0.3 0.1,-0.1 0.1,-0.1 0.1,-0.2 0,-0.1 0.1,-0.1 0.2,-0.1 0.4,-0.1 0.8,0 1.2,0.1 0.2,0.1 0.4,0.1 0.6,0.1 0.2,0 0.3,-0.1 0.3,-0.3 0.1,-0.5 -0.2,-0.8 -0.7,-0.7 -0.4,0.1 -0.7,0.1 -1.1,0.1 -0.2,0 -0.4,0 -0.5,0 0,0 0,0 -0.1,0 0.3,-0.2 0.5,-0.3 0.8,-0.3 0.2,0 0.3,0 0.5,-0.1 0.3,-0.1 0.4,-0.5 0.1,-0.8 -0.1,-0.1 -0.2,-0.1 -0.2,-0.1 -0.2,0 -0.4,0.1 -0.5,0.3 -0.1,0.1 -0.2,0.2 -0.4,0.3 -0.2,0.1 -0.3,0.2 -0.6,0.2 0,-0.2 0,-0.3 0,-0.4 0.1,-0.4 0.1,-0.8 0.3,-1.2 0.1,-0.1 0,-0.3 0,-0.5 0,-0.2 -0.1,-0.3 -0.3,-0.3 0,0 0,0 0,0 -0.4,0 -0.6,0.1 -0.6,0.5 0,0.2 0,0.3 0.1,0.5 0.1,0.4 0.1,0.8 0,1.1 -0.1,0.2 -0.2,0.2 -0.3,0.1 -0.1,-0.1 -0.2,-0.1 -0.3,-0.2 -0.2,-0.3 -0.4,-0.5 -0.6,-0.8 -0.1,-0.2 -0.2,-0.3 -0.4,-0.5 -0.2,-0.2 -0.3,-0.2 -0.5,0 0,0 -0.1,0.1 -0.1,0.1 -0.2,0.3 -0.2,0.4 0.1,0.6 0.3,0.2 0.5,0.4 0.8,0.6 0.1,0.1 0.2,0.2 0.4,0.3 0,0 0,0.1 0,0.2 0,0.1 -0.1,0.1 -0.2,0.1 -0.2,0 -0.4,-0.1 -0.6,-0.1 -0.2,0 -0.4,-0.1 -0.6,-0.1 -0.2,0 -0.4,0.1 -0.4,0.3 0,0.1 0,0.1 0,0.2 0,0.2 0.1,0.3 0.3,0.3 0.3,0 0.6,0 0.9,-0.1 0.2,0 0.3,0 0.5,0.1 0,0 0,0 0,0.1 0,0 -0.1,0 -0.1,0 -0.1,-0.1 -0.2,0 -0.3,0.1 0,0 -0.1,0 -0.2,0 0,0 -0.1,0 -0.1,0 -0.2,0.1 -0.4,0.2 -0.7,0.2 -0.3,0 -0.4,0.1 -0.4,0.4 0,0.1 0,0.2 -0.1,0.2 -0.1,0.1 -0.2,0.1 -0.4,0.1 -0.1,0 -0.2,0 -0.2,-0.1 -0.7,-0.3 -1.4,-0.4 -2.1,-0.3 -0.7,0 -1.4,0.3 -2.1,0.6 -0.6,0.3 -1.1,0.7 -1.5,1.3 0,0.1 -0.1,0.1 -0.1,0.2 -0.1,0.1 -0.2,0.3 -0.4,0.4 -0.1,0.1 -0.2,0.2 -0.3,0.2 -0.2,0 -0.5,0.1 -0.7,0.2 -0.1,-0.2 -0.3,-0.3 -0.4,-0.5 -0.2,-0.1 -0.3,-0.3 -0.6,-0.3 -0.1,0 -0.3,-0.1 -0.4,-0.1 -0.1,0 -0.2,0 -0.4,0 -0.1,0 -0.2,0 -0.2,0 -0.1,0 -0.2,-0.1 -0.3,-0.1 0,-0.4 0.1,-0.7 0.4,-0.9 0.1,-0.1 0.2,-0.2 0.3,-0.3 0.1,-0.1 0.1,-0.2 0,-0.3 -0.1,-0.1 -0.2,-0.2 -0.3,-0.3 -0.1,-0.1 -0.3,-0.1 -0.4,0 -0.2,0.1 -0.3,0.3 -0.3,0.5 -0.1,0.3 -0.2,0.6 -0.3,0.9 0,0 0,0.1 0,0.1 -0.1,0.1 -0.2,0.1 -0.3,0 -0.1,-0.1 -0.1,-0.3 -0.2,-0.5 -0.1,-0.2 -0.1,-0.4 -0.2,-0.6 0,-0.1 -0.1,-0.2 -0.1,-0.3 -0.1,-0.1 -0.2,-0.2 -0.3,-0.1 0,0 -0.1,0 -0.1,0 -0.1,0 -0.1,0 -0.1,0.1 0,0 0,0 0,0 -0.2,0.2 -0.3,0.4 -0.2,0.7 0.1,0.1 0.2,0.3 0.3,0.4 0.2,0.1 0.3,0.3 0.3,0.5 0,0.1 0.1,0.2 0.1,0.3 0,0.1 0,0.2 -0.1,0.2 -0.1,0 -0.2,0 -0.3,0 -0.2,-0.1 -0.4,-0.1 -0.6,-0.2 -0.2,-0.1 -0.4,-0.1 -0.6,0 -0.1,0 -0.1,0.1 -0.2,0.2 0,0.1 -0.1,0.1 -0.1,0.2 0,0 0,0 0,0.1 0.1,0.1 0.1,0.2 0.2,0.3 0.1,0.1 0.2,0.1 0.3,0.1 0.3,0 0.5,-0.1 0.8,-0.1 0.1,0 0.3,0 0.4,0.1 0.1,0 0.1,0.1 0.1,0.2 -0.1,0.1 -0.2,0.2 -0.2,0.3 -0.1,0.1 -0.3,0.1 -0.4,0.2 -0.1,0.1 -0.2,0.1 -0.3,0.2 -0.2,0.2 -0.1,0.4 0,0.6 0.3,0.2 0.6,0.2 0.8,-0.1 0.1,-0.1 0.1,-0.2 0.1,-0.3 0.1,-0.2 0.2,-0.3 0.4,-0.5 0.1,-0.1 0.3,0.1 0.3,0.2 0,0.1 0,0.2 0,0.4 0,0.2 0,0.4 0.1,0.5 0.1,0.2 0.2,0.3 0.4,0.2 0.2,0 0.3,-0.1 0.3,-0.3 0,-0.2 -0.1,-0.4 -0.2,-0.6 0,-0.1 -0.1,-0.2 -0.1,-0.3 0,-0.1 0,-0.2 0.1,-0.2 0,0 0.1,0 0.2,0 0.1,0 0.3,0.1 0.4,0.1 0,0.1 0,0.2 -0.1,0.3 -0.1,0.2 -0.1,0.3 0,0.5 0.1,0.2 0,0.5 0,0.7 0,0.2 0,0.3 0,0.5 0,0.2 0.1,0.4 0.1,0.5 0,0.1 -0.1,0.2 -0.1,0.2 -0.2,0.3 -0.4,0.5 -0.6,0.8 0,0 -0.1,0.1 -0.1,0.1 -0.1,0 -0.1,0.1 -0.2,0.1 -0.1,0.1 -0.3,0.2 -0.5,0.3 -0.3,0 -0.5,0.3 -0.6,0.5 0,0.1 -0.1,0.1 -0.1,0.2 -0.1,0.3 -0.2,0.6 -0.1,0.9 0,0.2 0,0.4 0,0.6 0,0.4 0,0.8 0,1.2 0,0.2 0,0.3 -0.1,0.4 -0.3,0.4 -0.3,0.9 -0.2,1.3 0,0.1 0.1,0.2 0.2,0.3 0,0 0.1,0.1 0.1,0.1 0,0.2 0,0.3 0.1,0.5 0,0.1 0.1,0.1 0.2,0.2 0.1,0 0.2,0 0.4,0.1 0.1,0 0.2,0 0.3,0 0.1,0 0.1,0 0.2,0 0.2,-0.1 0.3,-0.1 0.4,-0.2 0.1,-0.1 0.3,-0.2 0.5,-0.3 0.3,-0.2 0.6,-0.4 0.8,-0.7 0.1,-0.1 0.2,-0.2 0.3,-0.2 0.4,-0.2 0.9,-0.4 1.4,-0.6 0.1,0 0.2,-0.1 0.3,-0.1 0.2,0 0.3,-0.1 0.4,-0.2 0.2,-0.2 0.3,-0.4 0.3,-0.6 0,-0.1 0,-0.1 0.1,-0.2 0.1,-0.2 0.2,-0.4 0.2,-0.6 0,-0.4 0,-0.8 0,-1.3 0,-0.1 0.1,-0.2 0.1,-0.4 0,-0.1 0,-0.1 0.1,-0.2 0,-0.1 0.1,-0.1 0.2,-0.1 0.1,0 0.2,0.1 0.3,0.1 0.4,0.2 0.8,0.1 1.2,0 0,0 0.1,0 0.1,0 0,0.3 -0.1,0.6 0,1 0,0.3 0.1,0.5 0.1,0.8 0,0.3 -0.1,0.4 -0.3,0.4 -0.1,0 -0.2,0 -0.3,-0.1 -0.2,0 -0.4,-0.1 -0.5,-0.1 -0.2,0 -0.3,0.1 -0.3,0.3 0,0.3 0,0.4 0.2,0.4 0.2,0 0.4,0 0.6,0 0.2,0 0.4,0 0.6,0 0,0.1 -0.1,0.2 -0.2,0.3 -0.1,0.1 -0.3,0.2 -0.4,0.3 -0.1,0.1 -0.2,0.1 -0.3,0.2 -0.1,0.1 -0.1,0.2 0,0.4 0.2,0.3 0.6,0.2 0.8,0 0.1,-0.1 0.1,-0.3 0.2,-0.4 0.1,-0.1 0.2,-0.2 0.3,-0.3 0.1,-0.1 0.2,-0.1 0.2,0.1 0.1,0.3 0.1,0.6 0,0.9 0,0.1 -0.1,0.2 -0.1,0.3 0,0.3 0.4,0.5 0.6,0.4 0.1,0 0.1,-0.1 0.2,-0.2 0.1,-0.3 0,-0.6 -0.1,-0.8 0,-0.1 -0.1,-0.2 -0.1,-0.3 0,0 0,-0.1 0,-0.1 0,-0.1 0,-0.3 0,-0.3 0.1,0 0.2,0.1 0.3,0.1 0.3,0.3 0.5,0.6 0.7,0.9 0.1,0.1 0.2,0.2 0.3,0.1 0.3,-0.1 0.5,-0.4 0.2,-0.7 -0.1,-0.1 -0.2,-0.2 -0.4,-0.2 -0.2,-0.1 -0.4,-0.2 -0.5,-0.3 -0.1,0 -0.1,-0.1 -0.2,-0.2 -0.1,-0.1 0,-0.4 0.2,-0.5 0.2,0 0.4,0 0.6,0 0,0 0,0 0.1,0 0.1,0 0.3,0.1 0.4,-0.1 0.1,-0.1 0.1,-0.3 0.1,-0.4 0,-0.2 -0.2,-0.2 -0.4,-0.2 -0.1,0 -0.1,0 -0.2,0.1 -0.2,0 -0.3,0.1 -0.5,0.1 -0.1,0 -0.1,0 -0.2,0 -0.2,0.1 -0.4,-0.1 -0.4,-0.3 0,0 0,0 0,-0.1 -0.1,-0.1 0,-0.2 0.1,-0.3 -0.1,-0.1 -0.1,-0.2 0,-0.3 0,0 0,-0.1 0,-0.2 0,-0.1 0,-0.1 0,-0.2 0,-0.1 0,-0.1 0,-0.2 0,-0.1 -0.1,-0.1 0,-0.2 0,0 0,0 0,0 0,-0.2 -0.1,-0.3 -0.1,-0.5 0,-0.1 -0.1,-0.1 -0.1,-0.2 -0.1,-0.1 -0.2,-0.2 -0.3,-0.2 -0.1,-0.1 -0.2,-0.1 -0.2,-0.1 -0.1,-0.1 -0.3,-0.1 -0.5,-0.1 0,-0.1 0.1,-0.2 0.2,-0.2 0.2,0 0.4,0 0.5,0 0.6,0 1.1,0 1.7,0 0.4,0 0.9,-0.1 1.3,-0.3 0.1,0 0.2,-0.1 0.3,-0.1 0.2,-0.1 0.3,-0.2 0.5,-0.2 0.2,0 0.4,0 0.6,0 0,0 -0.1,0.1 -0.1,0.1 -0.1,0.1 -0.2,0.2 -0.4,0.4 -0.3,0.2 -0.5,0.6 -0.5,1 0,0.3 -0.1,0.6 0,0.9 0,0.4 0.1,0.8 0.3,1.2 0.1,0.1 0,0.2 0,0.4 0.2,-0.1 0.2,0.1 0.2,0.1 0,0.1 0,0.1 -0.1,0.2 0.2,-0.1 0.2,0 0.3,0.1 0.1,0.2 0.2,0.3 0.3,0.5 0.1,0.1 0,0.1 0,0.2 -0.3,0.3 -0.6,0.4 -1,0.4 -0.1,0 -0.2,0 -0.3,0 -0.2,0 -0.3,0.1 -0.3,0.3 0,0.2 0.2,0.4 0.4,0.4 0.1,0 0.2,0 0.3,-0.1 0.2,-0.1 0.5,-0.2 0.7,-0.3 -0.1,0.5 -0.3,0.9 -0.6,1.2 -0.1,0.1 -0.2,0.2 -0.2,0.4 0,0.3 0.2,0.5 0.5,0.4 0.2,-0.1 0.4,-0.2 0.4,-0.4 0.1,-0.2 0.1,-0.5 0.2,-0.7 0,-0.1 0.1,-0.3 0.2,-0.4 0,0 0.1,0 0.1,0 0.1,0.3 0.2,0.7 0.3,1 0,0.2 0,0.4 0.1,0.6 0.1,0.3 0.3,0.4 0.6,0.2 0,0 0.1,0 0.1,-0.1 0.1,-0.1 0.2,-0.2 0.1,-0.3 -0.1,-0.2 -0.2,-0.4 -0.3,-0.6 -0.2,-0.4 -0.3,-0.8 -0.3,-1.3 0,0 0,0 0,-0.1 0.1,0 0.1,0.1 0.2,0.1 0.1,0.2 0.3,0.4 0.4,0.6 0.2,0.3 0.3,0.5 0.5,0.8 0.1,0.1 0.2,0.1 0.3,0.1 0.2,-0.1 0.3,-0.2 0.4,-0.4 0,-0.2 0,-0.3 -0.2,-0.4 -0.2,-0.2 -0.5,-0.4 -0.7,-0.6 -0.3,-0.2 -0.4,-0.5 -0.5,-0.9 0.1,0 0.3,-0.1 0.4,-0.1 0.3,0 0.7,-0.1 1,-0.1 0.2,0 0.4,-0.1 0.5,-0.2 0.2,-0.1 0.2,-0.2 0.1,-0.4 -0.1,-0.2 -0.2,-0.3 -0.4,-0.3 -0.3,0 -0.5,0.2 -0.7,0.4 -0.2,0.2 -0.4,0.3 -0.7,0.2 0,0 -0.1,-0.1 -0.1,-0.1 0,0 -0.1,-0.1 -0.1,-0.1 0,0 0,0 0,-0.1 0,0 -0.1,-0.1 -0.2,-0.1 0.1,0 0.1,-0.1 0.2,-0.1 0,-0.1 -0.1,-0.1 -0.1,-0.1 -0.1,-0.1 -0.1,-0.1 0,-0.2 0,0 0,0 0,0 -0.2,-0.2 -0.2,-0.5 -0.3,-0.8 0,-0.1 -0.1,-0.2 -0.2,-0.3 -0.1,-0.1 -0.1,-0.2 -0.2,-0.2 -0.1,-0.1 -0.1,-0.1 0,-0.2 0.3,-0.3 0.6,-0.5 0.9,-0.7 0.4,-0.3 0.8,-0.6 1.2,-0.9 0.2,-0.1 0.3,-0.3 0.3,-0.5 0,-0.1 0.1,-0.2 0.2,-0.3 0.1,-0.1 0.1,-0.2 0.2,-0.2 0,0 0.1,-0.1 0.1,-0.1 0.8,-0.2 1.7,-0.3 2.5,-0.2 0.7,0 1.4,0.1 2.1,0.4 0.6,0.2 1.1,0.5 1.6,1 0.3,0.3 0.5,0.7 0.7,1.1 0.7,1.3 0.8,2.6 0.8,4 0,0.6 -0.1,1.2 -0.1,1.8 0,0.6 -0.1,1.2 -0.1,1.7 0,0.5 0,1 0,1.5 0,0.1 0,0.3 0,0.4 0,0 0,0 0.1,0 0,-0.1 0.1,-0.2 0.1,-0.3 0.1,-0.3 0.2,-0.6 0.2,-0.9 0.1,-0.5 0.3,-1 0.4,-1.6 0.2,-0.9 0.4,-1.7 0.4,-2.6 0.1,-1 0.1,-2 0.1,-2.9 0,-0.6 -0.1,-1.3 -0.3,-1.9 -0.1,-0.3 -0.1,-0.6 -0.2,-0.9 -0.3,-1 -0.9,-1.7 -1.8,-2.3 -0.7,-0.4 -1.4,-0.7 -2.1,-0.9 -0.5,-0.1 -1.1,-0.3 -1.6,-0.4 -0.5,0 -1.1,-0.1 -1.6,-0.1 -0.4,0 -0.7,0 -1.1,0 -0.1,0 -0.1,0 -0.1,-0.1 -0.2,-0.5 -0.4,-1 -0.7,-1.4 -0.3,-0.5 -0.6,-0.9 -1.1,-1.2 -0.4,0.3 -0.4,0.3 -0.5,0.2 z"
   inkscape:connector-curvature="0" />
</g><path
     style="fill:#000000;stroke:#000000;stroke-miterlimit:10"
     id="path13531"
     d="m 420.8,272.4 c -0.6,-5.1 -1.3,-22.6 -2.1,-26.9 -0.8,-4.4 -3.2,-14.4 -0.2,-23.3 3,-8.9 6.5,-12.2 15.1,-14.3 0,0 -6.5,-0.1 -13.2,6.3 -6.7,6.4 -8.1,27.1 -8.1,27.1 0,0 -9.9,-17 -21.7,-27.9 0,0 11.8,15.4 14.4,28.8 2.6,13.4 -2.5,12.5 -2.2,35.6 0.2,18 -3,27 -4.5,30.1 1.1,0.5 2.1,0.9 3.1,1.4 2,0 4.5,0.1 7,-0.1 2.1,-1.1 4,-1.8 6.5,-2.2 4.4,-0.6 8,0.2 11.6,1.8 -0.5,-2.3 -2.6,-12.8 -3.2,-17.2 -0.7,-4.8 -1.9,-14.1 -2.5,-19.2 z"
     stroke-miterlimit="10"
     inkscape:connector-curvature="0" /><path
     style="fill:#000000;stroke:#000000;stroke-miterlimit:10"
     id="path13533"
     d="m 418.9,282 c 0,0 4.8,-3 21.6,-2.5 16.8,0.5 33.7,4.4 45.9,3.2 12.1,-1.1 15.6,1.4 20,-8.5 0,0 0.3,6.4 -7.5,9.6 -7.7,3.2 -36.4,0.4 -49.4,-0.7 -13,-1.1 -24.2,2.7 -31.3,5.2 -6.9,2.5 0.7,-6.3 0.7,-6.3 z"
     stroke-miterlimit="10"
     inkscape:connector-curvature="0" /><path
     style="fill:#000000;stroke:#000000;stroke-miterlimit:10"
     id="path13535"
     d="m 403.1,282.9 c 0,0 -4.6,-7 -21.7,-8 -17.1,-1 -26.6,1.4 -32.1,-12.7 l -1.6,0.7 c 0,0 3.8,9.1 12.3,11.9 8.5,2.8 30.1,2 35.3,6.9 5.2,4.9 8.3,10.1 8.3,10.1 l -0.5,-8.9 z"
     stroke-miterlimit="10"
     inkscape:connector-curvature="0" /><path
     style="fill:#000000;stroke:#000000;stroke-miterlimit:10"
     id="path13537"
     d="m 415.3,257.8 c 0,0 6.8,-13 18.3,-19.7 11.5,-6.7 31.6,-10.4 38.3,-10.6 6.7,-0.2 10.7,1 10.7,1 0,0 -9.8,-2.3 -32.3,5.7 -22.5,8.1 -23.5,13.5 -32.5,41.5 l -2.5,-17.9 z"
     stroke-miterlimit="10"
     inkscape:connector-curvature="0" /><path
     style="fill:#000000;stroke:#000000;stroke-miterlimit:10"
     id="path13539"
     d="m 404.9,191.5 c 0,0 -2.9,7.9 2.7,16.5 5.6,8.6 12.1,9.6 12.1,9.6 l -1.4,1.7 c 0.1,0 -21.2,-11.9 -13.4,-27.8 z"
     stroke-miterlimit="10"
     inkscape:connector-curvature="0" /><g
     style="fill:#000000"
     id="g13541">
	<path
   style="fill:#000000"
   id="path13543"
   d="m 369.5,217.5 c 0.5,0 1,-0.1 1.5,0 0.6,0.1 1.2,0.2 1.8,0.4 1.4,0.5 2.7,1.2 4,1.8 0.4,0.2 0.9,0.4 1.3,0.6 0.6,0.4 0.7,1 0.4,1.6 -0.1,0.2 -0.2,0.3 -0.4,0.3 -0.2,0 -0.3,-0.2 -0.4,-0.4 0,-0.2 -0.1,-0.3 -0.2,-0.5 0,-0.1 -0.2,-0.1 -0.2,-0.1 -0.7,0.4 -1.1,0 -1.6,-0.5 -0.2,-0.2 -0.4,-0.3 -0.6,-0.5 -0.3,-0.2 -0.6,-0.1 -0.9,0 -0.2,0.1 -0.3,0.1 -0.5,0.2 -0.3,0.1 -0.5,0.1 -0.8,0 -0.3,-0.1 -0.6,-0.2 -0.9,-0.2 -0.2,0 -0.5,-0.1 -0.7,-0.2 -0.3,-0.1 -0.5,-0.1 -0.8,-0.1 -0.4,0 -0.8,0 -1.3,0 -0.4,0 -0.7,-0.1 -1.1,-0.1 -0.3,0 -0.5,0 -0.8,0 -0.4,0.1 -0.8,0.2 -1.2,0.2 -0.1,0 -0.2,0.1 -0.3,0.2 -0.1,0.4 -0.2,0.7 -0.3,1.1 -0.2,0.7 -0.3,1.4 -0.2,2.1 0.1,0.8 0.1,1.5 0.2,2.3 0,0.2 0.1,0.4 0.2,0.6 0.1,0.3 0.4,0.4 0.7,0.2 0.1,0 0.2,-0.1 0.2,-0.2 0.3,-0.3 0.7,-0.5 1.1,-0.6 0.1,0 0.2,-0.1 0.3,-0.1 0.4,-0.4 1,-0.4 1.5,-0.5 0.4,-0.1 0.7,-0.1 1.1,-0.2 0.5,-0.1 0.8,0.2 1,0.6 0.3,0.4 0.3,0.9 0.4,1.4 0.1,0.4 0.1,0.8 0.2,1.1 0.2,0.5 0.5,0.9 0.7,1.3 0.1,0.2 0.3,0.2 0.5,0.2 0.5,0 0.8,-0.3 1.1,-0.6 0.1,-0.1 0.2,-0.2 0.3,-0.3 0.4,-0.4 0.8,-0.4 1.3,-0.4 0.2,0 0.3,0.2 0.3,0.3 0.1,0.4 0.1,0.8 0.2,1.2 0,0.1 -0.1,0.2 -0.1,0.2 -0.6,0.7 -1.3,1.3 -2.2,1.6 -0.5,0.2 -0.9,0.6 -1.3,0.9 -0.6,0.4 -1.4,0.4 -1.8,-0.3 -0.1,-0.1 -0.2,-0.3 -0.2,-0.4 -0.2,-0.4 -0.2,-0.8 -0.5,-1.1 -0.4,-0.6 -0.5,-1.1 -0.4,-1.8 0,-0.2 0,-0.3 -0.1,-0.5 -0.1,-0.2 -0.1,-0.2 -0.3,-0.1 -0.2,0.2 -0.4,0.3 -0.6,0.6 -0.4,0.5 -0.8,0.9 -1.3,1.2 -0.2,0.1 -0.3,0.2 -0.5,0.4 -0.3,0.3 -0.3,0.5 0,0.7 0.2,0.2 0.3,0.3 0.5,0.5 0.3,0.4 0.5,0.9 0.6,1.3 0.2,0.7 0.6,1.4 1,2 0.2,0.3 0.3,0.6 0.3,0.9 0,0.3 0.1,0.7 0.1,1 0,0.2 0,0.5 -0.1,0.7 -0.1,0.6 0,1.3 0.2,1.9 0.2,0.7 0.4,1.3 0.6,1.9 0,0 0,0.1 0,0.1 0.2,0.4 0.2,0.4 0.7,0.4 0.2,0 0.5,0 0.7,0 0.1,0 0.2,0.1 0.2,0.2 0,0.1 -0.1,0.2 -0.1,0.3 -0.1,0.1 -0.2,0.1 -0.3,0.2 -0.1,0.1 -0.2,0.2 0,0.3 0.3,0.2 0.5,0.5 0.7,0.8 0.1,0.2 0.2,0.4 0.2,0.6 0.1,0.2 -0.1,0.4 -0.2,0.4 -0.3,0.1 -0.6,0.1 -0.9,0.1 -0.3,0 -0.6,-0.2 -0.8,-0.4 -0.4,-0.4 -0.9,-0.6 -1.4,-0.8 -0.7,-0.3 -1.5,-0.7 -2,-1.3 -0.4,-0.4 -0.5,-0.8 -0.6,-1.3 -0.1,-0.6 -0.1,-1.2 0,-1.8 0,-0.2 -0.1,-0.4 0,-0.5 0,-0.5 0.1,-1 0.2,-1.5 0,-0.3 0.1,-0.7 0.1,-1 0,-0.2 -0.1,-0.4 -0.3,-0.5 -0.3,-0.3 -0.5,-0.6 -0.9,-0.8 -0.5,-0.2 -0.9,-0.7 -1.2,-1.1 -0.7,-0.9 -1.4,-1.7 -2.3,-2.5 -0.3,-0.3 -0.6,-0.6 -0.8,-0.9 -0.2,-0.3 -0.4,-0.6 -0.7,-0.9 -0.5,-0.6 -1,-1.2 -1.5,-1.8 -0.3,-0.4 -0.5,-0.8 -0.7,-1.2 -0.1,-0.2 -0.3,-0.4 -0.4,-0.7 -0.3,-0.6 -0.5,-1.2 -0.7,-1.8 0,0 0,-0.1 -0.1,-0.1 -0.3,-0.3 -0.4,-0.7 -0.4,-1.2 -0.1,-0.4 -0.1,-0.8 -0.4,-1.1 -0.2,-0.2 -0.2,-0.5 -0.2,-0.8 0.1,-0.5 0,-1 -0.1,-1.5 0,-0.2 -0.1,-0.4 -0.1,-0.7 0,-0.8 0,-1.7 0,-2.5 0,-0.4 -0.1,-0.9 -0.2,-1.3 -0.2,-0.6 -0.4,-1.2 -0.6,-1.8 0,-0.1 0,-0.1 0,-0.2 0.1,-0.3 0,-0.6 -0.2,-0.8 0,0 0,-0.1 -0.1,-0.1 -0.3,-0.3 -0.2,-0.7 -0.1,-1 0.2,-0.4 0.1,-0.8 0.1,-1.2 -0.1,-0.5 -0.2,-1 -0.2,-1.6 -0.1,-0.7 -0.1,-1.5 -0.2,-2.2 0,-0.4 0,-0.9 -0.1,-1.3 0,-0.2 -0.1,-0.4 -0.2,-0.6 -0.1,-0.2 -0.1,-0.4 0,-0.7 0.1,-0.2 0.2,-0.5 0.4,-0.7 0.2,-0.4 0.5,-0.5 0.9,-0.4 0.3,0.1 0.7,0.3 1,0.4 0.4,0.2 0.6,0.7 0.3,1.2 -0.3,0.4 -0.3,0.8 0,1.2 0.4,0.8 0.7,1.7 0.9,2.6 0.3,0.9 0.4,1.8 0.3,2.7 0,0.4 0.1,0.7 0.2,1.1 0.1,0.3 0.2,0.6 0.3,1 0,0.1 0,0.1 0.1,0.2 0.1,0.2 0.2,0.2 0.3,0.1 0.3,-0.3 0.6,-0.5 1,-0.8 0.4,-0.3 0.9,-0.3 1.3,-0.4 0.2,0 0.4,0 0.6,-0.1 0.1,0 0.2,-0.1 0.2,-0.3 0,-0.1 0,-0.1 0,-0.2 0.1,0 0.2,0 0.2,0 0.1,0.1 0.1,0.2 0.2,0.2 0.1,0.1 0.1,0.2 0.2,0.2 0.2,0.1 0.2,0.3 0.3,0.4 0,0.1 0.1,0.1 0.1,0.1 0.5,0.3 0.7,0.7 1,1.1 0.1,0.2 0.2,0.4 0.4,0.6 0.1,0.1 0.2,0.1 0.3,0.1 0.1,-0.1 0.2,-0.1 0.4,-0.2 0.3,-0.1 0.5,0.1 0.5,0.4 0,0.5 -0.2,0.9 -0.4,1.4 -0.1,0.2 -0.2,0.5 -0.3,0.8 0,0.1 0,0.2 0.1,0.2 0.2,0.1 0.4,0.2 0.6,0.2 0.7,0.1 1.4,0.2 2.1,0.3 0.2,0 0.4,0 0.5,0 0.3,0.9 0.7,0.9 1.1,0.9 l 0,0 z"
   inkscape:connector-curvature="0" />
</g><g
     style="fill:#000000"
     id="g13545">
	<path
   style="fill:#000000"
   id="path13547"
   d="m 392.7,260.2 c 0.2,0.1 0.5,0.1 0.7,0.2 0.9,0.2 1.8,0.6 2.6,1.1 0.8,0.5 1.4,1.1 1.8,1.9 0.4,0.6 0.5,1.3 0.5,2 -0.1,1.5 -0.7,2.7 -1.9,3.6 -0.6,0.5 -1.3,0.9 -2,1.2 -1,0.4 -2,0.7 -3,0.9 -0.8,0.2 -1.7,0.3 -2.5,0.3 -1.3,0.1 -2.6,0.1 -3.9,0.1 -1.3,-0.1 -2.6,-0.2 -3.8,-0.5 -1.1,-0.2 -2.2,-0.6 -3.2,-1 -0.7,-0.3 -1.4,-0.8 -2,-1.3 -0.7,-0.6 -1.2,-1.4 -1.4,-2.3 -0.2,-0.8 -0.2,-1.6 0.1,-2.4 0.2,-0.5 0.5,-1 0.9,-1.4 0.9,-0.9 1.9,-1.4 3.1,-1.8 0.5,-0.2 1,-0.3 1.6,-0.4 0.6,-0.1 1.1,-0.3 1.7,-0.5 0.5,-0.2 0.8,-0.5 1.2,-0.9 0.1,-0.2 0.2,-0.4 0.2,-0.6 0,-0.3 -0.1,-0.5 -0.3,-0.6 -0.2,-0.2 -0.5,-0.3 -0.8,-0.4 -0.4,-0.1 -0.8,-0.2 -1.3,-0.2 -0.7,-0.1 -1.3,-0.1 -2,-0.2 -0.5,-0.1 -1,-0.2 -1.4,-0.4 -0.2,-0.1 -0.4,-0.3 -0.5,-0.5 -0.1,-0.1 -0.1,-0.2 -0.1,-0.3 0,0 0,0 0,0 0,0 0,0 0.1,0 0.7,0.3 1.5,0.5 2.3,0.5 0.6,0.1 1.2,0.1 1.8,0.1 0.5,0 1,0 1.5,0.1 0.3,0 0.6,0.1 0.8,0.2 0.6,0.2 1,0.6 1.2,1.3 0,0 0,0.1 0,0.1 0.1,0.3 0.1,0.7 0,1 -0.2,0.6 -0.6,1.1 -1.1,1.4 -0.5,0.3 -1,0.6 -1.5,0.8 -0.7,0.3 -1.3,0.5 -2,0.7 -0.5,0.2 -1.1,0.4 -1.5,0.7 -0.4,0.3 -0.8,0.6 -1,1 -0.3,0.6 -0.3,1.2 0.1,1.8 0.3,0.5 0.8,0.8 1.3,1.1 0.6,0.3 1.2,0.4 1.8,0.6 0.7,0.2 1.4,0.3 2,0.4 0.3,0.1 0.6,0.1 0.9,0.1 0.7,0.1 1.4,0.1 2,0.1 0.6,0 1.3,-0.1 1.9,-0.1 0.7,-0.1 1.5,-0.2 2.2,-0.3 1.1,-0.2 2.2,-0.5 3.2,-0.9 0.2,-0.1 0.3,-0.2 0.5,-0.3 0.2,-0.1 0.3,-0.3 0.4,-0.5 0.1,-0.3 0.1,-0.5 0,-0.8 0,-0.2 -0.1,-0.3 -0.3,-0.5 -0.3,-0.4 -0.7,-0.7 -1.2,-0.9 -0.1,0 -0.2,-0.1 -0.4,-0.1 -0.1,0 -0.2,0.1 -0.3,0.2 0,0.1 0,0.1 -0.1,0.2 -0.3,0.7 -0.6,1.3 -1.1,1.9 -0.6,0.7 -1.3,1.2 -2.1,1.4 -0.6,0.2 -1.2,0.3 -1.8,0.3 -0.6,0.1 -1.2,0.1 -1.7,0 -0.7,-0.1 -1.4,-0.2 -2.1,-0.6 -0.7,-0.4 -1.2,-1 -1.3,-1.8 -0.1,-0.8 0,-1.5 0.4,-2.2 0.5,-0.9 1.2,-1.5 2,-1.9 0.7,-0.3 1.4,-0.6 2.1,-0.7 1,-0.2 2,-0.3 3,-0.3 0.4,0 0.7,0 1.1,0 0,0 0.1,0 0.1,-0.1 0.2,-0.6 0.3,-1.3 0.5,-1.9 0.2,-0.6 0.4,-1.1 0.7,-1.7 0.3,-0.5 0.7,-0.9 1.2,-1.1 0.1,-0.1 0.2,-0.2 0.3,-0.3 0.1,-0.1 0.1,-0.2 0.2,-0.2 0.2,-0.3 0.5,-0.5 0.9,-0.5 0.4,0 0.8,0.1 1.2,0.2 0.3,0.1 0.6,0.2 1,0.3 0.2,0.1 0.4,0.2 0.6,0.4 0.2,0.2 0.5,0.4 0.7,0.5 0.1,0 0.2,0.1 0.2,0.2 0.2,0.2 0.2,0.3 0.1,0.6 -0.1,0.2 -0.2,0.4 -0.4,0.5 -0.3,0.2 -0.6,0.3 -0.9,0.4 -0.7,0.1 -1.3,0.2 -2,0.3 -0.2,0 -0.5,0 -0.7,0 -0.1,0 -0.3,0 -0.4,0 -0.3,0.1 -0.4,0.2 -0.6,0.5 -0.1,0.2 -0.2,0.5 -0.2,0.7 0.2,0.6 0.1,1.1 0.1,1.5 0,0 0,0 0,0 z m -7.4,4.4 c 0.1,0 0.2,0 0.4,0 0.6,0 1.2,0 1.8,-0.2 0.5,-0.1 0.9,-0.4 1.3,-0.7 0.1,-0.1 0.2,-0.2 0.2,-0.3 0,0 -0.1,0 -0.1,0 -0.4,0 -0.8,0.1 -1.3,0.1 -0.3,0.1 -0.6,0.1 -1,0.2 -0.4,0.1 -0.7,0.2 -1.1,0.4 0,0.2 -0.2,0.3 -0.2,0.5 z"
   inkscape:connector-curvature="0" />
</g><g
     style="fill:#000000"
     id="g13549">
	<path
   style="fill:#000000"
   id="path13551"
   d="m 412.1,202.5 c -0.6,-0.1 -0.8,-0.6 -1,-1.1 -0.2,-0.7 -0.4,-1.5 -0.7,-2.2 -0.2,-0.6 -0.5,-1.1 -0.7,-1.6 -0.2,-0.5 -0.1,-0.9 0,-1.4 0.1,-0.3 0.3,-0.5 0.7,-0.5 0.9,-0.1 1.8,0.3 2.6,0.7 1.4,0.7 2.7,1.8 3.8,2.9 0.7,0.8 1.4,1.6 2.1,2.4 0,-0.1 0,-0.2 0,-0.2 0.4,-0.4 0.1,-0.9 0.2,-1.3 0.1,-0.5 0.1,-1 0.1,-1.5 0,-0.3 0.2,-0.4 0.6,-0.5 -0.7,0.8 -0.5,1.8 -0.5,2.7 0,0.1 0.1,0.2 0.1,0.2 0,0 0.2,0 0.2,-0.1 0.4,-0.5 0.8,-1 1.1,-1.5 0.3,-0.4 0.5,-0.5 0.9,-0.5 -0.8,0.5 -1.2,1.4 -1.8,2 -0.2,0.2 -0.3,0.4 0,0.6 0.1,-0.1 0.3,-0.2 0.5,-0.3 1.6,-1.2 3.3,-2 5.1,-2.6 1,-0.3 2.1,-0.5 3.1,-0.4 1.1,0.2 1.5,1 0.9,2 -0.1,0.2 -0.3,0.4 -0.4,0.6 -0.8,0.8 -1.5,1.7 -2,2.7 -0.2,0.5 -0.5,0.9 -1.1,0.9 0.6,1.2 0.2,3.4 -1.3,4.5 -0.9,0.6 -2,0.8 -3.1,0.7 -0.7,-0.1 -1,-0.6 -1.3,-1.3 -0.3,-0.8 -0.6,-1.7 -0.9,-2.5 -0.1,-0.2 -0.2,-0.3 -0.2,-0.4 0,0 -0.1,0 -0.1,0 0,0.2 -0.1,0.4 -0.1,0.6 0,0.4 0,0.7 0,1.1 0,0.4 -0.3,0.6 -0.6,0.5 -0.3,-0.1 -0.4,-0.4 -0.3,-0.6 0.1,-0.4 0.2,-0.8 0.3,-1.1 0,-0.2 0.1,-0.3 0.1,-0.5 0,0 -0.1,0 -0.1,-0.1 -0.2,0.2 -0.4,0.3 -0.5,0.5 -0.5,0.6 -1,1.3 -1.4,1.9 -0.7,0.9 -1.2,1.2 -2.3,0.8 -0.6,-0.2 -1.2,-0.4 -1.7,-0.8 -0.3,-0.2 -0.6,-0.6 -0.8,-0.9 -0.3,-0.5 -0.5,-1 -0.6,-1.6 -0.3,-1 0.1,-1.8 0.8,-2.5 0.1,-0.1 0.2,-0.1 0.2,-0.2 0.1,0 0.1,0 0.1,-0.1 z"
   inkscape:connector-curvature="0" />
</g><g
     style="fill:#000000"
     id="g13553">
	<path
   style="fill:#000000"
   id="path13555"
   d="m 442.8,266.3 c 0,-0.1 0,-0.3 0,-0.4 -0.7,-0.8 -1.5,-1.3 -2.6,-1.3 -0.2,0 -0.5,-0.2 -0.7,-0.4 -0.2,-0.1 -0.3,-0.4 -0.5,-0.5 -0.1,0 -0.2,0 -0.3,0 -0.6,0.4 -1.2,0.9 -1.8,1.2 -0.9,0.5 -1.9,0.5 -2.9,0.6 -0.9,0.1 -1.8,0.2 -2.5,0.6 -0.9,0.5 -1.8,0.6 -2.8,0.6 -0.6,0 -1.2,0 -1.8,0 -0.7,0.1 -0.8,0.4 -0.6,1 0.1,0.1 0.1,0.3 0.1,0.4 -0.3,0.7 -0.7,1.4 -1.1,2.2 -1.1,-0.2 -1.2,-0.1 -1.7,0.7 -0.2,0.3 -0.3,0.6 -0.4,1 -0.3,1.1 -0.2,2.1 0.1,3.1 0.3,0.7 0,1.2 -0.5,1.7 0,0.1 0,0.3 0,0.4 0.2,-0.1 0.3,-0.1 0.5,-0.2 0.6,-0.5 1.3,-0.4 1.9,0 0.2,0.1 0.4,0.2 0.6,0.4 0.1,0 0.3,0 0.4,0 -0.2,-0.2 -0.4,-0.4 -0.5,-0.7 -0.1,-0.2 -0.3,-0.3 -0.5,-0.5 0,0 0.1,-0.1 0.1,-0.1 0.4,0 0.8,0.1 1.2,0.1 0,-0.1 0,-0.1 0,-0.2 -0.5,-0.3 -1,-0.5 -1.6,-0.8 0,0 0,-0.1 0.1,-0.1 0.2,0 0.4,0 0.6,0 0,0 0,-0.1 0,-0.1 -0.3,-0.1 -0.6,-0.3 -0.8,-0.4 -0.3,-0.1 -0.4,-0.3 -0.3,-0.6 0.1,-0.4 0.2,-0.8 0.3,-1.2 0.2,0.3 0.4,0.5 0.6,0.7 0.2,0.2 0.5,0.4 0.7,0.6 0.8,0.5 1.3,0.5 1.9,-0.3 0.5,-0.6 1,-1.1 1.9,-0.9 0.1,0 0.2,0 0.3,0 0.5,-0.3 0.8,0 1.1,0.4 0.6,1 1.3,1.9 2.5,2.3 0.5,0.1 0.9,0.5 1.3,0.7 0.2,0.1 0.4,0.2 0.6,0.4 0.1,-0.1 0.1,-0.2 0.2,-0.2 -0.3,-0.2 -0.6,-0.4 -0.9,-0.6 0,-0.1 0.1,-0.1 0.1,-0.2 0.8,0 1.6,0 2.4,0 0,-0.1 0,-0.1 0,-0.2 -0.8,-0.3 -1.8,0.1 -2.6,-0.6 0.3,-0.1 0.4,-0.2 0.6,-0.3 0.2,-0.1 0.3,-0.1 0.5,-0.2 0,-0.1 0,-0.1 0,-0.2 -0.3,0 -0.5,0 -0.8,0.1 -1,0.2 -1.2,0 -1.6,-0.9 -0.4,-1.1 -0.3,-1.2 0.8,-1.3 0.8,-0.1 1.6,-0.2 2.3,-0.8 0.3,-0.2 0.6,-0.3 0.9,-0.5 0.2,0.6 0.4,1 0.6,1.5 0.1,0 0.1,0 0.2,-0.1 0,-0.2 0,-0.4 0,-0.6 0,-0.2 0,-0.3 0,-0.5 0.2,0 0.4,0 0.6,0.1 0.2,0.1 0.4,0.3 0.6,0.4 0.1,0.1 0.3,0.2 0.4,0.3 0,0 0.1,-0.1 0.1,-0.1 -0.3,-0.3 -0.5,-0.6 -0.9,-1 0.4,0.1 0.7,0.3 1,0.4 0,-0.1 0.1,-0.1 0.1,-0.2 -0.6,-0.3 -1.1,-0.7 -1.8,-1.1 0.5,-0.5 0.9,-0.9 1.3,-1.2 0.5,-0.4 1.1,-0.6 1.6,-1 0.5,-0.4 1,-0.9 1.4,-1.4 z"
   inkscape:connector-curvature="0" />
	<path
   style="fill:#000000"
   id="path13557"
   d="m 425.9,277.5 c -0.2,-0.1 -0.4,-0.2 -0.6,-0.4 -0.6,-0.4 -1.3,-0.5 -1.9,0 -0.1,0.1 -0.3,0.1 -0.5,0.2 -0.1,0.2 0.1,0.2 0.2,0.2 0.9,0 1.8,0 2.8,0 z"
   inkscape:connector-curvature="0" />
</g><g
     style="fill:#000000"
     id="g13559">
	<path
   style="fill:#000000"
   id="path13561"
   d="m 453.8,245.6 c -0.6,-0.5 -1.1,-0.9 -1.7,-1.4 -0.2,-0.2 -0.4,-0.3 -0.7,-0.5 0,-0.3 -0.1,-0.5 -0.4,-0.8 -0.4,-0.5 -0.8,-1.1 -1.2,-1.7 -0.4,-0.5 -0.8,-0.9 -1.4,-1.2 -0.2,-0.1 -0.4,-0.1 -0.6,0.1 -0.4,0.4 -0.4,0.9 -0.3,1.4 0.1,0.7 0.2,1.3 0.3,2 -0.4,-0.3 -0.8,-0.6 -1.1,-0.9 -0.2,0.2 -0.1,-0.2 -0.3,-0.3 -0.1,0 -0.1,0.1 -0.2,0.1 0,-0.1 -0.1,-0.2 -0.1,-0.3 -0.2,0.3 -0.4,0.1 -0.4,-0.1 -0.1,0 -0.1,0.1 -0.2,0.1 0,-0.1 -0.1,-0.2 -0.1,-0.3 -0.3,0.3 -0.4,0 -0.5,-0.1 -0.1,0.1 -0.1,0.1 -0.2,0.2 -0.1,-0.1 -0.1,-0.2 -0.2,-0.2 0,0.1 -0.1,0.1 -0.1,0.2 0,0 -0.1,-0.1 -0.1,-0.1 0,0 -0.1,-0.1 -0.1,-0.1 0,0.1 -0.1,0.1 -0.1,0.2 -0.1,-0.1 -0.1,-0.1 -0.2,-0.2 0,0 0,0.1 0,0.1 l -0.5,0 c -0.1,0.2 -0.3,0 -0.4,0 0,0.1 0,0.1 -0.1,0.2 -0.1,-0.1 -0.2,-0.1 -0.3,-0.1 0,0.1 0,0.1 -0.1,0.2 -0.2,0 -0.4,0 -0.7,0 0,0 0,0.1 -0.1,0.2 -0.1,0 -0.2,-0.1 -0.2,-0.1 0,0.1 -0.1,0.1 -0.1,0.2 -0.1,0 -0.2,-0.1 -0.3,-0.1 0,0.3 -0.2,0.2 -0.3,0.1 0,0.3 -0.2,0.1 -0.3,0.1 -0.1,0.2 -0.4,0.3 -0.6,0.3 0,0.1 0,0.2 0,0.2 -0.2,0.1 -0.5,0.2 -0.6,0.4 0,0 -0.1,0 -0.2,0 -0.1,0.2 -0.3,0.3 -0.4,0.4 -0.1,0.1 -0.2,0.2 -0.3,0.3 -0.1,0.1 -0.1,0.3 -0.2,0.4 -1,1.1 -1.7,2.4 -1.9,3.9 -0.2,1.1 -0.3,2.2 -0.5,3.3 -0.3,1.4 -0.6,2.7 -0.7,4.1 -0.1,1.8 0.4,3.3 1.9,4.4 0.4,0.2 0.8,0.4 1.2,0.6 0.4,0.1 0.7,0.2 1.1,0.3 0,0 0,0 0,0 0.5,0.1 0.9,0.1 1.4,0 0.4,-0.1 0.8,-0.1 1.2,-0.3 0.7,-0.4 1.2,-1.7 1,-2.5 -0.2,-1 -0.8,-1.5 -1.8,-1.4 -0.9,0.1 -1.4,0.6 -1.5,1.5 0,0.5 0.2,1 0.6,1.1 0.5,0.2 0.9,0.1 1.3,-0.2 0.3,-0.3 0.5,-0.7 0.4,-1.1 0,-0.3 -0.5,-0.5 -0.9,-0.5 -0.1,0 -0.4,0 -0.4,0.1 0,0.2 0.2,0.2 0.3,0.3 0.1,0.1 0.3,0.2 0.3,0.3 -0.1,0.2 -0.2,0.4 -0.4,0.5 -0.1,0.1 -0.3,0.1 -0.5,-0.1 -0.2,-0.2 -0.3,-0.6 -0.2,-0.8 0.2,-0.3 0.5,-0.6 0.8,-0.5 0.2,0.1 0.5,0.1 0.7,0.3 0.1,0.1 0.3,0.3 0.3,0.4 0.1,0.7 -0.6,1.6 -1.2,1.7 -0.7,0.1 -1.3,-0.1 -2,-0.3 0,0 0,0 0,0 0,0 0,0 -0.1,0 -0.4,-0.1 -0.8,-0.4 -1,-0.7 0,0 0,0 0,0 -0.4,-0.5 -0.6,-1 -0.6,-1.6 -0.1,-1.4 0.2,-2.7 0.8,-3.9 0.2,-0.5 0.6,-0.9 1,-1.5 0.1,0.6 0.1,1.2 0.2,1.8 0.1,0.3 0,0.6 -0.1,0.8 0,0.5 -0.1,1.4 0.4,1.5 0.1,0 0.2,0 0.3,0.1 l 0,0 c 0,0 0,0 0,-0.1 0,-0.1 0,-0.3 0,-0.4 0,-0.2 0,-0.4 0,-0.6 0,-0.1 0,-0.1 0.1,-0.2 0,-0.1 0.2,-0.2 0.3,-0.1 0.2,0 0.5,0.1 0.6,0.3 0,0.1 0.1,0.1 0.1,0.2 0.1,0 0.2,0 0.3,0 0,-0.3 0,-0.6 0.2,-0.8 0,-0.1 0.1,-0.2 0.1,-0.3 0.2,-0.4 0.8,-0.6 1.2,-0.3 0.3,0.2 0.6,0.4 0.8,0.7 0.1,0 0.2,-0.1 0.2,-0.1 0,-0.2 0,-0.5 -0.1,-0.7 0,-0.1 -0.2,-0.3 -0.3,-0.4 0,0 -0.1,-0.1 -0.1,-0.1 0,0 -0.1,0 -0.1,0 -0.2,0 -0.3,-0.1 -0.4,-0.2 -0.2,0 -0.3,-0.1 -0.4,-0.1 -0.1,0 -0.1,-0.1 -0.1,-0.2 -0.1,-0.7 -0.2,-1.4 -0.4,-2.2 1.1,-0.1 2.1,-0.4 2.9,-1.1 0.1,0.3 0.2,0.6 0.3,0.9 0.1,0.4 0.3,0.7 0.5,1 0.2,0.4 0.2,0.8 0.3,1.2 0,0 0,0 0,0 0,0.1 0,0.3 0,0.4 0.1,0.1 0.1,0.1 0.2,0.2 0,0 0,0 0,0 0.3,-0.3 0.9,-0.3 1.3,0 0,0 0,0 0.1,-0.1 -0.1,-0.2 -0.1,-0.4 -0.2,-0.6 0,0 0,0 0,0 -0.1,0 -0.1,-0.1 -0.1,-0.1 -0.4,-1.1 -0.8,-2.1 -1,-3.3 -0.1,-0.5 0.1,-0.7 0.6,-0.7 0,0 0.1,0 0.1,0 0.6,0 1.2,-0.1 1.8,-0.1 0.6,0 1.2,-0.2 1.8,0 0,0 0.1,0 0.2,0 1.5,-0.1 2.6,-1.1 3.7,-2 0,-0.3 -0.1,-0.5 -0.3,-0.6 z m -13,7.1 c 0,0.1 0,0.2 -0.1,0.3 0,0 0,0 0,0 0,0.3 -0.1,0.5 -0.3,0.7 -0.2,0.2 -0.4,0 -0.4,-0.2 0,0 0,-0.1 0,-0.1 -0.1,-0.1 -0.2,-0.3 -0.3,-0.5 -0.1,-0.7 -0.1,-1.5 -0.2,-2.2 0.3,0 0.6,-0.1 1,-0.1 0.1,0.6 0.2,1.2 0.3,1.7 0.1,0.1 0,0.2 0,0.4 z m 10.6,-6.9 c -0.4,0 -0.8,-0.3 -0.8,-0.8 0,-0.4 0.3,-0.7 0.8,-0.7 0.4,0 0.7,0.3 0.7,0.8 0,0.4 -0.3,0.7 -0.7,0.7 z"
   inkscape:connector-curvature="0" />
</g><g
     style="fill:#000000"
     id="g13563">
	<path
   style="fill:#000000"
   id="path13565"
   d="m 407.4,231.6 c -0.1,-0.4 -0.1,-0.9 -0.7,-1.1 -0.1,0 -0.2,-0.3 -0.2,-0.5 -0.2,-0.4 -0.2,-0.8 -0.7,-1 -0.2,-0.1 -0.2,-0.5 0,-0.7 0.3,-0.3 0.3,-0.6 0,-1 -0.2,-0.2 -0.4,-0.4 -0.5,-0.7 -0.1,-0.2 -0.1,-0.5 0,-0.7 0.3,-0.5 0.6,-1.1 0.8,-1.5 -0.7,-0.6 -1.4,-1.1 -1.9,-1.8 -0.8,-1.1 -1.4,-2.3 -2.1,-3.4 -0.1,-0.2 -0.2,-0.3 -0.3,-0.5 -0.4,0.5 -0.9,0.8 -0.7,1.6 -0.2,-0.1 -0.3,-0.2 -0.4,-0.2 -0.4,0.5 -0.3,1.2 0.3,1.9 0.2,0.3 0.4,0.5 0.2,1 -0.1,-0.2 -0.2,-0.4 -0.2,-0.6 0,-0.1 -0.1,-0.2 -0.1,-0.3 -0.2,-0.4 -0.4,-0.8 -0.7,-1.3 -0.2,-0.5 -0.1,-0.8 0.2,-1.2 -0.2,-0.3 -0.4,-0.7 -0.6,-1 -0.1,-0.2 0.1,-0.4 0.2,-0.6 0.2,-0.3 0.4,-0.6 0.2,-1 -0.6,-1.3 -1.6,-2.3 -2.7,-3.3 -0.1,-0.1 -0.4,-0.1 -0.6,-0.1 -0.3,0.1 -0.6,0.2 -0.9,0.3 -0.9,0.4 -1.7,0.1 -2.1,-0.8 -0.1,-0.1 -0.1,-0.3 -0.3,-0.4 -0.1,-0.1 -0.2,-0.1 -0.4,-0.1 0,-0.1 0,-0.1 0.1,-0.2 0.2,0.1 0.5,0.2 0.7,0.3 0.1,0.1 0.2,0.2 0.3,0.4 0.4,0.6 0.9,0.7 1.5,0.5 0.1,0 0.2,0 0.3,-0.1 0.8,-0.3 1.7,-0.4 2.4,0.6 0,-0.4 -0.1,-0.7 -0.1,-0.9 -0.3,0 -0.6,-0.1 -1,-0.1 0.1,-0.2 0.2,-0.4 -0.2,-0.3 0.3,-0.7 -0.1,-1.3 -0.9,-1.2 -0.3,0 -0.6,0.2 -0.9,0.2 -0.8,0.1 -1.2,0 -1.4,-0.8 -0.1,-0.4 -0.3,-0.6 -0.6,-0.8 0,0 -0.1,-0.1 -0.1,-0.2 0.4,0.2 0.8,0.4 0.9,0.8 0.1,0.4 0.4,0.6 0.9,0.5 0.4,-0.1 0.9,-0.1 1.3,-0.2 0.4,-0.1 0.8,-0.1 1,0.5 0.2,-0.3 0.4,-0.5 0.5,-0.8 0.6,-1 1.4,-1.3 2.4,-1.1 0.4,-0.6 0.8,-1.2 1.2,-1.9 0,0 0.1,0 0.1,0.1 -0.4,0.6 -0.8,1.3 -1.2,1.9 0,0 0.1,0.1 0.1,0.1 0.1,-0.1 0.3,-0.1 0.4,-0.2 0.9,-0.7 1.7,-1.4 2.6,-2.1 0.1,-0.1 0.2,-0.1 0.2,-0.1 -1,0.9 -2,1.7 -3,2.6 0.3,0.4 0.5,0.8 0.8,1.1 0.8,1.1 1.6,2.1 2.3,3.2 0.9,1.4 1.8,2.8 2.6,4.3 0.2,0.4 0.5,0.6 0.9,0.6 0.4,0 0.7,0.1 1.1,0.1 0.7,0.1 0.9,0.3 0.6,1 0.2,0 0.5,0.1 0.7,0.1 1,0.2 1.2,0.6 0.6,1.5 -0.2,0.3 -0.4,0.6 -0.6,1 -0.1,0.2 -0.1,0.4 0,0.6 0.2,0.4 0.5,0.8 0.7,1.2 0.2,0.5 0.4,1.1 0,1.5 -0.5,0.4 -1.1,0.1 -1.6,0 -0.3,-0.1 -0.5,-0.3 -0.8,-0.5 -0.5,0.9 -1.6,1.6 -1.4,2.9 -0.1,-0.1 -0.2,-0.2 -0.3,-0.3 -0.1,0.1 -0.2,0.2 -0.3,0.3 0.4,0.6 0.8,1.2 1.1,1.8 0.2,0.3 0.3,0.5 0.4,0.8 0,0.1 -0.1,0.3 -0.1,0.5 0.1,-0.1 0.1,-0.2 0,-0.2 z m -1,-4.2 c 0.3,-0.4 0.6,-0.8 0.8,-1.2 0.6,-1.1 1,-1.1 -0.6,-1.7 0,0 -0.1,0 -0.1,0 -0.2,0.4 -0.5,0.8 -0.7,1.2 -0.4,0.7 -0.4,0.8 0.2,1.3 0.1,0.2 0.2,0.3 0.4,0.4 z m 2.9,-4.7 c 0.2,-0.3 0.4,-0.6 0.6,-0.9 0.2,-0.3 0.1,-0.5 -0.3,-0.5 -0.3,0 -0.7,0.2 -1,0.3 0.2,0.3 0.5,0.7 0.7,1.1 z m -8.8,-3.2 c 0.3,-0.3 0.5,-0.6 0.8,-0.9 -0.2,-0.1 -0.3,-0.2 -0.4,-0.3 -0.1,-0.1 -0.2,-0.2 -0.4,-0.3 -0.6,0.8 -0.6,0.9 0,1.5 z"
   inkscape:connector-curvature="0" />
</g><g
     style="fill:#000000"
     id="g13567">
	<path
   style="fill:#000000"
   id="path13569"
   d="m 473.5,252.1 c 0.2,-0.1 0.5,-0.2 0.8,-0.1 0,0 -0.1,-0.1 -0.1,-0.1 0,0 0,-0.1 -0.1,-0.1 -0.1,-0.2 -0.1,-0.3 0,-0.5 0.2,-0.3 0.5,-0.5 0.9,-0.6 0,0 0,0 0,0 0,0 0,0 0,0 -0.1,-0.2 -0.1,-0.4 -0.2,-0.6 0,0 0,-0.1 0,-0.1 0,-0.1 0,-0.1 0,-0.2 0,0 0.1,-0.1 0.1,-0.1 0.3,-0.1 0.6,-0.2 0.9,-0.2 0,0 0.1,0 0.1,0 0,0 0,0 0,0 0,0 0,0 0,0 -0.3,0.2 -0.5,0.3 -0.8,0.4 0,0 -0.1,0 -0.2,0 0.1,0.2 0.2,0.4 0.3,0.7 0,0 0,0 0.1,0 0.1,0 0.3,0 0.4,0 0.3,0.1 0.4,0.2 0.5,0.5 0,0.1 0,0.3 0,0.4 0,0 0,0 0,0.1 0.2,0 0.5,0.1 0.7,0.3 0,-0.2 0.1,-0.4 0.2,-0.6 0.1,-0.2 0.2,-0.3 0.3,-0.5 0,0 0,0 0,0 0,0 0,0 0,0.1 0,0.1 0,0.2 0,0.2 0,0.2 -0.1,0.4 -0.2,0.7 0,0.1 -0.1,0.2 -0.1,0.2 0,0.1 -0.1,0.1 -0.2,0.1 0,0 -0.1,0 -0.1,0 -0.2,0 -0.4,-0.1 -0.6,-0.1 0,0 0,0 0,0 -0.1,0.3 -0.3,0.6 -0.6,0.8 -0.2,0.2 -0.4,0.2 -0.6,0 0,0 -0.1,-0.1 -0.1,-0.1 0.1,0.3 0.1,0.5 -0.1,0.8 0,0 0,0 0,0 0.3,0.1 0.7,0.2 1,0.3 0.1,0 0.2,0.1 0.3,0.1 0.3,0.1 0.6,0.1 1,0.2 0,0 0,0 0.1,0 0.3,0 0.5,-0.1 0.8,-0.1 0.1,0 0.1,0 0.2,0 0,0 0,0 0,0 0,0 0,0 0,0 0,0 -0.1,0 -0.1,0 -0.4,0.1 -0.8,0.2 -1.2,0.2 -0.3,0 -0.6,-0.1 -0.9,-0.2 0,0 -0.1,0 -0.1,0 -0.1,0 -0.1,0 -0.2,0 -0.3,0 -0.6,-0.1 -0.9,-0.2 0,0 -0.1,-0.1 -0.1,-0.1 0,0 0,0 0,0 -0.1,0.1 -0.2,0.2 -0.3,0.3 0,0 0,0 0,0 0.2,0.1 0.5,0.3 0.7,0.5 0.1,0.1 0.2,0.2 0.3,0.3 0.1,0.2 0.3,0.5 0.4,0.8 0,0 0,0.1 0.1,0.1 0.2,0.2 0.3,0.3 0.5,0.5 0,0 0.1,0.1 0.1,0.1 0,0 0,0 0,0 0,0 0,0 0,0 -0.1,0 -0.1,-0.1 -0.2,-0.1 -0.1,-0.1 -0.3,-0.2 -0.4,-0.4 -0.3,-0.3 -0.6,-0.7 -0.9,-1 -0.1,-0.1 -0.1,-0.1 -0.2,-0.2 -0.2,-0.1 -0.4,-0.2 -0.7,-0.4 0,0 0,0 -0.1,0 -0.2,0.1 -0.3,0.2 -0.5,0.2 0,0 0,0 0,0 0,0 0.1,0.1 0.1,0.1 0.1,0.2 0.2,0.4 0.3,0.6 0.1,0.3 0.1,0.6 0.1,0.9 0,0.3 0,0.7 0,1 0,0.3 -0.1,0.5 -0.2,0.7 -0.2,0.3 -0.5,0.6 -0.8,0.8 0,0 -0.1,0 -0.1,0.1 0,0 0,0 -0.1,0 0,0 0,0 0,-0.1 0.1,-0.1 0.1,-0.1 0.2,-0.2 0.2,-0.2 0.4,-0.3 0.6,-0.6 0,-0.1 0.1,-0.1 0.1,-0.2 0.1,-0.1 0.1,-0.2 0.1,-0.4 -0.1,-0.3 -0.1,-0.7 -0.1,-1 0,-0.1 0,-0.2 0,-0.3 0,-0.1 0,-0.1 0,-0.2 -0.1,-0.2 -0.2,-0.5 -0.3,-0.7 0,0 0,0 0,0 0,0 0,0 0,0.1 0,0.2 -0.1,0.4 -0.2,0.6 -0.3,0.3 -0.6,0.5 -0.9,0.7 -0.2,0.1 -0.5,0.1 -0.7,0.1 -0.2,0 -0.3,-0.1 -0.5,-0.2 -0.1,-0.1 -0.2,-0.3 -0.3,-0.5 -0.1,-0.3 0,-0.6 0.1,-0.9 0.1,-0.4 0.4,-0.7 0.7,-0.9 0.2,-0.1 0.4,-0.2 0.6,-0.2 0,0 0,0 0,0 0,0 0,0 0,0 -0.1,0 -0.1,0 -0.2,-0.1 -0.2,-0.1 -0.3,-0.1 -0.5,-0.2 -0.1,0 -0.2,0 -0.3,0 -0.2,0 -0.3,0 -0.5,-0.1 -0.2,0 -0.5,-0.1 -0.7,-0.1 -0.2,0 -0.4,0 -0.6,0.2 -0.2,0.2 -0.4,0.4 -0.6,0.6 -0.1,0.1 -0.1,0.1 -0.2,0.2 0,0 -0.1,0 -0.1,0 0,0 0,-0.1 0,-0.1 0,-0.1 0.1,-0.2 0.1,-0.2 0.2,-0.3 0.5,-0.6 0.8,-0.8 0.1,-0.1 0.3,-0.1 0.5,-0.1 0.4,0 0.8,0 1.2,0 0.5,0 0.9,0.1 1.3,0.3 0.1,0 0.1,0.1 0.2,0.1 0,0 0,0 0,-0.1 0,-0.2 0.1,-0.3 0.2,-0.5 0,0 0,0 0,-0.1 -0.1,-0.2 -0.3,-0.5 -0.4,-0.7 -0.1,-0.1 -0.2,-0.1 -0.2,-0.2 -0.2,-0.2 -0.4,-0.3 -0.6,-0.5 -0.1,-0.1 -0.1,-0.1 -0.2,-0.2 0,0 -0.1,-0.1 -0.1,-0.1 -0.2,-0.2 -0.4,-0.4 -0.5,-0.6 0,0 0,0 0,-0.1 0,0 0,0 0,-0.1 0,0 0,0 0.1,0 0.1,0 0.1,0.1 0.2,0.1 0.1,0.1 0.3,0.3 0.4,0.4 0,0 0.1,0.1 0.1,0.1 0.3,0.2 0.7,0.3 1,0.6 0.1,0.1 0.2,0.2 0.3,0.4 0.1,0.1 0.2,0.3 0.3,0.4 0,0 0,0 0,0 0,0 0,0 0.1,-0.1 0.1,-0.1 0.1,-0.1 0.2,-0.2 0,0 0,0 0,-0.1 -0.1,-0.2 -0.2,-0.4 -0.3,-0.6 0,-0.1 -0.1,-0.3 0,-0.4 0,0 0,-0.1 0,-0.1 0,-0.1 0,-0.1 -0.1,-0.2 -0.2,-0.4 -0.2,-0.7 -0.2,-1.1 0,-0.3 0.1,-0.6 0.1,-0.9 0,-0.1 0,-0.1 0.1,-0.2 0,0 0,0 0,0 0,0 0,0 0,0 0,0.1 0,0.1 0,0.2 0,0.3 0,0.5 -0.1,0.8 0,0 0,0 0,0.1 0.1,0.3 0.2,0.7 0.2,1 0,0.1 0.1,0.2 0.1,0.3 0,0.8 0.1,1.1 0.2,1.4 0,0 0,0 0,0 z"
   inkscape:connector-curvature="0" />
</g><g
     style="fill:#000000"
     id="g13571">
	<path
   style="fill:#000000"
   id="path13573"
   d="m 441,194.6 c -0.1,-0.4 0,-0.7 0.3,-1.1 -0.1,0 -0.1,0.1 -0.2,0.1 0,0 -0.1,0 -0.1,0 -0.3,0.1 -0.5,0 -0.6,-0.3 -0.2,-0.5 -0.4,-0.9 -0.4,-1.5 0,0 0,-0.1 0,-0.1 0,0 0,0 0,0 -0.3,0 -0.6,-0.1 -0.9,-0.1 0,0 -0.1,0 -0.1,0 -0.1,0 -0.2,0 -0.2,-0.1 0,-0.1 0,-0.2 0,-0.2 0,-0.4 0.1,-0.9 0.2,-1.3 0,-0.1 0,-0.1 0.1,-0.2 0,0 0,0 0,0 0,0 0,0.1 0,0.1 0.1,0.4 0.1,0.9 0.1,1.3 0,0.1 0,0.1 0,0.2 0.3,-0.1 0.7,-0.1 1,0 0,0 0,-0.1 0,-0.1 0,-0.2 0.1,-0.4 0.2,-0.5 0.2,-0.3 0.5,-0.5 0.9,-0.4 0.2,0 0.4,0.1 0.5,0.2 0,0 0,0 0.1,0 0.2,-0.3 0.4,-0.6 0.7,-0.8 -0.3,-0.1 -0.5,-0.3 -0.7,-0.5 -0.2,-0.2 -0.4,-0.4 -0.5,-0.6 0,0 0,0 0,0 0,0 0.1,0 0.1,0 0.1,0 0.2,0.1 0.3,0.2 0.3,0.2 0.5,0.4 0.8,0.5 0.1,0.1 0.2,0.2 0.2,0.2 0.1,0.1 0.1,0.1 0,0.2 0,0 -0.1,0.1 -0.1,0.2 -0.2,0.3 -0.3,0.5 -0.5,0.8 0,0 0,0 0,0 0.4,0.3 0.6,0.7 0.9,1.2 0.2,0.3 0.1,0.6 -0.2,0.8 -0.1,0 -0.1,0.1 -0.2,0.1 0.4,0 0.7,0.2 1,0.5 0,0 0,0 0,0 0.3,-0.4 0.6,-0.8 1,-1.2 0.1,-0.1 0.2,-0.2 0.2,-0.3 0.3,-0.4 0.5,-0.8 0.8,-1.2 0,0 0,0 0,-0.1 0.1,-0.4 0.2,-0.8 0.3,-1.1 0,-0.1 0.1,-0.1 0.1,-0.2 0,0 0,0 0.1,0 0,0 0,0 0,0.1 0,0.1 0,0.1 0,0.2 -0.1,0.6 -0.2,1.1 -0.3,1.7 -0.1,0.4 -0.4,0.8 -0.7,1.2 0,0 -0.1,0.1 -0.1,0.1 -0.1,0.1 -0.1,0.1 -0.1,0.2 -0.1,0.4 -0.4,0.8 -0.7,1 -0.1,0 -0.1,0.1 -0.2,0.1 0,0 0,0 0,0.1 0.1,0.2 0.1,0.4 0.2,0.5 0,0 0,0 0.1,-0.1 0.3,-0.3 0.7,-0.5 1,-0.7 0.2,-0.1 0.4,-0.2 0.6,-0.2 0.4,-0.1 0.8,-0.1 1.2,-0.2 0,0 0.1,0 0.1,0 0.3,-0.1 0.6,-0.2 0.9,-0.4 0.1,0 0.2,0 0.2,-0.1 0,0 0,0 0.1,0 0,0 0,0.1 0,0.1 -0.1,0.1 -0.2,0.2 -0.3,0.2 -0.2,0.1 -0.5,0.3 -0.7,0.4 -0.6,0.3 -1.2,0.5 -1.8,0.7 -0.1,0 -0.2,0.1 -0.3,0.2 -0.3,0.2 -0.6,0.5 -0.8,0.7 0,0 0,0.1 0,0.1 0.1,0.3 0.1,0.6 0,0.8 0,0 0,0 0,0 0.1,0 0.1,0 0.2,-0.1 0.3,-0.1 0.6,-0.1 0.9,-0.1 0.5,0 0.9,0.1 1.4,0.3 0.5,0.2 0.9,0.3 1.4,0.5 0.3,0.1 0.6,0.3 0.8,0.6 0.3,0.5 0.5,1 0.6,1.5 0,0.1 0,0.1 0,0.2 0,0 0,0.1 0,0.1 0,0 -0.1,0 -0.1,-0.1 -0.1,-0.1 -0.1,-0.3 -0.2,-0.4 -0.1,-0.4 -0.3,-0.7 -0.5,-1.1 -0.1,-0.1 -0.1,-0.2 -0.2,-0.3 -0.1,-0.2 -0.3,-0.3 -0.5,-0.3 -0.5,-0.1 -1,-0.2 -1.4,-0.3 -0.2,0 -0.3,-0.1 -0.5,-0.1 -0.1,0 -0.2,0 -0.2,0 -0.4,0 -0.7,0 -1.1,0 0,0 0,0 0,0 0,0 0.1,0 0.1,0 0.3,0.1 0.6,0.3 0.7,0.6 0.3,0.5 0.4,1 0.4,1.6 0,0.3 -0.1,0.7 -0.2,1 -0.1,0.2 -0.3,0.4 -0.5,0.6 -0.2,0.1 -0.5,0.2 -0.8,0.2 -0.5,0 -0.8,-0.2 -1.2,-0.5 -0.4,-0.4 -0.7,-0.9 -0.9,-1.4 -0.1,-0.3 -0.1,-0.6 0,-0.9 0,0 0,0 0,-0.1 0,0 0,0 0,0 -0.1,0.1 -0.1,0.2 -0.2,0.3 -0.2,0.2 -0.3,0.4 -0.5,0.5 -0.1,0.1 -0.1,0.2 -0.2,0.3 -0.1,0.2 -0.2,0.4 -0.3,0.6 -0.2,0.3 -0.3,0.6 -0.5,0.9 -0.2,0.3 -0.2,0.6 0,0.9 0.1,0.4 0.4,0.7 0.6,1.1 0.1,0.1 0.1,0.2 0.2,0.3 0,0 0,0.1 0,0.1 0,0 -0.1,0 -0.1,-0.1 -0.1,-0.1 -0.2,-0.2 -0.2,-0.3 -0.3,-0.4 -0.5,-0.9 -0.6,-1.4 -0.1,-0.2 -0.1,-0.5 0,-0.7 0.2,-0.6 0.4,-1.1 0.6,-1.7 0.2,-0.6 0.6,-1.2 1.1,-1.6 0.1,-0.1 0.2,-0.1 0.3,-0.2 0,0 -0.1,0 -0.1,-0.1 -0.2,-0.1 -0.4,-0.3 -0.6,-0.5 0,0 -0.1,0 -0.1,0 -0.4,0.1 -0.8,0.1 -1.2,0.2 -0.1,0 -0.3,0.1 -0.4,0.2 -0.3,0.2 -0.7,0.4 -1,0.6 -0.1,0.1 -0.2,0.1 -0.3,0.2 -0.1,0 -0.1,0.1 -0.2,0.1 -0.3,0.2 -0.7,0.3 -1,0.4 0,0 -0.1,0 -0.1,0 0,0 -0.1,0 -0.1,0 0,0 0,-0.1 0.1,-0.1 0.1,-0.1 0.2,-0.1 0.3,-0.2 0.2,-0.1 0.5,-0.3 0.7,-0.4 0.1,0 0.1,-0.1 0.1,-0.1 0.4,-0.4 0.8,-0.7 1.3,-1 0.2,-0.1 0.4,-0.2 0.7,-0.2 0.2,-0.1 0.5,-0.1 0.7,-0.1 0,0 0,0 0.1,0 0,0 0,-0.1 -0.1,-0.1 -0.1,-0.1 -0.1,-0.2 -0.2,-0.4 0,0 0,-0.1 -0.1,0 -0.3,0.1 -0.6,0.1 -0.9,0.1 -0.2,0 -0.4,-0.1 -0.6,-0.2 0,0 -0.1,0 -0.1,0 -0.1,0 -0.2,0 -0.3,0 -0.6,0 -1.1,0 -1.6,-0.3 -0.4,-0.2 -0.8,-0.4 -1.2,-0.6 -0.1,0 -0.2,-0.1 -0.2,-0.2 0,0 0,0 0,-0.1 0,0 0,0 0.1,0 0.1,0 0.2,0 0.2,0.1 0.4,0.1 0.7,0.3 1.1,0.5 0,0 0,0 0.1,0 0.5,0.1 1,0.1 1.5,0.2 0.1,0 0.3,0 0.4,0 0,0 0.5,0 1,0.1 0,0 0,0 0,0 z"
   inkscape:connector-curvature="0" />
</g><g
     style="fill:#000000"
     id="g13575">
	<path
   style="fill:#000000"
   id="path13577"
   d="m 380.1,247.7 c 0.1,-0.1 0.2,-0.3 0.3,-0.4 0.3,-0.3 0.6,-0.6 1,-0.9 0.2,-0.1 0.3,-0.2 0.5,-0.1 0.1,0 0.1,0 0.2,0 0.1,0 0.3,-0.1 0.4,-0.1 0.1,0 0.1,0 0.2,-0.1 0.2,0 0.3,0 0.4,0.3 0,0.2 0,0.3 0,0.5 0,0.1 0,0.2 0.1,0.1 0.1,0 0.2,0 0.2,-0.1 0.3,-0.1 0.5,0.1 0.5,0.4 0,0.1 -0.1,0.3 -0.1,0.4 -0.1,0.3 0,0.4 0.3,0.4 0.1,0 0.1,0 0.2,0 0.3,0 0.4,0.2 0.4,0.5 0,0.1 -0.1,0.2 -0.1,0.3 -0.1,0.2 0,0.4 0.2,0.5 0.2,0.1 0.5,0.1 0.7,0.1 0.4,0 0.8,-0.2 1.2,-0.4 0.1,-0.1 0.3,-0.1 0.4,-0.2 0.1,0 0.2,0 0.3,0.1 0.2,0.2 0.2,0.4 0.1,0.6 -0.1,0.2 -0.2,0.3 -0.5,0.3 -0.3,0 -0.5,0 -0.8,0 -0.4,0 -0.7,0 -1,0.3 -0.2,0.2 -0.3,0.3 -0.3,0.6 0,0.1 0,0.2 0,0.3 0,0.1 -0.1,0.2 -0.2,0.1 -0.1,0 -0.2,0 -0.2,0.2 0,0.1 0,0.3 0,0.4 0,0.1 0,0.2 -0.1,0.3 0,0.1 -0.1,0.2 -0.2,0.1 -0.1,0 -0.2,-0.1 -0.3,-0.1 -0.2,-0.1 -0.3,-0.1 -0.4,0.1 -0.2,0.3 -0.5,0.4 -0.8,0.2 -0.1,0 -0.2,-0.1 -0.3,-0.1 -0.8,-0.4 -1.6,-0.7 -2.4,-1 0,0 -0.1,0 -0.1,0 0.1,0.1 0.2,0.2 0.2,0.3 0,0.1 0.1,0.2 0.1,0.2 0,0.1 0,0.1 -0.1,0.1 -0.1,0 -0.2,-0.1 -0.3,-0.1 -0.3,-0.2 -0.5,-0.3 -0.8,-0.5 -0.2,-0.1 -0.3,-0.2 -0.5,-0.3 0,0 -0.1,0 -0.1,0 -0.1,0 -0.1,0 -0.2,0 -0.1,0 -0.2,-0.1 -0.3,-0.2 -0.2,-0.1 -0.3,-0.3 -0.4,-0.5 0,-0.1 0,-0.2 -0.1,-0.2 -0.7,-0.5 -1.5,-1.1 -2.2,-1.6 -0.1,0 -0.1,-0.1 -0.2,0 -0.1,0.1 -0.2,0 -0.4,0 0,0 -0.1,-0.1 -0.1,-0.1 0,0 0,-0.1 0.1,-0.1 0.1,0 0.2,0 0.3,0 0.6,0.1 1.2,0.4 1.7,0.8 0,0 0,0 0,-0.1 0,0 0,0 -0.1,-0.1 -0.2,-0.2 -0.4,-0.5 -0.7,-0.7 0,0 -0.1,0 -0.1,0 -0.1,0 -0.3,0 -0.4,-0.1 -0.1,-0.1 0,-0.1 0,-0.2 0.1,0 0.2,0 0.3,0 0.3,0.2 0.6,0.3 0.9,0.6 0.4,0.3 0.7,0.7 0.9,1.2 0,0 0,0.1 0,0.1 0,0.1 0.1,0.1 0.2,0.2 0.1,0 0.2,0.1 0.3,0.2 -0.1,-0.3 -0.3,-0.7 -0.5,-1 -0.5,-1.3 -0.9,-2.7 -1.1,-4.1 -0.2,-1.3 -0.1,-2.5 0.3,-3.7 0.1,-0.3 0.2,-0.7 0.5,-1 0.2,-0.2 0.5,-0.2 0.6,0.1 0.1,0.2 0.2,0.3 0.4,0.3 0.1,0 0.2,0.1 0.2,0.2 0,0.1 0.1,0.2 0.2,0.2 0.3,0.1 0.3,0.1 0.3,0.3 0,0.1 0.1,0.2 0.2,0.2 0.3,0.1 0.4,0.2 0.4,0.4 0,0 0,0.1 0.1,0.1 0,0 0.1,0 0.1,0 0.2,0.1 0.3,0.2 0.3,0.4 0,0.1 0,0.1 0.1,0.2 0.3,0.1 0.4,0.3 0.4,0.6 0,0.1 0,0.1 0.1,0.2 0.2,0 0.3,0.2 0.3,0.4 0,0 0,0.1 0,0.1 0,0.2 0,0.2 0.1,0.2 0.1,0 0.2,0.1 0.2,0.2 0,0.1 0,0.3 -0.1,0.4 -0.2,0.6 -0.5,1.2 -0.7,1.9 -0.1,0.4 -0.2,0.6 -0.2,0.9 -0.1,0 -0.1,0 0,0 z"
   inkscape:connector-curvature="0" />
</g><g
     style="fill:#000000"
     id="g13579">
	<path
   style="fill:#000000"
   id="path13581"
   d="m 453.1,196.6 c 0.1,-0.1 0.3,-0.2 0.4,-0.3 -0.2,0 -0.3,0 -0.4,0.1 0,0 0,0 0,0 0,0 0.1,-0.1 0.1,-0.1 0.2,-0.1 0.5,-0.2 0.7,-0.3 0,0 0.1,0 0.2,0 0.1,0 0.3,0 0.4,0 0.3,0 0.4,-0.2 0.4,-0.5 0,-0.2 -0.1,-0.4 -0.2,-0.6 -0.5,-1 -1.2,-1.9 -2.2,-2.4 -0.5,-0.2 -1,-0.4 -1.5,-0.6 0,0 0,0 0,0 -0.5,-0.2 -0.5,-0.2 -0.4,-0.7 0,-0.2 0,-0.4 0,-0.6 -0.1,-0.4 -0.4,-0.6 -0.6,-0.8 -0.4,-0.2 -0.8,-0.4 -1.2,-0.7 0,-0.1 0.1,-0.3 0.2,-0.5 0.1,-0.4 0.2,-0.9 0.1,-1.4 -0.1,-0.3 -0.3,-0.6 -0.5,-0.9 0,0 -0.1,-0.1 -0.1,-0.1 0.1,0 0.2,0 0.3,0 1.5,-0.1 3,-0.1 4.5,0.1 0.4,0.1 0.7,0.1 1.1,0.2 0.2,0 0.2,0 0.3,-0.2 0.1,-0.2 0.2,-0.5 0.3,-0.7 0,0 0,0 0,0 0,0.3 -0.1,0.6 -0.1,0.9 0.1,-0.2 0.3,-0.4 0.4,-0.6 0,0 0,0 0,0 0,0.2 -0.1,0.4 -0.1,0.6 -0.1,0.3 0,0.5 0.1,0.7 0.5,0.8 1.1,1.6 1.8,2.2 0.6,0.6 1.2,1.2 1.8,1.8 0.1,0.1 0.2,0.1 0.3,0.2 0.1,-0.1 0.1,-0.2 0.2,-0.3 0.1,-0.2 0.1,-0.5 0,-0.7 0,-0.1 0,-0.3 0,-0.4 0.1,-0.4 0.2,-0.8 0.4,-1.1 0.1,-0.1 0.2,-0.3 0.3,-0.4 0.1,-0.1 0.2,-0.1 0.3,0.1 0.2,0.3 0.3,0.6 0.5,0.9 0.2,0.5 0.4,1 0.6,1.5 0.1,0.2 0.1,0.2 0.3,0.2 0.8,-0.1 1.6,-0.2 2.4,-0.3 0.1,0 0.2,0 0.3,0 0.1,0.2 0,0.5 -0.1,0.7 -0.3,0.5 -0.7,0.9 -1.2,1.2 -0.3,0.1 -0.5,0.3 -0.6,0.6 -0.1,0.1 -0.1,0.2 0,0.3 0.2,0.1 0.4,0.2 0.6,0.3 1.5,0.6 3,0.9 4.6,0.9 0.4,0 0.8,-0.1 1,-0.5 0,0.1 -0.1,0.2 -0.1,0.4 0,0 0,0 0,0 0.2,-0.1 0.3,-0.3 0.5,-0.4 0,0 0,0 0,0 0,0 -0.1,0.1 -0.1,0.1 -0.1,0.1 -0.2,0.2 -0.3,0.4 -0.2,0.2 -0.2,0.2 0,0.4 0.6,0.7 1.2,1.4 1.7,2.2 0.6,0.9 1,1.9 1.3,3 0,0 0,0.1 0,0.1 -0.2,-0.1 -0.3,-0.1 -0.5,-0.2 -0.5,-0.2 -1,0 -1.4,0.3 -0.2,0.2 -0.4,0.4 -0.5,0.6 -0.1,0.1 -0.1,0.1 -0.2,0.1 -0.4,-0.2 -0.7,-0.4 -1.1,-0.6 -0.4,-0.2 -0.7,-0.2 -1.1,0 -0.1,0.1 -0.3,0.1 -0.4,0.2 -0.2,0.1 -0.3,0.1 -0.4,0 -0.8,-0.5 -1.6,-1.1 -2.4,-1.5 -0.3,-0.2 -0.7,-0.3 -1.1,-0.4 -0.3,-0.1 -0.7,-0.1 -1,0 -0.4,0.1 -0.8,0.2 -1.2,0.3 0.1,0.5 0.4,1 0.5,1.6 0,0 0,0 -0.1,0 -0.1,-0.1 -0.1,-0.3 -0.2,-0.4 -0.1,0.2 -0.2,0.4 -0.3,0.5 0,0 0,0 0,0 0,-0.2 0,-0.4 0,-0.6 0,-0.2 -0.1,-0.3 -0.2,-0.4 -0.5,-0.3 -1.1,-0.6 -1.7,-0.7 -0.1,0 -0.2,0 -0.3,-0.1 -0.3,-0.1 -0.5,0 -0.7,0.2 -0.2,0.2 -0.5,0.4 -0.7,0.6 -0.1,0 -0.1,0.1 -0.2,0.1 0,-0.1 0,-0.2 0,-0.2 0.1,-0.3 0.2,-0.7 0.3,-1 0,-0.1 0,-0.2 0,-0.3 -0.2,-0.2 -0.4,-0.5 -0.7,-0.7 -0.4,-0.4 -0.8,-0.6 -1.3,-0.9 -0.2,-0.1 -0.4,-0.1 -0.5,0 -0.1,0.1 -0.3,0.1 -0.4,0.1 -0.7,-0.6 -0.8,-0.6 -0.9,-0.6 0.1,0 0,0 0,0 z"
   inkscape:connector-curvature="0" />
</g><g
     style="fill:#000000"
     id="g13583">
	<path
   style="fill:#000000"
   id="path13585"
   d="m 490.8,270.6 c 0.3,0.1 0.6,0.2 0.8,0.3 0.9,0.5 1.3,1.2 1.4,2.2 0,0.8 -0.1,1.5 -0.5,2.2 -0.5,0.8 -1.1,1.4 -2.1,1.7 -1.3,0.4 -2.5,0.2 -3.7,-0.4 -0.5,-0.3 -1,-0.5 -1.5,-0.6 -0.6,-0.1 -1.1,0.1 -1.5,0.6 -0.3,0.4 -1.3,0.9 -2,0.5 -0.5,-0.3 -1,-0.5 -1,-1.1 0,-0.2 0,-0.3 0,-0.5 0.2,0.3 0.4,0.5 0.6,0.7 0.4,0.5 1.3,0.4 1.7,-0.1 0.4,-0.5 0.8,-0.9 1.4,-1.1 0.7,-0.3 1.5,-0.3 2.1,0.3 0.7,0.6 1.5,0.7 2.3,0.7 0.6,0 1.2,-0.1 1.7,-0.4 0.5,-0.2 0.8,-0.6 1,-1.1 0.1,-0.3 0.3,-0.7 0.2,-1 -0.1,-0.7 -0.7,-1.2 -1.5,-1.1 -0.7,0.1 -1.2,0.5 -1.8,0.8 -0.9,0.4 -1.7,0.9 -2.7,1.2 -0.6,0.2 -1.2,0.2 -1.8,0.2 -0.5,-0.1 -1,-0.2 -1.5,-0.4 -0.8,-0.4 -1.3,-1 -1.3,-2 0,-0.6 0.4,-1.1 0.8,-1.5 0.5,-0.5 1.2,-0.7 1.9,-0.9 0.1,0 0.1,0 0.2,-0.1 -0.1,-0.1 -0.1,-0.1 -0.1,-0.1 -0.5,-0.4 -0.8,-1.2 -0.4,-2 0.3,-0.7 0.8,-1 1.5,-1.1 0.5,-0.1 1,-0.4 1.5,-0.6 0.4,-0.2 0.4,-0.5 0.1,-0.8 -0.2,-0.2 -0.5,-0.5 -0.7,-0.7 -0.2,-0.2 -0.4,-0.4 -0.4,-0.7 0,-0.4 -0.1,-0.9 -0.1,-1.3 0,-0.1 0,-0.3 0.1,-0.4 0.2,-0.3 0.1,-0.8 -0.2,-0.9 -0.1,-0.1 -0.3,-0.1 -0.2,-0.3 0.1,0.1 0.3,0.1 0.4,0.2 0.1,-0.1 0.2,-0.2 0.3,-0.3 0,0 0,0 0.1,0 0,0.1 0,0.2 -0.1,0.3 0,0.3 0.1,0.6 0.3,0.8 0.6,0.6 1.4,1.1 1.8,1.9 0.2,0.3 0.3,0.7 0.2,1.1 0,0.2 0,0.4 -0.1,0.6 -0.1,0.9 -0.7,1.3 -1.4,1.7 -0.4,0.2 -0.9,0.3 -1.3,0.5 -0.3,0.1 -0.5,0.3 -0.7,0.5 -0.2,0.2 -0.1,0.5 0.2,0.6 0.2,0.1 0.5,0.1 0.7,0 0.4,-0.2 0.7,-0.4 1.1,-0.6 0.7,-0.4 1.4,-0.8 2.1,-1 0.5,-0.2 1.1,0 1.5,0.4 0.5,0.4 0.9,0.9 1.1,1.6 0.2,0.6 0,1.2 -0.5,1.6 0.1,-0.2 0,-0.1 0,-0.1 z m -2.5,0.9 c -0.1,0 -0.2,0 -0.3,0 -0.4,0 -0.8,0 -1.2,-0.1 -0.6,-0.1 -1.2,-0.2 -1.9,-0.3 -0.6,-0.1 -1.1,0 -1.6,0.3 -0.3,0.2 -0.6,0.5 -0.6,0.9 0,0.4 0.5,0.9 1,0.9 0.6,0 1.1,-0.1 1.7,-0.2 0.7,-0.1 1.3,-0.4 1.9,-0.8 0.4,-0.3 0.7,-0.5 1,-0.7 z m -2.1,-1.7 c 0,0 0,0 0,0 0.1,0 0.3,0 0.4,0 0.5,0.1 1,0.1 1.4,0.2 0.4,0 0.7,0 1,-0.2 0.2,-0.2 0.3,-0.6 0.3,-0.8 -0.1,-0.3 -0.3,-0.5 -0.6,-0.4 -0.4,0.1 -0.8,0.2 -1.2,0.4 -0.1,0.1 -0.3,0.2 -0.4,0.3 -0.3,0.1 -0.6,0.3 -0.9,0.5 z m 0.8,-6.6 c 0,-0.3 -0.1,-0.4 -0.3,-0.5 0,0 -0.1,0 -0.2,0 0,0.1 0,0.1 0,0.2 0.1,0.1 0.3,0.2 0.5,0.3 z"
   inkscape:connector-curvature="0" />
</g><g
     style="fill:#000000"
     id="g13587">
	<path
   style="fill:#000000"
   id="path13589"
   d="m 510.3,393.1 c 0.4,0.2 0.9,0.4 1.4,0.4 0.8,0 1.3,-0.4 1.3,-1 0,-0.6 -0.3,-0.9 -1.1,-1.2 -1,-0.4 -1.6,-0.9 -1.6,-1.7 0,-0.9 0.8,-1.6 2,-1.6 0.6,0 1.1,0.1 1.3,0.3 l -0.2,0.6 c -0.2,-0.1 -0.6,-0.3 -1.1,-0.3 -0.8,0 -1.1,0.5 -1.1,0.9 0,0.6 0.4,0.8 1.2,1.2 1,0.4 1.5,0.9 1.5,1.8 0,0.9 -0.7,1.8 -2.1,1.8 -0.6,0 -1.2,-0.2 -1.5,-0.4 l 0,-0.8 z"
   inkscape:connector-curvature="0" />
	<path
   style="fill:#000000"
   id="path13591"
   d="m 520,391.4 c 0,-0.8 -0.1,-1.9 -0.1,-2.6 l 0,0 c -0.2,0.7 -0.5,1.5 -0.8,2.3 l -1.1,2.9 -0.6,0 -1,-2.9 c -0.3,-0.9 -0.5,-1.6 -0.7,-2.4 l 0,0 c 0,0.8 -0.1,1.8 -0.1,2.7 l -0.2,2.6 -0.7,0 0.4,-6.1 1,0 1,2.9 c 0.3,0.7 0.5,1.4 0.6,2 l 0,0 c 0.2,-0.6 0.4,-1.3 0.6,-2 l 1.1,-2.9 1,0 0.4,6.1 -0.8,0 0,-2.6 z"
   inkscape:connector-curvature="0" />
</g></g>
</svg>