<?xml version="1.0" encoding="UTF-8" standalone="no"?>
<!-- Generator: Adobe Illustrator 17.1.0, SVG Export Plug-In . SVG Version: 6.00 Build 0)  -->

<svg
   xmlns:dc="http://purl.org/dc/elements/1.1/"
   xmlns:cc="http://creativecommons.org/ns#"
   xmlns:rdf="http://www.w3.org/1999/02/22-rdf-syntax-ns#"
   xmlns:svg="http://www.w3.org/2000/svg"
   xmlns="http://www.w3.org/2000/svg"
   xmlns:sodipodi="http://sodipodi.sourceforge.net/DTD/sodipodi-0.dtd"
   xmlns:inkscape="http://www.inkscape.org/namespaces/inkscape"
   version="1.1"
   id="Layer_2"
   x="0px"
   y="0px"
   viewBox="0 0 140 115.7"
   enable-background="new 0 0 225 164"
   xml:space="preserve"
   inkscape:version="0.91 r13725"
   sodipodi:docname="flljr-logo-vertical.svg"
   width="140"
   height="115.7"><metadata
   id="metadata4816"><rdf:RDF><cc:Work
       rdf:about=""><dc:format>image/svg+xml</dc:format><dc:type
         rdf:resource="http://purl.org/dc/dcmitype/StillImage" /><dc:title></dc:title></cc:Work></rdf:RDF></metadata><defs
   id="defs4814" /><sodipodi:namedview
   pagecolor="#ffffff"
   bordercolor="#666666"
   borderopacity="1"
   objecttolerance="10"
   gridtolerance="10"
   guidetolerance="10"
   inkscape:pageopacity="0"
   inkscape:pageshadow="2"
   inkscape:window-width="1684"
   inkscape:window-height="752"
   id="namedview4812"
   showgrid="false"
   fit-margin-top="0"
   fit-margin-left="0"
   fit-margin-right="0"
   fit-margin-bottom="0"
   inkscape:zoom="3.1696875"
   inkscape:cx="67.5"
   inkscape:cy="57.7"
   inkscape:window-x="3091"
   inkscape:window-y="411"
   inkscape:window-maximized="0"
   inkscape:current-layer="Layer_2" />
<g
   id="g4754"
   transform="translate(-45,-24)">
	<path
   d="m 45,121 4.8,0 0,14.2 8.5,0 0,4.1 -13.3,0 0,-18.3 z"
   id="path4756"
   inkscape:connector-curvature="0" />
	<path
   d="m 59.1,121 14.5,0 0,3.8 -9.8,0 0,3.2 8.9,0 0,3.7 -8.9,0 0,3.5 10,0 0,4.1 -14.7,0 0,-18.3 z"
   id="path4758"
   inkscape:connector-curvature="0" />
	<path
   d="m 80,121 4.8,0 6.8,18.2 -5,0 -1.1,-3.3 -6.4,0 -1.1,3.3 -4.9,0 L 80,121 Z m 0.3,11.4 4.1,0 -2,-6.4 -0.1,0 -2,6.4 z"
   id="path4760"
   inkscape:connector-curvature="0" />
	<path
   d="m 108.3,139.2 -3.1,0 -0.3,-2 c -1.3,1.8 -3.4,2.4 -5.1,2.4 -5.5,0 -9.1,-4.2 -9.1,-9.5 0,-5.3 3.6,-9.5 9.1,-9.5 3.8,0 7.8,2 8.3,6.6 l -4.8,0 c -0.2,-1.6 -1.7,-2.5 -3.6,-2.5 -3.1,0 -4.2,2.7 -4.2,5.4 0,2.7 1.2,5.4 4.2,5.4 2.3,0 3.9,-1.1 4.2,-2.8 l -3.3,0 0,-3.5 7.7,0 0,10 z"
   id="path4762"
   inkscape:connector-curvature="0" />
	<path
   d="m 125.6,131.7 c 0,5.3 -2.4,7.9 -7.9,7.9 -5.5,0 -7.9,-2.6 -7.9,-7.9 l 0,-10.7 4.8,0 0,11 c 0,2.3 0.9,3.6 3.2,3.6 2.3,0 3.2,-1.2 3.2,-3.6 l 0,-11 4.8,0 0,10.7 z"
   id="path4764"
   inkscape:connector-curvature="0" />
	<path
   d="m 127.2,121 14.5,0 0,3.8 -9.8,0 0,3.2 8.9,0 0,3.7 -8.9,0 0,3.5 10,0 0,4.1 -14.8,0 0,-18.3 z"
   id="path4766"
   inkscape:connector-curvature="0" />
	<path
   d="m 161.5,133.5 c 0,4.1 -2.1,6.2 -6.4,6.2 -4.8,0 -6.4,-2.8 -6.4,-6.8 l 0,-0.9 4.5,0 0,1.7 c 0,1.2 0.7,1.9 1.8,1.9 1.1,0 1.7,-0.6 1.7,-2.4 l 0,-12.2 4.8,0 0,12.5 z"
   id="path4768"
   inkscape:connector-curvature="0" />
	<path
   d="m 163.3,121 9.3,0 c 3.2,0 6.4,1.5 6.4,5.1 0,2 -0.9,3.8 -2.9,4.6 l 0,0.1 c 1.9,0.5 2.5,2.6 2.7,4.4 0.1,0.8 0.1,3.4 0.8,4.1 l -4.7,0 c -0.4,-0.6 -0.5,-2.4 -0.5,-2.9 -0.1,-1.8 -0.4,-3.7 -2.7,-3.7 l -3.7,0 0,6.6 -4.8,0 0,-18.3 z m 4.7,7.9 4,0 c 1.4,0 2.2,-0.8 2.2,-2.1 0,-1.4 -1.1,-2 -2.4,-2 l -3.8,0 0,4.1 z"
   id="path4770"
   inkscape:connector-curvature="0" />
	<path
   d="m 180.2,134.5 4.8,0 0,4.8 -4.8,0 0,-4.8 z"
   id="path4772"
   inkscape:connector-curvature="0" />
</g>
<g
   id="g4774"
   transform="translate(-45,-24)">
	<g
   id="g4776">
		<path
   d="m 80.7,97.7 4.8,0 0,14.2 8.5,0 0,4.1 -13.3,0 0,-18.3 z"
   id="path4778"
   inkscape:connector-curvature="0" />
		<path
   d="m 94.8,97.7 14.5,0 0,3.8 -9.8,0 0,3.2 8.9,0 0,3.7 -8.9,0 0,3.5 10,0 0,4.1 -14.7,0 0,-18.3 z"
   id="path4780"
   inkscape:connector-curvature="0" />
		<path
   d="m 127.6,115.9 -3.1,0 -0.3,-2 c -1.3,1.8 -3.4,2.4 -5.1,2.4 -5.5,0 -9.1,-4.2 -9.1,-9.5 0,-5.3 3.6,-9.5 9.1,-9.5 3.8,0 7.8,2 8.3,6.6 l -4.8,0 c -0.2,-1.6 -1.7,-2.5 -3.6,-2.5 -3.1,0 -4.2,2.7 -4.2,5.4 0,2.7 1.2,5.4 4.2,5.4 2.3,0 3.9,-1.1 4.2,-2.8 l -3.3,0 0,-3.5 7.7,0 0,10 z"
   id="path4782"
   inkscape:connector-curvature="0" />
		<path
   d="m 137.4,97.3 c 5.7,0 9,4.2 9,9.5 0,5.3 -3.2,9.5 -9,9.5 -5.7,0 -9,-4.2 -9,-9.5 0,-5.3 3.2,-9.5 9,-9.5 z m 0,14.9 c 3.1,0 4.2,-2.7 4.2,-5.4 0,-2.7 -1.2,-5.4 -4.2,-5.4 -3.1,0 -4.2,2.7 -4.2,5.4 -0.1,2.7 1.1,5.4 4.2,5.4 z"
   id="path4784"
   inkscape:connector-curvature="0" />
	</g>
	<path
   d="m 147.4,97.7 c 1,0 1.8,0.8 1.8,1.8 0,1 -0.8,1.8 -1.8,1.8 -1,0 -1.8,-0.8 -1.8,-1.8 0,-1 0.8,-1.8 1.8,-1.8 z m 0,3.5 c 0.9,0 1.6,-0.7 1.6,-1.6 0,-0.9 -0.7,-1.6 -1.6,-1.6 -0.9,0 -1.6,0.7 -1.6,1.6 0,0.8 0.7,1.6 1.6,1.6 z m -0.7,-2.6 c 0.1,0 0.1,0 0.3,0 0.2,0 0.3,0 0.3,0 0.6,0 0.9,0.2 0.9,0.7 0,0.3 -0.1,0.4 -0.4,0.5 l 0,0 c 0,0 0,0 0,0 0.1,0.1 0.3,0.4 0.5,0.7 l -0.7,0 c -0.1,-0.3 -0.2,-0.3 -0.4,-0.6 l 0,0.6 -0.6,0 0,-1.9 z m 0.6,0.9 c 0.2,0 0.3,-0.1 0.3,-0.2 0,-0.1 -0.1,-0.2 -0.2,-0.2 0,0 0,0 -0.1,0 l 0,0.4 c 0,0 0,0 0,0 z"
   id="path4786"
   inkscape:connector-curvature="0" />
</g>
<g
   id="g4788"
   transform="translate(-45,-24)">
	<path
   d="m 88.7,54.7 -0.5,2.8 5.3,-2.3 C 93.2,54.5 92.9,53.8 92.7,53 l -4,1.7 z"
   id="path4790"
   inkscape:connector-curvature="0" />
	<line
   x1="88.699997"
   y1="54.700001"
   x2="88.699997"
   y2="54.700001"
   id="line4792" />
	<path
   d="m 152.8,44.6 0,0 0,0 -21.5,-20.5 -7.2,7.5 c -3,-1.2 -7.7,-2.1 -11.2,-2.1 -5.2,0 -10.5,1.8 -14.3,4.1 l -10,-9.6 0,0 0,0 0,0 0,0 -3.6,0.4 -7.8,42.5 3.6,0.4 0,0 16.4,-7.2 c 0,0 0.1,0 0.1,0.1 3.9,3.4 9.8,5.6 16.3,5.6 4.5,0 8.7,-1.1 12.2,-2.9 l 6.6,6.3 20.4,-21.2 0,-3.4 0,0 0,0 z M 112.7,30.3 c 3.4,0 7.9,0.9 10.8,1.9 l -0.1,0.1 -3.2,3.3 0,0 c -2,-0.7 -4.2,-1 -6.6,-1 -4.1,0 -7.9,1.1 -10.6,3 l 0,0 -3.3,-3.2 -0.3,-0.3 c 3.5,-2.1 8.2,-3.8 13.3,-3.8 z m 4.5,8.5 -6.2,6.5 -5.5,-5.2 c 2.4,-1 5.1,-1.6 8.1,-1.6 1.2,0 2.4,0.1 3.6,0.3 z m -36.3,27.6 7.5,-41.7 10.7,10.1 3.3,3.2 2.6,2.4 6.1,5.8 0,2.6 2.6,2.5 -8.1,3.7 c -1.8,-0.8 -3.4,-1.8 -4.6,-3 0,0 -0.1,-0.1 -0.1,-0.1 L 107.1,49 92.5,35.5 92.2,35.2 91.9,37.1 88.4,55 l -0.5,2.8 0.9,-0.4 0,0 4.7,-2 c 0.7,1.5 1.8,3 3.1,4.2 l -15.7,6.8 z m 34.1,-13.8 3.5,3.3 c -1.6,0.4 -3.3,0.6 -5,0.6 -2.1,0 -4.2,-0.3 -6.1,-0.9 -0.3,-0.1 -0.5,-0.2 -0.8,-0.3 l 7.7,-3.5 0.7,0.8 z M 99.6,50.3 c 0,-0.1 -0.1,-0.1 -0.1,-0.2 -0.5,-0.8 -0.9,-1.7 -1.1,-2.5 0,-0.1 0,-0.2 -0.1,-0.3 0.2,-0.9 0.6,-1.7 1.2,-2.5 l 4,4 -3.9,1.5 z m -7.8,-1.9 c 0,0 0,0 0,0 0,0.2 0,0.3 0,0.3 0,1 0.6,3.5 0.9,4.4 0,0 0,0 0,0 l -3.3,1.4 3.1,-16.5 1.3,1.3 c -1.5,2.2 -2.2,4.6 -2.2,7.1 0,0.6 0.1,1.3 0.2,2 z m 33.5,10.7 c -0.8,0.4 -1.6,0.8 -2.5,1.1 -2.9,1.1 -6.1,1.6 -9.4,1.6 -4.7,0 -9.1,-1.1 -12.8,-3.2 C 98.6,57.4 96.8,56 95.5,54.4 95,53.8 94.5,53.1 94.1,52.5 93.3,51.2 92.8,49.7 92.6,48.3 92.5,47.7 92.4,47 92.4,46.4 92.4,44.2 93,42 94.3,40 l 3.4,3.5 c -0.2,0.8 -0.3,1.6 -0.3,2.4 0,0.7 0.1,1.3 0.2,2 0.2,0.9 0.6,1.9 1.2,2.8 0.4,0.7 1,1.4 1.6,2 1.7,1.7 4,3 6.6,3.8 2,0.6 4.2,0.9 6.4,0.9 1.8,0 3.6,-0.2 5.2,-0.6 1,-0.2 1.9,-0.5 2.8,-0.9 2,-0.8 3.8,-2 5.1,-3.4 1.4,-1.4 2.3,-2.9 2.7,-4.6 0.2,-0.7 0.2,-1.4 0.2,-2 0,-1.9 -0.7,-4 -1.9,-5.7 l 2.9,-3 c 2.5,2.6 4,6 4,9.3 0,0.6 -0.1,1.2 -0.2,1.9 -0.4,2.7 -1.9,5.3 -4.2,7.5 -1.3,1.2 -2.9,2.3 -4.7,3.2 z m 0.8,-7.4 -5.1,-4.9 4.3,-4.5 c 1.5,1.3 2.7,2.8 3.2,4.5 0,0.3 -0.1,0.5 -0.2,0.8 -0.2,1.5 -1,2.9 -2.2,4.1 z m 8.9,-3.5 c 0.1,-0.6 0.1,-1.2 0.1,-1.8 0,-3.5 -1.6,-7.1 -4.2,-9.9 l 0.7,-0.7 10.7,10.3 -8.9,9.2 c 0.9,-2.2 1.6,-4.9 1.6,-6.8 0.1,-0.1 0.1,-0.2 0,-0.3 z m -2.7,17.6 -4.4,-4.2 c 1.7,-1.2 3.2,-2.5 4.3,-4.1 0,0 0,0 0,-0.1 l 10.6,-11 0.3,-0.3 1.4,-1.4 -12.9,-12.4 -2.9,3 -3.2,3.3 -2.2,2.3 -4.1,4.3 0,0 -0.4,0.4 1.2,1.2 5.6,5.4 c -1.2,1.2 -2.8,2.1 -4.5,2.9 0,0 0,0 0,0 l -3.7,-3.5 -3.6,-3.5 -2.5,-2.3 5.8,-6.1 2.9,-3.1 3.2,-3.3 8,-8.3 21,20.1 -19.9,20.7 z"
   id="path4794"
   inkscape:connector-curvature="0" />
</g>
<g
   id="g4796"
   transform="translate(-45,-24)">
	<path
   d="m 77.6,72.2 14.6,0 -1.4,5.6 -7,0 -0.7,2.9 7.3,0 -1.2,5.3 -7.2,0 -1.7,7.4 -7.5,0 4.8,-21.2 z"
   id="path4798"
   inkscape:connector-curvature="0" />
	<path
   d="m 94.2,72.2 7.5,0 -4.9,21.1 -7.5,0 4.9,-21.1 z"
   id="path4800"
   inkscape:connector-curvature="0" />
	<path
   d="m 103.7,72.3 0.5,-0.1 c 2.4,-0.3 5.4,-0.5 7.1,-0.5 2.8,0 4.9,0.3 6.5,1 2.1,0.9 3.3,2.7 3.3,5 0,1.9 -0.7,3.8 -1.9,5.2 -1.1,1.2 -2,1.8 -4,2.4 l -0.5,0.2 c 0.2,0.2 0.3,0.2 0.4,0.3 0.6,0.7 2.3,4.1 3.8,7.5 l -8.3,0 c -1.1,-3 -1.4,-3.8 -2.8,-7.2 l -1.7,7.2 -7.3,0 4.9,-21 z m 5.5,10 c 2.4,0 4.1,-1.4 4.1,-3.5 0,-1.1 -0.8,-1.6 -2.3,-1.6 -0.4,0 -0.7,0 -1.2,0.1 l -1.1,4.9 c 0.2,0.1 0.3,0.1 0.5,0.1 z"
   id="path4802"
   inkscape:connector-curvature="0" />
	<path
   d="m 139,72.2 18.3,0 -1.3,6.1 -5.4,0 -3.6,15 -7.5,0 3.6,-15 -5.9,0 1.8,-6.1 z"
   id="path4804"
   inkscape:connector-curvature="0" />
	<path
   d="m 150.4,89.6 c 1,0 1.8,0.8 1.8,1.8 0,1 -0.8,1.8 -1.8,1.8 -1,0 -1.8,-0.8 -1.8,-1.8 0,-1 0.8,-1.8 1.8,-1.8 z m 0,3.4 c 0.9,0 1.6,-0.7 1.6,-1.6 0,-0.9 -0.7,-1.6 -1.6,-1.6 -0.9,0 -1.6,0.7 -1.6,1.6 0,0.9 0.8,1.6 1.6,1.6 z m -0.7,-2.5 c 0.1,0 0.1,0 0.3,0 0.2,0 0.3,0 0.3,0 0.6,0 0.9,0.2 0.9,0.7 0,0.3 -0.1,0.4 -0.4,0.5 l 0,0 c 0,0 0,0 0,0 0.1,0.1 0.3,0.4 0.5,0.7 l -0.7,0 c -0.1,-0.3 -0.2,-0.3 -0.4,-0.6 l 0,0.6 -0.6,0 0,-1.9 z m 0.7,0.9 c 0.2,0 0.3,-0.1 0.3,-0.2 0,-0.1 -0.1,-0.2 -0.2,-0.2 0,0 0,0 -0.1,0 l 0,0.4 c 0,0 0,0 0,0 z"
   id="path4806"
   inkscape:connector-curvature="0" />
	<g
   id="g4808">
		<path
   d="m 119.6,92.8 c 2.1,0.6 4.4,1 6.6,1 2.9,0 5.2,-0.7 7.1,-2.1 2.1,-1.5 3.5,-3.9 3.5,-6 0,-1.4 -0.6,-2.7 -1.7,-3.6 -0.9,-0.7 -1.8,-1.2 -3.6,-2.1 L 130,79.3 c -0.5,-0.3 -0.7,-0.5 -0.7,-0.8 0,-0.8 1,-1.3 2.3,-1.3 1,0 2.2,0.3 4.4,1 l 1.5,-5.7 c -1.7,-0.5 -3.3,-0.7 -4.9,-0.7 -6.1,0 -10.9,3.4 -10.9,7.7 0,2.3 1.5,3.9 5.3,5.7 1.8,0.8 2.1,1 2.1,1.6 0,0.9 -0.9,1.4 -2.5,1.4 -1.3,0 -3.1,-0.4 -5.4,-1.3 l 0,0 -1.6,5.9 z"
   id="path4810"
   inkscape:connector-curvature="0" />
	</g>
</g>
</svg>