<?xml version="1.0" encoding="UTF-8" standalone="no"?>
<!-- Generator: Adobe Illustrator 17.1.0, SVG Export Plug-In . SVG Version: 6.00 Build 0)  -->

<svg
   xmlns:dc="http://purl.org/dc/elements/1.1/"
   xmlns:cc="http://creativecommons.org/ns#"
   xmlns:rdf="http://www.w3.org/1999/02/22-rdf-syntax-ns#"
   xmlns:svg="http://www.w3.org/2000/svg"
   xmlns="http://www.w3.org/2000/svg"
   xmlns:sodipodi="http://sodipodi.sourceforge.net/DTD/sodipodi-0.dtd"
   xmlns:inkscape="http://www.inkscape.org/namespaces/inkscape"
   version="1.1"
   id="Layer_2"
   x="0px"
   y="0px"
   viewBox="0 0 174.89999 45.599998"
   enable-background="new 0 0 238.8 100.5"
   xml:space="preserve"
   inkscape:version="0.91 r13725"
   sodipodi:docname="flljr-logo-horizontal.svg"
   width="174.89999"
   height="45.599998"><metadata
   id="metadata4211"><rdf:RDF><cc:Work
       rdf:about=""><dc:format>image/svg+xml</dc:format><dc:type
         rdf:resource="http://purl.org/dc/dcmitype/StillImage" /><dc:title></dc:title></cc:Work></rdf:RDF></metadata><defs
   id="defs4209" /><sodipodi:namedview
   pagecolor="#ffffff"
   bordercolor="#666666"
   borderopacity="1"
   objecttolerance="10"
   gridtolerance="10"
   guidetolerance="10"
   inkscape:pageopacity="0"
   inkscape:pageshadow="2"
   inkscape:window-width="1467"
   inkscape:window-height="865"
   id="namedview4207"
   showgrid="false"
   inkscape:zoom="2.5326518"
   inkscape:cx="136.28476"
   inkscape:cy="-8.8622225"
   inkscape:window-x="2560"
   inkscape:window-y="0"
   inkscape:window-maximized="0"
   inkscape:current-layer="Layer_2"
   fit-margin-top="0"
   fit-margin-left="0"
   fit-margin-right="0"
   fit-margin-bottom="0" />
<g
   id="g4153"
   transform="translate(-30.3,-27.8)">
	<path
   d="m 109.2,44.6 3.3,0 0,9.7 5.8,0 0,2.8 -9.1,0 0,-12.5 z"
   id="path4155"
   inkscape:connector-curvature="0" />
	<path
   d="m 118.8,44.6 10,0 0,2.6 -6.7,0 0,2.2 6.1,0 0,2.5 -6.1,0 0,2.4 6.9,0 0,2.8 -10.1,0 0,-12.5 z"
   id="path4157"
   inkscape:connector-curvature="0" />
	<path
   d="m 141.3,57.1 -2.1,0 -0.2,-1.4 c -0.9,1.2 -2.3,1.6 -3.5,1.6 -3.8,0 -6.2,-2.9 -6.2,-6.5 0,-3.6 2.5,-6.5 6.2,-6.5 2.6,0 5.4,1.4 5.7,4.5 l -3.3,0 c -0.1,-1.1 -1.2,-1.7 -2.5,-1.7 -2.1,0 -2.9,1.9 -2.9,3.7 0,1.9 0.8,3.7 2.9,3.7 1.6,0 2.7,-0.8 2.9,-1.9 l -2.3,0 0,-2.4 5.3,0 0,6.9 z"
   id="path4159"
   inkscape:connector-curvature="0" />
	<path
   d="m 148,44.4 c 3.9,0 6.2,2.9 6.2,6.5 0,3.6 -2.2,6.5 -6.2,6.5 -3.9,0 -6.2,-2.9 -6.2,-6.5 0.1,-3.6 2.3,-6.5 6.2,-6.5 z m 0,10.2 c 2.1,0 2.9,-1.9 2.9,-3.7 0,-1.9 -0.8,-3.7 -2.9,-3.7 -2.1,0 -2.9,1.9 -2.9,3.7 0,1.8 0.8,3.7 2.9,3.7 z"
   id="path4161"
   inkscape:connector-curvature="0" />
	<path
   d="m 109.2,60.6 3.3,0 0,9.7 5.8,0 0,2.8 -9.1,0 0,-12.5 z"
   id="path4163"
   inkscape:connector-curvature="0" />
	<path
   d="m 118.8,60.6 10,0 0,2.6 -6.7,0 0,2.2 6.1,0 0,2.5 -6.1,0 0,2.4 6.9,0 0,2.8 -10.1,0 0,-12.5 z"
   id="path4165"
   inkscape:connector-curvature="0" />
	<path
   d="m 133.2,60.6 3.3,0 4.7,12.5 -3.4,0 -0.8,-2.2 -4.4,0 -0.8,2.2 -3.3,0 4.7,-12.5 z m 0.2,7.9 2.8,0 -1.4,-4.4 0,0 -1.4,4.4 z"
   id="path4167"
   inkscape:connector-curvature="0" />
	<path
   d="m 152.6,73.1 -2.1,0 -0.2,-1.4 c -0.9,1.2 -2.3,1.6 -3.5,1.6 -3.8,0 -6.2,-2.9 -6.2,-6.5 0,-3.6 2.5,-6.5 6.2,-6.5 2.6,0 5.4,1.4 5.7,4.5 l -3.3,0 c -0.1,-1.1 -1.2,-1.7 -2.5,-1.7 -2.1,0 -2.9,1.9 -2.9,3.7 0,1.9 0.8,3.7 2.9,3.7 1.6,0 2.7,-0.8 2.9,-1.9 l -2.3,0 0,-2.4 5.3,0 0,6.9 z"
   id="path4169"
   inkscape:connector-curvature="0" />
	<path
   d="m 164.4,68 c 0,3.6 -1.7,5.4 -5.4,5.4 -3.8,0 -5.4,-1.8 -5.4,-5.4 l 0,-7.3 3.3,0 0,7.5 c 0,1.6 0.6,2.4 2.2,2.4 1.6,0 2.2,-0.8 2.2,-2.4 l 0,-7.5 3.3,0 0,7.3 z"
   id="path4171"
   inkscape:connector-curvature="0" />
	<path
   d="m 165.5,60.6 10,0 0,2.6 -6.7,0 0,2.2 6.1,0 0,2.5 -6.1,0 0,2.4 6.9,0 0,2.8 -10.1,0 0,-12.5 z"
   id="path4173"
   inkscape:connector-curvature="0" />
	<path
   d="m 189.1,69.2 c 0,2.8 -1.4,4.2 -4.4,4.2 -3.3,0 -4.4,-1.9 -4.4,-4.7 l 0,-0.5 3.1,0 0,1.2 c 0,0.8 0.5,1.3 1.3,1.3 0.8,0 1.2,-0.4 1.2,-1.6 l 0,-8.3 3.3,0 0,8.4 z"
   id="path4175"
   inkscape:connector-curvature="0" />
	<path
   d="m 190.3,60.6 6.4,0 c 2.2,0 4.4,1 4.4,3.5 0,1.3 -0.6,2.6 -2,3.1 l 0,0 c 1.3,0.3 1.7,1.8 1.8,3 0,0.5 0.1,2.4 0.5,2.8 l -3.2,0 c -0.3,-0.4 -0.3,-1.6 -0.4,-2 -0.1,-1.3 -0.3,-2.6 -1.8,-2.6 l -2.5,0 0,4.6 -3.3,0 0,-12.4 z m 3.2,5.5 2.7,0 c 1,0 1.5,-0.5 1.5,-1.5 0,-0.9 -0.7,-1.3 -1.6,-1.3 l -2.6,0 0,2.8 z"
   id="path4177"
   inkscape:connector-curvature="0" />
	<path
   d="m 201.9,69.9 3.3,0 0,3.3 -3.3,0 0,-3.3 z"
   id="path4179"
   inkscape:connector-curvature="0" />
</g>
<path
   d="m 124.9,17.4 c 0.6,0 1.1,0.5 1.1,1.1 0,0.6 -0.5,1.1 -1.1,1.1 -0.6,0 -1.1,-0.5 -1.1,-1.1 0,-0.6 0.4,-1.1 1.1,-1.1 z m 0,2.1 c 0.5,0 1,-0.4 1,-1 0,-0.5 -0.4,-1 -1,-1 -0.5,0 -1,0.4 -1,1 0,0.6 0.4,1 1,1 z M 124.4,18 c 0.1,0 0.1,0 0.2,0 0.1,0 0.2,0 0.2,0 0.4,0 0.5,0.1 0.5,0.4 0,0.2 -0.1,0.3 -0.2,0.3 l 0,0 c 0,0 0,0 0,0 0,0 0.2,0.2 0.3,0.4 l -0.4,0 c -0.1,-0.2 -0.1,-0.2 -0.2,-0.4 l 0,0.4 -0.4,0 0,-1.1 z m 0.4,0.5 c 0.1,0 0.2,0 0.2,-0.1 0,-0.1 -0.1,-0.1 -0.2,-0.1 0,0 0,0 0,0 l 0,0.2 c 0,0 0,0 0,0 z"
   id="path4181"
   inkscape:connector-curvature="0" />
<g
   id="g4183"
   transform="translate(-30.3,-27.8)">
	<path
   d="m 112.1,28.1 8.8,0 -0.8,3.4 -4.2,0 -0.4,1.8 4.4,0 -0.8,3.2 -4.4,0 -1,4.5 -4.6,0 3,-12.9 z"
   id="path4185"
   inkscape:connector-curvature="0" />
	<path
   d="m 122.1,28.1 4.6,0 -3,12.8 -4.6,0 3,-12.8 z"
   id="path4187"
   inkscape:connector-curvature="0" />
	<path
   d="m 127.9,28.2 0.3,0 c 1.5,-0.2 3.3,-0.3 4.3,-0.3 1.7,0 3,0.2 4,0.6 1.3,0.5 2,1.7 2,3 0,1.2 -0.4,2.3 -1.2,3.2 -0.7,0.8 -1.2,1.1 -2.5,1.5 l -0.3,0.1 c 0.1,0.1 0.2,0.1 0.2,0.2 0.4,0.4 1.4,2.5 2.3,4.5 l -5,0 c -0.6,-1.8 -0.8,-2.3 -1.7,-4.4 l -1,4.4 -4.4,0 3,-12.8 z m 3.4,6 c 1.5,0 2.5,-0.9 2.5,-2.1 0,-0.7 -0.5,-1 -1.4,-1 -0.3,0 -0.4,0 -0.7,0.1 l -0.7,3 c 0.1,0 0.1,0 0.3,0 z"
   id="path4189"
   inkscape:connector-curvature="0" />
	<path
   d="m 149.3,28.1 11.1,0 -0.8,3.7 -3.3,0 -2.2,9.1 -4.6,0 2.2,-9.1 -3.6,0 1.2,-3.7 z"
   id="path4191"
   inkscape:connector-curvature="0" />
	<path
   d="m 156.3,38.7 c 0.6,0 1.1,0.5 1.1,1.1 0,0.6 -0.5,1.1 -1.1,1.1 -0.6,0 -1.1,-0.5 -1.1,-1.1 0,-0.7 0.5,-1.1 1.1,-1.1 z m 0,2 c 0.5,0 1,-0.4 1,-1 0,-0.5 -0.4,-1 -1,-1 -0.5,0 -1,0.4 -1,1 0,0.6 0.4,1 1,1 z m -0.4,-1.5 c 0.1,0 0.1,0 0.2,0 0.1,0 0.2,0 0.2,0 0.4,0 0.5,0.1 0.5,0.4 0,0.2 -0.1,0.3 -0.2,0.3 l 0,0 c 0,0 0,0 0,0 0,0 0.2,0.2 0.3,0.4 l -0.4,0 c -0.1,-0.2 -0.1,-0.2 -0.2,-0.4 l 0,0.4 -0.4,0 0,-1.1 z m 0.4,0.5 c 0.1,0 0.2,0 0.2,-0.1 0,-0.1 -0.1,-0.1 -0.2,-0.1 0,0 0,0 0,0 l 0,0.2 c -0.1,0 -0.1,0 0,0 z"
   id="path4193"
   inkscape:connector-curvature="0" />
	<g
   id="g4195">
		<path
   d="m 137.6,40.6 c 1.3,0.4 2.7,0.6 4,0.6 1.8,0 3.1,-0.4 4.3,-1.3 1.3,-0.9 2.1,-2.3 2.1,-3.6 0,-0.9 -0.4,-1.7 -1,-2.2 -0.5,-0.4 -1.1,-0.8 -2.2,-1.3 l -0.9,-0.4 c -0.3,-0.2 -0.4,-0.3 -0.4,-0.5 0,-0.5 0.6,-0.8 1.4,-0.8 0.6,0 1.3,0.2 2.7,0.6 l 0.9,-3.5 c -1,-0.3 -2,-0.4 -3,-0.4 -3.7,0 -6.6,2 -6.6,4.7 0,1.4 0.9,2.4 3.2,3.4 1.1,0.5 1.3,0.6 1.3,1 0,0.5 -0.6,0.8 -1.5,0.8 -0.8,0 -1.9,-0.3 -3.3,-0.8 l 0,0 -1,3.7 z"
   id="path4197"
   inkscape:connector-curvature="0" />
	</g>
</g>
<g
   id="g4199"
   transform="translate(-30.3,-27.8)">
	<path
   d="m 41.6,58.4 -0.5,2.7 5.2,-2.2 C 46,58.2 45.7,57.5 45.5,56.7 l -3.9,1.7 z"
   id="path4201"
   inkscape:connector-curvature="0" />
	<line
   x1="41.599998"
   y1="58.400002"
   x2="41.599998"
   y2="58.400002"
   id="line4203" />
	<path
   d="m 104.2,48.4 0,0 0,0 -21,-20.1 -7.1,7.3 c -2.9,-1.1 -7.5,-2 -11,-2 -5.1,0 -10.3,1.7 -13.9,4 l -9.8,-9.3 0,0 0,0 0,0 0,0 -3.5,0.4 -7.6,41.6 3.5,0.4 0,0 16,-7 c 0,0 0,0 0.1,0.1 3.8,3.4 9.5,5.5 15.9,5.5 4.4,0 8.6,-1 11.9,-2.8 l 6.4,6.2 20,-20.8 0,-3.5 0.1,0 0,0 z M 65,34.5 c 3.3,0 7.7,0.8 10.5,1.9 l -0.1,0.1 -3.1,3.2 0,0 c -2,-0.7 -4.1,-1 -6.5,-1 -4,0 -7.7,1.1 -10.4,2.9 l 0,0 -3.3,-3.1 -0.3,-0.3 c 3.6,-2.1 8.3,-3.7 13.2,-3.7 z m 4.4,8.3 -6.1,6.4 L 58,44 c 2.3,-1 5,-1.6 7.9,-1.6 1.2,0.1 2.4,0.2 3.5,0.4 z m -35.4,27 7.3,-40.7 10.4,9.9 3.3,3.1 2.5,2.4 5.9,5.7 0,2.6 2.5,2.4 -7.9,3.6 c -1.8,-0.8 -3.3,-1.8 -4.5,-3 0,0 0,-0.1 -0.1,-0.1 l 6,-2.8 -14.1,-13.3 -0.3,-0.3 -0.3,1.8 -3.4,17.5 -0.5,2.7 0.9,-0.4 0,0 4.6,-2 c 0.7,1.5 1.7,2.9 3,4.2 L 34,69.8 Z m 33.2,-13.5 3.4,3.3 c -1.6,0.4 -3.2,0.6 -4.9,0.6 -2.1,0 -4.1,-0.3 -6,-0.9 C 59.4,59.2 59.2,59.1 59,59 l 7.5,-3.4 0.7,0.7 z m -15,-2.2 C 52.2,54 52.1,54 52.1,53.9 51.6,53.1 51.2,52.3 51,51.4 c 0,-0.1 0,-0.2 -0.1,-0.3 0.2,-0.9 0.6,-1.7 1.1,-2.4 l 4,3.9 -3.8,1.5 z m -7.6,-2 c 0,0.1 0,0.1 0,0 0,0.2 0,0.3 0,0.3 0,1 0.6,3.4 0.9,4.3 0,0 0,0 0,0 l -3.3,1.4 3.1,-16.1 1.3,1.3 c -1.4,2.2 -2.2,4.5 -2.2,6.9 0,0.6 0.1,1.3 0.2,1.9 z m 32.8,10.6 c -0.8,0.4 -1.6,0.7 -2.4,1 -2.9,1.1 -6,1.6 -9.2,1.6 -4.6,0 -8.9,-1.1 -12.6,-3.2 -2,-1.1 -3.7,-2.5 -5,-4.1 -0.5,-0.6 -0.9,-1.2 -1.3,-1.9 -0.8,-1.3 -1.3,-2.7 -1.5,-4.1 -0.1,-0.6 -0.2,-1.2 -0.2,-1.8 0,-2.2 0.6,-4.3 1.9,-6.3 l 3.3,3.4 c -0.2,0.8 -0.3,1.6 -0.3,2.3 0,0.7 0.1,1.3 0.2,2 0.2,0.9 0.6,1.8 1.2,2.7 0.4,0.7 1,1.3 1.6,1.9 1.7,1.7 3.9,3 6.5,3.8 2,0.6 4.1,0.9 6.2,0.9 1.7,0 3.5,-0.2 5.1,-0.6 0.9,-0.2 1.9,-0.5 2.7,-0.9 2,-0.8 3.7,-2 5,-3.3 1.3,-1.4 2.2,-2.9 2.6,-4.5 0.2,-0.7 0.2,-1.3 0.2,-2 0,-1.9 -0.7,-4 -1.8,-5.6 l 2.8,-3 c 2.4,2.5 3.9,5.9 3.9,9.1 0,0.6 -0.1,1.2 -0.2,1.8 -0.4,2.7 -1.9,5.2 -4.1,7.4 -1.3,1.4 -2.9,2.5 -4.6,3.4 z m 0.8,-7.3 -4.9,-4.8 4.2,-4.4 c 1.5,1.2 2.6,2.7 3.2,4.4 0,0.3 -0.1,0.5 -0.1,0.8 -0.5,1.5 -1.3,2.8 -2.4,4 z M 86.9,52 C 87,51.4 87,50.8 87,50.2 c 0,-3.4 -1.5,-7 -4.1,-9.7 l 0.7,-0.7 10.5,10.1 -8.7,9 c 0.9,-2.1 1.5,-4.8 1.5,-6.7 0,0 0,-0.1 0,-0.2 z M 84.3,69.2 80,65.1 c 1.7,-1.1 3.1,-2.5 4.2,-4 0,0 0,0 0,-0.1 l 10.4,-10.8 0.3,-0.3 1.4,-1.4 -12.7,-12.1 -2.8,3 -3.1,3.3 -2.1,2.2 -4,4.2 0,0 -0.3,0.4 1.2,1.1 5.5,5.3 c -1.5,1.1 -3,2.1 -4.7,2.8 0,0 0,0 0,0 l -3.6,-3.5 -3.5,-3.4 -2.4,-2.3 5.7,-6 2.9,-3 3.1,-3.2 7.8,-8.1 20.5,19.6 -19.5,20.4 z"
   id="path4205"
   inkscape:connector-curvature="0" />
</g>
</svg>