<?xml version="1.0" encoding="UTF-8" standalone="no"?>
<!-- Generator: Adobe Illustrator 17.1.0, SVG Export Plug-In . SVG Version: 6.00 Build 0)  -->

<svg
   xmlns:dc="http://purl.org/dc/elements/1.1/"
   xmlns:cc="http://creativecommons.org/ns#"
   xmlns:rdf="http://www.w3.org/1999/02/22-rdf-syntax-ns#"
   xmlns:svg="http://www.w3.org/2000/svg"
   xmlns="http://www.w3.org/2000/svg"
   xmlns:sodipodi="http://sodipodi.sourceforge.net/DTD/sodipodi-0.dtd"
   xmlns:inkscape="http://www.inkscape.org/namespaces/inkscape"
   version="1.1"
   id="Layer_2"
   x="0px"
   y="0px"
   viewBox="0 0 140 68.400002"
   enable-background="new 0 0 225 164"
   xml:space="preserve"
   inkscape:version="0.91 r13725"
   sodipodi:docname="flljr-wordmark.svg"
   width="140"
   height="68.400002"><metadata
   id="metadata5415"><rdf:RDF><cc:Work
       rdf:about=""><dc:format>image/svg+xml</dc:format><dc:type
         rdf:resource="http://purl.org/dc/dcmitype/StillImage" /><dc:title></dc:title></cc:Work></rdf:RDF></metadata><defs
   id="defs5413" /><sodipodi:namedview
   pagecolor="#ffffff"
   bordercolor="#666666"
   borderopacity="1"
   objecttolerance="10"
   gridtolerance="10"
   guidetolerance="10"
   inkscape:pageopacity="0"
   inkscape:pageshadow="2"
   inkscape:window-width="707"
   inkscape:window-height="480"
   id="namedview5411"
   showgrid="false"
   fit-margin-top="0"
   fit-margin-left="0"
   fit-margin-right="0"
   fit-margin-bottom="0"
   inkscape:zoom="1.4311111"
   inkscape:cx="71.5"
   inkscape:cy="35.4"
   inkscape:window-x="2560"
   inkscape:window-y="0"
   inkscape:window-maximized="0"
   inkscape:current-layer="Layer_2" />
<g
   id="g5359"
   transform="translate(-41,-49)">
	<g
   id="g5361">
		<path
   d="m 41,98.8 4.8,0 0,14.2 8.5,0 0,4.1 -13.3,0 0,-18.3 z"
   id="path5363"
   inkscape:connector-curvature="0" />
		<path
   d="m 55.1,98.8 14.5,0 0,3.8 -9.8,0 0,3.2 8.9,0 0,3.7 -8.9,0 0,3.5 10,0 0,4.1 -14.7,0 0,-18.3 z"
   id="path5365"
   inkscape:connector-curvature="0" />
		<path
   d="m 76,98.8 4.8,0 6.8,18.2 -5,0 -1.1,-3.3 -6.4,0 -1.1,3.3 -4.9,0 6.9,-18.2 z m 0.3,11.4 4.1,0 -2,-6.4 -0.1,0 -2,6.4 z"
   id="path5367"
   inkscape:connector-curvature="0" />
		<path
   d="m 104.3,117 -3.1,0 -0.3,-2 c -1.3,1.8 -3.4,2.4 -5.1,2.4 -5.5,0 -9.1,-4.2 -9.1,-9.5 0,-5.3 3.6,-9.5 9.1,-9.5 3.8,0 7.8,2 8.3,6.6 l -4.8,0 c -0.2,-1.6 -1.7,-2.5 -3.6,-2.5 -3.1,0 -4.2,2.7 -4.2,5.4 0,2.7 1.2,5.4 4.2,5.4 2.3,0 3.9,-1.1 4.2,-2.8 l -3.3,0 0,-3.5 7.7,0 0,10 z"
   id="path5369"
   inkscape:connector-curvature="0" />
		<path
   d="m 121.6,109.5 c 0,5.3 -2.4,7.9 -7.9,7.9 -5.5,0 -7.9,-2.6 -7.9,-7.9 l 0,-10.7 4.8,0 0,11 c 0,2.3 0.9,3.6 3.2,3.6 2.3,0 3.2,-1.2 3.2,-3.6 l 0,-11 4.8,0 0,10.7 z"
   id="path5371"
   inkscape:connector-curvature="0" />
		<path
   d="m 123.2,98.8 14.5,0 0,3.8 -9.7,0 0,3.2 8.9,0 0,3.7 -8.9,0 0,3.5 10,0 0,4.1 -14.8,0 0,-18.3 z"
   id="path5373"
   inkscape:connector-curvature="0" />
		<path
   d="m 157.6,111.2 c 0,4.1 -2.1,6.2 -6.4,6.2 -4.8,0 -6.4,-2.8 -6.4,-6.8 l 0,-0.8 4.5,0 0,1.7 c 0,1.2 0.7,1.9 1.8,1.9 1.1,0 1.7,-0.6 1.7,-2.4 l 0,-12.2 4.8,0 0,12.4 z"
   id="path5375"
   inkscape:connector-curvature="0" />
		<path
   d="m 159.3,98.8 9.3,0 c 3.2,0 6.4,1.5 6.4,5.1 0,2 -0.9,3.8 -2.9,4.6 l 0,0.1 c 1.9,0.5 2.5,2.6 2.7,4.4 0.1,0.8 0.1,3.4 0.8,4.1 l -4.7,0 c -0.4,-0.6 -0.5,-2.4 -0.5,-2.9 -0.1,-1.8 -0.4,-3.7 -2.7,-3.7 l -3.6,0 0,6.6 -4.8,0 0,-18.3 z m 4.8,7.9 4,0 c 1.4,0 2.2,-0.8 2.2,-2.1 0,-1.4 -1.1,-2 -2.4,-2 l -3.8,0 0,4.1 z"
   id="path5377"
   inkscape:connector-curvature="0" />
		<path
   d="m 176.2,112.3 4.8,0 0,4.8 -4.8,0 0,-4.8 z"
   id="path5379"
   inkscape:connector-curvature="0" />
	</g>
	<g
   id="g5381">
		<g
   id="g5383">
			<path
   d="m 76.8,75.4 4.8,0 0,14.2 8.4,0 0,4.1 -13.2,0 0,-18.3 z"
   id="path5385"
   inkscape:connector-curvature="0" />
			<path
   d="m 90.8,75.4 14.5,0 0,3.8 -9.8,0 0,3.2 8.9,0 0,3.7 -8.9,0 0,3.5 10,0 0,4.1 -14.7,0 0,-18.3 z"
   id="path5387"
   inkscape:connector-curvature="0" />
			<path
   d="m 123.6,93.7 -3.1,0 -0.3,-2 c -1.3,1.8 -3.4,2.4 -5.1,2.4 -5.5,0 -9.1,-4.2 -9.1,-9.5 0,-5.3 3.6,-9.5 9.1,-9.5 3.8,0 7.8,2 8.3,6.6 l -4.8,0 c -0.2,-1.6 -1.7,-2.5 -3.6,-2.5 -3.1,0 -4.2,2.7 -4.2,5.4 0,2.7 1.2,5.4 4.2,5.4 2.3,0 3.9,-1.1 4.2,-2.8 l -3.2,0 0,-3.5 7.7,0 0,10 z"
   id="path5389"
   inkscape:connector-curvature="0" />
			<path
   d="m 133.4,75 c 5.7,0 9,4.2 9,9.5 0,5.3 -3.2,9.5 -9,9.5 -5.7,0 -9,-4.2 -9,-9.5 0,-5.3 3.3,-9.5 9,-9.5 z m 0,15 c 3.1,0 4.2,-2.7 4.2,-5.4 0,-2.7 -1.2,-5.4 -4.2,-5.4 -3.1,0 -4.2,2.7 -4.2,5.4 0,2.6 1.2,5.4 4.2,5.4 z"
   id="path5391"
   inkscape:connector-curvature="0" />
		</g>
		<path
   d="m 143.4,75.5 c 1,0 1.8,0.8 1.8,1.8 0,1 -0.8,1.8 -1.8,1.8 -1,0 -1.8,-0.8 -1.8,-1.8 0,-1 0.8,-1.8 1.8,-1.8 z m 0,3.4 c 0.9,0 1.6,-0.7 1.6,-1.6 0,-0.9 -0.7,-1.6 -1.6,-1.6 -0.9,0 -1.6,0.7 -1.6,1.6 0,0.9 0.7,1.6 1.6,1.6 z m -0.7,-2.5 c 0.1,0 0.1,0 0.3,0 0.2,0 0.3,0 0.3,0 0.6,0 0.9,0.2 0.9,0.7 0,0.3 -0.1,0.4 -0.4,0.5 l 0,0 c 0,0 0,0 0,0 0.1,0.1 0.3,0.4 0.5,0.7 l -0.7,0 C 143.5,78 143.4,78 143.2,77.7 l 0,0.6 -0.6,0 0,-1.9 z m 0.7,0.8 c 0.2,0 0.3,-0.1 0.3,-0.2 0,-0.1 -0.1,-0.2 -0.2,-0.2 0,0 0,0 -0.1,0 l 0,0.4 c -0.1,0 -0.1,0 0,0 z"
   id="path5393"
   inkscape:connector-curvature="0" />
	</g>
	<g
   id="g5395">
		<path
   d="m 73.6,49.5 14.6,0 -1.4,5.6 -7,0 -0.7,3 7.3,0 -1.3,5.2 -7.1,0 -1.7,7.4 -7.5,0 4.8,-21.2 z"
   id="path5397"
   inkscape:connector-curvature="0" />
		<path
   d="m 90.2,49.5 7.5,0 -4.9,21.2 -7.5,0 4.9,-21.2 z"
   id="path5399"
   inkscape:connector-curvature="0" />
		<path
   d="m 99.7,49.6 0.5,-0.1 c 2.4,-0.3 5.4,-0.5 7.1,-0.5 2.8,0 4.9,0.3 6.5,1 2.1,0.9 3.3,2.7 3.3,5 0,1.9 -0.7,3.8 -1.9,5.2 -1.1,1.2 -2,1.8 -4,2.4 l -0.5,0.2 c 0.2,0.2 0.3,0.2 0.4,0.3 0.6,0.7 2.4,4.1 3.8,7.5 l -8.3,0 c -1.1,-3 -1.4,-3.8 -2.8,-7.2 l -1.7,7.2 -7.3,0 4.9,-21 z m 5.6,10 c 2.4,0 4.1,-1.4 4.1,-3.5 0,-1.1 -0.8,-1.6 -2.4,-1.6 -0.4,0 -0.7,0 -1.2,0.1 l -1.1,4.9 c 0.3,0.1 0.3,0.1 0.6,0.1 z"
   id="path5401"
   inkscape:connector-curvature="0" />
		<path
   d="m 135,49.5 18.3,0 -1.3,6.1 -5.4,0 -3.6,15 -7.5,0 3.6,-15 -5.9,0 1.8,-6.1 z"
   id="path5403"
   inkscape:connector-curvature="0" />
		<path
   d="m 146.5,66.9 c 1,0 1.8,0.8 1.8,1.8 0,1 -0.8,1.8 -1.8,1.8 -1,0 -1.8,-0.8 -1.8,-1.8 0,-1 0.8,-1.8 1.8,-1.8 z m 0,3.5 c 0.9,0 1.6,-0.7 1.6,-1.6 0,-0.9 -0.7,-1.6 -1.6,-1.6 -0.9,0 -1.6,0.7 -1.6,1.6 0,0.8 0.7,1.6 1.6,1.6 z m -0.7,-2.6 c 0.1,0 0.1,0 0.3,0 0.2,0 0.3,0 0.3,0 0.6,0 0.9,0.2 0.9,0.7 0,0.3 -0.1,0.4 -0.4,0.5 l 0,0 c 0,0 0,0 0,0 0.1,0.1 0.3,0.4 0.5,0.7 l -0.7,0 c -0.1,-0.3 -0.2,-0.3 -0.4,-0.6 l 0,0.6 -0.6,0 0,-1.9 z m 0.7,0.9 c 0.2,0 0.3,-0.1 0.3,-0.2 0,-0.1 -0.1,-0.2 -0.2,-0.2 0,0 0,0 -0.1,0 l 0,0.4 c -0.1,0 0,0 0,0 z"
   id="path5405"
   inkscape:connector-curvature="0" />
		<g
   id="g5407">
			<path
   d="m 115.7,70.2 c 2.1,0.6 4.4,1 6.6,1 2.9,0 5.2,-0.7 7.1,-2.1 2.1,-1.5 3.5,-3.9 3.5,-6 0,-1.4 -0.6,-2.7 -1.7,-3.7 -0.9,-0.7 -1.8,-1.2 -3.6,-2.1 l -1.5,-0.7 c -0.5,-0.3 -0.7,-0.5 -0.7,-0.8 0,-0.8 1,-1.3 2.3,-1.3 1,0 2.2,0.3 4.4,1 l 1.5,-5.7 c -1.7,-0.5 -3.3,-0.7 -4.9,-0.7 -6.2,0 -10.9,3.4 -10.9,7.7 0,2.3 1.5,3.9 5.3,5.7 1.8,0.8 2.1,1 2.1,1.6 0,0.9 -0.9,1.4 -2.5,1.4 -1.3,0 -3.1,-0.4 -5.4,-1.3 l 0,0 -1.6,6 z"
   id="path5409"
   inkscape:connector-curvature="0" />
		</g>
	</g>
</g>
</svg>