<?xml version="1.0" encoding="UTF-8" standalone="no"?>
<!-- Generator: Adobe Illustrator 17.1.0, SVG Export Plug-In . SVG Version: 6.00 Build 0)  -->

<svg
   xmlns:dc="http://purl.org/dc/elements/1.1/"
   xmlns:cc="http://creativecommons.org/ns#"
   xmlns:rdf="http://www.w3.org/1999/02/22-rdf-syntax-ns#"
   xmlns:svg="http://www.w3.org/2000/svg"
   xmlns="http://www.w3.org/2000/svg"
   xmlns:sodipodi="http://sodipodi.sourceforge.net/DTD/sodipodi-0.dtd"
   xmlns:inkscape="http://www.inkscape.org/namespaces/inkscape"
   version="1.1"
   id="Layer_1"
   x="0px"
   y="0px"
   viewBox="0 0 432.74789 226"
   enable-background="new 0 0 612 792"
   xml:space="preserve"
   inkscape:version="0.91 r13725"
   sodipodi:docname="fll-animal-allies-logo.svg"
   width="432.74789"
   height="226"><metadata
   id="metadata12227"><rdf:RDF><cc:Work
       rdf:about=""><dc:format>image/svg+xml</dc:format><dc:type
         rdf:resource="http://purl.org/dc/dcmitype/StillImage" /><dc:title></dc:title></cc:Work></rdf:RDF></metadata><defs
   id="defs12225" /><sodipodi:namedview
   pagecolor="#ffffff"
   bordercolor="#666666"
   borderopacity="1"
   objecttolerance="10"
   gridtolerance="10"
   guidetolerance="10"
   inkscape:pageopacity="0"
   inkscape:pageshadow="2"
   inkscape:window-width="2176"
   inkscape:window-height="1031"
   id="namedview12223"
   showgrid="false"
   fit-margin-top="0"
   fit-margin-left="0"
   fit-margin-right="0"
   fit-margin-bottom="0"
   inkscape:zoom="1.3926187"
   inkscape:cx="133.88577"
   inkscape:cy="65.196678"
   inkscape:window-x="2560"
   inkscape:window-y="0"
   inkscape:window-maximized="0"
   inkscape:current-layer="Layer_1" />














<g
   id="g12769"
   transform="matrix(1.0917754,0,0,1.0917754,-120.12716,-284.62336)"><path
     style="fill:#000000"
     id="path12169"
     d="m 194,464.3 c -0.9,0 -3.7,0.3 -3.7,-1.2 0,-2.7 7.5,-12.5 7.5,-23.7 0,-4.4 -4.2,-6.1 -8.6,-6.1 -8.9,0 -23.1,1.6 -23.1,12.7 0,7.7 6.4,16 6.4,17.5 0,0.6 -0.6,0.7 -1.9,0.7 l -14,0 c -5,0 -6.4,-8.8 -6.4,-21.5 0,-41.9 29,-61.3 33.3,-61.3 3.2,0 28.5,14 28.5,59.4 0,26.1 -4.2,23.5 -7.1,23.5 l -10.9,0 z m -25.7,-43.4 c 0,1.2 0.7,1.9 1.9,1.9 1.8,0 11.2,-2.5 19.9,-2.5 3.4,0 5,-0.5 5,-3.2 0,-6.1 -7.2,-18.8 -11,-18.8 -5.4,-0.1 -15.8,15.5 -15.8,22.6 z"
     inkscape:connector-curvature="0" /><path
     style="fill:#000000"
     id="path12171"
     d="m 263.5,378.6 c -6.7,0 -0.7,-6.1 -15.9,-37 -1.3,-2.6 -9.9,-19.1 -13,-19.1 -2.4,0 -1.8,10.7 -1.8,12.6 0,27.6 4,37.5 4,42.5 0,1.3 -1.9,0.9 -2.7,0.9 l -9.1,0 c -2.4,0 -5.4,1.9 -5.4,-34.8 0,-48.3 5.1,-46.5 6.7,-46.5 l 7.7,0 c 3.7,0 11.1,7.8 29.4,41.7 0.3,0.5 0.8,1.8 1.7,1.8 1,0 0.8,-4.2 0.8,-5.6 0,-18.3 -5,-34.5 -5,-36.8 0,-1.4 2.2,-1.1 4,-1.1 l 7.4,0 c 2.2,0 6.7,-1.8 6.7,46.5 0,36.7 -2.9,34.8 -5.4,34.8 l -10.1,0 z"
     inkscape:connector-curvature="0" /><path
     style="fill:#000000"
     id="path12173"
     d="m 291.5,378.6 c -2.4,0 -5.4,1.9 -5.4,-34.8 0,-48.3 5.1,-46.5 6.7,-46.5 l 10.6,0 c 1.3,0 3.7,-0.3 3.7,1.6 0,1 -5.2,17.3 -5.2,36.2 0,25 4.9,41.2 4.9,42.5 0,1 -0.6,1.1 -1.5,1.1 l -2,0 -11.8,0 z"
     inkscape:connector-curvature="0" /><path
     style="fill:#000000"
     id="path12175"
     d="m 435.9,378.6 c -0.9,0 -3.7,0.3 -3.7,-1.2 0,-2.7 7.5,-12.5 7.5,-23.7 0,-4.4 -4.2,-6.1 -8.6,-6.1 -8.9,0 -23.1,1.6 -23.1,12.7 0,7.7 6.4,16 6.4,17.5 0,0.6 -0.6,0.7 -1.9,0.7 l -14,0 c -5,0 -6.4,-8.8 -6.4,-21.5 0,-41.9 29,-61.3 33.3,-61.3 3.2,0 28.5,14 28.5,59.4 0,26.1 -4.2,23.5 -7.1,23.5 l -10.9,0 z m -25.7,-43.4 c 0,1.2 0.7,1.9 1.9,1.9 1.8,0 11.2,-2.5 19.8,-2.5 3.4,0 5,-0.5 5,-3.2 0,-6.1 -7.2,-18.8 -10.9,-18.8 -5.3,-0.1 -15.8,15.5 -15.8,22.6 z"
     inkscape:connector-curvature="0" /><path
     style="fill:#000000"
     id="path12177"
     d="m 462.4,378.6 c -5.2,0.2 -3.6,-3.2 -4.1,-23.1 0,-13.1 5.4,-58.3 8.2,-58.3 l 15.5,0 c 0.7,0 1.9,0.2 1.9,2 0,2.2 -11.3,23.2 -11.3,50.2 0,13.5 5.9,16.7 11.2,16.7 9,0 14.5,-8.3 16.9,-8.3 1.9,0 5.7,18.9 5.7,19.4 0,2 -3,1.5 -4.2,1.5 l -39.8,0 z"
     inkscape:connector-curvature="0" /><path
     style="fill:#000000"
     id="path12179"
     d="m 275,466.1 c -5.2,0.2 -3.6,-3.2 -4.1,-23.1 0,-13.1 5.4,-58.3 8.2,-58.3 l 15.5,0 c 0.7,0 1.9,0.2 1.9,2 0,2.2 -11.3,23.2 -11.3,50.2 0,13.5 5.9,16.7 11.2,16.7 9,0 14.5,-8.3 16.9,-8.3 1.9,0 5.7,18.9 5.7,19.4 0,2 -3,1.5 -4.2,1.5 l -39.8,0 z"
     inkscape:connector-curvature="0" /><path
     style="fill:#000000"
     id="path12181"
     d="m 351.3,466.1 c -5.2,0.2 -3.6,-3.2 -4.1,-23.1 0,-13.1 5.4,-58.3 8.2,-58.3 l 38.6,0 c 1.2,0 4.7,-0.3 4.7,1.7 0,0.8 -6.3,14.5 -7.5,14.5 -1.7,0 -4.6,-4.6 -14.2,-4.6 -6.7,0 -13.9,4 -13.9,13.4 0,2.1 0.4,5.6 3.1,5.6 3.1,0 10.1,-4.6 18.3,-4.6 1.2,0 4.4,0.4 4.4,2.1 0,0.1 -5.5,16 -6.6,16 -1,0 -4.7,-2 -8.5,-2 -5,0 -12.2,3.6 -12.2,13.3 0,7.8 4.1,13.5 12.3,13.5 9.7,0 15.6,-6.5 18,-6.5 1.5,0 8,16.5 8,17.5 0,1.9 -2.4,1.5 -3.6,1.5 l -45,0 z"
     inkscape:connector-curvature="0" /><g
     style="fill:#000000"
     id="g12183">
	<path
   style="fill:#000000"
   id="path12185"
   d="m 285.8,282.8 c -5,1.2 -7.5,-7 -4.7,-10.3 1.6,-2 4.5,-0.1 5.7,1.3 2.1,2.6 3.4,7.9 -1,9 z"
   inkscape:connector-curvature="0" />
	<path
   style="fill:#000000"
   id="path12187"
   d="m 293.5,273.3 c -3,1.4 -6.1,-1.1 -6.4,-3.9 -0.3,-2.4 0.3,-6.3 2.9,-7 4.6,-1.4 8.3,8.7 3.5,10.9 z"
   inkscape:connector-curvature="0" />
	<path
   style="fill:#000000"
   id="path12189"
   d="m 298,269.1 c -0.5,-2.5 0.5,-8.3 4.3,-8.4 1.5,-0.1 4,3.1 2.7,7.7 -1.1,4.5 -6.4,3.2 -7,0.7 z"
   inkscape:connector-curvature="0" />
	<path
   style="fill:#000000"
   id="path12191"
   d="m 306.4,279.3 c -3.1,-1.4 -0.6,-9 3.6,-9.5 2.2,-0.3 3.3,2 2.9,5.1 -0.4,3 -3.4,5.8 -6.5,4.4 z"
   inkscape:connector-curvature="0" />
	<path
   style="fill:#000000"
   id="path12193"
   d="m 307.6,285.9 c -0.3,1 -0.9,1.6 -1.9,1.7 -1.8,0.2 -3.2,-1.6 -4.5,0.2 -0.6,0.8 -0.9,1.8 -1.9,2.1 -1.3,0.3 -2.5,-0.8 -3.5,-1.4 -1.3,-0.8 -2.1,1.3 -3,2.2 -1.4,1.5 -4.5,1.8 -5.4,-0.4 -0.9,-2.1 0.9,-4.4 2.4,-5.8 1.5,-1.4 2.9,-2.9 3.9,-4.7 0.8,-1.5 1.3,-3.2 3,-3.9 1.8,-0.7 3.8,0 4.3,2.6 0.3,1.7 1.9,1.9 3.4,2.2 2.1,0.6 3.8,2.9 3.2,5.2 z"
   inkscape:connector-curvature="0" />
</g><g
     style="fill:#000000"
     id="g12195">
	<g
   style="fill:#000000"
   id="g12197">
		<path
   style="fill:#000000"
   id="path12199"
   d="m 432,416.3 c -5.4,-1.9 -15.1,-4.6 -15.1,-11.6 0,-5.7 6.3,-8.1 11.1,-8.1 10.2,0 14,8.8 16.4,8.8 2.7,0 7.8,-8.9 7.8,-11.6 0,-2.8 -10.1,-10.4 -24.2,-10.4 -19.9,0 -25.4,14 -25.4,22.2 0,8.3 2.3,18 23.8,24.6 5.7,1.8 14.5,4.7 14.5,11.8 0,6.1 -6.5,9.3 -13.9,9.3 -21,0 -19.4,-19.8 -21,-19.8 -0.3,0 -0.9,0.4 -1.7,1.3 0,1.6 0,3.5 -0.1,5.7 -0.6,20.2 10.3,26.5 16,28.4 2.5,0.5 5.2,0.8 7.8,0.8 20.6,0 28.7,-14 28.7,-25.3 0,-9.4 -4.2,-19.3 -24.7,-26.1 z"
   inkscape:connector-curvature="0" />
	</g>
	<path
   style="fill:#000000"
   id="path12201"
   d="m 407.1,442.1 c 0,0 -13.6,4 -16.4,-1.6 -2.8,-5.6 -0.2,-5.5 0.2,-16.2 l 1,2.9 c 0,0 1.7,-6.9 -2.3,-10.4 0,0 8.7,2.2 13.1,4.9 4.3,2.6 10,7 7.4,14.1 -2.8,7.1 -3,6.3 -3,6.3 z"
   inkscape:connector-curvature="0" />
</g><path
     style="fill:#000000"
     id="path12203"
     d="m 327.3,466.1 c -2.4,0 -5.4,1.9 -5.4,-34.8 0,-48.3 5.1,-46.5 6.7,-46.5 l 10.6,0 c 1.3,0 3.7,-0.3 3.7,1.6 0,1 -5.2,17.3 -5.2,36.2 0,25 4.9,41.2 4.9,42.5 0,1 -0.6,1.1 -1.5,1.1 l -2,0 -11.8,0 z"
     inkscape:connector-curvature="0" /><g
     style="fill:#000000"
     id="g12205">
	<path
   style="fill:#000000"
   id="path12207"
   d="m 386.4,308 c -1.3,-9.2 -4.1,-23.2 -7.3,-29.2 -3.2,-5.9 -5,-4.2 -7.1,-0.7 -2.1,3.5 -6.1,11.5 -10,19.8 -3.9,8.4 -8.6,20 -10.3,24 -1.7,4 -3,-0.7 -3.7,-2.1 -0.6,-1.5 -4.4,-11.4 -7.5,-17.7 -3.1,-6.3 -9.6,-23.4 -13,-26.5 -3.4,-3.1 -6,2.9 -7.3,6.6 -1.2,3.7 -2.7,9.6 -4.1,17.2 -1.4,7.6 -2.4,13.7 -2.7,23.4 -0.3,9.7 -0.4,12.8 -0.4,20.6 0,7.8 0.1,16.5 0.9,26.1 0.8,9.6 3.5,9.1 3.5,9.1 l 12,0 c 2.3,0 2.6,-0.5 2.9,-1 0.3,-0.5 -0.7,-4.1 -2.3,-10.5 -1.5,-6.4 -3.1,-15.4 -3.7,-30.7 -0.6,-15.4 2,-21.9 5.6,-16 3.6,5.9 7,15.8 9.5,23.6 2.5,7.8 1.9,15.6 8.3,15.7 6.4,0.1 3.8,-5.1 9.3,-21.8 5.5,-16.7 9.1,-19 9.1,-19 5.4,-3.5 3.8,15.1 3.8,24.5 0,9.4 -2.1,18.8 -2.9,22 -0.8,3.2 -3.3,10.4 -3.2,11.8 0.1,1.5 4,1.3 4,1.3 0,0 6.9,0 12.8,0 5.9,0 5.2,-19.5 5.3,-30 0.2,-10.2 -0.3,-31.3 -1.5,-40.5 z m -52.7,-8.3 c -1.4,0 -13.1,1.6 -12.9,0 0,0 1.7,-11.2 3.8,-16.4 2,-5.1 10.5,16.4 9.1,16.4 z m 33.4,0 c -1.4,0 7,-21.5 9.1,-16.4 2.1,5.2 3.8,16.4 3.8,16.4 0.2,1.6 -11.4,0 -12.9,0 z"
   inkscape:connector-curvature="0" />
</g><g
     style="fill:#000000"
     id="g12209">
	<path
   style="fill:#000000"
   id="path12211"
   d="m 208.2,313.1 c -6.2,-17.8 -12.4,-23.9 -16,-28 -3.7,-4.1 -7.4,-6.3 -8.6,-7 -1.2,-0.7 -4.1,-2.6 -5.7,-2 -1.6,0.5 -6.4,2.1 -15.5,11.1 -9.1,9 -13.4,18.2 -15.5,22.4 -2.1,4.2 -5.4,13.4 -6.1,17.4 0,0 -5.9,0.9 -12.7,1.2 -6.8,0.3 -11.8,0.3 -16.1,2.6 -4.3,2.3 -0.7,4.9 2.6,7.3 3.3,2.4 7.9,3.8 12.2,5.9 4.3,2.1 6.9,3.2 11.3,6.5 0,0 -0.2,7.5 0.6,13.2 0.8,5.7 2.1,13 7.1,13 l 22.1,0.1 c 0,0 -6.2,-16.2 1.3,-43.8 7.5,-27.6 18.5,-36.6 21.9,-36.3 3.4,0.3 12.7,9.8 15.1,34.3 2.4,24.5 1.1,37.6 0.5,45.8 0,0 4,1.4 5.6,-10.5 1.6,-11.9 2.1,-35.4 -4.1,-53.2 z m -52.1,22.6 c -7.7,9.5 -4.5,-6.1 -4.5,-6.1 4.6,-26.6 12.3,-27 16.3,-24.4 4,2.6 -4.1,21 -11.8,30.5 z"
   inkscape:connector-curvature="0" />
</g><text
     style="font-size:14px;font-family:HelveticaNeue-Medium;fill:#000000"
     id="text12215"
     font-size="14"
     transform="translate(455.4073,466.6757)">SM</text>
<g
     style="fill:#000000"
     id="g12217">
	<path
   style="fill:#000000"
   id="path12219"
   d="m 225.6,466.1 37.9,0 c 0,0 5,0.3 4.5,-2 -0.5,-2.3 -2.1,-14 -5.4,-19.7 -3.4,-5.7 -8.8,-10.4 -16.9,-8.5 0,0 8.4,1.1 11.9,14 0,0 -5.8,5.1 -12.8,4.6 -7,-0.5 -9.9,-5.6 -10.3,-13.8 -0.4,-8.2 2.3,-20.7 5.7,-29.2 3.4,-8.6 5.5,-14.2 9.1,-20.9 3.6,-6.7 5.6,-9.5 5.5,-14.2 -0.1,-4.7 -4.3,-9.2 -11,-11.4 -6.8,-2.2 -10.7,-3.1 -17.1,-0.2 -6.4,2.9 -10.5,6.9 -11.8,11 -1.3,4.1 2.4,6.3 6.9,5.6 4.4,-0.6 10.1,-2.3 13.3,0.1 0,0 -3.1,8.9 -4.8,15.2 -1.7,6.3 -4.5,17.2 -6,24.1 -1.5,7 -4.1,17.5 -4,28 0.1,10.5 0.1,14.7 0.9,16 0.8,1.3 2.1,1.3 4.4,1.3 z"
   inkscape:connector-curvature="0" />
	<circle
   style="fill:#000000"
   id="circle12221"
   r="2.5999999"
   cy="370.29999"
   cx="233.89999" />
</g></g>
</svg>