<?xml version="1.0" encoding="UTF-8" standalone="no"?>
<!-- Generator: Adobe Illustrator 17.1.0, SVG Export Plug-In . SVG Version: 6.00 Build 0)  -->

<svg
   xmlns:dc="http://purl.org/dc/elements/1.1/"
   xmlns:cc="http://creativecommons.org/ns#"
   xmlns:rdf="http://www.w3.org/1999/02/22-rdf-syntax-ns#"
   xmlns:svg="http://www.w3.org/2000/svg"
   xmlns="http://www.w3.org/2000/svg"
   xmlns:sodipodi="http://sodipodi.sourceforge.net/DTD/sodipodi-0.dtd"
   xmlns:inkscape="http://www.inkscape.org/namespaces/inkscape"
   version="1.1"
   id="Layer_2"
   x="0px"
   y="0px"
   viewBox="0 0 96.900002 115.6"
   enable-background="new 0 0 225 164"
   xml:space="preserve"
   inkscape:version="0.91 r13725"
   sodipodi:docname="fll-logo-vertical.svg"
   width="96.900002"
   height="115.6"><metadata
   id="metadata6609"><rdf:RDF><cc:Work
       rdf:about=""><dc:format>image/svg+xml</dc:format><dc:type
         rdf:resource="http://purl.org/dc/dcmitype/StillImage" /><dc:title></dc:title></cc:Work></rdf:RDF></metadata><defs
   id="defs6607" /><sodipodi:namedview
   pagecolor="#ffffff"
   bordercolor="#666666"
   borderopacity="1"
   objecttolerance="10"
   gridtolerance="10"
   guidetolerance="10"
   inkscape:pageopacity="0"
   inkscape:pageshadow="2"
   inkscape:window-width="707"
   inkscape:window-height="480"
   id="namedview6605"
   showgrid="false"
   fit-margin-top="0"
   fit-margin-left="0"
   fit-margin-right="0"
   fit-margin-bottom="0"
   inkscape:zoom="1.4311111"
   inkscape:cx="46.6"
   inkscape:cy="58.6"
   inkscape:window-x="2834"
   inkscape:window-y="160"
   inkscape:window-maximized="0"
   inkscape:current-layer="Layer_2" />
<g
   id="g6553"
   transform="translate(-65.9,-25)">
	<path
   d="m 65.9,122 4.8,0 0,14.2 8.5,0 0,4.1 -13.3,0 0,-18.3 z"
   id="path6555"
   inkscape:connector-curvature="0" />
	<path
   d="m 80,122 14.5,0 0,3.8 -9.8,0 0,3.2 8.9,0 0,3.7 -8.9,0 0,3.5 10,0 0,4.1 -14.7,0 0,-18.3 z"
   id="path6557"
   inkscape:connector-curvature="0" />
	<path
   d="m 100.9,122 4.8,0 6.8,18.2 -5,0 -1.1,-3.3 -6.4,0 -1.1,3.3 -4.9,0 6.9,-18.2 z m 0.3,11.4 4.1,0 -2,-6.4 -0.1,0 -2,6.4 z"
   id="path6559"
   inkscape:connector-curvature="0" />
	<path
   d="m 129.3,140.2 -3.1,0 -0.3,-2 c -1.3,1.8 -3.4,2.4 -5.1,2.4 -5.5,0 -9.1,-4.2 -9.1,-9.5 0,-5.3 3.6,-9.5 9.1,-9.5 3.8,0 7.8,2 8.3,6.6 l -4.8,0 c -0.2,-1.6 -1.7,-2.5 -3.6,-2.5 -3.1,0 -4.2,2.7 -4.2,5.4 0,2.7 1.2,5.4 4.2,5.4 2.3,0 3.9,-1.1 4.2,-2.8 l -3.3,0 0,-3.5 7.7,0 0,10 z"
   id="path6561"
   inkscape:connector-curvature="0" />
	<path
   d="m 146.5,132.7 c 0,5.3 -2.4,7.9 -7.9,7.9 -5.5,0 -7.9,-2.6 -7.9,-7.9 l 0,-10.7 4.8,0 0,11 c 0,2.3 0.9,3.6 3.2,3.6 2.3,0 3.2,-1.2 3.2,-3.6 l 0,-11 4.8,0 0,10.7 z"
   id="path6563"
   inkscape:connector-curvature="0" />
	<path
   d="m 148.1,122 14.5,0 0,3.8 -9.8,0 0,3.2 8.9,0 0,3.7 -8.9,0 0,3.5 10,0 0,4.1 -14.8,0 0,-18.3 z"
   id="path6565"
   inkscape:connector-curvature="0" />
</g>
<g
   id="g6567"
   transform="translate(-65.9,-25)">
	<g
   id="g6569">
		<path
   d="m 79.9,98.7 4.8,0 0,14.2 8.5,0 0,4.1 -13.3,0 0,-18.3 z"
   id="path6571"
   inkscape:connector-curvature="0" />
		<path
   d="m 94,98.7 14.5,0 0,3.8 -9.8,0 0,3.2 8.9,0 0,3.7 -8.9,0 0,3.5 10,0 0,4.1 -14.7,0 0,-18.3 z"
   id="path6573"
   inkscape:connector-curvature="0" />
		<path
   d="m 126.8,116.9 -3.1,0 -0.3,-2 c -1.3,1.8 -3.4,2.4 -5.1,2.4 -5.5,0 -9.1,-4.2 -9.1,-9.5 0,-5.3 3.6,-9.5 9.1,-9.5 3.8,0 7.8,2 8.3,6.6 l -4.8,0 c -0.2,-1.6 -1.7,-2.5 -3.6,-2.5 -3.1,0 -4.2,2.7 -4.2,5.4 0,2.7 1.2,5.4 4.2,5.4 2.3,0 3.9,-1.1 4.2,-2.8 l -3.3,0 0,-3.5 7.7,0 0,10 z"
   id="path6575"
   inkscape:connector-curvature="0" />
		<path
   d="m 136.6,98.3 c 5.7,0 9,4.2 9,9.5 0,5.3 -3.2,9.5 -9,9.5 -5.7,0 -9,-4.2 -9,-9.5 0,-5.3 3.3,-9.5 9,-9.5 z m 0,14.9 c 3.1,0 4.2,-2.7 4.2,-5.4 0,-2.7 -1.2,-5.4 -4.2,-5.4 -3.1,0 -4.2,2.7 -4.2,5.4 0,2.7 1.1,5.4 4.2,5.4 z"
   id="path6577"
   inkscape:connector-curvature="0" />
	</g>
	<path
   d="m 147.1,98.7 c 1,0 1.8,0.8 1.8,1.8 0,1 -0.8,1.8 -1.8,1.8 -1,0 -1.8,-0.8 -1.8,-1.8 0,-1 0.8,-1.8 1.8,-1.8 z m 0,3.5 c 0.9,0 1.6,-0.7 1.6,-1.6 0,-0.9 -0.7,-1.6 -1.6,-1.6 -0.9,0 -1.6,0.7 -1.6,1.6 0,0.8 0.7,1.6 1.6,1.6 z m -0.7,-2.6 c 0.1,0 0.1,0 0.3,0 0.2,0 0.3,0 0.3,0 0.6,0 0.9,0.2 0.9,0.7 0,0.3 -0.1,0.4 -0.4,0.5 l 0,0 c 0,0 0,0 0,0 0.1,0.1 0.3,0.4 0.5,0.7 l -0.7,0 c -0.1,-0.3 -0.2,-0.3 -0.4,-0.6 l 0,0.6 -0.6,0 0,-1.9 z m 0.7,0.9 c 0.2,0 0.3,-0.1 0.3,-0.2 0,-0.1 -0.1,-0.2 -0.2,-0.2 0,0 0,0 -0.1,0 l 0,0.4 c -0.1,0 -0.1,0 0,0 z"
   id="path6579"
   inkscape:connector-curvature="0" />
</g>
<g
   id="g6581"
   transform="translate(-65.9,-25)">
	<path
   d="M 88.2,55.7 87.7,58.5 93,56.2 C 92.7,55.5 92.4,54.8 92.2,54 l -4,1.7 z"
   id="path6583"
   inkscape:connector-curvature="0" />
	<line
   x1="88.199997"
   y1="55.700001"
   x2="88.199997"
   y2="55.700001"
   id="line6585" />
	<path
   d="m 152.2,45.6 0,0 0,0 -21.5,-20.5 -7.2,7.5 c -3,-1.2 -7.7,-2.1 -11.2,-2.1 -5.2,0 -10.5,1.8 -14.3,4.1 L 88,25 l 0,0 0,0 0,0 0,0 -3.6,0.4 -7.8,42.5 3.6,0.4 0,0 16.4,-7.2 c 0,0 0.1,0 0.1,0.1 3.9,3.4 9.8,5.6 16.3,5.6 4.5,0 8.7,-1.1 12.2,-2.9 l 6.6,6.3 20.4,-21.2 0,-3.4 0,0 0,0 z m -40,-14.3 c 3.4,0 7.9,0.9 10.8,1.9 l -0.1,0.1 -3.2,3.3 0,0 c -2,-0.7 -4.2,-1 -6.6,-1 -4.1,0 -7.9,1.1 -10.6,3 l 0,0 -3.5,-3.2 -0.3,-0.3 c 3.7,-2.1 8.4,-3.8 13.5,-3.8 z m 4.5,8.5 -6.2,6.5 -5.5,-5.2 c 2.4,-1 5.1,-1.6 8.1,-1.6 1.2,0 2.4,0.1 3.6,0.3 z m -36.3,27.6 7.5,-41.7 10.7,10.1 3.3,3.2 2.6,2.4 6.1,5.8 0,2.6 2.6,2.5 -8.1,3.7 c -1.8,-0.8 -3.4,-1.8 -4.6,-3 0,0 -0.1,-0.1 -0.1,-0.1 L 106.6,50 92,36.5 91.7,36.2 91.4,38.1 87.9,56 l -0.5,2.8 0.9,-0.4 0,0 4.7,-2 c 0.7,1.5 1.8,3 3.1,4.2 l -15.7,6.8 z m 34,-13.8 3.5,3.3 c -1.6,0.4 -3.3,0.6 -5,0.6 -2.1,0 -4.2,-0.3 -6.1,-0.9 -0.3,-0.1 -0.5,-0.2 -0.8,-0.3 l 7.7,-3.5 0.7,0.8 z M 99.1,51.3 c 0,-0.1 -0.1,-0.1 -0.1,-0.2 -0.5,-0.8 -0.9,-1.7 -1.1,-2.5 0,-0.1 0,-0.2 -0.1,-0.3 0.2,-0.9 0.6,-1.7 1.2,-2.5 l 4,4 -3.9,1.5 z m -7.8,-1.9 c 0,0 0,0 0,0 0,0.2 0,0.3 0,0.3 0,1 0.6,3.5 0.9,4.4 0,0 0,0 0,0 L 88.9,55.5 92,39 l 1.3,1.3 c -1.5,2.2 -2.2,4.6 -2.2,7.1 0,0.6 0.1,1.3 0.2,2 z m 33.5,10.7 c -0.8,0.4 -1.6,0.8 -2.5,1.1 -2.9,1.1 -6.1,1.6 -9.4,1.6 -4.7,0 -9.1,-1.1 -12.8,-3.2 C 98.1,58.4 96.3,57 95,55.4 94.5,54.8 94,54.1 93.6,53.5 92.8,52.2 92.3,50.7 92.1,49.3 92,48.7 91.9,48 91.9,47.4 91.9,45.2 92.5,43 93.8,41 l 3.4,3.5 c -0.2,0.8 -0.3,1.6 -0.3,2.4 0,0.7 0.1,1.3 0.2,2 0.2,0.9 0.6,1.9 1.2,2.8 0.4,0.7 1,1.4 1.6,2 1.7,1.7 4,3 6.6,3.8 2,0.6 4.2,0.9 6.4,0.9 1.8,0 3.6,-0.2 5.2,-0.6 1,-0.2 1.9,-0.5 2.8,-0.9 2,-0.8 3.8,-2 5.1,-3.4 1.4,-1.4 2.3,-2.9 2.7,-4.6 0.2,-0.7 0.2,-1.4 0.2,-2 0,-1.9 -0.7,-4 -1.9,-5.7 l 2.9,-3 c 2.5,2.6 4,6 4,9.3 0,0.6 -0.1,1.2 -0.2,1.9 -0.4,2.7 -1.9,5.3 -4.2,7.5 -1.3,1.2 -2.9,2.3 -4.7,3.2 z m 0.8,-7.4 -5.1,-4.9 4.3,-4.5 c 1.5,1.3 2.7,2.8 3.2,4.5 0,0.3 -0.1,0.5 -0.2,0.8 -0.2,1.5 -1,2.9 -2.2,4.1 z m 8.9,-3.5 c 0.1,-0.6 0.1,-1.2 0.1,-1.8 0,-3.5 -1.6,-7.1 -4.2,-9.9 l 0.7,-0.7 10.7,10.3 -8.9,9.2 c 0.9,-2.2 1.6,-4.9 1.6,-6.8 0,-0.1 0,-0.2 0,-0.3 z m -2.7,17.6 -4.4,-4.2 c 1.7,-1.2 3.2,-2.5 4.3,-4.1 0,0 0,0 0,-0.1 l 10.6,-11 0.3,-0.3 1.4,-1.4 -12.9,-12.4 -2.9,3 -3.2,3.3 -2.2,2.3 -4.1,4.3 0,0 -0.4,0.4 1.2,1.2 5.6,5.4 c -1.2,1.2 -2.8,2.1 -4.5,2.9 0,0 0,0 0,0 l -3.7,-3.5 -3.6,-3.5 -2.5,-2.3 5.8,-6.1 2.9,-3.1 3.2,-3.3 8,-8.3 21,20.1 -19.9,20.7 z"
   id="path6587"
   inkscape:connector-curvature="0" />
</g>
<g
   id="g6589"
   transform="translate(-65.9,-25)">
	<path
   d="m 77.1,73.2 14.6,0 -1.4,5.6 -7,0 -0.7,2.9 7.3,0 -1.3,5.3 -7.2,0 -1.7,7.4 -7.5,0 4.9,-21.2 z"
   id="path6591"
   inkscape:connector-curvature="0" />
	<path
   d="m 93.7,73.2 7.5,0 -4.9,21.1 -7.5,0 4.9,-21.1 z"
   id="path6593"
   inkscape:connector-curvature="0" />
	<path
   d="m 103.1,73.3 0.5,-0.1 c 2.4,-0.3 5.4,-0.5 7.1,-0.5 2.8,0 4.9,0.3 6.5,1 2.1,0.9 3.3,2.7 3.3,5 0,1.9 -0.7,3.8 -1.9,5.2 -1.1,1.2 -2,1.8 -4,2.4 l -0.5,0.2 c 0.2,0.2 0.3,0.2 0.4,0.3 0.6,0.7 2.3,4.1 3.8,7.5 l -8.3,0 c -1.1,-3 -1.4,-3.8 -2.8,-7.2 l -1.7,7.2 -7.3,0 4.9,-21 z m 5.6,10 c 2.4,0 4.1,-1.4 4.1,-3.5 0,-1.1 -0.8,-1.6 -2.3,-1.6 -0.4,0 -0.7,0 -1.2,0.1 l -1.1,4.9 c 0.2,0.1 0.2,0.1 0.5,0.1 z"
   id="path6595"
   inkscape:connector-curvature="0" />
	<path
   d="m 138.4,73.2 18.3,0 -1.3,6.1 -5.4,0 -3.6,15 -7.5,0 3.6,-15 -5.9,0 1.8,-6.1 z"
   id="path6597"
   inkscape:connector-curvature="0" />
	<path
   d="m 149.9,90.6 c 1,0 1.8,0.8 1.8,1.8 0,1 -0.8,1.8 -1.8,1.8 -1,0 -1.8,-0.8 -1.8,-1.8 0,-1 0.8,-1.8 1.8,-1.8 z m 0,3.4 c 0.9,0 1.6,-0.7 1.6,-1.6 0,-0.9 -0.7,-1.6 -1.6,-1.6 -0.9,0 -1.6,0.7 -1.6,1.6 0,0.9 0.7,1.6 1.6,1.6 z m -0.7,-2.5 c 0.1,0 0.1,0 0.3,0 0.2,0 0.3,0 0.3,0 0.6,0 0.9,0.2 0.9,0.7 0,0.3 -0.1,0.4 -0.4,0.5 l 0,0 c 0,0 0,0 0,0 0.1,0.1 0.3,0.4 0.5,0.7 l -0.7,0 c -0.1,-0.3 -0.2,-0.3 -0.4,-0.6 l 0,0.6 -0.6,0 0,-1.9 z m 0.7,0.9 c 0.2,0 0.3,-0.1 0.3,-0.2 0,-0.1 -0.1,-0.2 -0.2,-0.2 0,0 0,0 -0.1,0 l 0,0.4 c -0.1,0 -0.1,0 0,0 z"
   id="path6599"
   inkscape:connector-curvature="0" />
	<g
   id="g6601">
		<path
   d="m 119.1,93.8 c 2.1,0.6 4.4,1 6.6,1 2.9,0 5.2,-0.7 7.1,-2.1 2.1,-1.5 3.5,-3.9 3.5,-6 0,-1.4 -0.6,-2.7 -1.7,-3.6 -0.9,-0.7 -1.8,-1.2 -3.6,-2.1 l -1.5,-0.7 c -0.5,-0.3 -0.7,-0.5 -0.7,-0.8 0,-0.8 1,-1.3 2.3,-1.3 1,0 2.2,0.3 4.4,1 l 1.5,-5.7 c -1.7,-0.5 -3.3,-0.7 -4.9,-0.7 -6.1,0 -10.9,3.4 -10.9,7.7 0,2.3 1.5,3.9 5.3,5.7 1.8,0.8 2.1,1 2.1,1.6 0,0.9 -0.9,1.4 -2.5,1.4 -1.3,0 -3.1,-0.4 -5.4,-1.3 l 0,0 -1.6,5.9 z"
   id="path6603"
   inkscape:connector-curvature="0" />
	</g>
</g>
</svg>