<?xml version="1.0" encoding="UTF-8" standalone="no"?>
<!-- Generator: Adobe Illustrator 17.1.0, SVG Export Plug-In . SVG Version: 6.00 Build 0)  -->

<svg
   xmlns:dc="http://purl.org/dc/elements/1.1/"
   xmlns:cc="http://creativecommons.org/ns#"
   xmlns:rdf="http://www.w3.org/1999/02/22-rdf-syntax-ns#"
   xmlns:svg="http://www.w3.org/2000/svg"
   xmlns="http://www.w3.org/2000/svg"
   xmlns:sodipodi="http://sodipodi.sourceforge.net/DTD/sodipodi-0.dtd"
   xmlns:inkscape="http://www.inkscape.org/namespaces/inkscape"
   version="1.1"
   id="Layer_2"
   x="0px"
   y="0px"
   viewBox="0 0 145.5 45.5"
   enable-background="new 0 0 238.8 100.5"
   xml:space="preserve"
   inkscape:version="0.91 r13725"
   sodipodi:docname="fll-logo-horizontal.svg"
   width="145.5"
   height="45.5"><metadata
   id="metadata6010"><rdf:RDF><cc:Work
       rdf:about=""><dc:format>image/svg+xml</dc:format><dc:type
         rdf:resource="http://purl.org/dc/dcmitype/StillImage" /><dc:title></dc:title></cc:Work></rdf:RDF></metadata><defs
   id="defs6008" /><sodipodi:namedview
   pagecolor="#ffffff"
   bordercolor="#666666"
   borderopacity="1"
   objecttolerance="10"
   gridtolerance="10"
   guidetolerance="10"
   inkscape:pageopacity="0"
   inkscape:pageshadow="2"
   inkscape:window-width="707"
   inkscape:window-height="480"
   id="namedview6006"
   showgrid="false"
   fit-margin-top="0"
   fit-margin-left="0"
   fit-margin-right="0"
   fit-margin-bottom="0"
   inkscape:zoom="1.3484087"
   inkscape:cx="78.900002"
   inkscape:cy="24.15"
   inkscape:window-x="2776"
   inkscape:window-y="187"
   inkscape:window-maximized="0"
   inkscape:current-layer="Layer_2" />
<g
   id="g5958"
   transform="translate(-40.5,-28.9)">
	<path
   d="m 119.1,45.7 3.3,0 0,9.7 5.8,0 0,2.8 -9.1,0 0,-12.5 z"
   id="path5960"
   inkscape:connector-curvature="0" />
	<path
   d="m 128.8,45.7 10,0 0,2.6 -6.8,0 0,2.2 6.1,0 0,2.5 -6.1,0 0,2.4 6.9,0 0,2.8 -10.1,0 0,-12.5 z"
   id="path5962"
   inkscape:connector-curvature="0" />
	<path
   d="m 151.2,58.2 -2.1,0 -0.2,-1.4 c -0.9,1.2 -2.3,1.6 -3.5,1.6 -3.8,0 -6.2,-2.9 -6.2,-6.5 0,-3.6 2.5,-6.5 6.2,-6.5 2.6,0 5.4,1.4 5.7,4.5 l -3.3,0 c -0.1,-1.1 -1.2,-1.7 -2.5,-1.7 -2.1,0 -2.9,1.9 -2.9,3.7 0,1.9 0.8,3.7 2.9,3.7 1.6,0 2.7,-0.8 2.9,-1.9 l -2.2,0 0,-2.4 5.3,0 0,6.9 z"
   id="path5964"
   inkscape:connector-curvature="0" />
	<path
   d="m 157.9,45.4 c 3.9,0 6.2,2.9 6.2,6.5 0,3.6 -2.2,6.5 -6.2,6.5 -3.9,0 -6.2,-2.9 -6.2,-6.5 0.1,-3.6 2.3,-6.5 6.2,-6.5 z m 0,10.2 c 2.1,0 2.9,-1.9 2.9,-3.7 0,-1.9 -0.8,-3.7 -2.9,-3.7 -2.1,0 -2.9,1.9 -2.9,3.7 0,1.9 0.8,3.7 2.9,3.7 z"
   id="path5966"
   inkscape:connector-curvature="0" />
	<path
   d="m 119.5,61.7 3.3,0 0,9.7 5.8,0 0,2.8 -9.1,0 0,-12.5 z"
   id="path5968"
   inkscape:connector-curvature="0" />
	<path
   d="m 129.1,61.7 10,0 0,2.6 -6.7,0 0,2.2 6.1,0 0,2.5 -6.1,0 0,2.4 6.9,0 0,2.8 -10.1,0 0,-12.5 z"
   id="path5970"
   inkscape:connector-curvature="0" />
	<path
   d="m 143.4,61.7 3.3,0 4.7,12.5 -3.4,0 -0.8,-2.2 -4.4,0 -0.8,2.2 -3.3,0 4.7,-12.5 z m 0.2,7.8 2.8,0 -1.4,-4.4 0,0 -1.4,4.4 z"
   id="path5972"
   inkscape:connector-curvature="0" />
	<path
   d="m 162.8,74.2 -2.1,0 -0.2,-1.4 c -0.9,1.2 -2.3,1.6 -3.5,1.6 -3.8,0 -6.2,-2.9 -6.2,-6.5 0,-3.6 2.5,-6.5 6.2,-6.5 2.6,0 5.4,1.4 5.7,4.5 l -3.3,0 c -0.1,-1.1 -1.2,-1.7 -2.5,-1.7 -2.1,0 -2.9,1.9 -2.9,3.7 0,1.8 0.8,3.7 2.9,3.7 1.6,0 2.7,-0.8 2.9,-1.9 l -2.3,0 0,-2.4 5.3,0 0,6.9 z"
   id="path5974"
   inkscape:connector-curvature="0" />
	<path
   d="m 174.7,69 c 0,3.6 -1.7,5.4 -5.4,5.4 -3.8,0 -5.4,-1.8 -5.4,-5.4 l 0,-7.3 3.3,0 0,7.5 c 0,1.6 0.6,2.4 2.2,2.4 1.6,0 2.2,-0.8 2.2,-2.4 l 0,-7.5 3.3,0 0,7.3 z"
   id="path5976"
   inkscape:connector-curvature="0" />
	<path
   d="m 175.8,61.7 10,0 0,2.6 -6.7,0 0,2.2 6.1,0 0,2.5 -6.1,0 0,2.4 6.9,0 0,2.8 -10.1,0 0,-12.5 z"
   id="path5978"
   inkscape:connector-curvature="0" />
</g>
<path
   d="m 124.4,17.4 c 0.6,0 1.1,0.5 1.1,1.1 0,0.6 -0.5,1.1 -1.1,1.1 -0.6,0 -1.1,-0.5 -1.1,-1.1 0,-0.6 0.5,-1.1 1.1,-1.1 z m 0,2.1 c 0.5,0 1,-0.4 1,-1 0,-0.5 -0.4,-1 -1,-1 -0.5,0 -1,0.4 -1,1 0,0.5 0.4,1 1,1 z m -0.5,-1.6 c 0.1,0 0.1,0 0.2,0 0.1,0 0.2,0 0.2,0 0.4,0 0.5,0.1 0.5,0.4 0,0.2 -0.1,0.3 -0.2,0.3 l 0,0 c 0,0 0,0 0,0 0,0 0.2,0.2 0.3,0.4 l -0.4,0 c -0.1,-0.2 -0.1,-0.2 -0.2,-0.4 l 0,0.5 -0.4,0 0,-1.2 z m 0.4,0.6 c 0.1,0 0.2,0 0.2,-0.1 0,-0.1 -0.1,-0.1 -0.2,-0.1 0,0 0,0 0,0 l 0,0.2 c 0,0 0,0 0,0 z"
   id="path5980"
   inkscape:connector-curvature="0" />
<g
   id="g5982"
   transform="translate(-40.5,-28.9)">
	<path
   d="m 122.1,29.2 8.8,0 -0.8,3.4 -4.2,0 -0.4,1.8 4.4,0 -0.8,3.2 -4.4,0 -1,4.5 -4.6,0 3,-12.9 z"
   id="path5984"
   inkscape:connector-curvature="0" />
	<path
   d="m 132.2,29.2 4.6,0 -3,12.8 -4.6,0 3,-12.8 z"
   id="path5986"
   inkscape:connector-curvature="0" />
	<path
   d="m 137.9,29.2 0.3,0 c 1.5,-0.2 3.3,-0.3 4.3,-0.3 1.7,0 3,0.2 4,0.6 1.3,0.5 2,1.7 2,3 0,1.2 -0.4,2.3 -1.2,3.2 -0.7,0.8 -1.2,1.1 -2.5,1.5 l -0.3,0.1 c 0.1,0.1 0.2,0.1 0.2,0.2 0.4,0.4 1.4,2.5 2.3,4.5 l -5,0 c -0.6,-1.8 -0.8,-2.3 -1.7,-4.4 l -1,4.4 -4.3,0 2.9,-12.8 z m 3.4,6.1 c 1.5,0 2.5,-0.9 2.5,-2.1 0,-0.7 -0.5,-1 -1.4,-1 -0.3,0 -0.4,0 -0.7,0.1 l -0.7,3 c 0.1,0 0.1,0 0.3,0 z"
   id="path5988"
   inkscape:connector-curvature="0" />
	<path
   d="m 159.4,29.2 11.1,0 -0.8,3.7 -3.3,0 -2.2,9.1 -4.6,0 2.2,-9.1 -3.6,0 1.2,-3.7 z"
   id="path5990"
   inkscape:connector-curvature="0" />
	<path
   d="m 166.3,39.7 c 0.6,0 1.1,0.5 1.1,1.1 0,0.6 -0.5,1.1 -1.1,1.1 -0.6,0 -1.1,-0.5 -1.1,-1.1 0,-0.6 0.5,-1.1 1.1,-1.1 z m 0,2.1 c 0.5,0 1,-0.4 1,-1 0,-0.5 -0.4,-1 -1,-1 -0.5,0 -1,0.4 -1,1 0.1,0.6 0.5,1 1,1 z m -0.4,-1.5 c 0.1,0 0.1,0 0.2,0 0.1,0 0.2,0 0.2,0 0.4,0 0.5,0.1 0.5,0.4 0,0.2 -0.1,0.3 -0.2,0.3 l 0,0 c 0,0 0,0 0,0 0,0 0.2,0.2 0.3,0.4 l -0.4,0 c -0.1,-0.2 -0.1,-0.2 -0.2,-0.4 l 0,0.4 -0.4,0 0,-1.1 z m 0.4,0.5 c 0.1,0 0.2,0 0.2,-0.1 0,-0.1 -0.1,-0.1 -0.2,-0.1 0,0 0,0 0,0 l 0,0.2 c 0,0 0,0 0,0 z"
   id="path5992"
   inkscape:connector-curvature="0" />
	<g
   id="g5994">
		<path
   d="m 147.6,41.7 c 1.3,0.4 2.7,0.6 4,0.6 1.8,0 3.1,-0.4 4.3,-1.3 1.3,-0.9 2.1,-2.3 2.1,-3.6 0,-0.9 -0.4,-1.7 -1,-2.2 -0.5,-0.4 -1.1,-0.8 -2.2,-1.3 l -0.9,-0.4 c -0.3,-0.2 -0.4,-0.3 -0.4,-0.5 0,-0.5 0.6,-0.8 1.4,-0.8 0.6,0 1.3,0.2 2.7,0.6 l 0.9,-3.5 c -1,-0.3 -2,-0.4 -3,-0.4 -3.7,0 -6.6,2 -6.6,4.7 0,1.4 0.9,2.4 3.2,3.4 1.1,0.5 1.3,0.6 1.3,1 0,0.5 -0.6,0.8 -1.5,0.8 -0.8,0 -1.9,-0.3 -3.3,-0.8 l 0,0 -1,3.7 z"
   id="path5996"
   inkscape:connector-curvature="0" />
	</g>
</g>
<g
   id="g5998"
   transform="translate(-40.5,-28.9)">
	<path
   d="m 51.8,59.4 -0.5,2.7 5.2,-2.2 c -0.3,-0.7 -0.6,-1.4 -0.8,-2.2 l -3.9,1.7 z"
   id="path6000"
   inkscape:connector-curvature="0" />
	<line
   x1="51.799999"
   y1="59.400002"
   x2="51.799999"
   y2="59.400002"
   id="line6002" />
	<path
   d="m 114.4,49.5 0,0 0,0 -21,-20.1 -7.1,7.3 c -2.9,-1.1 -7.5,-2 -11,-2 -5.1,0 -10.3,1.7 -13.9,4 l -9.8,-9.3 0,0 0,0 0,0 0,0 -3.5,0.4 -7.6,41.6 3.5,0.4 0,0 16,-7 c 0,0 0,0 0.1,0.1 3.8,3.4 9.5,5.5 15.9,5.5 4.4,0 8.6,-1 11.9,-2.8 l 6.4,6.2 20,-20.8 0,-3.5 0.1,0 0,0 z M 75.3,35.6 c 3.3,0 7.7,0.8 10.5,1.9 l -0.1,0.1 -3.1,3.2 0,0 c -2,-0.7 -4.1,-1 -6.5,-1 -4,0 -7.7,1.1 -10.4,2.9 l 0,0 -3.3,-3.1 -0.3,-0.3 c 3.6,-2.1 8.2,-3.7 13.2,-3.7 z m 4.3,8.2 -6.1,6.4 -5.4,-5.1 c 2.3,-1 5,-1.6 7.9,-1.6 1.3,0 2.5,0.1 3.6,0.3 z M 44.2,70.9 51.5,30.2 62,40 l 3.3,3.1 2.5,2.4 5.9,5.7 0,2.6 2.5,2.4 -7.9,3.6 C 66.5,59 65,58 63.8,56.8 c 0,0 0,-0.1 -0.1,-0.1 l 6,-2.8 -14.2,-13.3 -0.3,-0.3 -0.3,1.8 -3.4,17.5 -0.5,2.8 0.9,-0.4 0,0 4.6,-2 c 0.7,1.5 1.7,2.9 3,4.2 l -15.3,6.7 z m 33.3,-13.5 3.4,3.3 c -1.6,0.4 -3.2,0.6 -4.9,0.6 -2.1,0 -4.1,-0.3 -6,-0.9 -0.3,-0.1 -0.5,-0.2 -0.7,-0.3 l 7.5,-3.4 0.7,0.7 z M 62.4,55.1 c 0,-0.1 -0.1,-0.1 -0.1,-0.2 -0.5,-0.8 -0.9,-1.6 -1.1,-2.5 0,-0.1 0,-0.2 -0.1,-0.3 0.2,-0.9 0.6,-1.7 1.1,-2.4 l 4,3.9 -3.8,1.5 z m -7.6,-1.9 c 0,0 0,0.1 0,0 0,0.2 0,0.3 0,0.3 0,1 0.6,3.4 0.9,4.3 0,0 0,0 0,0 l -3.3,1.4 3.1,-16.2 1.3,1.3 c -1.4,2.2 -2.2,4.5 -2.2,6.9 0.1,0.7 0.1,1.3 0.2,2 z m 32.8,10.5 c -0.8,0.4 -1.6,0.7 -2.4,1 -2.9,1.1 -6,1.6 -9.2,1.6 -4.6,0 -8.9,-1.1 -12.6,-3.2 -2,-1.1 -3.7,-2.5 -5,-4.1 -0.5,-0.6 -0.9,-1.2 -1.3,-1.9 -0.8,-1.3 -1.3,-2.7 -1.5,-4.1 -0.1,-0.6 -0.2,-1.2 -0.2,-1.8 0,-2.2 0.6,-4.3 1.9,-6.3 l 3.3,3.4 c -0.2,0.8 -0.3,1.6 -0.3,2.3 0,0.7 0.1,1.3 0.2,2 0.2,0.9 0.6,1.8 1.2,2.7 0.4,0.7 1,1.3 1.6,1.9 1.7,1.7 3.9,3 6.5,3.8 2,0.6 4.1,0.9 6.2,0.9 1.7,0 3.5,-0.2 5.1,-0.6 0.9,-0.2 1.9,-0.5 2.7,-0.9 2,-0.8 3.7,-2 5,-3.3 1.3,-1.4 2.2,-2.9 2.6,-4.5 0.2,-0.7 0.2,-1.3 0.2,-2 0,-1.9 -0.7,-4 -1.8,-5.6 l 2.8,-3 c 2.4,2.5 3.9,5.9 3.9,9.1 0,0.6 -0.1,1.2 -0.2,1.8 -0.4,2.7 -1.9,5.2 -4.1,7.4 -1.3,1.4 -2.8,2.5 -4.6,3.4 z m 0.8,-7.2 -4.9,-4.8 4.2,-4.4 c 1.5,1.2 2.6,2.7 3.2,4.4 0,0.3 -0.1,0.5 -0.1,0.8 -0.5,1.4 -1.3,2.8 -2.4,4 z m 8.7,-3.4 c 0.1,-0.6 0.1,-1.2 0.1,-1.8 0,-3.4 -1.5,-7 -4.1,-9.7 l 0.7,-0.7 10.5,10.1 -8.7,9 c 0.9,-2.1 1.5,-4.8 1.5,-6.7 0,-0.1 0,-0.1 0,-0.2 z m -2.6,17.2 -4.3,-4.1 c 1.7,-1.1 3.1,-2.5 4.2,-4 0,0 0,0 0,-0.1 l 10.4,-10.8 0.3,-0.3 1.4,-1.4 -12.7,-12.1 -2.8,3 -3.1,3.3 -2.2,2.2 -4,4.2 0,0 -0.3,0.4 1.2,1.1 5.5,5.3 c -1.2,1.1 -2.7,2.1 -4.4,2.8 0,0 0,0 0,0 l -3.6,-3.5 -3.5,-3.4 -2.6,-2.2 5.7,-6 2.9,-3 3.1,-3.2 7.8,-8.1 L 114,50 94.5,70.3 Z"
   id="path6004"
   inkscape:connector-curvature="0" />
</g>
</svg>