<?xml version="1.0" encoding="UTF-8" standalone="no"?>
<!-- Generator: Adobe Illustrator 17.1.0, SVG Export Plug-In . SVG Version: 6.00 Build 0)  -->

<svg
   xmlns:dc="http://purl.org/dc/elements/1.1/"
   xmlns:cc="http://creativecommons.org/ns#"
   xmlns:rdf="http://www.w3.org/1999/02/22-rdf-syntax-ns#"
   xmlns:svg="http://www.w3.org/2000/svg"
   xmlns="http://www.w3.org/2000/svg"
   xmlns:sodipodi="http://sodipodi.sourceforge.net/DTD/sodipodi-0.dtd"
   xmlns:inkscape="http://www.inkscape.org/namespaces/inkscape"
   version="1.1"
   id="Layer_3"
   x="0px"
   y="0px"
   viewBox="0 0 96.900002 68.300003"
   enable-background="new 0 0 225 164"
   xml:space="preserve"
   inkscape:version="0.91 r13725"
   sodipodi:docname="fll-wordmark.svg"
   width="96.900002"
   height="68.300003"><metadata
   id="metadata7202"><rdf:RDF><cc:Work
       rdf:about=""><dc:format>image/svg+xml</dc:format><dc:type
         rdf:resource="http://purl.org/dc/dcmitype/StillImage" /><dc:title></dc:title></cc:Work></rdf:RDF></metadata><defs
   id="defs7200" /><sodipodi:namedview
   pagecolor="#ffffff"
   bordercolor="#666666"
   borderopacity="1"
   objecttolerance="10"
   gridtolerance="10"
   guidetolerance="10"
   inkscape:pageopacity="0"
   inkscape:pageshadow="2"
   inkscape:window-width="707"
   inkscape:window-height="480"
   id="namedview7198"
   showgrid="false"
   fit-margin-top="0"
   fit-margin-left="0"
   fit-margin-right="0"
   fit-margin-bottom="0"
   inkscape:zoom="1.4311111"
   inkscape:cx="49.8"
   inkscape:cy="35.6"
   inkscape:window-x="2810"
   inkscape:window-y="216"
   inkscape:window-maximized="0"
   inkscape:current-layer="Layer_3" />
<g
   id="g7152"
   transform="translate(-62.7,-49.3)">
	<g
   id="g7154">
		<path
   d="m 62.7,99 4.8,0 0,14.2 8.5,0 0,4.1 -13.3,0 0,-18.3 z"
   id="path7156"
   inkscape:connector-curvature="0" />
		<path
   d="m 76.7,99 14.5,0 0,3.8 -9.8,0 0,3.2 8.9,0 0,3.7 -8.9,0 0,3.5 10,0 0,4.1 -14.7,0 0,-18.3 z"
   id="path7158"
   inkscape:connector-curvature="0" />
		<path
   d="m 97.6,99 4.8,0 6.8,18.2 -5,0 -1.1,-3.3 -6.4,0 -1.1,3.3 -4.9,0 6.9,-18.2 z m 0.4,11.4 4.1,0 -2,-6.4 -0.1,0 -2,6.4 z"
   id="path7160"
   inkscape:connector-curvature="0" />
		<path
   d="m 126,117.2 -3.1,0 -0.3,-2 c -1.3,1.8 -3.4,2.4 -5.1,2.4 -5.5,0 -9.1,-4.2 -9.1,-9.5 0,-5.3 3.6,-9.5 9.1,-9.5 3.8,0 7.8,2 8.3,6.6 l -4.8,0 c -0.2,-1.6 -1.7,-2.5 -3.6,-2.5 -3.1,0 -4.2,2.7 -4.2,5.4 0,2.7 1.2,5.4 4.2,5.4 2.3,0 3.9,-1.1 4.2,-2.8 l -3.3,0 0,-3.5 7.7,0 0,10 z"
   id="path7162"
   inkscape:connector-curvature="0" />
		<path
   d="m 143.2,109.7 c 0,5.3 -2.4,7.9 -7.9,7.9 -5.5,0 -7.9,-2.6 -7.9,-7.9 l 0,-10.7 4.8,0 0,11 c 0,2.3 0.9,3.6 3.2,3.6 2.3,0 3.2,-1.2 3.2,-3.6 l 0,-11 4.8,0 0,10.7 z"
   id="path7164"
   inkscape:connector-curvature="0" />
		<path
   d="m 144.9,99 14.5,0 0,3.8 -9.8,0 0,3.2 8.9,0 0,3.7 -8.9,0 0,3.5 10,0 0,4.1 -14.8,0 0,-18.3 z"
   id="path7166"
   inkscape:connector-curvature="0" />
	</g>
	<g
   id="g7168">
		<g
   id="g7170">
			<path
   d="m 76.7,75.7 4.8,0 0,14.2 8.5,0 0,4.1 -13.3,0 0,-18.3 z"
   id="path7172"
   inkscape:connector-curvature="0" />
			<path
   d="m 90.7,75.7 14.5,0 0,3.8 -9.8,0 0,3.2 8.9,0 0,3.7 -8.9,0 0,3.5 10,0 0,4.1 -14.7,0 0,-18.3 z"
   id="path7174"
   inkscape:connector-curvature="0" />
			<path
   d="m 123.5,93.9 -3.1,0 -0.3,-2 c -1.3,1.8 -3.4,2.4 -5.1,2.4 -5.5,0 -9.1,-4.2 -9.1,-9.5 0,-5.3 3.6,-9.5 9.1,-9.5 3.8,0 7.8,2 8.3,6.6 l -4.8,0 c -0.2,-1.6 -1.7,-2.5 -3.6,-2.5 -3.1,0 -4.2,2.7 -4.2,5.4 0,2.7 1.2,5.4 4.2,5.4 2.3,0 3.9,-1.1 4.2,-2.8 l -3.3,0 0,-3.5 7.7,0 0,10 z"
   id="path7176"
   inkscape:connector-curvature="0" />
			<path
   d="m 133.3,75.3 c 5.7,0 9,4.2 9,9.5 0,5.3 -3.2,9.5 -9,9.5 -5.7,0 -9,-4.2 -9,-9.5 0,-5.3 3.3,-9.5 9,-9.5 z m 0,14.9 c 3.1,0 4.2,-2.7 4.2,-5.4 0,-2.7 -1.2,-5.4 -4.2,-5.4 -3.1,0 -4.2,2.7 -4.2,5.4 0,2.7 1.2,5.4 4.2,5.4 z"
   id="path7178"
   inkscape:connector-curvature="0" />
		</g>
		<path
   d="m 143.8,75.7 c 1,0 1.8,0.8 1.8,1.8 0,1 -0.8,1.8 -1.8,1.8 -1,0 -1.8,-0.8 -1.8,-1.8 0,-1 0.8,-1.8 1.8,-1.8 z m 0,3.5 c 0.9,0 1.6,-0.7 1.6,-1.6 0,-0.9 -0.7,-1.6 -1.6,-1.6 -0.9,0 -1.6,0.7 -1.6,1.6 0,0.8 0.7,1.6 1.6,1.6 z m -0.7,-2.6 c 0.1,0 0.1,0 0.3,0 0.2,0 0.3,0 0.3,0 0.6,0 0.9,0.2 0.9,0.7 0,0.3 -0.1,0.4 -0.4,0.5 l 0,0 c 0,0 0,0 0,0 0.1,0.1 0.3,0.4 0.5,0.7 l -0.7,0 c -0.1,-0.3 -0.2,-0.3 -0.4,-0.6 l 0,0.6 -0.6,0 0,-1.9 z m 0.7,0.9 c 0.2,0 0.3,-0.1 0.3,-0.2 0,-0.1 -0.1,-0.2 -0.2,-0.2 0,0 0,0 -0.1,0 l 0,0.4 c -0.1,0 -0.1,0 0,0 z"
   id="path7180"
   inkscape:connector-curvature="0" />
	</g>
	<g
   id="g7182">
		<path
   d="m 73.8,49.8 14.6,0 -1.4,5.6 -7,0 -0.7,3 7.3,0 -1.3,5.2 -7.2,0 -1.7,7.4 -7.5,0 4.9,-21.2 z"
   id="path7184"
   inkscape:connector-curvature="0" />
		<path
   d="m 90.3,49.8 7.5,0 -4.8,21.1 -7.5,0 4.8,-21.1 z"
   id="path7186"
   inkscape:connector-curvature="0" />
		<path
   d="m 99.9,49.9 0.5,-0.1 c 2.4,-0.3 5.4,-0.5 7.1,-0.5 2.8,0 4.9,0.3 6.5,1 2.1,0.9 3.3,2.7 3.3,5 0,1.9 -0.7,3.8 -1.9,5.2 -1.1,1.2 -2,1.8 -4,2.4 l -0.5,0.2 c 0.2,0.2 0.3,0.2 0.4,0.3 0.6,0.7 2.4,4.1 3.8,7.5 l -8.3,0 c -1.1,-3 -1.4,-3.8 -2.8,-7.2 l -1.7,7.2 -7.3,0 4.9,-21 z m 5.5,10 c 2.4,0 4.1,-1.4 4.1,-3.5 0,-1.1 -0.8,-1.6 -2.4,-1.6 -0.4,0 -0.7,0 -1.2,0.1 l -1.1,4.9 c 0.3,0 0.3,0.1 0.6,0.1 z"
   id="path7188"
   inkscape:connector-curvature="0" />
		<path
   d="m 135.2,49.8 18.3,0 -1.3,6.1 -5.4,0 -3.6,15 -7.5,0 3.6,-15 -5.9,0 1.8,-6.1 z"
   id="path7190"
   inkscape:connector-curvature="0" />
		<path
   d="m 146.7,67.1 c 1,0 1.8,0.8 1.8,1.8 0,1 -0.8,1.8 -1.8,1.8 -1,0 -1.8,-0.8 -1.8,-1.8 -0.1,-0.9 0.8,-1.8 1.8,-1.8 z m 0,3.5 c 0.9,0 1.6,-0.7 1.6,-1.6 0,-0.9 -0.7,-1.6 -1.6,-1.6 -0.9,0 -1.6,0.7 -1.6,1.6 0,0.9 0.7,1.6 1.6,1.6 z M 146,68 c 0.1,0 0.1,0 0.3,0 0.2,0 0.3,0 0.3,0 0.6,0 0.9,0.2 0.9,0.7 0,0.3 -0.1,0.4 -0.4,0.5 l 0,0 c 0,0 0,0 0,0 0.1,0.1 0.3,0.4 0.5,0.7 l -0.7,0 c -0.1,-0.3 -0.2,-0.3 -0.4,-0.6 l 0,0.6 -0.5,0 0,-1.9 z m 0.6,0.9 c 0.2,0 0.3,-0.1 0.3,-0.2 0,-0.1 -0.1,-0.2 -0.2,-0.2 0,0 0,0 -0.1,0 l 0,0.4 c 0,0 0,0 0,0 z"
   id="path7192"
   inkscape:connector-curvature="0" />
		<g
   id="g7194">
			<path
   d="m 115.8,70.4 c 2.1,0.6 4.4,1 6.6,1 2.9,0 5.2,-0.7 7.1,-2.1 2.1,-1.5 3.5,-3.9 3.5,-6 0,-1.4 -0.6,-2.7 -1.7,-3.7 -0.9,-0.7 -1.8,-1.2 -3.6,-2.1 l -1.5,-0.7 c -0.5,-0.3 -0.7,-0.5 -0.7,-0.8 0,-0.8 1,-1.3 2.3,-1.3 1,0 2.2,0.3 4.4,1 l 1.5,-5.7 c -1.7,-0.5 -3.3,-0.7 -4.9,-0.7 -6.2,0 -10.9,3.4 -10.9,7.7 0,2.3 1.5,3.9 5.3,5.7 1.8,0.8 2.1,1 2.1,1.6 0,0.9 -0.9,1.4 -2.5,1.4 -1.3,0 -3.1,-0.4 -5.4,-1.3 l 0,0 -1.6,6 z"
   id="path7196"
   inkscape:connector-curvature="0" />
		</g>
	</g>
</g>
</svg>