<?xml version="1.0" encoding="UTF-8" standalone="no"?>
<!-- Generator: Adobe Illustrator 15.1.0, SVG Export Plug-In . SVG Version: 6.00 Build 0)  -->

<svg
   xmlns:dc="http://purl.org/dc/elements/1.1/"
   xmlns:cc="http://creativecommons.org/ns#"
   xmlns:rdf="http://www.w3.org/1999/02/22-rdf-syntax-ns#"
   xmlns:svg="http://www.w3.org/2000/svg"
   xmlns="http://www.w3.org/2000/svg"
   xmlns:sodipodi="http://sodipodi.sourceforge.net/DTD/sodipodi-0.dtd"
   xmlns:inkscape="http://www.inkscape.org/namespaces/inkscape"
   version="1.1"
   x="0px"
   y="0px"
   width="382.63705"
   height="226"
   viewBox="0 0 382.63705 226"
   enable-background="new 0 0 612 792"
   xml:space="preserve"
   id="svg7762"
   inkscape:version="0.91 r13725"
   sodipodi:docname="frc-aerial-assist.svg"><metadata
   id="metadata7843"><rdf:RDF><cc:Work
       rdf:about=""><dc:format>image/svg+xml</dc:format><dc:type
         rdf:resource="http://purl.org/dc/dcmitype/StillImage" /><dc:title /></cc:Work></rdf:RDF></metadata><defs
   id="defs7841" /><sodipodi:namedview
   pagecolor="#ffffff"
   bordercolor="#666666"
   borderopacity="1"
   objecttolerance="10"
   gridtolerance="10"
   guidetolerance="10"
   inkscape:pageopacity="0"
   inkscape:pageshadow="2"
   inkscape:window-width="2560"
   inkscape:window-height="1377"
   id="namedview7839"
   showgrid="false"
   fit-margin-top="0"
   fit-margin-left="0"
   fit-margin-right="0"
   fit-margin-bottom="0"
   inkscape:zoom="3.2301999"
   inkscape:cx="223.27926"
   inkscape:cy="69.322316"
   inkscape:window-x="2552"
   inkscape:window-y="-8"
   inkscape:window-maximized="1"
   inkscape:current-layer="svg7762" />
























<g
   id="Layer_3"
   style="fill:#000000"
   transform="matrix(0.70821308,0,0,0.70821308,-36.795211,-136.85651)">
</g><g
   id="Layer_2"
   style="fill:#000000"
   transform="matrix(0.70821308,0,0,0.70821308,-36.795211,-136.85651)">
	<path
   inkscape:connector-curvature="0"
   d="m 149.981,304.123 c -9.552,0 -15.522,9.791 -15.522,9.791 0,0 -8.358,-10.985 -25.312,-10.985 -16.954,0 -47.918,13.693 -47.918,51.263 0,0 0.158,49.749 46.724,49.749 20.298,0 26.746,-10.746 26.746,-10.746 0,0 3.343,10.746 15.522,10.746 12.178,0 15.044,-12.417 15.044,-12.417 l 0,-77.848 c -10e-4,-10e-4 -5.732,-9.553 -15.284,-9.553 z m -37.179,73.948 c -23.396,0 -20.371,-22.924 -20.371,-22.924 0,0 -1.273,-24.835 19.741,-24.835 21.014,0 21.014,21.253 21.014,21.253 0,0 3.807,26.506 -20.384,26.506 z"
   id="path7766"
   style="fill:#000000" />
</g><g
   id="Layer_5"
   style="fill:#000000"
   transform="matrix(0.70821308,0,0,0.70821308,-36.795211,-136.85651)">
</g><g
   id="Layer_4"
   style="fill:#000000"
   transform="matrix(0.70821308,0,0,0.70821308,-36.795211,-136.85651)">
	<path
   inkscape:connector-curvature="0"
   d="m 250.514,371.304 c -10.666,9.87 -26.745,8.756 -26.745,8.756 -21.492,0 -22.924,-16.477 -22.924,-16.477 l 59.699,0 c 0,0 8.835,-0.716 8.835,-12.019 0,-11.302 -4.298,-48.636 -50.386,-48.636 -51.819,0 -51.819,48.636 -51.819,48.636 0,36.458 29.85,52.772 53.889,52.772 24.04,0 46.485,-10.506 46.485,-21.172 0,-10.666 -13.691,-15.282 -17.034,-11.86 z M 220.993,326.57 c 18.148,0 20.298,16.716 20.298,16.716 l -40.596,0 c 0,0 2.15,-16.716 20.298,-16.716 z"
   id="path7770"
   style="fill:#000000" />
</g><g
   id="Layer_6"
   style="fill:#000000"
   transform="matrix(0.70821308,0,0,0.70821308,-36.795211,-136.85651)">
</g><g
   id="Layer_7"
   style="fill:#000000"
   transform="matrix(0.70821308,0,0,0.70821308,-36.795211,-136.85651)">
</g><g
   id="Layer_8"
   style="fill:#000000"
   transform="matrix(0.70821308,0,0,0.70821308,-36.795211,-136.85651)">
</g><g
   id="Layer_8_copy_3"
   style="fill:#000000"
   transform="matrix(0.70821308,0,0,0.70821308,-36.795211,-136.85651)">
	<path
   inkscape:connector-curvature="0"
   d="m 328.363,306.392 c 0,-1.154 0.061,-2.293 0.16,-3.421 -1.566,-0.305 -14.618,-2.379 -26.269,10.468 0,0 -1.912,-9.076 -14.727,-9.076 -12.815,0 -14.885,9.552 -14.885,9.552 l 0,80.076 c 0,0 0.477,10.348 14.885,10.348 0,0 14.727,1.592 14.727,-10.348 0,-11.94 0,-50.705 0,-50.705 0,0 3.692,-8.191 31.458,-17.366 -3.394,-5.72 -5.349,-12.395 -5.349,-19.528 z"
   id="path7776"
   style="fill:#000000" />
</g><g
   id="Layer_9"
   style="fill:#000000"
   transform="matrix(0.70821308,0,0,0.70821308,-36.795211,-136.85651)">
</g><g
   id="Layer_8_copy"
   style="fill:#000000"
   transform="matrix(0.70821308,0,0,0.70821308,-36.795211,-136.85651)">
	<path
   inkscape:connector-curvature="0"
   d="m 482.111,304.197 c -9.555,0 -15.524,9.791 -15.524,9.791 0,0 -8.358,-10.984 -25.312,-10.984 -16.955,0 -47.919,13.693 -47.919,51.263 0,0 0.159,49.748 46.725,49.748 20.297,0 26.745,-10.746 26.745,-10.746 0,0 3.343,10.746 15.523,10.746 12.179,0 15.044,-12.417 15.044,-12.417 l 0,-77.848 c 0.001,-10e-4 -5.73,-9.553 -15.282,-9.553 z m -37.182,73.949 c -23.395,0 -20.37,-22.925 -20.37,-22.925 0,0 -1.272,-24.834 19.742,-24.834 21.014,0 21.014,21.252 21.014,21.252 0,0 3.807,26.507 -20.386,26.507 z"
   id="path7780"
   style="fill:#000000" />
</g><g
   id="Layer_10"
   style="fill:#000000"
   transform="matrix(0.70821308,0,0,0.70821308,-36.795211,-136.85651)">
</g><g
   id="Layer_8_copy_2"
   style="fill:#000000"
   transform="matrix(0.70821308,0,0,0.70821308,-36.795211,-136.85651)">
	<path
   inkscape:connector-curvature="0"
   d="m 440.12,193.242 c -93.928,0 -102.478,88.151 -102.478,88.151 0.025,-0.027 0.051,-0.051 0.076,-0.078 3.919,-4.522 8.874,-8.118 14.502,-10.415 3.595,-1.535 7.124,-2.348 10.512,-2.632 1.301,-0.133 2.621,-0.203 3.957,-0.203 10.293,0 19.631,4.065 26.517,10.668 0.063,0.054 0.098,0.085 0.098,0.085 0,-2.022 19.594,-65.318 57.801,-65.318 38.207,0 47.998,51.341 47.998,51.341 13.254,-17.552 35.581,-9.194 35.581,-9.194 0,-10.507 -21.812,-61.929 -94.564,-62.405 z"
   id="path7784"
   style="fill:#000000" />
</g><g
   id="Layer_11"
   style="fill:#000000"
   transform="matrix(0.70821308,0,0,0.70821308,-36.795211,-136.85651)">
	
</g><g
   id="Layer_12"
   style="fill:#000000"
   transform="matrix(0.70821308,0,0,0.70821308,-36.795211,-136.85651)">
	<path
   inkscape:connector-curvature="0"
   d="m 108.351,413.891 c -37.252,0 -45.452,7.721 -45.452,7.721 l 0,21.969 c 0,0 20.537,-7.242 35.9,-7.242 15.363,0 16.158,3.74 16.158,3.74 l -0.08,5.334 c -27.382,0 -62.922,12.417 -62.922,32.992 0,20.576 10.547,31.562 31.561,31.562 21.014,0 31.681,-6.766 31.681,-6.766 l 0,6.766 40.276,0 c 0,0 0,-59.46 0,-73.071 0,-13.614 -9.87,-23.005 -47.122,-23.005 z m 6.208,68.297 c 0,0 -3.661,4.138 -12.417,4.138 -8.756,0 -11.463,-4.299 -11.463,-10.188 0,-5.889 9.711,-12.099 23.88,-12.099 l 0,18.149 z"
   id="path7790"
   style="fill:#000000" />
</g><g
   id="Layer_14"
   style="fill:#000000"
   transform="matrix(0.70821308,0,0,0.70821308,-36.795211,-136.85651)">
	<path
   inkscape:connector-curvature="0"
   d="m 161.204,505.19 c 0,0 26.746,7.164 37.571,7.164 14.619,0 51.581,-3.421 51.581,-34.626 0,-31.203 -47.124,-25.471 -47.124,-38.525 0,-13.054 40.118,0 40.118,0 l 0,-21.969 c 0,0 -16.874,-5.413 -28.974,-5.413 -12.099,0 -53.172,-0.956 -53.172,34.387 0,35.342 46.168,22.286 46.168,37.889 0,7.006 -14.009,5.73 -14.009,5.73 0,0 -22.766,-0.794 -32.159,-10.665 l 0,26.028 z"
   id="path7793"
   style="fill:#000000" />
	<path
   inkscape:connector-curvature="0"
   d="m 396.021,505.19 c 0,0 26.747,7.164 37.572,7.164 14.619,0 51.58,-3.421 51.58,-34.626 0,-31.203 -47.123,-25.471 -47.123,-38.525 0,-13.054 40.118,0 40.118,0 l 0,-21.969 c 0,0 -16.874,-5.413 -28.975,-5.413 -12.099,0 -53.173,-0.956 -53.173,34.387 0,35.342 46.17,22.286 46.17,37.889 0,7.006 -14.011,5.73 -14.011,5.73 0,0 -22.767,-0.794 -32.159,-10.665 l 0,26.028 z"
   id="path7795"
   style="fill:#000000" />
</g><g
   id="Layer_16"
   style="fill:#000000"
   transform="matrix(0.70821308,0,0,0.70821308,-36.795211,-136.85651)">
</g><g
   id="Layer_17"
   style="fill:#000000"
   transform="matrix(0.70821308,0,0,0.70821308,-36.795211,-136.85651)">
	<path
   inkscape:connector-curvature="0"
   d="M 368.322,446.925"
   id="path7799"
   style="fill:#000000" />
</g><g
   id="Layer_18"
   style="fill:#000000"
   transform="matrix(0.70821308,0,0,0.70821308,-36.795211,-136.85651)">
	<path
   id="path7802"
   style="fill:#000000"
   d="m 559.996,486.326 0,19.342 c 0,0 -2.865,6.687 -25.073,6.687 -22.209,0 -37.529,-11.462 -37.529,-20.298 0,-8.835 0,-53.968 0,-53.968 l -13.335,0 0,-22.208 15.044,0 0,-28.337 38.805,-5.095 0.121,33.352 20.356,0 0,22.169 -20.438,0 0,42.564 c 0,0 -0.039,7.583 10.647,7.583 10.685,0 11.402,-1.791 11.402,-1.791 z M 508.654,271.647 c 0,0 3.105,-9.552 15.283,-9.552 12.179,0 13.97,9.552 13.97,9.552 l 0,110.802 -29.253,3.94 0,-114.742 z" />
</g><g
   id="Layer_15"
   style="fill:#000000"
   transform="matrix(0.70821308,0,0,0.70821308,-36.795211,-136.85651)">
	<path
   inkscape:connector-curvature="0"
   d="m 366.331,369.155 c 7.749,0 14.949,2.343 20.936,6.356 l 0,-36.793 c -5.946,3.792 -13.002,6 -20.577,6 -8.833,0 -16.961,-2.996 -23.442,-8.016 l 0,40.37 c 6.375,-4.957 14.381,-7.917 23.083,-7.917 z"
   id="path7805"
   style="fill:#000000" />
</g><g
   id="Layer_15_copy"
   style="fill:#000000"
   transform="matrix(0.70821308,0,0,0.70821308,-36.795211,-136.85651)">
	<path
   inkscape:connector-curvature="0"
   d="m 366.331,444.455 c -7.887,0 -15.204,-2.429 -21.253,-6.574 0,14.786 0,72.325 0,72.325 l 46.486,0 0,-75.461 -0.006,0.005 c -6.676,6.031 -15.522,9.705 -25.227,9.705 z"
   id="path7808"
   style="fill:#000000" />
</g><g
   id="Layer_15_copy_2"
   style="fill:#000000"
   transform="matrix(0.70821308,0,0,0.70821308,-36.795211,-136.85651)">
	<path
   inkscape:connector-curvature="0"
   d="m 294.294,439.203 c 0,-13.054 40.119,0 40.119,0 l 0,-12.436 c -2.079,-3.316 -3.656,-6.978 -4.623,-10.882 -5.862,-1.603 -16.189,-4.064 -24.351,-4.064 -12.1,0 -53.173,-0.956 -53.173,34.387 0,35.342 46.168,22.286 46.168,37.889 0,7.006 -14.01,5.73 -14.01,5.73 0,0 -22.767,-0.794 -32.158,-10.665 l 0,26.028 c 0,0 26.746,7.164 37.57,7.164 14.62,0 51.581,-3.421 51.581,-34.626 0.001,-31.203 -47.123,-25.47 -47.123,-38.525 z"
   id="path7811"
   style="fill:#000000" />
</g><g
   id="Layer_19"
   style="fill:#000000"
   transform="matrix(0.70821308,0,0,0.70821308,-36.795211,-136.85651)">
	<path
   inkscape:connector-curvature="0"
   d="m 497.394,295.287 c 0,0 2.664,-63.281 -46.289,-63.281 -48.953,0 -50.147,53.251 -50.147,63.281 0,0 11.929,-43.222 48.231,-43.222 36.302,0 48.205,43.222 48.205,43.222 z"
   id="path7814"
   style="fill:#000000" />
</g><g
   id="Layer_23"
   style="fill:#000000"
   transform="matrix(0.70821308,0,0,0.70821308,-36.795211,-136.85651)">
	<radialGradient
   id="SVGID_1_"
   cx="376.91699"
   cy="395.22409"
   r="41.823799"
   gradientUnits="userSpaceOnUse">
		<stop
   offset="0.0552"
   style="stop-color:#FFFFFF"
   id="stop7818" />
		<stop
   offset="0.7607"
   style="stop-color:#1F3C72"
   id="stop7820" />
		<stop
   offset="0.9939"
   style="stop-color:#1F3C72"
   id="stop7822" />
	</radialGradient>
	<circle
   cx="368.202"
   cy="406.806"
   r="26.466"
   id="circle7824"
   style="fill:#000000" />
</g><g
   id="Layer_21"
   style="fill:#000000"
   transform="matrix(0.70821308,0,0,0.70821308,-36.795211,-136.85651)">
	<radialGradient
   id="SVGID_2_"
   cx="375.4043"
   cy="294.81009"
   r="41.823799"
   gradientUnits="userSpaceOnUse">
		<stop
   offset="0.0552"
   style="stop-color:#FFFFFF"
   id="stop7828" />
		<stop
   offset="0.7607"
   style="stop-color:#ED2027"
   id="stop7830" />
		<stop
   offset="0.9939"
   style="stop-color:#1F3C72"
   id="stop7832" />
	</radialGradient>
	<circle
   cx="366.68799"
   cy="306.392"
   r="26.466999"
   id="circle7834"
   style="fill:#000000" />
</g><g
   id="Layer_22"
   style="fill:#000000"
   transform="matrix(0.70821308,0,0,0.70821308,-36.795211,-136.85651)">
	<text
   transform="translate(563.666,508.334)"
   font-size="20"
   id="text7837"
   style="font-size:20px;font-family:Monaco;fill:#000000">SM</text>


</g>
</svg>