<?xml version="1.0" encoding="UTF-8" standalone="no"?>
<!-- Generator: Adobe Illustrator 17.1.0, SVG Export Plug-In . SVG Version: 6.00 Build 0)  -->

<svg
   xmlns:dc="http://purl.org/dc/elements/1.1/"
   xmlns:cc="http://creativecommons.org/ns#"
   xmlns:rdf="http://www.w3.org/1999/02/22-rdf-syntax-ns#"
   xmlns:svg="http://www.w3.org/2000/svg"
   xmlns="http://www.w3.org/2000/svg"
   xmlns:sodipodi="http://sodipodi.sourceforge.net/DTD/sodipodi-0.dtd"
   xmlns:inkscape="http://www.inkscape.org/namespaces/inkscape"
   version="1.1"
   id="Layer_1"
   x="0px"
   y="0px"
   viewBox="0 0 457.02621 226"
   enable-background="new 0 0 316.5 178.5"
   xml:space="preserve"
   inkscape:version="0.91 r13725"
   sodipodi:docname="frc-recyclerush-logo.svg"
   width="457.02621"
   height="226"><metadata
   id="metadata7193"><rdf:RDF><cc:Work
       rdf:about=""><dc:format>image/svg+xml</dc:format><dc:type
         rdf:resource="http://purl.org/dc/dcmitype/StillImage" /><dc:title></dc:title></cc:Work></rdf:RDF></metadata><defs
   id="defs7191" /><sodipodi:namedview
   pagecolor="#ffffff"
   bordercolor="#666666"
   borderopacity="1"
   objecttolerance="10"
   gridtolerance="10"
   guidetolerance="10"
   inkscape:pageopacity="0"
   inkscape:pageshadow="2"
   inkscape:window-width="2560"
   inkscape:window-height="1377"
   id="namedview7189"
   showgrid="false"
   fit-margin-top="0"
   fit-margin-left="0"
   fit-margin-right="0"
   fit-margin-bottom="0"
   inkscape:zoom="6.5658263"
   inkscape:cx="226.6631"
   inkscape:cy="108.50001"
   inkscape:window-x="2552"
   inkscape:window-y="-8"
   inkscape:window-maximized="1"
   inkscape:current-layer="Layer_1" />

















<g
   id="g7195"
   transform="matrix(1.7950755,0,0,1.7950755,-58.878476,-39.132646)"><path
     style="fill:#000000"
     id="path7157"
     d="m 69.1,93.6 3.7,9 -15.3,0 -3.8,-9.6 c -0.6,-1.6 -1.6,-2.3 -3.5,-2.3 0.1,0 -2.3,0 -2.3,0 l 0,11.9 -15.1,0 0,-35.6 22.5,0 c 12.1,0 16.4,4.1 16.4,12.1 0,5.4 -2.9,8.3 -6.9,9.9 1.8,0.7 3.3,2 4.3,4.6 z M 52.2,83 c 3.6,0 5.1,-0.9 5.1,-3.8 0,-2.6 -1.6,-3.8 -4.3,-3.8 l -5.1,0 0,7.6 4.3,0 z"
     inkscape:connector-curvature="0" /><path
     style="fill:#000000"
     id="path7159"
     d="m 75.9,67 32.3,0 0,10.1 -17.2,0 0,3.4 14.5,0 0,8.4 -14.5,0 0,3.6 18,0 0,10.1 -33,0 0,-35.6 z"
     inkscape:connector-curvature="0" /><path
     style="fill:#000000"
     id="path7161"
     d="M 111,84.8 C 111,72.7 118,67 129.3,67 l 13.6,0 0,10 -9.2,0 c -5.2,0 -7.2,1.3 -7.2,7.8 0,6.5 2,7.7 7.2,7.7 l 19.7,0 0,10 -24.1,0 C 118,102.6 111,96.9 111,84.8 Z"
     inkscape:connector-curvature="0" /><path
     style="fill:#000000"
     id="path7163"
     d="m 146.6,67 16.2,0 4.7,10.6 c 0.9,2 1.7,5.2 1.7,5.2 0,0 0.9,-3.3 1.7,-5.2 l 4.3,-10.6 14.5,0 -13.8,27.7 0,18.2 -15.1,0 0,-18.2 L 146.6,67 Z"
     inkscape:connector-curvature="0" /><path
     style="fill:#000000"
     id="path7165"
     d="M 187.8,84.8 C 187.8,72.7 194.7,67 206,67 l 13.6,0 0,10 -9.2,0 c -5.2,0 -7.2,1.3 -7.2,7.8 0,6.5 2,7.7 7.2,7.7 l 9.2,0 0,10 -13.6,0 c -11.2,0.1 -18.2,-5.6 -18.2,-17.7 z"
     inkscape:connector-curvature="0" /><path
     style="fill:#000000"
     id="path7167"
     d="m 224.2,58.8 15.1,0 0,33.7 10.9,0 0,10.1 -26,0 0,-43.8 z"
     inkscape:connector-curvature="0" /><path
     style="fill:#000000"
     id="path7169"
     d="m 254.5,67 32.3,0 0,10.1 -17.2,0 0,3.4 14.4,0 0,8.4 -14.5,0 0,3.6 17.9,0 0,10.1 -33,0 0,-35.6 z"
     inkscape:connector-curvature="0" /><path
     style="fill:#000000"
     id="path7171"
     d="m 102.9,117.2 c -1,3.5 -1.4,5.3 -1.8,8.3 3.7,-5.5 8,-10.1 12.3,-13.2 2.5,-1.8 5.4,-2.7 8.7,-2.7 0.9,0 1.7,0 3.2,0.3 -1.5,1.9 -2.3,3.6 -3.3,6.9 -0.7,2.9 -1.2,4.8 -1.4,7.2 -1.6,0.5 -2.5,0.7 -3.9,0.7 -2,0 -3.3,-0.7 -3.7,-2.1 -0.3,-1.1 0,-3 1,-6.2 -3.5,1.7 -6.5,4.6 -10.1,9.9 -3,4.6 -5,8.9 -6.9,14.7 -1.3,4.4 -1.6,4.8 -2.8,4.8 -1.1,0 -2.2,-1 -2.7,-2.8 -1.5,-5 0.2,-18.8 3.3,-26.7 1.9,-4.6 3.4,-5.6 9.2,-5.6 0.4,0 0.5,0 0.5,0 0.2,0 0.5,0 0.7,0 -0.8,2.2 -1.4,3.8 -2.3,6.5 z"
     inkscape:connector-curvature="0" /><path
     style="fill:#000000"
     id="path7173"
     d="m 156.7,141.3 c -3,3.7 -6.4,6.1 -7.3,6.1 -1.1,0 -2.2,-1.2 -2.7,-3 -1.3,-4.1 -0.9,-10.5 0.8,-18.8 l 0.3,-1.3 c -0.7,0.7 -1.2,1.2 -1.3,1.4 -0.4,0.4 -1.1,1.2 -3,3.7 -0.7,0.9 -1.3,1.7 -2,2.6 l -5.7,7.3 c -1.2,1.5 -2.2,2.9 -3.5,4.5 -2.1,2.7 -3.4,3.7 -4.7,3.7 -1.5,0 -2.7,-1.1 -3.3,-3.2 -1.1,-3.6 -0.3,-11.7 2,-21.1 1.6,-6.3 3,-9.3 4.9,-10.1 1,-0.4 3.9,-0.7 7.4,-0.8 -3.5,7.8 -6.4,20.3 -5.4,23.6 0.1,0.5 0.4,0.7 0.8,0.7 0.2,0 0.5,-0.1 0.7,-0.4 l 1.1,-1.4 c 1.4,-1.9 2.8,-3.8 4.3,-5.6 l 4.5,-5.5 4.3,-5.4 c 4.6,-5.3 4.1,-6.1 11.8,-5.9 -3.2,5.9 -5.4,15.5 -5.6,23.7 0.7,-0.5 1.1,-0.9 1.3,-1.1 l 1.9,-1.8 c 0.1,0 -1.4,7.8 -1.6,8.1 z"
     inkscape:connector-curvature="0" /><path
     style="fill:#000000"
     id="path7175"
     d="m 215.6,104.1 c -4,8.6 -5.5,12.9 -7.6,21.4 0.5,-0.8 1,-1.3 1.3,-1.7 l 1,-1.4 c 1,-1.4 4.1,-4.8 5.8,-6.4 4.6,-4.6 9.2,-7.3 12.3,-7.3 1.9,0 3.3,0.9 3.8,2.5 0.4,1.2 0.2,2.3 -0.5,5 -1.6,6.8 -2.1,10.2 -2.5,17.5 l 1.4,-1.3 c 4,-3.8 6.1,-5.5 9.9,-8.3 2.5,-1.8 3.5,-2.4 4.3,-2.4 0.7,0 1.3,0.4 1.4,1 0.2,0.8 0,1.1 -1.8,2.3 -5.7,4.2 -13.1,11.1 -16.2,15.3 -3.3,4.5 -3.5,4.8 -4.4,4.8 -1,0 -2.1,-1 -2.6,-2.7 -1.5,-4.8 -1,-13.1 1,-22.2 0.6,-2.4 0.6,-2.9 0.5,-3.3 -0.1,-0.5 -0.6,-0.9 -1.1,-0.9 -1.7,0 -5.9,3.5 -9.1,7.5 -3.9,5 -6.6,10.7 -8.6,18.1 -0.9,3.2 -1.3,3.7 -2.2,3.7 -0.9,0 -1.7,-0.8 -2.1,-2.1 -1.9,-6.1 -0.7,-18.8 2.6,-28.4 2,-5.8 4.4,-11.2 8.1,-18 6.9,-12.7 8.8,-14.4 17.3,-14.5 -5.4,8.2 -7.9,12.6 -12,21.8 z"
     inkscape:connector-curvature="0" /><path
     style="fill:#000000"
     d="m 148,70.4 c 1.5,2.7 3.7,3.4 5.9,3.4 l 11.8,0 -6,-14.2 -17.9,0 6.2,10.8 z"
     connector-curvature="0"
     nodetypes="sscccs"
     id="path3391_2_"
     inkscape:connector-curvature="0" /><path
     style="fill:#000000"
     d="m 154.2,38 -16.4,3.2 4.5,2.6 -3,5.1 c -1.1,1.8 -1.4,4.1 -0.4,5.8 l 8.2,14.2 c -1.3,-2.2 0,-5 1.2,-7.2 l 6.3,-10.9 5,2.9 -5.4,-15.7 z"
     connector-curvature="0"
     id="path3393_2_"
     inkscape:connector-curvature="0" /><path
     style="fill:#000000"
     d="m 197.8,55.6 c 1.5,-2.7 1.1,-4.9 0,-6.8 l -4.7,-8.1 -12.3,7.1 10.7,18.6 6.3,-10.8 z"
     connector-curvature="0"
     nodetypes="sscccs"
     id="path3409_2_"
     inkscape:connector-curvature="0" /><path
     style="fill:#000000"
     d="m 177.6,53.8 -10.9,12.6 10.9,12.6 0,-5.2 5.9,0 c 2.1,0 4.3,-0.8 5.3,-2.5 L 197,57.1 c -1.3,2.2 -4.4,2.5 -6.8,2.5 l -12.5,0 0,-5.8 -0.1,0 z"
     connector-curvature="0"
     id="path3411_2_"
     inkscape:connector-curvature="0" /><path
     style="fill:#000000"
     d="m 160.1,21.8 c -3.1,0 -4.8,1.5 -5.9,3.4 l -4.7,8.1 12.3,7.1 10.7,-18.6 -12.4,0 z"
     connector-curvature="0"
     nodetypes="sscccs"
     id="path3378_2_"
     inkscape:connector-curvature="0" /><path
     style="fill:#000000"
     d="m 161.8,21.8 c 2.5,0 4.4,2.5 5.6,4.7 l 6.3,10.9 -5,2.9 16.4,3.2 5.4,-15.8 -4.5,2.6 -3,-5.1 c -1.1,-1.8 -2.8,-3.3 -4.8,-3.3 l -16.4,0 0,-0.1 z"
     connector-curvature="0"
     id="path3380_2_"
     inkscape:connector-curvature="0" /><g
     style="fill:#000000"
     id="g7183">
	<path
   style="fill:#000000"
   id="path7185"
   d="m 165.2,135.5 c -0.2,0.9 -0.7,2.9 0.3,5.2 0.5,1.3 2.1,4 9.2,4 5.4,0 10.8,-2.6 10.8,-6.9 0,-1.9 -0.8,-2.7 -3.2,-4.6 l -0.1,-0.1 c -7,-6.1 -9.6,-8.4 -9.6,-12.5 0,-5.1 7.6,-9.9 16.2,-10.3 5.1,-0.2 9.1,1.4 10.3,4 0,0 0.2,0.3 0.1,0.7 -0.1,0.4 -7.3,6.5 -7.1,6.2 0.2,-0.3 1.4,-2.4 1.4,-2.4 0.3,-0.6 0.5,-1.2 0.6,-2 0.2,-1.8 -0.2,-3 -4.7,-3 -3.6,0 -7.6,2.4 -7.6,4.3 l 0,0.2 c 0,1 0.4,2 1.2,2.9 0.5,0.8 2.7,2.9 4.3,4.5 0.8,0.8 1.6,1.5 1.9,1.9 2.5,2.6 4.7,5.3 4.7,8.2 0,4.8 -6.4,11.9 -20.1,11.9 -5.7,0 -12.9,-2.2 -15.5,-7 l -0.1,-0.2 0,-0.2 c 2.7,-2.1 1.6,-1.5 5.8,-4"
   inkscape:connector-curvature="0" />
</g><text
     style="font-size:8.93369961px;font-family:MyriadPro-Regular;fill:#000000"
     id="text7187"
     font-size="8.9337"
     transform="translate(231.166,144.9338)">SM</text>
</g>
</svg>