<?xml version="1.0" encoding="UTF-8" standalone="no"?>
<!-- Generator: Adobe Illustrator 17.1.0, SVG Export Plug-In . SVG Version: 6.00 Build 0)  -->

<svg
   xmlns:dc="http://purl.org/dc/elements/1.1/"
   xmlns:cc="http://creativecommons.org/ns#"
   xmlns:rdf="http://www.w3.org/1999/02/22-rdf-syntax-ns#"
   xmlns:svg="http://www.w3.org/2000/svg"
   xmlns="http://www.w3.org/2000/svg"
   xmlns:sodipodi="http://sodipodi.sourceforge.net/DTD/sodipodi-0.dtd"
   xmlns:inkscape="http://www.inkscape.org/namespaces/inkscape"
   version="1.1"
   id="Layer_1"
   x="0px"
   y="0px"
   viewBox="0 0 766.13977 226"
   enable-background="new 0 0 528 197"
   xml:space="preserve"
   inkscape:version="0.91 r13725"
   sodipodi:docname="frc-stronghold.svg"
   width="766.13977"
   height="226"><metadata
   id="metadata5905"><rdf:RDF><cc:Work
       rdf:about=""><dc:format>image/svg+xml</dc:format><dc:type
         rdf:resource="http://purl.org/dc/dcmitype/StillImage" /><dc:title /></cc:Work></rdf:RDF></metadata><defs
   id="defs5903">
	

		
		
		
	
	
	

		
	</defs><sodipodi:namedview
   pagecolor="#ffffff"
   bordercolor="#666666"
   borderopacity="1"
   objecttolerance="10"
   gridtolerance="10"
   guidetolerance="10"
   inkscape:pageopacity="0"
   inkscape:pageshadow="2"
   inkscape:window-width="2560"
   inkscape:window-height="1377"
   id="namedview5901"
   showgrid="false"
   fit-margin-top="0"
   fit-margin-left="0"
   fit-margin-right="0"
   fit-margin-bottom="0"
   inkscape:zoom="2.6196891"
   inkscape:cx="535.18006"
   inkscape:cy="35.84356"
   inkscape:window-x="2552"
   inkscape:window-y="-8"
   inkscape:window-maximized="1"
   inkscape:current-layer="Layer_1" />






<path
   d="M 715.0625 0.62109375 C 665.89545 1.1523339 619.27038 30.52834 567.99414 9.0214844 C 567.91822 12.418859 567.84154 15.83098 567.76562 19.232422 C 620.46478 42.15447 667.79717 10.241027 719.58789 10.158203 C 727.94804 10.144834 736.42664 10.968432 745.06055 12.978516 C 748.89631 11.252369 752.89172 9.7912048 757.11914 8.7089844 C 742.79582 2.5849986 728.82927 0.47234651 715.0625 0.62109375 z M 721.28906 27.974609 C 667.61007 32.187017 620.33997 62.038195 567.31836 39.300781 C 567.17714 45.636778 567.03771 51.958135 566.89648 58.294922 C 619.51133 81.031652 664.23994 51.675165 717.35742 46.488281 C 714.33216 43.9321 711.21644 41.440439 707.9707 39.037109 C 712.38121 35.269805 716.78143 31.522345 721.28906 27.974609 z M 722.23828 68.689453 C 668.54224 68.178275 620.617 102.05629 566.44922 78.367188 C 566.34269 83.141986 566.23544 87.928073 566.12891 92.695312 C 632.69567 121.46832 692.57388 62.989634 759.14062 92.384766 C 753.42872 84.788527 747.62731 77.460431 741.51758 70.466797 C 734.99767 69.296322 728.57752 68.749802 722.23828 68.689453 z "
   id="path5843"
   style="fill:#000000;stroke:none" /><path
   style="fill:#000000;stroke:none"
   d="M 487.58594 0 L 488.05273 18.041016 L 488.20898 28.927734 L 479.6543 27.996094 L 480.27539 24.261719 L 479.03125 11.042969 L 478.87695 1.7109375 L 469.38867 1.4003906 L 461.45703 0.77734375 L 462.85742 11.664062 L 462.54492 22.085938 L 462.54492 25.662109 L 454.61328 24.574219 L 454.14648 20.996094 L 454.45898 11.042969 L 454.45898 1.5546875 L 448.54883 0.62304688 L 443.10352 1.7109375 L 442.01562 10.265625 L 442.79297 20.841797 L 443.10352 24.574219 L 443.72656 92.851562 L 472.24023 110.10156 C 471.07332 110.7928 470.06738 111.82617 468.30078 111.82617 C 465.8123 111.82617 466.27847 111.66983 464.41211 112.91406 L 465.3457 114.78125 C 465.3457 114.62572 465.50072 114.78125 465.65625 114.78125 C 466.4339 114.93678 466.43298 113.84766 467.98828 113.84766 C 469.07699 113.84766 469.69964 114.46947 470.63281 114.625 C 475.29871 115.55818 476.07617 113.84716 476.07617 120.06836 C 476.07617 121.62365 475.7647 120.84684 475.14258 121.93555 C 474.98705 122.55767 474.52148 125.04585 474.52148 125.66797 C 474.52148 126.91221 475.14258 128.00186 475.14258 129.24609 C 475.14258 130.80139 474.52148 132.35558 474.52148 134.06641 C 474.52148 135.31065 474.83203 136.55459 474.83203 137.79883 C 474.83203 141.06496 472.81055 144.17528 472.81055 147.44141 C 472.81055 149.30777 473.58789 150.8634 473.58789 152.57422 C 473.58789 155.21823 472.9668 157.86186 472.9668 160.50586 C 472.9668 161.43904 472.96628 162.37346 473.27734 163.30664 C 473.5884 164.70641 474.36523 163.77345 474.36523 166.72852 C 474.36523 167.66169 474.36647 168.43791 474.21094 169.37109 C 474.05541 169.99321 473.58789 170.45991 473.58789 171.08203 L 473.58789 171.54883 L 474.21094 171.70508 C 474.83306 172.48273 475.14258 173.88323 475.14258 174.81641 C 475.14258 176.52723 474.36595 178.08214 474.52148 179.79297 L 474.52148 180.25977 C 474.98807 181.03742 475.14258 181.65862 475.14258 182.5918 C 474.98705 184.30262 474.52148 185.85753 474.52148 187.56836 C 474.52148 188.8126 475.45508 189.74724 475.45508 190.83594 C 475.29955 191.147 475.14279 191.92455 475.60938 192.08008 C 475.14279 194.56856 474.67773 196.90092 474.67773 199.54492 C 474.67773 201.56681 474.98828 203.58872 474.98828 205.45508 C 474.98828 207.94355 474.67639 207.47667 473.12109 209.1875 C 472.49897 209.80962 472.03279 210.74311 471.09961 211.36523 C 469.23326 212.92053 468.14453 213.38725 468.14453 216.03125 C 467.989 217.11996 468.61174 217.89741 469.54492 218.51953 L 469.85547 218.83008 C 470.16653 218.98561 470.47801 218.98633 470.78906 218.98633 C 471.87777 218.98633 473.27704 218.5186 474.05469 217.89648 C 474.52128 217.58542 474.52097 217.11965 474.83203 216.80859 C 475.45415 216.18647 476.38693 215.87603 476.85352 215.25391 C 477.00905 214.94285 477.00925 214.47512 477.32031 214.16406 C 478.09796 213.23089 479.18719 212.60896 479.96484 211.67578 C 481.8312 209.65389 482.92054 207.32122 484.32031 204.98828 C 485.09796 203.58851 486.34149 202.50061 487.11914 200.94531 C 487.4302 200.47872 487.27488 199.85526 487.58594 199.38867 C 488.36359 197.98891 489.60742 197.98941 489.60742 196.12305 C 489.60742 194.41222 488.51932 193.79039 488.05273 192.39062 C 487.58614 191.14639 487.42969 188.50133 487.42969 187.10156 C 487.42969 185.70179 487.58614 183.68101 488.05273 182.28125 C 488.36379 180.88148 489.29688 180.72645 489.29688 179.01562 C 489.29688 177.61586 488.36328 176.0592 488.36328 174.50391 C 488.51881 172.79308 489.29688 171.08192 489.29688 169.37109 C 489.29688 168.44692 489.1907 167.52378 489.10156 166.59961 C 489.18657 166.47416 489.2042 166.31521 489.60742 166.41602 C 491.47378 162.99436 492.40738 163.77282 493.49609 162.37305 C 493.80714 161.90646 493.80808 161.59622 494.11914 161.28516 C 494.17069 161.22329 494.26064 161.15527 494.33398 161.08984 C 495.362 161.09486 496.38672 161.09741 497.38477 160.97266 L 498.16211 160.50586 C 499.33687 160.27091 500.73404 160.30268 502.03906 160.33203 C 502.25418 160.41309 502.46735 160.48029 502.67188 160.50586 C 504.07165 160.81692 505.62829 160.50658 507.18359 160.66211 C 508.73889 160.66211 510.75915 160.5073 512.31445 160.81836 L 513.09375 161.28516 C 514.25374 161.43015 515.44651 161.43866 516.64258 161.45508 C 516.72981 161.67011 516.80804 161.89007 516.98047 162.0625 C 518.06917 163.46227 519.15831 162.83934 520.86914 166.10547 C 521.34559 165.98636 521.27746 166.22993 521.42773 166.35156 C 521.33703 167.46202 521.17969 168.57313 521.17969 169.68359 C 521.17969 171.39442 521.95775 173.10558 522.11328 174.81641 C 522.11328 176.3717 521.17969 177.77087 521.17969 179.32617 C 521.17969 181.037 522.11277 181.19203 522.42383 182.5918 C 522.89042 183.99156 523.04688 185.85876 523.04688 187.41406 C 523.04688 188.81383 522.89042 191.45693 522.42383 192.70117 C 521.95724 194.10094 520.86914 194.87829 520.86914 196.43359 C 520.86914 198.45547 521.95745 198.45693 522.89062 199.70117 C 523.20168 200.16776 523.04636 200.78927 523.35742 201.25586 C 524.13507 202.81116 525.22502 204.05459 526.1582 205.29883 C 527.7135 207.47624 528.64536 209.96444 530.51172 211.98633 C 531.28937 212.91951 532.53414 213.54339 533.15625 214.47656 C 533.46731 214.78762 533.46752 215.25339 533.62305 215.56445 C 534.08964 216.18657 535.02241 216.49702 535.64453 217.11914 C 535.95559 217.58573 536.11082 217.89792 536.42188 218.20898 C 537.19952 218.8311 538.59879 219.29688 539.6875 219.29688 C 539.99856 219.29688 540.31004 219.29615 540.62109 219.14062 L 540.93359 218.83008 C 541.86677 218.20796 542.48756 217.43051 542.33203 216.3418 C 542.33203 213.6978 541.2433 213.23108 539.37695 211.67578 C 538.44377 211.05366 537.97759 210.12017 537.35547 209.49805 C 535.80017 207.78722 535.64381 208.2541 535.48828 205.76562 C 535.48828 203.74373 535.64525 201.87736 535.80078 199.85547 C 535.80078 197.21147 535.33378 194.87911 534.86719 192.39062 C 535.33378 192.2351 535.17897 191.45754 535.02344 191.14648 C 535.02344 190.21331 535.79955 189.1251 535.95508 187.88086 C 535.95508 186.17003 535.48951 184.61317 535.33398 182.90234 C 535.33398 181.96917 535.33296 181.50349 535.95508 180.57031 L 535.95508 180.10352 C 535.95508 178.39269 535.33398 176.83778 535.33398 175.12695 C 535.33398 174.19378 535.64546 172.9488 536.26758 172.01562 L 536.88867 171.86133 L 536.88867 171.39453 C 536.88867 170.77241 536.42311 170.30571 536.26758 169.68359 C 536.11205 168.75041 536.11133 167.97223 536.11133 167.03906 C 536.11133 164.08399 536.88816 165.17249 537.19922 163.61719 C 537.51028 162.83954 537.51172 161.75154 537.51172 160.81836 C 537.51172 158.17436 536.88867 155.53073 536.88867 152.88672 C 536.88867 151.02037 537.66602 149.46474 537.66602 147.75391 C 537.66602 144.33225 535.64453 141.37746 535.64453 138.11133 C 535.64453 136.86709 535.95508 135.62119 535.95508 134.37695 C 535.95508 132.66612 535.33398 131.11194 535.33398 129.55664 C 535.33398 128.3124 535.95508 127.22276 535.95508 125.97852 C 535.95508 125.3564 535.48951 122.71268 535.33398 122.24609 C 534.71186 121.15738 534.40039 121.93615 534.40039 120.38086 C 534.40039 114.00413 535.17785 115.86873 539.84375 114.93555 C 540.77692 114.78002 541.39957 114.1582 542.48828 114.1582 C 544.04358 114.1582 544.04266 115.24733 544.82031 115.0918 C 544.97584 115.0918 544.97728 114.93627 545.13281 115.0918 C 545.5994 114.46968 545.75339 113.84868 546.06445 113.22656 C 544.04256 111.8268 544.51068 112.13672 542.17773 112.13672 C 540.75068 112.13672 539.82171 111.45959 538.90234 110.83398 L 567.52734 92.851562 L 568.15039 24.574219 L 568.46094 20.841797 L 569.23828 10.265625 L 568.15039 1.8671875 L 562.70703 0.77734375 L 556.79688 1.7109375 L 556.79688 11.197266 L 557.10742 21.152344 L 556.64062 24.728516 L 548.70898 25.818359 L 548.70898 22.240234 L 548.39844 11.820312 L 549.79688 0.93359375 L 541.86523 1.5546875 L 532.37891 1.8671875 L 532.22266 11.197266 L 530.97852 24.417969 L 531.60156 28.150391 L 523.04688 29.083984 L 523.20312 18.197266 L 520.24805 0 L 503.91602 1.8671875 L 487.58594 0 z M 506.7168 14.931641 C 506.7168 21.308362 508.89258 34.527563 508.89258 37.949219 C 508.89258 41.526404 509.51562 41.52633 509.51562 45.103516 C 509.51562 48.680701 509.35938 48.680627 509.35938 52.257812 C 509.35938 55.834998 508.58203 55.834924 508.58203 59.412109 C 508.58203 62.989295 509.35938 62.989221 509.35938 66.566406 C 509.35938 70.143592 508.58203 70.143518 508.58203 73.720703 C 508.58203 77.297888 509.20508 77.297814 509.20508 80.875 C 509.20508 84.452185 509.67188 84.452111 509.67188 88.029297 C 509.67188 91.606482 508.89258 91.606409 508.89258 95.183594 C 508.89258 98.76078 509.35938 98.760704 509.35938 102.33789 C 509.35938 105.52593 509.47898 105.99848 509.50586 108.56836 C 509.46606 108.56788 509.39637 108.56055 509.35938 108.56055 L 509.50781 108.79883 C 509.50972 109.0471 509.51562 109.20012 509.51562 109.49219 C 509.51562 113.06937 509.04883 113.06929 509.04883 116.64648 C 509.04883 120.22367 509.20508 120.2236 509.20508 123.80078 C 509.20508 126.44479 506.87109 129.40173 506.87109 130.95703 L 521.03516 122.05859 C 521.08502 124.01962 522.2755 125.55145 522.58008 127.37891 C 522.89114 129.55632 522.73633 131.88899 522.73633 134.06641 C 522.73633 136.39935 523.51367 138.73274 523.51367 140.91016 C 523.51367 141.68781 522.89186 142.46526 522.73633 143.39844 C 522.5808 144.48714 522.42455 145.42106 522.58008 146.50977 C 522.58008 148.68719 523.20312 150.70931 523.20312 152.88672 C 523.20312 153.13077 523.18864 153.35512 523.16602 153.56836 C 520.98062 153.69929 518.54715 154.08733 516.51367 154.5957 C 515.26943 154.90676 514.80335 155.5293 513.24805 155.5293 C 512.56837 155.5293 512.05361 155.39566 511.58008 155.23828 C 511.3207 154.87368 511.0051 154.53029 509.67188 154.44141 C 508.47392 154.44141 507.40488 154.75673 506.33984 155.02734 C 506.20604 155.03971 506.0713 155.0625 505.9375 155.0625 C 504.07114 155.0625 502.51746 154.13086 500.80664 154.13086 C 498.62922 154.13086 499.2501 155.21896 498.00586 155.68555 C 497.83474 155.74259 497.62512 155.7801 497.43359 155.82812 C 497.3635 155.8309 497.30187 155.8418 497.22852 155.8418 C 495.82875 155.8418 495.36266 155.21926 493.96289 154.9082 C 491.94745 154.27838 489.63239 153.96556 487.41797 153.86523 C 487.32729 153.49274 487.27539 153.06898 487.27539 152.57422 C 487.27539 150.39681 487.89648 148.37469 487.89648 146.19727 C 488.05201 145.10856 487.89772 144.17659 487.74219 143.08789 C 487.58666 142.31024 486.96289 141.53279 486.96289 140.59961 C 486.96289 138.42219 487.74219 136.0888 487.74219 133.75586 C 487.74219 131.57844 487.58542 129.24577 487.89648 127.06836 C 488.36307 125.04647 489.45312 123.64689 489.45312 121.625 C 489.45312 121.26086 489.42705 120.86931 489.4082 120.48633 L 506.7168 130.95703 C 507.02786 128.93514 504.84961 126.60032 504.84961 123.80078 L 504.84961 116.64648 C 504.84961 113.06929 504.07227 113.06937 504.07227 109.49219 C 504.07227 105.915 504.38281 105.91507 504.38281 102.33789 C 504.38281 98.760704 504.69336 98.76078 504.69336 95.183594 C 504.69336 91.606409 504.53906 91.606482 504.53906 88.029297 C 504.53906 84.452111 504.38281 84.452185 504.38281 80.875 L 504.38281 73.720703 C 504.38281 70.143518 505.00586 70.143592 505.00586 66.566406 C 505.00586 62.989221 504.22852 62.989295 504.22852 59.412109 C 504.22852 55.834924 504.07227 55.834998 504.07227 52.257812 C 504.07227 48.680627 504.69336 48.680701 504.69336 45.103516 C 504.69336 41.52633 504.84961 41.526404 504.84961 37.949219 C 504.84961 34.372034 503.45005 33.906238 505.31641 30.951172 C 506.24959 29.395874 506.56127 18.508826 506.7168 14.931641 z M 468.61133 39.037109 L 475.29883 41.681641 L 480.43164 49.302734 L 481.98633 58.324219 L 481.36523 58.945312 L 482.60938 69.521484 L 482.14258 79.476562 L 482.76367 89.740234 L 482.45312 99.072266 L 473.58789 94.40625 L 465.0332 91.296875 L 457.25781 86.474609 L 456.94727 77.298828 L 456.63477 68.121094 L 456.94727 59.257812 L 456.32422 50.080078 L 457.10156 50.392578 L 458.50195 43.548828 L 462.70117 39.193359 L 468.61133 39.037109 z M 542.17773 39.193359 L 548.08789 39.349609 L 552.28711 43.703125 L 553.68555 50.546875 L 554.46289 50.236328 L 553.8418 59.412109 L 554.30859 68.277344 L 554.15234 77.453125 L 553.8418 86.630859 L 546.06445 91.451172 L 537.51172 94.5625 L 528.64648 99.228516 L 528.33398 89.896484 L 528.64648 79.630859 L 528.17969 69.677734 L 529.42383 59.101562 L 528.80078 58.478516 L 530.35742 49.458984 L 535.48828 41.837891 L 542.17773 39.193359 z "
   id="path5849" /><g
   style="fill:#000000;stroke:none"
   id="g5853"
   transform="matrix(1.555298,0,0,1.555298,-22.551821,-28.928543)">
		
	</g><g
   id="g5863"
   transform="matrix(1.555298,0,0,1.555298,-22.551821,-28.928543)"
   style="fill:#000000;stroke:none">
	<path
   inkscape:connector-curvature="0"
   d="m 498.1,147.7 c -0.1,-0.6 -0.4,-1.4 -1.8,-1.4 -0.1,0 -0.4,0 -0.8,0.1 -0.3,0.1 -0.8,0.3 -0.8,1.1 0,0.4 0.2,0.7 0.6,0.8 0.5,0.2 1.3,0.3 1.3,0.3 l 0.5,0.1 c 0.2,0 0.3,0.1 0.5,0.1 1.3,0.4 1.6,1.2 1.6,1.8 0,0.1 0,0.4 -0.1,0.7 -0.3,0.7 -0.9,1 -1.1,1.1 -0.6,0.3 -1.3,0.3 -1.5,0.3 -1.1,0 -1.8,-0.4 -2.1,-0.7 -0.4,-0.3 -0.6,-0.8 -0.7,-1.2 0,-0.1 -0.1,-0.3 -0.1,-0.6 l 0.9,0 c 0,0.5 0.1,0.9 0.5,1.2 0.6,0.6 1.4,0.5 1.7,0.5 0.1,0 0.4,0 0.6,-0.1 0.6,-0.1 1.1,-0.6 1.1,-1.3 0,-0.1 0,-0.3 -0.1,-0.4 -0.2,-0.4 -0.8,-0.6 -0.8,-0.6 -0.3,-0.1 -0.9,-0.3 -1.7,-0.4 -0.4,-0.1 -0.7,-0.2 -0.9,-0.3 -0.4,-0.2 -1,-0.5 -1,-1.6 0,-0.3 0,-0.9 0.6,-1.4 0.6,-0.5 1.2,-0.6 1.9,-0.6 0.3,0 1.1,0 1.8,0.5 0.8,0.6 0.8,1.4 0.8,1.7 l -0.9,0 z"
   id="path5865"
   style="fill:#000000;stroke:none" />
	<path
   inkscape:connector-curvature="0"
   d="m 507,152.8 -0.9,0 0.1,-6.1 -2.2,6.1 -0.8,0 -2.3,-6.1 0.1,6.1 -0.9,0 0,-7.1 1.4,0 2.2,5.8 2.1,-5.8 1.3,0 0,7.1 z"
   id="path5867"
   style="fill:#000000;stroke:none" />
</g><g
   id="g5869"
   transform="matrix(1.555298,0,0,1.555298,-22.551821,-28.928543)"
   style="fill:#000000;stroke:none">
	<path
   inkscape:connector-curvature="0"
   d="m 112.7,38.9 33.5,0 -3.2,12.9 -16,0 -1.6,6.8 16.8,0 -2.9,12 -16.6,0 -4,17 -17.3,0 11.3,-48.7 z"
   id="path5871"
   style="fill:#000000;stroke:none" />
	<path
   inkscape:connector-curvature="0"
   d="m 150.8,38.9 17.3,0 -11.3,48.7 -17.3,0 11.3,-48.7 z"
   id="path5873"
   style="fill:#000000;stroke:none" />
	<path
   inkscape:connector-curvature="0"
   d="m 172.7,39.2 1.1,-0.1 c 5.6,-0.7 12.5,-1.1 16.3,-1.1 6.4,0 11.3,0.7 15,2.3 4.8,2 7.6,6.3 7.6,11.5 0,4.5 -1.5,8.7 -4.4,12 -2.5,2.8 -4.7,4.2 -9.3,5.6 l -1.1,0.4 c 0.5,0.4 0.6,0.5 0.9,0.7 1.4,1.5 5.4,9.4 8.8,17.2 l -19.1,0 c -2.5,-6.9 -3.2,-8.8 -6.4,-16.6 l -3.8,16.6 -16.8,0 11.2,-48.5 z m 12.7,22.9 c 5.6,0 9.5,-3.3 9.5,-8 0,-2.5 -1.8,-3.7 -5.4,-3.7 -1,0 -1.6,0.1 -2.7,0.3 L 184.2,62 c 0.5,0.1 0.6,0.1 1.2,0.1 z"
   id="path5875"
   style="fill:#000000;stroke:none" />
	<path
   inkscape:connector-curvature="0"
   d="m 253.8,38.9 42,0 -2.9,14.1 -12.5,0 -8.3,34.6 -17.3,0 8.3,-34.6 -13.5,0 4.2,-14.1 z"
   id="path5877"
   style="fill:#000000;stroke:none" />
	<g
   id="g5879"
   style="fill:#000000;stroke:none">
		<path
   inkscape:connector-curvature="0"
   d="m 244.2,61.7 c -2,-1.6 -4.1,-2.8 -8.3,-4.8 l -3.4,-1.6 c -1.1,-0.6 -1.7,-1.2 -1.7,-1.8 0,-1.8 2.2,-3.1 5.2,-3.1 2.3,0 5,0.7 10.1,2.3 l 3.6,-13.2 c -3.8,-1 -7.6,-1.6 -11.3,-1.6 -14.1,0 -25,7.7 -25,17.7 0,5.3 3.5,9 12.2,13.1 4.1,1.9 4.8,2.4 4.8,3.7 0,2 -2.1,3.2 -5.6,3.2 -3.1,0 -7.1,-0.9 -12.5,-2.9 l 0,0 -3.8,13.6 c 4.9,1.4 10.2,2.3 15.2,2.3 6.8,0 11.9,-1.5 16.4,-4.7 4.9,-3.5 8.1,-8.9 8.1,-13.8 -0.1,-3.3 -1.5,-6.3 -4,-8.4 z"
   id="path5881"
   style="fill:#000000;stroke:none" />
	</g>
</g><g
   id="g4265"
   style="fill:#000000;stroke:none"><path
     style="fill:#000000;stroke:none"
     id="path5861"
     d="m 762.56261,157.39616 c -0.15553,-1.71083 0.31106,-4.04378 -0.15553,-5.75461 -0.31106,-1.24423 -1.5553,-2.17741 -1.86636,-3.57718 -0.77765,-2.17742 -0.93318,-4.51036 -1.86636,-6.53225 -0.46658,-1.24424 -7.15437,-10.10944 -8.24308,-10.73156 -1.24423,-1.08871 -2.95506,-1.08871 -4.51036,-1.71083 -1.24424,-0.62212 -2.48848,-1.86635 -3.88824,-2.33294 -0.93318,-0.31106 -1.86636,-0.15553 -2.79954,-0.46659 -1.24424,-0.31106 -2.17742,-1.71083 -3.26613,-2.33295 -1.24423,-0.46659 -3.42165,-0.93318 -4.82142,-0.93318 -1.5553,0 -2.95507,0.46659 -4.51036,0.46659 -2.64401,0 -4.82143,-2.17742 -7.15438,-2.17742 -1.55529,0 -2.95506,0.46659 -4.51036,0.46659 -5.59907,0 -9.79838,-2.79953 -15.08639,-2.79953 -1.39977,-0.15553 -4.35483,0.15553 -5.7546,0.77765 -0.77765,-0.15553 -1.24424,-0.15553 -1.39977,-0.15553 -1.39977,0 -2.64401,0.93317 -4.04378,0.93317 -0.93317,0 -1.0887,-0.62211 -1.86635,-0.93317 -0.93318,-0.31106 -1.86636,-0.31106 -2.79954,-0.31106 -1.39977,0.15553 -3.1106,0.93318 -4.04377,2.17741 -0.31106,0.46659 -0.31106,1.08871 -0.77765,1.39977 -0.46659,0.15553 -0.93318,0.15553 -1.24424,0.15553 -0.77765,0 -1.71083,-0.31106 -2.64401,-0.15553 -0.62212,0.31106 -0.77765,0.93318 -1.24424,1.24424 -0.31106,0.15553 -0.77765,-0.15553 -0.77765,0.31106 0.15553,0.31106 0.31106,0.62212 0.15553,0.93318 0.31106,0 0.62212,0 0.93318,0 2.33295,0 10.10944,-0.93318 11.19815,1.5553 0.31106,0.46659 0.46659,3.42165 0.46659,4.04377 0.15553,2.64401 -0.62212,9.02073 -0.62212,11.66474 0,0.77765 0.15553,1.55529 0,2.33294 -0.31106,0.93318 -1.08871,0.31106 -1.08871,2.17742 0.15553,3.42166 -0.15553,6.84331 -0.15553,10.10944 l 0.31106,0.15553 -0.31106,0.15553 c 0,2.02188 0,4.04377 0.46659,5.91013 0.31106,1.39977 0.93318,1.39977 0.93318,3.42166 0,1.55529 -0.31106,3.11059 -0.31106,4.82142 -0.15553,1.39977 0.15553,2.64401 0,4.04377 -0.15553,1.71083 -0.77765,3.42166 -0.77765,5.13249 0,1.5553 0.77765,2.33294 0.77765,3.26612 0,2.17742 0.93318,4.04378 0.93318,6.2212 0.15553,1.0887 -0.15553,2.17741 -0.15553,3.42165 0,2.17742 1.24424,3.1106 1.24424,4.66589 0,1.24424 -2.02189,5.13249 -3.26613,5.13249 -0.31106,0 -0.77765,-0.15553 -1.08871,0.15553 -0.46659,0.15553 -2.79953,2.79953 -2.79953,3.57718 0,1.5553 0.77764,2.79954 2.17741,2.79954 1.24424,-0.15553 2.33295,-1.08871 3.57719,-1.08871 0.77765,0.15553 1.39977,0.31106 2.17742,0.15553 0.77764,-0.15553 1.0887,-1.08871 2.02188,-1.08871 0.77765,0.15553 1.5553,0.31106 2.33295,0.31106 1.5553,0 2.33295,-0.31106 3.73271,-0.31106 1.71083,0.15553 3.42166,0.31106 5.13249,0.31106 0.93318,0 1.5553,-0.15553 2.33295,-0.46659 0.15553,0.15553 0.15553,0.15553 0.31105,0.31106 2.17742,1.71083 6.68779,2.48848 9.17626,2.48848 1.24424,0 1.08871,-0.77765 2.02189,-1.24424 0.62212,-0.31106 1.24424,-0.31106 1.71083,-0.31106 2.33295,0 3.88824,-1.24424 6.06566,-1.24424 0.15553,0 0.31106,0 0.46659,0 0.31106,0.46659 0.62212,0.93318 0.93318,1.5553 l 4.97695,-0.62212 c 0.77765,-0.93318 1.71083,-1.39977 2.48848,-2.33295 0.46659,-0.46659 0.77765,-1.0887 1.24424,-1.55529 0.77765,-0.62212 1.5553,-1.24424 2.33294,-1.71083 1.39977,0 2.64401,-0.31106 3.88825,-1.24424 0.62212,-0.46659 0.93318,-1.5553 1.5553,-2.02189 0.77765,-0.62212 1.5553,-0.46659 2.33294,-1.08871 0.93318,-0.77765 1.5553,-2.48847 2.79954,-2.48847 1.5553,0 2.95507,-4.35484 4.19931,-5.59908 0.46658,-0.77764 1.24423,-0.77764 1.86635,-1.39976 0.31106,-0.31106 -0.31106,-1.08871 0.15553,-1.39977 0.77765,-0.46659 1.5553,-0.31106 2.17742,-1.08871 0.93318,-0.77765 1.5553,-3.42166 2.33295,-4.66589 0.31106,-0.62212 1.08871,-0.77765 1.5553,-1.24424 0.62211,-1.08871 0.62211,-2.64401 0.93317,-3.73272 1.39977,-4.66589 3.57719,-6.99884 3.57719,-12.59791 0.15553,-2.48848 -0.15553,-4.82143 -0.15553,-7.3099 z m -14.30874,12.90897 c -0.31106,1.71083 0,3.26613 -0.31106,4.82142 -0.31106,1.5553 -1.08871,1.39977 -1.08871,3.73272 0,0.93318 0.31106,1.86636 0.31106,2.95507 0,3.26612 -6.84331,11.04261 -9.02073,11.97579 -0.46659,0.31106 -1.08871,0.15553 -1.5553,0.46659 -1.08871,0.62212 -1.24424,2.17742 -2.644,2.64401 -1.71083,0.77765 -4.19931,0.62212 -6.06567,0.62212 -1.86635,0 -13.37556,2.79953 -14.93086,1.86635 -0.46659,-0.31106 -0.77765,-1.24424 -1.24424,-1.71082 -0.62211,-0.46659 -7.46543,0 -8.08754,-0.46659 -0.77765,-0.62212 -0.46659,-4.82143 -3.57719,-5.91014 -0.46659,-2.02188 -1.5553,-3.42165 -1.5553,-6.06566 0,-2.33295 1.24424,-3.42165 1.24424,-5.28801 0,-1.39977 -0.62212,-1.39977 -0.93318,-2.33295 -0.62212,-1.71083 -0.77765,-6.68778 -0.77765,-8.70967 0,-2.48847 0.77765,-4.82142 0.77765,-7.15437 0,-2.48848 -0.93318,-4.82142 -0.93318,-7.46543 0,-3.11059 0.93318,-6.22119 0.93318,-9.48732 0,-2.95506 -0.31106,-9.79837 0.15553,-12.90897 0,-0.46659 0.31106,-0.93318 0.46659,-1.39977 2.64401,0 5.28801,-0.15553 8.08755,0.31106 2.33295,0.31106 4.04378,2.17742 6.53225,2.17742 1.39977,0 2.79954,-0.31106 4.19931,0.31106 1.86635,0.46659 4.97695,0.31106 6.84331,0.77765 1.86636,0.62212 4.51036,1.08871 6.53225,1.08871 2.79954,0 1.86636,2.644 3.73271,4.1993 1.39977,1.08871 3.26613,0.77765 4.82143,1.86636 0.31106,0.31106 2.33295,2.79953 2.33295,3.26612 l 0,0.62212 c 0.93317,1.24424 2.48847,1.39977 3.26612,3.1106 0.31106,0.77765 0.15553,2.02189 0.46659,2.95507 0.31106,1.0887 1.24424,1.71082 1.5553,2.79953 0.46659,1.24424 0.15553,2.95507 0.31106,4.35484 0.31106,2.79953 1.08871,5.44354 1.08871,8.24308 -0.15553,1.55529 -0.77765,2.02188 -0.93318,3.73271 z"
     inkscape:connector-curvature="0" /><g
     style="fill:#000000;stroke:none"
     transform="matrix(1.555298,0,0,1.555298,-22.551821,-28.928543)"
     id="g5883">
	<path
   style="fill:#000000;stroke:none"
   id="path5885"
   d="m 155.6,141.7 c -1.3,-0.7 -2.8,-0.8 -4.2,-1.4 -0.9,-0.4 -1.7,-1.1 -2.6,-1.5 -0.7,-0.2 -1.4,-0.2 -2,-0.6 l -0.4,-0.7 c -0.6,-0.3 -1.4,-0.2 -2,-0.6 -1,-0.6 -1.2,-1.6 -1.8,-2.4 -0.4,-0.8 -1.8,-1.4 -2.2,-2 -0.1,-0.2 0,-0.4 -0.2,-0.6 -0.5,-0.6 -1.5,-0.6 -2.2,-0.9 -0.4,-0.2 -0.6,-0.6 -0.9,-0.9 -1.5,-1 -4,-1.4 -4,-3.7 0,-3.2 5.7,-4.4 7.1,-8.1 0.4,-1 1,-6.9 1,-8.1 -0.1,-3.2 -0.6,-2.1 -2,-4.1 -0.5,-0.7 -0.6,-1.6 -1.1,-2.3 -0.9,-1.4 -2.6,-1.8 -3.9,-2.7 -0.7,-0.4 -0.6,-1.5 -1.5,-1.5 -2.2,-0.1 -4.6,-0.4 -6.9,-0.7 -1.5,-0.1 -2.9,-0.9 -4.4,-0.9 -1.5,0 -2.5,1 -4,1 -1.2,-0.1 -2.5,-0.3 -3.8,-0.1 -0.9,0.1 -1.6,0.7 -2.5,0.7 -0.9,0 -1.7,-0.2 -2.6,-0.2 -0.9,0 -1.7,0.5 -2.5,0.5 -1.3,0 -2,-0.3 -3.3,-0.3 -1.8,0 -2.8,1.2 -4.5,1.2 -1,0 -1.8,-0.5 -2.7,-0.9 0.8,-0.4 1.6,-1.1 1.9,-1.7 0.2,-0.4 0.2,-0.9 0.4,-1.3 1.7,-2.5 2.6,-1.1 3.4,-5.5 l 0.1,0 c -3.5,-1 -2.5,-2.4 -5.4,-2.4 -1.7,0 -3.1,0.7 -4.8,0.7 -1.4,0.1 -2.7,-0.3 -4,-0.3 -1.2,0 -2.2,0.5 -3.3,0.5 -2.3,-0.1 -4.5,-0.6 -6.9,-0.6 -3.1,0 -4,1.7 -7.1,1.7 -2,0.1 -4,-0.3 -6,-0.3 -3,-0.1 -5.9,0.6 -8.9,0.6 C 53,91.4 51.1,91 49.2,91 c -1.3,0 -3.2,0.1 -4.1,1.2 -0.6,0.3 -1.4,0.4 -2,0.8 -1,0.7 -3.6,4 -3.6,5.2 0,0.4 0.2,0.7 0.4,1 -0.2,0 -0.3,0 -0.5,0 -2.1,-0.2 -4.1,-0.8 -6.3,-0.8 -1.7,0 -3.1,0.8 -4.6,0.8 -0.2,0.1 -0.5,0 -0.7,0.1 -0.6,0.1 -1,0.8 -1.6,1 -0.4,0.2 -0.9,0.2 -1.3,0.4 -0.4,0.2 -0.6,0.8 -1,1.1 -0.9,0.8 -2,1.3 -3.1,1.8 -1.5,0.7 -2.3,1.8 -3.3,3 -0.4,0.3 -0.9,0.5 -1.2,0.9 -0.4,0.6 -0.2,1.4 -0.6,2 -0.6,1 -1.2,2.8 -1.2,4.6 0,2 0.7,3.1 1.4,4.9 0.2,0.5 0.2,1 0.4,1.5 0.3,0.5 0.9,-0.6 1.3,-0.1 0.5,0.6 0.7,1.4 1.4,1.8 0.4,0.3 1,0.2 1.4,0.6 1.3,0.9 1.9,2.7 3.6,2.7 2.3,0 2.5,1.6 4.5,1.6 1,0 2,-0.2 3.1,-0.2 1.9,0 7,0.7 8.6,1.7 0.9,0.6 1.2,1.4 1.7,2.2 0.7,1.1 1.4,2.6 1.4,4.1 0,3.6 -3.6,6.7 -7,6.7 -0.9,0 -1.7,-0.4 -2.7,-0.4 -1,0 -2.2,0.2 -3.3,-0.1 -1.5,-0.5 -1.2,-1.3 -3.2,-1.3 -0.9,0 -1.8,0.1 -2.6,-0.2 -1.3,-0.6 -1.8,-2.5 -3.6,-2.5 -0.2,0.1 -0.4,0.1 -0.6,0.1 -1.9,2.5 -2.6,2.7 -2.6,6 0,3.9 5.2,2.7 7.9,3.1 1.6,0.2 2.8,1.2 4.5,1.2 1.7,0.1 1.4,-0.4 2.5,-0.8 1.7,-0.6 3.6,-0.2 5.4,-0.6 0.9,-0.2 1.7,-0.9 2.6,-1.1 0.9,-0.3 2,-0.1 3,-0.4 0.9,-0.2 1.4,-1.1 2.2,-1.5 1.1,-0.4 2.6,-0.5 3.3,-1.6 0.4,-0.6 0.3,-1.2 0.6,-1.8 0.3,-0.7 1,-1.2 1.4,-1.8 0.4,-0.7 0.4,-1.5 0.8,-2.2 0.7,-1.5 1.4,-2.6 1.4,-4.5 0,-2.4 -0.6,-5 -0.6,-7.5 0,-0.2 0.1,-0.5 0,-0.7 -0.1,-0.4 -0.8,-0.6 -1,-0.9 -0.9,-1.1 -1.2,-1.7 -2.7,-2.3 -0.8,-0.3 -1.8,0 -2.6,-0.4 -1.2,-0.6 -0.3,-1.5 -2.9,-1.5 -1,0 -2,0.2 -3,0.2 l -0.2,-0.1 -0.4,0.1 -1.9,0 c -2.3,0.1 -4.6,-0.8 -6.8,-0.8 -0.6,0 -1.2,0.1 -1.7,-0.2 -0.3,-0.1 -0.4,-0.4 -0.7,-0.6 -1.7,-1.4 -4.1,-5.6 -4.1,-8.1 0,-2.2 2,-4.2 4.2,-4.2 1.1,0 2.2,0.2 3.2,0.2 0.6,0 1.2,-0.2 1.9,-0.2 l 0.2,0 c 1,0.1 1.9,0.7 3,0.9 1.3,0.2 2.6,0.1 3.9,0.6 1.7,0.6 2.4,1.7 4.9,1.7 2.1,0 4.4,-1.3 4.4,-3.6 0,-1 -0.5,-2.2 -1.5,-2.6 -1,-0.5 -2.2,-0.4 -3.3,-0.6 -0.7,-0.1 -1.3,-0.4 -2,-0.6 1.6,-0.9 4.1,-2.6 4.6,-2.7 1.2,-0.2 2.3,0.1 3.4,-0.2 1.2,-0.3 1.7,-1.2 3.1,-1.2 1,0 2,0.5 3.1,0.5 1.3,0 2.4,-0.8 3.7,-0.8 2.8,0 2.2,4 2.3,5.9 0.1,1.2 0.2,2.2 0.2,3.4 0,1.2 -0.3,8.1 -0.3,9.2 0,1 0.3,1.3 0.7,2.2 l 0,0.3 c 0.1,0.5 -0.1,1 0,1.6 l 0.4,0.6 0.1,3.8 c 0,1.2 -0.9,2 -0.9,3.1 0,1 0.8,3.5 0.8,4.5 -0.1,1.8 -1.5,1.2 -1.5,3.4 0.1,1.4 0.1,3 0.3,4.4 0.1,0.9 0.7,1.6 0.6,2.5 l -0.1,0.5 c -0.7,1 -0.8,2.4 -0.8,3.5 0,3.1 1.7,3.8 4.5,3.8 2.2,0 2.5,-0.7 4.6,-0.7 1.6,0 3.1,0.6 4.6,0.6 1.7,-0.1 2.6,-1.2 3.9,-1.2 3,0 2.5,0.2 2.9,-2.8 -2.9,-0.3 -1,0 -2.8,-1 -0.6,-0.4 -1.4,-0.3 -2.1,-0.7 -1,-0.5 -4.1,-4 -4.5,-5.1 -0.4,-1 -0.5,-2 -0.5,-3 0,-1.8 0.3,-3.6 0.3,-5.4 0,-1 -0.3,-3.6 -0.3,-4.6 0,-0.9 0.5,-5.1 0.5,-6 0.1,-1 -0.2,-2 -0.2,-2.9 0,-2.7 0.6,-11.2 0.5,-13.9 l 0,-0.2 c -0.1,0.5 -0.1,-0.7 -0.1,-0.7 0,-0.3 0.1,-1.8 0.2,-2 0.3,-0.3 0.6,-0.7 0.9,-1 1.3,-1.3 5.6,-0.3 8.1,-1.7 0.3,-0.2 0.7,-0.3 1,-0.3 1.2,-0.1 2,0.9 3.1,1.1 0.9,0.2 2.1,-0.1 2.9,0.4 1,0.6 1,2.1 1.6,3 -1.4,0.5 -2.9,1.5 -4.9,1.5 -0.6,0 -1.3,-0.1 -1.8,0 -0.5,0.1 -0.9,0.9 -1.4,0.9 -0.5,0 -1.5,0 -1.8,0.6 0,0.4 0,0.6 -0.1,0.9 1.1,0.1 2.2,0.2 3.3,0.2 0.6,0 2.7,-0.1 3.1,-0.2 0.7,-0.2 1.1,-0.5 1.8,-0.5 0.9,0 1.7,0.1 2.6,0.1 0.8,-0.1 1.7,-0.4 2.6,-0.4 2.3,-0.1 3.4,2.4 3.4,4.4 0,3 -2.2,3.4 -2.2,5.6 0,1.7 1.5,2.8 1.5,5.8 0,3.3 -1.5,5 -1.5,7 0,0.6 0,4.4 0.2,4.6 -0.1,1 -0.2,2.2 -0.2,3.3 0,1.5 -0.1,3.4 0.2,5 0.2,0.9 0.7,0.9 0.7,2 0,2 0.4,3.4 0.4,4.9 0,1.7 -0.6,1.4 -1,2.6 -0.5,1.1 -0.5,3 -1.5,3.7 -0.5,0.3 -1,0.2 -1.5,0.4 -0.6,0.2 -0.9,0.8 -1.4,1.1 -1,0.6 -2.3,0.8 -3.1,1.8 -0.6,0.9 0.1,1.2 -1.3,1.9 l -0.1,0.2 c 0,0.3 0.2,0.6 0.2,0.9 5,0 4.6,-2.4 7.9,-4.1 1.5,-0.8 3.2,-1.4 4.6,-2.4 0.6,-0.4 0.8,-1.1 1.4,-1.5 0.5,-0.4 0.6,-0.4 0.9,-0.9 0.6,-0.8 0.6,-1.8 1.3,-2.5 0.6,-0.6 1.3,-1.2 2,-1.7 l 0.4,0 c 0.7,-0.9 0.6,-2 1.1,-2.9 0.5,-0.8 1,-0.6 1,-1.7 -0.1,-1.7 0.3,-3.3 0.3,-4.9 0.1,-0.8 -0.4,-1.5 -0.4,-2.3 0,-0.8 0.2,-1.5 0.2,-2.3 0,-1.2 -1,-2 -1,-3.5 0,-1.9 1,-3.7 1,-5.6 0,-0.9 -0.7,-1.8 -0.7,-2.7 0,-1.4 1.1,-4.4 1.1,-6.3 0,-1 -0.2,-2.1 -0.2,-3.1 0,-4.4 4.6,-6 8.3,-6 2.5,0 2,0.8 3.6,1.5 0.7,0.2 1.5,0.1 2.2,0.6 0.9,0.7 1,1.8 2.2,2.5 0.9,0.5 1.9,0.7 2.4,1.7 0.2,0.4 0.2,0.9 0.5,1.3 0.6,0.8 1.7,1 2.2,2 0.4,0.9 0.7,3.1 0.7,4.1 0,1.8 -0.8,1.4 -1.2,2.5 -0.3,0.9 -0.1,2 -0.6,2.8 -0.2,0.2 -0.7,0.3 -0.9,0.6 -0.6,0.7 -0.6,1.7 -1.4,2.2 -0.7,0.5 -1.8,0.3 -2.6,0.7 -0.5,0.2 -0.7,0.8 -1.2,1 -0.8,0.4 -2.1,0.4 -2.6,1.1 -0.6,0.7 0.1,0.9 -1.1,1.5 l 0,0.2 c 0,0.2 0.1,0.4 0.1,0.7 1.1,0.6 2.6,0.6 3.7,1.4 0.8,0.5 0.9,1.8 1.5,2.3 0.5,0.5 1.3,0.3 1.9,0.7 1.2,0.7 1.8,2.9 3.1,3.8 0.4,0.2 0.8,0.2 1.1,0.5 0.7,0.4 1,1.4 1.8,1.7 0.2,0.2 -0.1,0.1 0.2,0.3 0.4,0.2 0.6,0.8 0.9,1 0.6,0.4 1.4,0.4 2,0.9 0.4,0.3 0.5,0.8 0.9,1.1 0.5,0.4 1.1,0.4 1.6,0.7 1.3,0.9 1.9,2.6 3.6,3 1.4,0.3 3.1,0.2 4.4,0.2 1.4,0.1 3.1,0.2 4.4,-0.1 0.7,-0.2 1.2,-0.9 1.9,-1.1 1.6,-0.5 4.5,-0.1 4.5,-2.9 0,-0.2 -0.1,-0.4 -0.1,-0.7 -0.9,-1 -1.1,-1.8 -1.9,-2.2 z"
   inkscape:connector-curvature="0" />
	<path
   style="fill:#000000;stroke:none"
   id="path5887"
   d="m 201,132.3 c 0.7,-1 0.7,-2.4 1.4,-3.4 0.3,-0.6 1,-1 1.3,-1.7 0.2,-0.7 0,-1.4 0.2,-2 0.6,-1.8 1.2,-1.4 1.2,-3.8 l -0.1,0 c 0,-1.4 0,-3 -0.3,-4.4 -0.3,-1.6 -1.2,-1.3 -1.2,-3.8 0,-1.1 0.1,-2.3 -0.3,-3.3 l -0.4,-0.2 c -0.5,-0.7 -0.8,-1.5 -1.4,-2.2 -0.3,-0.4 -0.9,-0.6 -1.3,-1 -2.4,-3.1 0,-2.5 -4.6,-4.8 -0.8,-0.4 -1.4,-1.4 -2.3,-1.7 -2,-0.7 -4.7,-0.4 -6.9,-0.6 -1,-0.1 -2,-0.7 -3.1,-0.7 -1.7,0 -3.3,0.9 -5.1,0.9 -1,0 -2.1,-0.2 -3.1,0.2 -0.8,0.3 -1.3,1.2 -2.1,1.5 -0.7,0.2 -1.4,0.1 -2,0.4 -0.4,0.2 -0.7,0.7 -1,0.9 -0.9,0.5 -2,0.6 -2.8,1 -0.5,0.3 -0.7,0.9 -1.1,1.2 -0.7,0.4 -1.5,0.4 -2.2,0.8 -1.2,0.9 -2,2.4 -3.3,3.3 -0.3,0.1 -0.7,0 -0.9,0.1 l -2.2,2 c -0.9,0.8 -1.7,4.1 -2.6,5.4 -1,1.5 -3,1.7 -3,3.8 0,0.8 0.1,1.6 0.1,2.4 0,1.2 -0.6,4.1 -1.4,5 l 0,0.4 c -0.1,1 0.7,1.5 0.7,2.3 0.1,0.6 -0.2,1.1 -0.2,1.7 0,4.4 2.2,3.7 3.4,5.5 0.4,0.6 0.3,1.2 0.7,1.8 0.3,0.5 2.2,2.4 2.8,2.8 0.7,0.4 1.5,0.4 2.2,0.9 0.4,0.3 0.6,1 1,1.3 0.6,0.4 1.4,0.2 2.1,0.6 0.7,0.4 1.2,1 2,1.3 1.6,0.5 3.3,0.1 4.9,0.4 1.7,0.4 3,1.4 4.7,1.4 1.5,0 2.7,-0.9 4.2,-0.9 0.7,0 1.4,0.1 2,0 0.1,0 3.1,-1.4 3.3,-1.5 0.3,-0.3 0.4,-0.9 0.8,-1.1 0.7,-0.4 1.6,-0.1 2.3,-0.4 0.8,-0.2 1.1,-1.1 1.8,-1.5 0.8,-0.4 2.3,-0.5 2.8,-0.9 0.2,-0.1 0.2,-0.5 0.4,-0.6 0.2,-0.1 0.6,-0.1 0.9,-0.2 1,-0.6 2.1,-2.3 3,-3.3 0.4,-0.4 0.9,-0.5 1.3,-0.9 0.9,-1 1.3,-2.4 2.2,-3.4 0.4,-0.5 0.9,-0.6 1.2,-1 z m -6.1,-5.4 c 0,2.4 -0.4,6.4 -1.6,8.6 -0.4,0.7 -1.2,1 -1.7,1.7 -0.7,0.9 -1.1,2.1 -2.1,2.8 -0.5,0.4 -1.1,0.4 -1.7,0.7 -1.3,0.7 -1.5,1.5 -3.2,1.5 -1.2,0 -2.4,-0.3 -3.6,-0.3 -1,0 -2,0.1 -3,0.1 -2.6,0 -1.9,-0.8 -3.5,-1.6 -1.9,-0.9 -5.3,-1.4 -6.7,-2.8 -0.3,-0.3 -0.2,-0.8 -0.5,-1.2 -0.4,-0.7 -1.2,-1 -1.7,-1.7 -0.4,-0.6 -0.5,-1.3 -0.9,-1.8 -0.4,-0.6 -1.2,-0.9 -1.4,-1.5 -0.4,-1 -0.2,-2.1 -0.5,-3.1 -0.2,-0.7 -0.7,-1.2 -0.9,-1.9 -0.6,-2 -0.6,-4.6 -0.6,-6.7 0,-3.6 1.7,-3.4 1.7,-5.3 0,-0.5 -0.1,-1 0.1,-1.5 0.4,-1 1.5,-1.4 2.2,-2.2 0.4,-0.5 0.5,-1.2 1,-1.6 0.8,-0.8 2,-1 2.8,-1.7 0.5,-0.4 0.7,-1.1 1.2,-1.5 0.6,-0.4 1.3,-0.4 1.9,-0.7 0.3,-0.2 0.6,-0.7 0.9,-0.7 0.2,-0.1 0.5,-0.1 0.7,-0.1 0.8,0 1.6,0.3 2.4,0.3 1.2,0 2.3,-0.9 4.4,-0.9 1.8,0 4.2,0.4 5.4,2 0.4,0.5 0.4,1.2 0.7,1.7 0.8,1.2 2.5,1.5 3.3,2.6 0.9,1.2 0.8,2.9 1.4,4.3 0.7,1.7 2.2,1.5 2.2,3.9 0,0.7 -0.1,1.5 0.1,2.2 0.2,1.2 1,2.2 1.2,3.3 0,1.1 0.1,2.1 0,3.1 l 0,0 z"
   inkscape:connector-curvature="0" />
	<path
   style="fill:#000000;stroke:none"
   id="path5889"
   d="m 265.7,106.2 c 0.4,-1.1 0.4,-2.3 0.9,-3.3 0.6,-1 1.5,-1.2 1.5,-2.6 0,-0.4 -0.1,-0.8 -0.1,-1.3 -0.7,-0.4 -0.6,-0.7 -1.5,-0.7 -0.6,0 -1.1,0.1 -1.7,0.1 -2.3,-0.1 -4.6,-0.4 -6.9,-0.4 -1.8,-0.1 -8.4,0.8 -9.7,1.8 -0.5,0.4 -0.9,1.5 -1.4,2.2 l 0.6,1.2 c 0.1,0.1 5.4,0.8 5.8,0.8 1,0 2.1,-0.2 3.1,-0.2 0.8,0 1.6,0.1 2.3,0.6 0.5,0.3 0.5,1.8 0.6,2.3 0.2,1.4 0.8,2.6 0.8,4.1 0,2 -1,3.8 -1,5.7 0,1.8 1.1,2 1.1,3.6 0,1.6 -1,3.2 -2.8,3.2 -2.1,-0.1 -6,-1.9 -7.9,-3 -0.6,-0.3 -0.9,-0.9 -1.5,-1.2 -1.2,-0.4 -2.5,-0.2 -3.8,-0.4 -0.9,-0.2 -1.6,-0.9 -2.5,-1.2 -0.6,-0.2 -1.3,-0.1 -1.8,-0.4 -0.4,-0.2 -0.4,-0.7 -0.7,-1.1 -0.5,-0.7 -1.7,-1.9 -2.5,-2.2 -0.7,-0.2 -1.5,-0.1 -2.2,-0.3 -1.2,-0.5 -1.2,-1.3 -2.8,-1.3 -2.8,0 -1.4,-0.2 -3.1,-1.3 -0.6,-0.3 -1.4,-0.2 -2,-0.6 -0.7,-0.4 -1,-1.2 -1.7,-1.5 -0.5,-0.2 -1,-0.2 -1.4,-0.4 -1.2,-0.6 -3.8,-2.5 -3.8,-3.9 0,-1.7 2.5,-2.8 2.5,-3.9 0,-1.4 -3.9,-2 -5,-2 -2,0 -3.9,0.4 -5.9,0.4 -1.9,0 -3.8,-0.4 -5.7,-0.4 -2,0 -1.3,0.1 -2.2,1.2 -0.3,0.4 -0.9,0.6 -1.2,1 -0.5,0.8 -0.4,2.3 -0.6,3.3 0.6,0.3 1.1,0.7 1.7,0.9 0.7,0.2 1.5,0.1 2.2,0.4 0.5,0.2 0.7,0.9 1.1,1.2 0.2,0.2 0.6,0.2 0.8,0.4 0.1,0.1 0.1,0.2 0.1,0.4 0.1,1 0.9,1.5 1.1,2.3 0.3,1 0.4,0.9 0.4,2 0,1.5 -0.1,3 0,4.4 0.1,1.8 0.4,3.5 0.4,5.2 0,1.2 -0.3,2.3 -0.3,3.5 0,1.4 0.9,1.9 0.9,2.8 0,0.6 -0.6,0.9 -0.8,1.4 -0.3,0.7 -0.4,4.7 -0.4,5.7 0,2 0.3,4 0.3,6 0,2.3 -1,7 -2.2,8.9 -0.3,0.5 -0.9,0.8 -1.2,1.3 -0.7,1.3 -1.3,3.8 -3.4,3.8 -0.4,0.1 -0.7,0 -1,0.1 -0.3,0.2 -2.3,2.4 -2.5,2.8 -0.1,0.4 0,0.9 -0.1,1.4 0.2,0.2 0.4,0.3 0.6,0.6 0.2,-0.1 0.6,0.1 0.8,0.1 0.4,0 0.6,-0.7 0.9,-1 0.4,-0.3 0.9,-0.2 1.2,-0.4 0.5,-0.3 0.6,-1 1.1,-1.4 0.4,-0.2 0.8,-0.2 1.2,-0.4 0.9,-0.4 2,-1.3 2.5,-2.1 1,-1.4 1.3,-3.1 2.3,-4.3 0.4,-0.4 1.2,-0.6 1.5,-1.2 0.7,-1 1,-2.2 1.5,-3.3 0.4,-0.8 1.2,-1.4 1.4,-2.3 0.2,-0.7 0.1,-1.5 0.2,-2.2 0.1,-0.6 0.6,-1.2 0.6,-1.9 l 0,-0.4 c 0.1,-1 -0.2,-2 -0.2,-3 0,-1.5 0.2,-4.3 0.2,-5.8 0,-2.5 -0.4,-5.1 -0.4,-7.7 -0.1,-1.5 -0.2,-5 2,-5 3.2,0 2.9,2.3 3.7,2.8 0.4,0.3 1.2,0.2 1.7,0.4 0.9,0.4 1.6,1.2 2.5,1.6 0.7,0.2 1.4,1.4 2.1,1.6 0.6,0.2 1,-0.4 1.5,-0.1 0.6,0.3 1.2,0.3 1.8,0.6 1,0.5 1.7,1.5 2.8,1.9 0.7,0.3 1.5,0.2 2.2,0.4 0.4,0.1 0.8,0.4 1.2,0.5 0.4,0.1 0.9,0.1 1.4,0.1 1,0 2.1,-0.1 3.1,0.1 0.9,0.2 1.6,1 2.5,1.4 0.7,0.2 1.5,0.1 2.3,0.4 0.7,0.2 1.1,0.9 1.8,1.2 1,0.4 2.1,0.2 3.1,0.6 0.6,0.2 1,0.8 1.5,1 1.1,0.4 2.5,0.6 3.4,1.1 0.4,0.3 0.6,1.8 1,2 0.4,0.2 0.9,0.1 1.4,0.2 0.5,0.1 2.7,1.2 3.1,1.5 0.9,0.7 0.6,1.8 2.4,1.8 0.4,0.1 0.9,-0.1 1.2,-0.2 l 0.2,0 c 0.7,-0.5 1.2,-1.7 1.2,-2.5 0,-1.4 -0.9,-3.2 -1.2,-4.4 -0.8,-3.1 -0.3,-5.3 -0.6,-8.5 -0.1,-1 -0.5,-2.1 -0.5,-3.2 0.1,-0.9 0.6,-1.4 0.6,-2.3 0,-1.4 -0.3,-2.8 -0.3,-4.2 0,-1.6 0.2,-3.3 0.6,-4.8 1.1,-0.8 1.7,-1.4 2,-2.1 z"
   inkscape:connector-curvature="0" />
	<path
   id="path5891"
   d="m 268.1,100.2 c 0,0 0,0 0,0 0,0 0,0 0,0 l 0,0 z"
   inkscape:connector-curvature="0"
   style="fill:#000000;stroke:none" />
	<path
   style="fill:#000000;stroke:none"
   id="path5893"
   d="m 416,117 c -0.3,-1.6 -1.2,-1.3 -1.2,-3.8 0,-1.1 0.1,-2.3 -0.3,-3.3 l -0.4,-0.2 c -0.5,-0.7 -0.8,-1.5 -1.4,-2.2 -0.3,-0.4 -0.9,-0.6 -1.3,-1 -2.4,-3.1 0,-2.5 -4.6,-4.8 -0.8,-0.4 -1.4,-1.4 -2.3,-1.7 -2,-0.7 -4.7,-0.4 -6.9,-0.6 -1,-0.1 -2,-0.7 -3.1,-0.7 -1.7,0 -3.3,0.9 -5.1,0.9 -1,0 -2.1,-0.2 -3.1,0.2 -0.8,0.3 -1.3,1.2 -2.1,1.5 -0.7,0.2 -1.4,0.1 -2,0.4 -0.4,0.2 -0.7,0.7 -1,0.9 -0.9,0.5 -2,0.6 -2.8,1 -0.5,0.3 -0.7,0.9 -1.1,1.2 -0.7,0.4 -1.5,0.4 -2.2,0.8 -1.2,0.9 -2,2.4 -3.3,3.3 -0.3,0.1 -0.7,0 -0.9,0.1 l -2.2,2 c -0.9,0.8 -1.7,4.1 -2.6,5.4 -1,1.5 -3,1.7 -3,3.8 0,0.8 0.1,1.6 0.1,2.4 0,1.2 -0.6,4.1 -1.4,5 l 0,0.4 c -0.1,1 0.7,1.5 0.7,2.3 0.1,0.6 -0.2,1.1 -0.2,1.7 0,4.4 2.2,3.7 3.4,5.5 0.4,0.6 0.3,1.2 0.7,1.8 0.3,0.5 2.2,2.4 2.8,2.8 0.7,0.4 1.5,0.4 2.2,0.9 0.4,0.3 0.6,1 1,1.3 0.6,0.4 1.4,0.2 2.1,0.6 0.7,0.4 1.2,1 2,1.3 1.6,0.5 3.3,0.1 4.9,0.4 1.7,0.4 3,1.4 4.7,1.4 1.5,0 2.7,-0.9 4.2,-0.9 0.7,0 1.4,0.1 2,0 0.1,0 3.1,-1.4 3.3,-1.5 0.3,-0.3 0.4,-0.9 0.8,-1.1 0.7,-0.4 1.6,-0.1 2.3,-0.4 0.8,-0.2 1.1,-1.1 1.8,-1.5 0.8,-0.4 2.3,-0.5 2.8,-0.9 0.2,-0.1 0.2,-0.5 0.4,-0.6 0.2,-0.1 0.6,-0.1 0.9,-0.2 1,-0.6 2.1,-2.3 3,-3.3 0.4,-0.4 0.9,-0.5 1.3,-0.9 0.9,-1 1.3,-2.4 2.2,-3.4 0.3,-0.4 0.8,-0.5 1,-0.9 0.7,-1 0.7,-2.4 1.4,-3.4 0.3,-0.6 1,-1 1.3,-1.7 0.2,-0.7 0,-1.4 0.2,-2 0.6,-1.8 1.2,-1.4 1.2,-3.8 l -0.1,0 c 0.2,-1.5 0.2,-3.1 -0.1,-4.5 z m -9.7,9.9 c 0,2.4 -0.4,6.4 -1.6,8.6 -0.4,0.7 -1.2,1 -1.7,1.7 -0.7,0.9 -1.1,2.1 -2.1,2.8 -0.5,0.4 -1.1,0.4 -1.7,0.7 -1.3,0.7 -1.5,1.5 -3.2,1.5 -1.2,0 -2.4,-0.3 -3.6,-0.3 -1,0 -2,0.1 -3,0.1 -2.6,0 -1.9,-0.8 -3.5,-1.6 -1.9,-0.9 -5.3,-1.4 -6.7,-2.8 -0.3,-0.3 -0.2,-0.8 -0.5,-1.2 -0.4,-0.7 -1.2,-1 -1.7,-1.7 -0.4,-0.6 -0.5,-1.3 -0.9,-1.8 -0.4,-0.6 -1.2,-0.9 -1.4,-1.5 -0.4,-1 -0.2,-2.1 -0.5,-3.1 -0.2,-0.7 -0.7,-1.2 -0.9,-1.9 -0.6,-2 -0.6,-4.6 -0.6,-6.7 0,-3.6 1.7,-3.4 1.7,-5.3 0,-0.5 -0.1,-1 0.1,-1.5 0.4,-1 1.5,-1.4 2.2,-2.2 0.4,-0.5 0.5,-1.2 1,-1.6 0.8,-0.8 2,-1 2.8,-1.7 0.5,-0.4 0.7,-1.1 1.2,-1.5 0.6,-0.4 1.3,-0.4 1.9,-0.7 0.3,-0.2 0.6,-0.7 0.9,-0.7 0.2,-0.1 0.5,-0.1 0.7,-0.1 0.8,0 1.6,0.3 2.4,0.3 1.2,0 2.3,-0.9 4.4,-0.9 1.8,0 4.2,0.4 5.4,2 0.4,0.5 0.4,1.2 0.7,1.7 0.8,1.2 2.5,1.5 3.3,2.6 0.9,1.2 0.8,2.9 1.4,4.3 0.7,1.7 2.2,1.5 2.2,3.9 0,0.7 -0.1,1.5 0.1,2.2 0.2,1.2 1,2.2 1.2,3.3 0,1.1 0,2.1 0,3.1 l 0,0 z"
   inkscape:connector-curvature="0" />
	<path
   style="fill:#000000;stroke:none"
   id="path5895"
   d="m 461.8,149.3 c -1.7,0 -3.3,-0.1 -5,-0.1 -2.5,-0.1 -5,0.1 -7.4,0.1 -2.9,0.1 -5.8,-0.4 -8.7,-0.4 -1.6,0 -3.2,0.2 -4.7,0.2 -0.9,0 -1.9,-0.4 -2.3,-1.2 -0.4,-1 -0.1,-2.3 -0.3,-3.3 -0.3,-1.5 -1.2,-2.4 -1.2,-4.2 0,-1.5 1,-2.2 1,-3.4 0,-0.9 -0.5,-0.9 -0.7,-1.5 -0.4,-1.1 -0.6,-4.3 -0.6,-5.6 0,-1.6 0.6,-3.1 0.6,-4.6 0,-1.6 -0.7,-3.1 -0.7,-4.8 0,-2 0.7,-4 0.7,-6.1 0,-1.9 -0.2,-6.3 0.1,-8.3 0.1,-0.8 0.7,-1.5 0.9,-2.3 0.2,-0.7 0.1,-1.5 0.3,-2.3 0.2,-0.6 1,-1 1,-1.7 -0.1,-0.1 -0.1,-0.3 -0.2,-0.4 -0.1,-0.1 -6,-1.2 -6.6,-1.2 -1,0 -2,0.6 -3.1,0.6 -0.7,0 -0.9,-0.4 -1.4,-0.6 -0.7,-0.2 -1.4,-0.2 -2.1,-0.2 -1,0.1 -2.4,0.6 -3.1,1.4 -0.2,0.3 -0.2,0.7 -0.6,0.9 -0.3,0.1 -0.7,0.1 -1,0.1 -0.6,0 -1.3,-0.2 -2,-0.1 -0.4,0.2 -0.6,0.6 -1,0.8 -0.2,0.1 -0.6,-0.1 -0.6,0.2 0.1,0.2 0.2,0.4 0.1,0.6 0.2,0 0.4,0 0.7,0 1.8,0 7.7,-0.6 8.6,1 0.2,0.3 0.3,2.2 0.3,2.6 0.1,1.7 -0.4,5.8 -0.4,7.5 0,0.5 0.1,1 0,1.5 -0.2,0.6 -0.8,0.2 -0.8,1.4 0.1,2.2 -0.1,4.4 -0.1,6.5 l 0.2,0.1 -0.2,0.1 c 0,1.3 0,2.6 0.4,3.8 0.2,0.9 0.7,0.9 0.7,2.2 0,1 -0.2,2 -0.2,3.1 -0.1,0.9 0.1,1.7 0,2.6 -0.1,1.1 -0.6,2.2 -0.6,3.3 0,1 0.6,1.5 0.6,2.1 0,1.4 0.7,2.6 0.7,4 0.1,0.7 -0.1,1.4 -0.1,2.2 0,1.4 0.9,2 0.9,3 0,0.8 -1.5,3.3 -2.5,3.3 -0.2,0 -0.6,-0.1 -0.9,0.1 -0.4,0.1 -2.2,1.8 -2.2,2.3 0,1 0.6,1.8 1.6,1.8 0.9,-0.1 1.8,-0.7 2.7,-0.7 0.6,0.1 1.1,0.2 1.7,0.1 0.6,-0.1 0.9,-0.7 1.5,-0.7 0.6,0.1 1.2,0.2 1.8,0.2 1.2,0 1.7,-0.2 2.9,-0.2 1.3,0.1 2.6,0.2 3.9,0.2 2.8,-0.1 3.4,-1.5 5.2,-1.5 1.7,0 1.4,1.2 3.9,1.2 1.3,0 3.5,0.1 4.7,-0.2 0.5,-0.1 0.6,-0.9 1.4,-0.9 l 0.2,0 0,0.2 c 1.2,0.6 1.3,1.2 2.1,2.1 0.2,0.2 0.6,0.4 0.7,0.6 0.1,0.1 0.1,0.4 0.1,0.6 0.1,0.6 -0.1,1.2 -0.2,1.8 0.2,0 0.6,0.1 0.8,0.2 1,-1 1.5,-2.4 2.4,-3.5 0.6,-0.6 1.4,-0.9 1.9,-1.5 0.4,-0.3 0.6,-0.7 0.9,-1 1.3,-1 2.9,-1.8 4.4,-2.4 l 0.1,-0.7 -1.2,-1 z"
   inkscape:connector-curvature="0" />
	<path
   style="fill:#000000;stroke:none"
   id="path5897"
   d="m 317.4,124.2 0,0 c 0,-0.1 0,-0.1 0,0 0,0 0,0 0,0 z"
   inkscape:connector-curvature="0" />
	<path
   style="fill:#000000;stroke:none"
   id="path5899"
   d="m 316.1,122.5 c -0.5,0 -1,0.1 -1.4,0.1 -2,-0.1 -3.9,-0.4 -5.9,-0.4 -1.6,-0.1 -7.2,0.7 -8.3,1.5 -0.4,0.4 -0.7,1.3 -1.2,1.9 l 0.5,1 c 0.1,0.1 4.7,0.7 5,0.7 0.9,0 1.8,-0.2 2.7,-0.2 0.7,0 1.4,0.1 2,0.5 0.4,0.3 0.4,1.5 0.5,2 0.2,1.2 0.7,2.3 0.7,3.5 0,0.3 0,0.6 -0.1,0.9 -0.2,0.3 -0.3,0.5 -0.5,0.7 -0.2,0.3 -0.7,0.4 -1,0.6 -0.7,0.6 -0.9,1.6 -1.7,2.2 -1.4,1 -3.1,1.3 -4.7,2 -1.7,0.6 -1.2,1.2 -3.4,1.2 -1.4,0 -4.2,-0.2 -5.5,-0.7 -0.3,-0.1 -1.2,0.5 -1.5,0.4 -1.2,-0.3 -3.3,0.4 -4.2,-0.4 -0.3,-0.2 -0.4,-0.7 -0.6,-1 -0.3,-0.4 -0.9,-0.6 -1.4,-0.9 -0.6,-0.7 -0.9,-1.5 -1.5,-2.2 -1.4,-1.5 -4.4,-2.9 -5.1,-4.9 -0.2,-0.5 -0.2,-1 -0.2,-1.6 0,-1 0.1,-2 0,-3.1 -0.2,-1.4 -1.4,-2.2 -1.4,-3.6 0,-1 0.6,-1.6 0.9,-2.5 0.2,-0.9 0.1,-1.9 0.4,-2.8 0.2,-0.8 1,-1.2 1.4,-2 0.4,-0.7 0.5,-1.7 1,-2.3 0.6,-0.8 1.6,-1.2 2.2,-2 0.4,-0.6 0.4,-1.4 1,-1.7 0.7,-0.5 1.8,-0.2 2.7,-0.4 1.3,-0.2 2,-0.9 3.4,-0.9 2.1,0 3.9,0.8 5.8,1.2 0.9,0.2 2.4,-1 3.2,-0.9 1.6,0.2 4.9,1.2 6.2,2.1 0.9,0.6 1.4,2.5 2.2,2.9 0.4,0.2 0.8,0.1 1.2,0.2 0.2,-0.4 0.6,-0.7 0.8,-1.2 0.2,-0.6 0,-1.4 0.4,-2 1.2,-2.1 4.4,-1.1 4.4,-3.9 0,-0.4 -0.1,-0.7 -0.1,-1.1 -0.4,-1.9 -1.1,-1.6 -2.8,-1.8 -1.8,-0.2 -3.8,0 -5.6,-0.4 -1,-0.2 -1.7,-0.9 -2.5,-1.2 -1.3,-0.4 -2.6,-0.2 -3.9,-0.4 -0.7,-0.1 -1.3,-0.7 -2,-0.8 -0.4,-0.1 -0.9,-0.1 -1.3,-0.1 -2.2,-0.1 -6.4,0.4 -8.3,1.2 l -0.2,0.4 c -0.9,0.6 -2.1,0.9 -3,1.6 -0.2,0.1 -0.2,0.4 -0.4,0.6 -0.6,0.4 -1.5,0.3 -2.2,0.6 -0.5,0.2 -0.7,0.7 -1.2,1 -0.6,0.4 -1.2,0.4 -1.8,0.6 -0.7,0.4 -1.1,1.1 -1.8,1.5 -0.2,0.2 -0.6,0.2 -0.9,0.4 -0.4,0.2 -1.7,1.9 -1.9,2.3 -0.2,0.5 -0.1,1.1 -0.4,1.5 -0.2,0.4 -0.7,0.5 -1,0.8 -0.5,0.5 -0.6,1.2 -1,1.8 -0.2,0.2 -0.6,0.2 -0.7,0.5 -0.7,1.1 -0.9,3.1 -1.4,4.3 -0.5,1.2 -2.4,2.3 -2.4,3.4 0,1.5 -0.8,2.8 -0.8,4.3 0,1.2 0.9,2 0.9,3.1 0.1,2.2 1.2,2.4 1.2,3.6 0,2.3 0.2,1.9 1.5,3.7 0.3,0.5 0.4,1.1 0.7,1.6 1.1,1.4 2.9,1.8 4.3,2.9 1.1,0.8 1.8,2.1 3,2.8 0.6,0.2 1.2,0.2 1.8,0.6 0.4,0.2 0.7,0.7 1.1,1 0.7,0.4 1.6,0.4 2.3,0.6 1.7,0.5 3,1.2 4.7,1.2 2.5,0 2.6,-1.5 4.9,-1.5 0.7,0 1.4,0.1 2.1,-0.2 2.1,-0.7 3.1,-4.3 5.4,-4.3 0.6,0 1.2,0.2 1.8,0.2 0.8,0.1 1.2,-0.6 2,-0.6 0.9,0 0.6,0.4 1.1,0.7 l 0,0.6 c 0.1,1 -0.2,1.9 -0.1,2.9 -0.4,0.7 -0.7,1.2 -0.7,1.3 0,0.6 0.2,1.1 0.2,1.7 0,0.8 -0.4,1 -0.6,1.6 -0.2,0.7 -0.1,1.4 -0.4,2.1 -0.2,0.6 -2.1,2.6 -2.6,2.8 -0.6,0.2 -1.2,0.3 -1.8,0.3 -1.9,0 -3.7,-0.7 -5.5,-0.7 -1.2,-0.1 -3.3,0.4 -4.2,1.2 -0.2,0.2 -0.3,0.6 -0.6,0.7 -0.4,0.3 -0.9,0.3 -1.2,0.6 -0.4,0.4 -0.4,0.9 -0.6,1.4 -0.3,0.6 -1,1.7 -1,2.3 -0.1,0.7 0.7,1.2 1.2,1.6 l 0.2,0.4 c 0.4,0.1 0.8,0.2 1.2,0.2 1.2,0.1 2.4,-0.6 3.6,-0.6 0.5,0 1,0.2 1.5,0.2 1.2,0 3,-2.6 5.5,-2.6 0.2,0 0.4,0.1 0.6,0 0.7,-0.2 1.2,-1.4 1.8,-1.8 0.6,-0.4 1.5,-0.5 2,-1.1 0.6,-0.9 0.7,-2.1 1.4,-3 0.4,-0.6 1.8,-1 2.2,-1.7 0.4,-0.7 0.5,-1.6 0.9,-2.3 0.2,-0.4 0.6,-0.6 0.8,-0.9 0.2,-0.7 0.2,-1.4 0.2,-2.2 l 0.5,-0.3 c 0,-0.7 0,-1.2 0,-1.6 0.4,-0.6 0.9,-0.9 0.9,-2.2 0,0 0,0 0,0 0.1,-0.2 0.2,-0.4 0.2,-0.8 0.4,-1.4 -0.7,-3 -0.2,-4.3 0.2,-0.6 0.7,-0.9 1,-1.4 0.2,-0.6 0.1,-1.2 0.4,-1.8 0.1,-0.3 0.3,-0.5 0.5,-0.7 l 0.1,-0.1 c 0,0 0,0 0,0 0.2,-0.2 0.4,-0.4 0.6,-0.7 0.7,-1 0.7,-2.8 0.9,-4.1 l -0.1,0 -0.1,0 0,-0.4 c 0,0 -0.1,0 -0.1,0 0.2,-0.3 0.3,-0.5 0.4,-0.8 0.4,-1 0.3,-2 0.8,-2.9 0.5,-0.9 1.3,-1.1 1.3,-2.3 0,-0.4 -0.1,-0.7 -0.1,-1.1 -0.6,0.4 -0.4,0.1 -1.2,0.1 z"
   inkscape:connector-curvature="0" />
</g></g>
</svg>