<?xml version="1.0" encoding="UTF-8" standalone="no"?>
<!-- Created with Inkscape (http://www.inkscape.org/) -->

<svg
   xmlns:dc="http://purl.org/dc/elements/1.1/"
   xmlns:cc="http://creativecommons.org/ns#"
   xmlns:rdf="http://www.w3.org/1999/02/22-rdf-syntax-ns#"
   xmlns:svg="http://www.w3.org/2000/svg"
   xmlns="http://www.w3.org/2000/svg"
   xmlns:sodipodi="http://sodipodi.sourceforge.net/DTD/sodipodi-0.dtd"
   xmlns:inkscape="http://www.inkscape.org/namespaces/inkscape"
   id="svg4136"
   version="1.1"
   inkscape:version="0.91 r13725"
   width="941.37103"
   height="423.99478"
   viewBox="0 0 941.37104 423.99479"
   sodipodi:docname="frc-steamworks-horizontal.svg">
  <metadata
     id="metadata4142">
    <rdf:RDF>
      <cc:Work
         rdf:about="">
        <dc:format>image/svg+xml</dc:format>
        <dc:type
           rdf:resource="http://purl.org/dc/dcmitype/StillImage" />
        <dc:title></dc:title>
      </cc:Work>
    </rdf:RDF>
  </metadata>
  <defs
     id="defs4140" />
  <sodipodi:namedview
     pagecolor="#ffffff"
     bordercolor="#666666"
     borderopacity="1"
     objecttolerance="10"
     gridtolerance="10"
     guidetolerance="10"
     inkscape:pageopacity="0"
     inkscape:pageshadow="2"
     inkscape:window-width="2560"
     inkscape:window-height="1377"
     id="namedview4138"
     showgrid="false"
     fit-margin-top="0"
     fit-margin-left="0"
     fit-margin-right="0"
     fit-margin-bottom="0"
     inkscape:zoom="1.092459"
     inkscape:cx="135.97548"
     inkscape:cy="116.93567"
     inkscape:window-x="2552"
     inkscape:window-y="-8"
     inkscape:window-maximized="1"
     inkscape:current-layer="svg4136" />
  <path
     style="fill:#000000"
     d="m 461.43711,423.13152 -6.525,-0.8952 -0.0267,-0.91887 c -0.0147,-0.50541 -0.18345,-3.75279 -0.375,-7.21641 l -0.34827,-6.29751 -4.2,-1.07688 c -2.31,-0.59229 -5.34282,-1.43058 -6.73959,-1.86291 -1.3968,-0.4323 -2.56017,-0.75882 -2.58528,-0.72558 -0.0252,0.0332 -1.89369,2.71656 -4.15236,5.96301 l -4.10667,5.90259 -1.10805,-0.45981 c -3.56496,-1.47945 -11.02098,-4.65897 -11.09262,-4.73034 -0.0465,-0.0463 0.59193,-3.23271 1.41879,-7.08084 0.82686,-3.84816 1.4724,-7.01688 1.43457,-7.04166 -0.0378,-0.0246 -1.82379,-1.02888 -3.96879,-2.2314 -2.145,-1.20252 -4.8243,-2.78268 -5.95398,-3.51147 -1.74132,-1.12338 -2.12661,-1.26606 -2.53125,-0.93738 -0.26253,0.21324 -2.76099,2.31075 -5.55213,4.66119 -2.95911,2.49183 -5.2182,4.18653 -5.41875,4.06491 -0.2547,-0.1545 -9.09432,-7.00542 -10.09389,-7.82304 -0.0825,-0.0675 1.31427,-2.9826 3.10395,-6.47802 l 3.25392,-6.35532 -4.97517,-5.00865 -4.97514,-5.00868 -6.48687,3.01956 c -3.56778,1.66074 -6.58482,2.90619 -6.70452,2.76765 -0.1197,-0.13854 -1.93488,-2.5197 -4.03371,-5.29146 l -3.81606,-5.03955 3.5418,-3.91872 c 1.94799,-2.15529 4.1049,-4.5546 4.7931,-5.33178 l 1.2513,-1.41303 -1.30917,-2.08809 c -1.18857,-1.8957 -1.70313,-2.36367 -5.58474,-5.0787 -2.35155,-1.64481 -4.37571,-3.03273 -4.49814,-3.08427 -0.33027,-0.13896 -4.91568,3.59094 -4.87968,3.96927 0.0171,0.17844 1.26573,4.54854 2.775,9.71136 1.50927,5.16282 2.74413,9.50565 2.74413,9.6507 0,0.26184 -8.99445,5.54271 -9.12672,5.35854 -0.038,-0.0529 -2.8842,-3.47118 -6.32493,-7.59618 -3.4407,-4.125 -6.29397,-7.55106 -6.34059,-7.61349 -0.0466,-0.0624 -1.38315,0.4101 -2.97012,1.05 l -2.8854,1.16349 0.21096,10.38213 0.21093,10.38213 -2.36205,0.62598 c -6.57117,1.74138 -7.62321,1.96776 -7.87704,1.69494 -0.14589,-0.15684 -2.0487,-4.13268 -4.22844,-8.83518 -2.17977,-4.7025 -4.06389,-8.65671 -4.18701,-8.78712 -0.12309,-0.13041 -1.55937,-0.059 -3.19173,0.15876 l -2.96793,0.39588 -2.31756,9.44124 c -1.27464,5.19267 -2.39319,9.74499 -2.48568,10.11624 -0.16629,0.66771 -0.22458,0.675 -5.38857,0.675 l -5.22045,0 -0.17163,-0.825 c -0.0944,-0.45375 -0.8547,-4.74 -1.6896,-9.525 -0.8349,-4.785 -1.57968,-8.91159 -1.65504,-9.17019 -0.10326,-0.35424 -0.88785,-0.5583 -3.18179,-0.82743 -1.67462,-0.19647 -3.06838,-0.32238 -3.09726,-0.27981 -0.0289,0.0426 -2.18318,3.99243 -4.78734,8.77743 -2.60416,4.785 -4.85115,8.82528 -4.9933,8.97837 -0.25688,0.27669 -9.45416,-2.06598 -9.98078,-2.54223 -0.14437,-0.13056 0.0886,-4.13079 0.52621,-9.03522 0.43191,-4.8405 0.78474,-9.29301 0.78407,-9.89445 l -10e-4,-1.0935 -2.7352,-1.09476 c -1.50437,-0.6021 -2.82062,-1.05501 -2.925,-1.00647 -0.10439,0.0485 -3.29426,3.32826 -7.08859,7.28826 -3.79434,3.96 -7.00187,7.24542 -7.12783,7.30095 -0.12597,0.0555 -2.22959,-1.0749 -4.67472,-2.51205 l -4.44569,-2.61297 3.40024,-9.33279 c 1.87014,-5.13303 3.36572,-9.42957 3.32352,-9.54786 -0.0422,-0.11832 -1.14527,-1.0143 -2.45126,-1.9911 l -2.37453,-1.77597 -4.78709,2.88588 c -4.56631,2.75283 -4.8841,3.00741 -6.89082,5.52069 -2.02507,2.53626 -2.12748,2.61747 -2.73838,2.17077 -1.12172,-0.82017 -1.46805,-0.86865 -2.39696,-0.33552 l -0.91126,0.52299 -4.36321,-4.37691 c -2.79788,-2.80665 -5.43949,-5.12784 -7.36322,-6.4701 -1.65,-1.15128 -3.0675,-2.09322 -3.15,-2.09322 -0.0825,0 -1.23,0.88707 -2.55,1.97127 -7.05855,5.79759 -17.01848,11.23122 -25.57499,13.95234 -2.0834,0.66258 -2.17422,0.73029 -2.15639,1.60764 0.0102,0.50379 0.3843,5.67078 0.83124,11.48223 l 0.81262,10.56627 -0.75624,0.14481 c -2.06448,0.39537 -26.15921,3.21966 -26.2965,3.08238 -0.0874,-0.0873 -1.01036,-5.15403 -2.05114,-11.2593 -1.04077,-6.10527 -1.9827,-11.24673 -2.09316,-11.42547 -0.11047,-0.17871 -0.69913,-0.32742 -1.30814,-0.33045 -1.73433,-0.009 -6.94901,-0.80922 -10.79836,-1.65789 -5.03725,-1.11054 -11.86096,-3.47439 -16.66933,-5.77452 l -4.1604,-1.9902 -0.75814,0.88905 c -0.41698,0.48897 -3.86044,4.49682 -7.65212,8.90631 l -6.89398,8.01726 -0.787475,-0.6276 c -0.43312,-0.34518 -5.27628,-4.13451 -10.76257,-8.42076 -6.32961,-4.94508 -9.89692,-7.91979 -9.76119,-8.13966 0.11765,-0.19059 3.21271,-4.57416 6.87792,-9.7413 l 6.66401,-9.3948 -1.91855,-2.37636 c -5.57219,-6.90165 -10.49207,-15.85134 -13.39078,-24.35871 l -0.99652,-2.92464 -1.5,0.0168 c -0.825,0.009 -6.18707,0.38424 -11.91571,0.83343 l -10.41571,0.81669 -0.15116,-0.75879 c -0.42671,-2.14191 -3.21424,-26.16194 -3.05463,-26.32155 0.10253,-0.10253 1.09785,-0.3382 2.21181,-0.52371 2.00807,-0.33439 2.01898,-0.34138 1.2754,-0.81661 -0.4125,-0.26363 -2.50642,-1.56212 -4.65315,-2.88554 -13.88856,-8.56205 -26.09577,-19.36029 -34.26271,-30.30812 C 8.9438945,237.53123 5.1657745,230.28795 2.6483345,222.72107 0.52236451,216.33092 -0.00414549,213.31445 2.4510965e-5,207.54854 0.00302451,203.01415 0.07252451,202.37279 0.82504451,199.90971 1.9815645,196.12408 3.4765945,193.46153 5.9069845,190.8591 11.449725,184.92398 19.474965,181.486 31.769965,179.77949 c 4.70607,-0.65319 16.3343,-0.88705 22.49216,-0.45235 4.49126,0.31705 6.56399,0.52406 13.99866,1.39812 l 1.69867,0.1997 -0.87937,-4.12609 c -0.48366,-2.26935 -0.95506,-4.24855 -1.04757,-4.39824 -0.0925,-0.14968 -2.02142,-1.66911 -4.28646,-3.37651 -2.26505,-1.7074 -4.38054,-3.49163 -4.7011,-3.96497 -0.43081,-0.63614 -0.58283,-1.3753 -0.58283,-2.83396 0,-1.69936 0.1167,-2.12635 0.84051,-3.07531 1.04017,-1.36374 2.19712,-1.98077 4.14702,-2.2117 1.34119,-0.15885 1.48849,-0.24702 1.35135,-0.80896 -0.0847,-0.34687 -4.55686,-21.82568 -9.93822,-47.73068 -5.38136,-25.904999 -11.87615,-57.156099 -14.43287,-69.446899 -3.42721,-16.47549 -4.57455,-22.50937 -4.36683,-22.96527 1.27629,-2.80116 15.6992,-6.1652307 38.44904,-8.9680407 48.672405,-5.99651 117.907365,-8.47435 172.199985,-6.16284997 39.49777,1.68160997 65.44863,5.34647997 66.46251,9.38606967 0.14241,0.567461 -28.76063,172.90512 -29.0461,173.19059 -0.0543,0.0543 -1.77902,-0.56715 -3.83261,-1.38109 -2.05359,-0.81394 -4.39407,-1.65037 -5.20107,-1.85875 l -1.46727,-0.37885 0.17825,-3.32614 c 0.15722,-2.9336 0.111,-3.43673 -0.39167,-4.2633 -0.31346,-0.51545 -0.84578,-1.0848 -1.18293,-1.26524 -0.5842,-0.31265 -23.43066,-1.80572 -27.67738,-1.80878 -3.2186,-0.002 -4.06654,1.18676 -4.12384,5.78297 -0.0137,1.09715 -0.14133,1.47092 -0.54289,1.58967 -2.6604,0.78672 -3.675,2.24891 -3.675,5.29623 l 0,2.02968 -1.51743,0 c -1.5715,0 -21.12699,-1.08011 -23.90756,-1.32049 l -1.575,-0.13615 -0.005,2.75332 c -0.005,2.40229 -0.30807,4.57496 -1.0389,7.43674 -0.19188,0.75134 -0.13771,0.7917 1.32244,0.98539 1.46129,0.19385 1.65219,0.12937 4.74709,-1.60353 6.4186,-3.59389 12.68199,-5.64473 20.51339,-6.71676 1.07008,-0.14648 1.0915,-0.12907 1.24457,1.01217 0.0857,0.63867 0.43265,1.55009 0.77109,2.02538 l 0.61534,0.86417 -2.90991,0.37765 c -10.53167,1.36681 -20.11782,5.96028 -27.90641,13.37211 -7.51765,7.15401 -12.4442,16.08774 -14.52071,26.33168 -0.58828,2.9021 -0.68103,4.2611 -0.67011,9.81833 0.0109,5.54631 0.10798,6.89133 0.69299,9.6 3.3601,15.55773 13.43549,28.44082 27.41265,35.0517 l 2.95637,1.3983 -0.17251,2.25 c -0.0949,1.2375 -0.64842,10.5525 -1.23007,20.7 -0.58166,10.1475 -1.15084,18.53463 -1.26484,18.6381 -0.3687,0.33459 -15.97905,4.78383 -16.2332,4.62678 -0.13527,-0.0836 -0.4149,-0.55989 -0.6214,-1.05843 -0.2065,-0.49854 -0.46033,-0.90165 -0.56406,-0.8958 -0.10373,0.006 -1.60611,1.23651 -3.33861,2.7348 -10.32593,8.92992 -23.41792,14.58138 -37.46953,16.17453 -4.57433,0.51864 -14.25028,0.21384 -18.78047,-0.5916 -27.11572,-4.82106 -48.667185,-24.99018 -55.043335,-51.51279 l -0.65737,-2.73438 -2.89964,-1.13597 c -4.79003,-1.87653 -12.1651,-5.15454 -18.00975,-8.00484 l -5.5101,-2.68714 -2.88294,0.49142 c -1.58563,0.27028 -2.92472,0.53318 -2.97576,0.58423 -0.11628,0.11627 1.95677,16.99896 2.10559,17.14776 0.0599,0.0599 5.21614,-0.28908 11.45831,-0.7755 6.24217,-0.48642 11.46542,-0.81273 11.60721,-0.7251 0.14179,0.0876 0.2578,0.33666 0.2578,0.55341 0,0.21675 0.54915,2.11182 1.22034,4.21131 3.55694,11.12607 8.71056,19.98069 17.12871,29.4294 0.5456,0.61239 0.46961,0.73698 -6.03823,9.9 -3.62493,5.1039 -6.56154,9.37308 -6.5258,9.48708 0.0584,0.18627 10.93863,8.79228 12.843,10.15851 l 0.77803,0.55818 7.305085,-8.53698 c 4.0178,-4.69533 7.40552,-8.53698 7.52826,-8.53698 0.12275,0 1.66518,0.8019 3.42764,1.782 9.36904,5.21016 20.27669,8.29917 32.45797,9.192 1.52625,0.11187 2.77431,0.28722 2.77346,0.3897 -0.003,0.34353 3.6608,21.78528 3.73607,21.86571 0.1048,0.11202 17.01525,-1.97919 17.15784,-2.12178 0.0644,-0.0644 -0.2195,-4.49118 -0.63085,-9.83736 -0.41135,-5.34615 -0.78472,-10.30665 -0.82972,-11.02335 l -0.0818,-1.30305 3.45,-0.99372 c 10.78684,-3.10695 22.51351,-9.73734 30.30103,-17.13252 l 1.65104,-1.56786 5.39896,3.8655 c 2.96943,2.12601 5.4707,3.86982 5.55838,3.8751 0.0877,0.005 1.49297,-1.91412 3.12286,-4.26537 1.62989,-2.35125 2.98867,-4.31052 3.01952,-4.35393 0.0308,-0.0434 0.5188,0.11439 1.08436,0.3507 1.76243,0.73638 9.09026,1.18116 16.28899,0.98871 6.48052,-0.17328 11.58215,-0.66273 16.28231,-1.56213 1.2884,-0.24654 2.49249,-0.44826 2.67576,-0.44829 0.18326,-3e-5 0.41492,0.68988 0.51479,1.53312 0.37599,3.1746 2.88117,6.05148 6.00479,6.89577 2.78837,0.75369 6.51937,-0.48426 8.32302,-2.76153 2.50426,-3.16191 2.33419,-7.86027 -0.38647,-10.67676 l -0.9267,-0.95934 0.64368,-1.49628 c 0.35402,-0.82296 0.64367,-1.68273 0.64367,-1.91064 0,-0.28689 0.89994,-0.58209 2.925,-0.95955 12.99708,-2.42256 27.08796,-7.49031 38.26239,-13.761 l 3.96261,-2.22366 302.37594,-0.19104 c 166.30676,-0.10506 302.42852,-0.2436 302.49272,-0.30783 0.2269,-0.22686 11.1296,-151.83394 10.9319,-152.01283 -0.2021,-0.18287 -363.25399,-43.19783 -364.43425,-43.17875 -0.54477,0.009 -0.66162,0.24779 -0.83262,1.70265 -0.10938,0.93082 -0.16173,1.72808 -0.11628,1.7717 0.0454,0.0436 81.42009,9.4869 180.83258,20.98508 99.4125,11.49817 180.79867,20.9533 180.85817,21.01139 0.1551,0.15163 -10.3851,145.96647 -10.5642,146.14554 -0.082,0.082 -134.24672,0.22539 -298.14361,0.31851 l -297.99435,0.16935 3.61236,-2.71932 c 12.55131,-9.44838 23.69334,-22.44489 32.05818,-37.39402 10.6035,-18.94989 11.2863,-37.41817 1.89774,-51.33063 -3.90885,-5.79235 -9.79611,-10.3644 -15.06231,-11.6974 -0.98424,-0.24914 -3.09342,-0.4526 -4.69185,-0.4526 -6.38037,0 -12.94836,2.03259 -24.72012,7.65009 -2.31,1.10233 -4.48665,2.11718 -4.83699,2.2552 -0.55566,0.21892 -0.82374,-0.0224 -2.09931,-1.88921 -2.43294,-3.56073 -5.15412,-6.79971 -8.51247,-10.13225 -3.10029,-3.07643 -9.07956,-7.84641 -11.63847,-9.28461 -0.69452,-0.39033 -1.2653,-0.85359 -1.26841,-1.02946 -0.003,-0.17586 1.50913,-9.87497 3.36058,-21.55356 l 3.36624,-21.2338 8.86443,-4.90133 8.8644,-4.90133 0.69402,-2.62085 c 0.38172,-1.44147 0.63024,-2.68462 0.5523,-2.76256 -0.0779,-0.0779 -4.17024,2.14675 -9.09402,4.94377 -4.92375,2.79701 -8.98344,5.05982 -9.02154,5.02846 -0.22794,-0.18773 0.81462,-4.7859 1.15539,-5.09581 0.22761,-0.20701 4.43196,-2.64145 9.34296,-5.40986 4.911,-2.76842 8.99106,-5.1337 9.06675,-5.25619 0.12909,-0.20889 16.35414,-66.441259 16.35414,-66.759379 0,-0.081 55.1475,-0.14732 122.55,-0.14732 l 122.55,0 -0.0192,0.825 c -0.0105,0.45375 -1.12926,8.25 -2.4861,17.325 l -2.46702,16.5 0.9039,0.20097 c 2.90079,0.64497 2.46684,4.74903 -0.50217,4.74903 -1.25856,0 -1.09077,-0.49924 -2.05332,6.109639 -0.43575,2.99189 -0.5475,4.52268 -0.33954,4.6512 0.17046,0.10536 46.30884,5.63864 102.52971,12.29618 l 102.21971,12.10462 14.59788,-14.59559 14.59788,-14.59559 1.38924,2.79849 c 3.69237,7.4379 10.18263,13.95926 17.6121,17.69649 1.22823,0.61784 2.37573,1.17844 2.55,1.24579 0.17427,0.0674 -2.38191,2.83738 -5.68035,6.15561 -3.29847,3.31824 -5.79597,6.03216 -5.55,6.03093 0.24594,-0.001 8.54451,0.95684 18.44124,2.12904 12.40425,1.4692 18.13569,2.03929 18.45,1.83516 8.84535,-5.74449 13.23126,-8.08476 22.20594,-11.84877 11.72094,-4.9158 21.26186,-8.32226 22.24876,-7.94358 0.2372,0.091 1.953,2.67564 3.8129,5.74357 2.4406,4.02586 3.329,5.74348 3.1929,6.17251 -0.1919,0.60473 -4.463,4.69148 -9.9305,9.502 -1.6642,1.46427 -3.08167,2.7951 -3.14995,2.95741 -0.0753,0.17907 9.46405,1.43097 24.25955,3.18371 13.4111,1.58873 24.4466,2.95141 24.5234,3.02817 0.077,0.0768 -2.4584,36.00525 -5.6337,79.84107 l -5.7733,79.7015 -9.4883,2.4e-4 c -7.2396,1.5e-4 -9.5553,0.0891 -9.771,0.37521 -0.1555,0.20625 -1.4745,3.04125 -2.9311,6.3 -1.4566,3.25875 -2.7373,5.925 -2.846,5.925 -0.1087,0 -4.3413,-0.92397 -9.4057,-2.05329 -5.06436,-1.12929 -9.20796,-1.99902 -9.20796,-1.93269 0,0.0663 2.7003,3.45312 6.00069,7.52619 3.30037,4.0731 5.96667,7.5003 5.92497,7.61598 -0.042,0.11568 -2.0332,2.59953 -4.4257,5.51964 -2.39246,2.92014 -4.4273,5.42817 -4.52183,5.57346 -0.0945,0.14529 -4.0095,-1.74861 -8.7,-4.20864 -4.69047,-2.46003 -8.56491,-4.44003 -8.60985,-4.40001 -0.0449,0.04 1.67631,4.00458 3.825,8.8101 2.14869,4.80552 3.90672,8.80053 3.90672,8.87781 0,0.13233 -11.28588,8.31615 -11.74068,8.51361 -0.11676,0.0507 -3.36162,-2.80854 -7.2108,-6.35382 -3.84918,-3.54531 -7.03755,-6.33843 -7.08525,-6.20697 -0.0802,0.2211 2.44845,16.77459 2.78103,18.20556 0.13545,0.58278 -0.44106,0.86028 -6.78123,3.26415 -4.08408,1.54845 -7.00806,2.50647 -7.12116,2.33316 -0.10557,-0.16173 -2.41941,-3.81225 -5.14191,-8.1123 -2.7225,-4.30002 -4.99155,-7.7775 -5.04234,-7.72773 -0.0508,0.0498 -0.53787,4.29798 -1.08234,9.44046 -0.5445,5.14251 -1.11042,9.45678 -1.25766,9.58731 -0.29361,0.26034 -14.17896,1.66674 -14.38833,1.45734 -0.0712,-0.0713 -1.3701,-4.10073 -2.8863,-8.95443 -1.5162,-4.8537 -2.79864,-8.88114 -2.84988,-8.9499 -0.21042,-0.28233 -0.57681,0.58572 -3.74451,8.87157 -1.81953,4.75938 -3.35841,8.70576 -3.41973,8.76975 -0.0613,0.064 -3.33921,-0.40854 -7.28418,-1.05 l -7.1727,-1.16631 -0.18069,-2.7 c -0.0994,-1.485 -0.26574,-5.3325 -0.36969,-8.55 -0.29766,-9.21462 0.35646,-9.1923 -6.12858,-0.20919 -3.04869,4.22307 -5.65152,7.68525 -5.78409,7.69374 -0.30567,0.0195 -12.88971,-5.64915 -13.15893,-5.92767 -0.10995,-0.11379 0.72096,-4.32438 1.8465,-9.35688 1.12554,-5.0325 1.9926,-9.20541 1.92678,-9.27315 -0.0658,-0.0677 -0.35673,0.0826 -0.6465,0.33402 -0.42993,0.37314 -5.95119,4.84092 -13.14909,10.64022 l -1.22229,0.98478 -5.52771,-4.52946 c -5.12166,-4.1967 -5.52177,-4.59564 -5.44653,-5.43033 0.0455,-0.50439 -0.10506,-1.04943 -0.34206,-1.23846 -2.78622,-2.22246 -10.11204,-7.68555 -10.29705,-7.67883 -0.25179,0.009 -2.1921,1.69266 -2.1921,1.90197 0,0.29541 5.75469,10.23117 7.28988,12.58635 1.04034,1.59603 1.71012,2.94999 1.71012,3.45708 0,1.18353 -2.10156,3.04581 -3.43713,3.04581 -0.26214,0 -3.39066,-2.9664 -6.95232,-6.59199 l -6.47571,-6.59199 -1.29726,0.89253 -1.29729,0.89256 2.33769,5.77443 c 1.28571,3.17595 2.82915,6.74985 3.42984,7.94196 1.3227,2.62503 1.39053,3.73464 0.29055,4.75407 -0.91128,0.84456 -1.7478,1.11894 -2.97801,0.97686 -0.68781,-0.0794 -1.20105,-0.59973 -2.66124,-2.69766 -2.10498,-3.02433 -8.14901,-10.88595 -8.7572,-11.39067 -0.53898,-0.4473 -2.80191,0.51702 -2.80191,1.19403 0,0.68628 2.58138,10.46838 3.60921,13.67709 1.32056,4.12251 1.19501,4.67088 -1.30896,5.7171 -1.84149,0.76944 -2.43537,0.27381 -4.69902,-3.92181 -1.07316,-1.98915 -3.03123,-5.46837 -4.35123,-7.73163 -2.60292,-4.46298 -2.4888,-4.37643 -4.67292,-3.54393 l -0.77289,0.2946 0.68943,5.67285 c 0.37917,3.12006 0.95724,7.05435 1.28454,8.74284 0.81522,4.20546 0.46185,5.00832 -2.35101,5.34147 -2.0217,0.23943 -2.47569,-0.18942 -3.50631,-3.31236 -0.8982,-2.7216 -5.46729,-13.63368 -5.77437,-13.79058 -0.10806,-0.0552 -0.76128,0.0183 -1.45161,0.16365 l -1.25511,0.26403 -0.21492,1.71126 c -0.1182,0.94122 -0.13005,5.0307 -0.0264,9.08778 0.20406,7.98198 0.18948,8.07252 -1.39305,8.66001 -2.59872,0.96468 -3.81816,0 -4.52925,-3.5865 -0.47811,-2.41074 -1.90002,-7.89261 -3.20988,-12.375 l -0.59175,-2.025 -1.48158,0 c -1.29141,0 -1.50108,0.0866 -1.63356,0.675 -0.33066,1.46874 -1.6344,11.63934 -1.8339,14.30676 -0.26085,3.48735 -0.77748,4.21824 -2.98164,4.21824 -0.76083,0 -1.63029,-0.13215 -1.93209,-0.29367 -0.73239,-0.39198 -1.21056,-1.85541 -1.21746,-3.72609 -0.005,-1.43172 -0.66546,-7.02417 -1.49988,-12.70524 l -0.36351,-2.475 -1.54494,0 -1.54494,0 -1.55148,5.625 c -0.85335,3.09375 -1.83363,6.975 -2.17842,8.625 -0.77136,3.6912 -1.21938,4.20366 -3.44478,3.94011 -2.7651,-0.32751 -2.68626,-0.009 -2.59761,-10.48332 l 0.0772,-9.1182 -1.53594,-0.30369 -1.53594,-0.30369 -0.46293,1.08441 c -2.36613,5.5425 -4.45965,10.70625 -5.21814,12.87081 -0.50373,1.43748 -1.13904,2.78232 -1.4118,2.98857 -1.20615,0.91206 -4.41951,0.0739 -4.74894,-1.23873 -0.10398,-0.4143 0.0911,-2.34696 0.43365,-4.29477 0.51294,-2.91738 1.83405,-12.7545 1.83405,-13.65672 0,-0.25344 -0.96096,-0.68805 -2.22012,-1.0041 -0.62886,-0.15783 -0.95505,0.26928 -3.49224,4.57263 -1.53924,2.61069 -3.49785,6.09669 -4.35246,7.74669 -1.88703,3.64326 -2.40444,4.01064 -4.53471,3.21993 -1.02162,-0.3792 -1.57476,-0.79746 -1.87083,-1.41462 -0.38631,-0.80532 -0.33249,-1.1445 0.66492,-4.19076 0.59691,-1.82301 1.63848,-5.47455 2.31459,-8.11455 0.67611,-2.64 1.29654,-5.03394 1.37868,-5.31987 0.11055,-0.38487 -0.20607,-0.69255 -1.21938,-1.18485 -0.85302,-0.41442 -1.46964,-0.55764 -1.63653,-0.38013 -0.94899,1.00941 -7.31145,9.41388 -8.66205,11.44209 -1.93578,2.907 -2.66487,3.31224 -4.48935,2.4954 -1.2549,-0.56184 -2.18052,-1.59147 -2.18052,-2.42553 0,-0.26913 0.72636,-2.02785 1.61412,-3.90825 1.59708,-3.38268 5.28933,-12.31515 5.28216,-12.77874 -0.005,-0.32538 -2.07594,-1.64862 -2.39862,-1.53261 -0.63051,0.22662 -6.67824,6.09108 -9.37398,9.08991 -1.80444,2.0073 -3.32328,3.42432 -3.87264,3.61299 l -0.90381,0.31038 1.19898,1.45095 1.19901,1.45098 -3.76044,4.83864 c -2.06823,2.66124 -3.93204,5.02248 -4.14183,5.24715 -0.31803,0.34065 -1.40151,-0.12039 -6.52134,-2.775 -3.37698,-1.75092 -6.26025,-3.18351 -6.40725,-3.18351 -0.14703,0 -2.46624,2.17026 -5.15382,4.82277 -3.86676,3.81636 -4.84803,4.94406 -4.70208,5.4039 0.10143,0.31959 1.00038,2.30061 1.99764,4.4022 0.99726,2.10162 2.26338,4.80195 2.81358,6.00075 l 1.00038,2.17962 -4.11003,3.13545 c -2.2605,1.72449 -4.65003,3.53121 -5.31003,4.0149 l -1.2,0.87948 -5.25,-4.76121 c -2.8875,-2.61867 -5.34651,-4.76496 -5.46444,-4.76955 -0.11796,-0.005 -1.43913,0.73428 -2.93592,1.64193 -1.49682,0.90762 -4.13319,2.40408 -5.85861,3.32547 -1.72542,0.92139 -3.18402,1.76502 -3.24138,1.87476 -0.0573,0.10974 0.45768,3.34521 1.1445,7.18992 0.68682,3.84471 1.14906,7.05201 1.0272,7.12731 -1.00116,0.61878 -12.12936,4.887 -12.28098,4.71039 -0.10773,-0.12543 -1.86099,-2.82684 -3.89619,-6.00309 -2.03517,-3.17625 -3.82197,-5.775 -3.97068,-5.775 -0.14868,0 -2.18355,0.52392 -4.52193,1.16427 -2.33835,0.64035 -5.29782,1.39641 -6.57657,1.68012 -2.01654,0.44739 -2.32548,0.60141 -2.32854,1.16073 -0.006,1.01307 -1.16601,13.76451 -1.26123,13.85886 -0.20736,0.2055 -12.93819,1.63305 -13.10205,1.46919 -0.10068,-0.10065 -1.14549,-3.17556 -2.32185,-6.8331 l -2.13879,-6.65007 -7.02519,-0.0467 -7.02516,-0.0467 -2.35305,6.54687 c -1.29417,3.60078 -2.4354,6.66564 -2.53608,6.81081 -0.10161,0.14646 -3.08658,-0.13443 -6.70806,-0.63129 z m 30.246,-30.3402 c 7.59915,-0.79803 16.50363,-2.60211 21.76653,-4.41003 l 1.98753,-0.68274 -15.48753,-38.22216 -15.48753,-38.22216 -4.2,-0.0564 c -2.31,-0.031 -5.955,-0.15894 -8.1,-0.28431 l -3.9,-0.22794 -0.77748,0.85647 c -1.47984,1.63017 -48.57252,62.1975 -48.57252,62.47059 0,0.29295 4.18959,3.06126 7.65,5.05479 12.23019,7.04583 27.71925,12.09948 41.55,13.55667 1.7325,0.18252 3.555,0.37746 4.05,0.4332 2.82198,0.3177 15.62379,0.14325 19.521,-0.26601 z m 38.60862,-11.28234 c 6.61356,-3.3147 13.14237,-7.53654 19.57038,-12.65514 4.19601,-3.34125 13.56078,-12.85755 16.8822,-17.15529 3.25473,-4.21149 8.81361,-12.45 8.40054,-12.45 -0.0639,0 -0.57363,0.3375 -1.13274,0.75 -1.4736,1.08717 -2.55402,0.98481 -3.78453,-0.35862 -0.72597,-0.79257 -1.01547,-1.39161 -1.01547,-2.10123 0,-0.8961 0.62661,-1.60842 6.44568,-7.32741 l 6.44568,-6.3348 -0.46785,-0.78897 c -1.21908,-2.0559 -0.7509,-2.06505 -6.1647,0.12036 -2.69985,1.08987 -6.3099,2.64735 -8.02236,3.46113 -1.71246,0.81375 -3.48921,1.47954 -3.94833,1.47954 -0.92724,0 -2.25963,-1.33365 -2.57073,-2.57313 -0.37254,-1.48431 0.10134,-2.12448 3.10749,-4.19781 2.27685,-1.57035 9.8052,-7.27482 11.27565,-8.54391 0.13779,-0.11892 0.0331,-0.63672 -0.23271,-1.15068 -0.46257,-0.89451 -0.5631,-0.93438 -2.35053,-0.93255 -1.98174,0.003 -6.32514,1.02471 -12.2568,2.88597 -2.31093,0.72516 -3.75357,1.0287 -4.27137,0.89874 -0.83139,-0.20868 -1.98912,-2.05644 -1.98912,-3.17469 0,-0.61167 -0.0132,-0.61194 -28.6821,-0.61194 -27.19272,0 -28.67169,0.0273 -28.48146,0.525 0.79905,2.091 28.79382,71.13762 29.00976,71.55 0.1512,0.28875 0.33975,0.525 0.41898,0.525 0.0792,0 1.79571,-0.82782 3.81444,-1.83957 z m 294.71675,-8.55918 c 0.79683,-0.18729 0.76563,-0.0117 1.7514,-9.85125 0.42978,-4.29 0.83703,-8.07 0.90495,-8.4 0.1017,-0.49407 0.72141,-0.7437 3.51039,-1.41399 2.63646,-0.63363 3.4602,-0.73335 3.71781,-0.45 0.18201,0.20019 2.46015,3.73899 5.0625,7.86399 2.60238,4.125 4.75383,7.5279 4.78107,7.56198 0.13794,0.1728 5.95728,-2.17602 6.06093,-2.44635 0.0666,-0.17361 -0.53181,-4.43313 -1.32972,-9.46563 l -1.45077,-9.15 1.37253,-0.75891 c 0.75489,-0.41739 2.13615,-1.19634 3.06945,-1.73097 l 1.69695,-0.97203 5.95305,5.445 c 3.2742,2.99475 6.42906,5.89776 7.01082,6.45114 l 1.05774,1.00617 2.54226,-1.80996 c 1.39824,-0.99546 2.57967,-1.9734 2.62539,-2.17314 0.0457,-0.19977 -1.60722,-4.14189 -3.6732,-8.76027 -2.06598,-4.61835 -3.75708,-8.53203 -3.75798,-8.69703 0,-0.165 1.09377,-1.30185 2.43258,-2.5263 l 2.43417,-2.22633 3.04065,1.53726 c 1.67235,0.84549 5.49705,2.82522 8.49933,4.39941 l 5.45865,2.86218 2.11779,-2.56965 2.11776,-2.56965 -3.81333,-4.70346 c -2.0973,-2.5869 -4.87482,-6.00783 -6.17223,-7.60206 l -2.3589,-2.89863 1.67826,-2.78385 c 0.92304,-1.53111 1.71936,-2.82498 1.76961,-2.8752 0.0503,-0.0503 4.32609,0.85341 9.5019,2.00811 5.1758,1.1547 9.5065,1.99791 9.6237,1.8738 0.1173,-0.12408 0.7631,-1.44063 1.4352,-2.92563 l 1.2219,-2.7 -0.6695,-0.56241 c -0.587,-0.49314 -0.9986,-0.53934 -3.3406,-0.375 -1.4691,0.10308 -10.32912,0.18741 -19.68894,0.18741 l -17.01786,0 -1.24941,1.65483 c -8.57622,11.35911 -21.67713,19.92102 -35.72268,23.34603 -6.88602,1.67919 -16.15278,2.25435 -22.8,1.41519 -16.0944,-2.03181 -31.4892,-10.35456 -41.31711,-22.33692 -1.09581,-1.33602 -2.08452,-2.53914 -2.19714,-2.67363 -0.39858,-0.47595 -4.66176,-1.3953 -6.49374,-1.40037 -1.58319,-0.005 -1.92705,0.0935 -2.325,0.66162 -0.25686,0.36672 -0.46701,0.82254 -0.46701,1.01298 0,0.38088 7.37352,6.21594 11.39349,9.01626 3.02553,2.10759 3.58851,2.8989 3.02697,4.25463 -0.56124,1.35495 -1.68381,2.44938 -2.51232,2.44938 -0.39627,0 -2.00331,-0.59946 -3.57117,-1.33212 -1.56786,-0.73269 -5.19885,-2.29173 -8.06883,-3.46458 l -5.21814,-2.13243 -0.67557,0.83958 c -1.24731,1.5501 -1.19022,1.80543 0.86916,3.88677 1.5111,1.52721 2.04495,1.89234 2.57448,1.76079 0.54183,-0.13461 1.10868,0.29676 3,2.28282 1.28256,1.34685 2.32128,2.69811 2.30823,3.00285 -0.0129,0.30474 0.62787,1.17099 1.42425,1.92498 0.79638,0.75402 1.52679,1.68498 1.62312,2.06883 0.34194,1.36239 -1.56825,3.76251 -2.99448,3.76251 -0.35196,0 -1.16514,-0.35688 -1.80705,-0.79311 -1.42896,-0.97098 -1.28745,-1.11516 -3.80367,3.87606 -1.50303,2.98143 -1.72896,3.6303 -1.44732,4.15659 0.18357,0.34299 0.25458,1.04817 0.1578,1.56705 -0.16221,0.86955 -0.0349,1.05741 1.62525,2.39946 0.99069,0.80082 1.96878,1.38294 2.17353,1.2936 0.20475,-0.0894 3.51936,-2.71956 7.36578,-5.84487 l 6.99351,-5.68236 3.08208,1.92093 3.08208,1.92093 -1.87176,8.40762 c -1.02948,4.62417 -1.95021,8.72007 -2.04606,9.102 -0.15894,0.63324 0.0739,0.8037 2.64396,1.93524 1.55004,0.68247 2.95455,1.24086 3.12114,1.24086 0.16659,0 2.74095,-3.35595 5.72076,-7.45764 l 5.41788,-7.45764 3.37071,1.02192 c 1.85391,0.56205 3.43791,1.08906 3.51999,1.17117 0.0821,0.0821 0.3246,4.21983 0.53889,9.19497 0.23445,5.44284 0.51249,9.12165 0.69807,9.23634 0.16962,0.10485 1.41696,0.35523 2.77182,0.55644 1.35489,0.20124 2.68092,0.42942 2.94675,0.50715 0.38865,0.11361 1.15131,-1.59837 3.8934,-8.73954 l 3.41004,-8.88081 0.86913,0.17382 c 0.47799,0.0956 2.10096,0.17556 3.6066,0.17769 l 2.7375,0.004 2.53059,8.17113 c 1.39182,4.49412 2.64321,8.49063 2.78088,8.88111 0.24546,0.69627 0.30093,0.70599 2.86941,0.5016 1.44051,-0.11463 2.90997,-0.27678 3.2655,-0.36033 z m -393.61505,-34.15521 21.75762,-27.89604 -29.91801,-0.0765 c -16.45491,-0.042 -29.98278,-0.0117 -30.06189,0.0674 -0.12189,0.12189 4.12515,4.30416 9.61557,9.4689 l 1.42464,1.34013 -2.70858,4.569 -2.70858,4.56897 -1.11603,-0.43437 c -2.78718,-1.08477 -17.61297,-6.4536 -17.82135,-6.4536 -1.8024,0 3.28029,10.81278 9.56073,20.33928 1.55526,2.35908 4.19208,6.00408 5.85963,8.1 3.1233,3.92559 13.52373,14.58111 14.05818,14.40297 0.16527,-0.0551 10.0914,-12.65337 22.05807,-27.99621 z m 159.27255,19.07661 c 0.16287,-0.31755 1.33011,-2.2413 2.59383,-4.275 2.37066,-3.81501 5.98752,-10.21242 5.85096,-10.34898 -0.0425,-0.0425 -0.90759,-0.27102 -1.92237,-0.50775 l -1.84506,-0.43041 -1.82262,1.35441 c -1.35381,1.00602 -2.14173,1.90497 -3.06312,3.49476 -0.68226,1.17717 -1.90866,3.18897 -2.72529,4.47066 -1.29906,2.03877 -1.43418,2.39535 -1.08018,2.85 1.12686,1.44714 3.37242,3.96966 3.53382,3.96966 0.10113,0 0.31716,-0.2598 0.48003,-0.57735 z m 77.3277,-7.32603 c 3.60339,-1.76298 5.69889,-4.99287 5.86932,-9.04662 0.1251,-2.97528 -0.59991,-5.13957 -2.41083,-7.19688 -1.55049,-1.76145 -2.98125,-2.6739 -5.20773,-3.32118 -4.82103,-1.40148 -9.98412,1.00431 -12.30657,5.73441 -0.7617,1.55136 -0.87492,2.11572 -0.86925,4.33365 0.005,2.10111 0.14214,2.84046 0.77703,4.2 1.33041,2.8488 3.41172,4.78044 6.26808,5.8173 2.09169,0.7593 5.75907,0.51696 7.87995,-0.52068 z m -358.95996,-2.33718 c 2.52,-1.20825 4.57839,-4.49448 4.57839,-7.30944 0,-1.72392 -0.86682,-3.92781 -2.0925,-5.32026 -3.61749,-4.1097 -9.97893,-3.59355 -12.95967,1.05153 -0.9423,1.46847 -0.99783,1.70604 -0.99783,4.26873 0,2.55513 0.0575,2.80335 0.98418,4.2474 2.29314,3.5736 6.72297,4.86696 10.48743,3.06204 z m 436.66292,-8.4501 1.67844,-3.24069 -0.95649,-0.5832 c -1.29486,-0.78954 -1.57062,-0.75564 -4.39773,0.54054 l -2.45592,1.12596 1.12236,1.49904 c 1.73655,2.3193 3.18477,4.09128 3.26142,3.99045 0.0382,-0.0503 0.82479,-1.54974 1.74792,-3.3321 z M 160.91999,337.7343 c 13.29332,-1.64319 24.79434,-7.1886 34.41713,-16.59471 1.19625,-1.16931 2.175,-2.20947 2.175,-2.31144 0,-0.102 -1.58625,-0.35238 -3.525,-0.55641 -30.58991,-3.21915 -62.73171,-9.91398 -89.82751,-18.71025 l -5.002505,-1.62399 0.74921,2.13051 c 0.412065,1.1718 1.468335,3.61554 2.347275,5.43054 8.48272,17.51685 25.53849,29.68374 45.17124,32.22333 2.84123,0.36753 10.56498,0.37464 13.49516,0.0123 z m 181.39384,-0.73437 c 5.64597,-1.67667 7.4688,-9.26085 3.2418,-13.48785 -1.64043,-1.64043 -3.18687,-2.2491 -5.73426,-2.25693 -1.76844,-0.005 -2.41968,0.13911 -3.74451,0.83121 -5.05596,2.64129 -5.84997,9.47151 -1.54188,13.26366 2.20704,1.94271 4.88223,2.51013 7.77885,1.64991 z M 739.3121,332.0004 c 0,-0.47886 -0.75702,-0.24969 -1.12578,0.34077 -0.3465,0.55485 -0.32238,0.5709 0.37785,0.25185 0.41136,-0.18744 0.74793,-0.45411 0.74793,-0.59262 z m -123.07397,-3.08778 c 2.07375,-1.13232 3.81183,-2.92434 4.81263,-4.96206 0.69933,-1.42392 0.81135,-2.02479 0.81135,-4.35201 0,-2.2992 -0.11892,-2.95368 -0.80106,-4.40895 -0.44058,-0.93993 -1.41576,-2.32368 -2.16711,-3.075 l -1.36605,-1.36605 -6.01578,0 -6.01578,0 -1.36605,1.36605 c -0.75135,0.75132 -1.72653,2.13507 -2.16711,3.075 -0.68274,1.4565 -0.80085,2.1078 -0.79953,4.40895 0.003,3.18456 0.57438,4.72362 2.55813,6.87573 2.48592,2.69691 4.48182,3.51813 8.24034,3.39051 2.3043,-0.0782 2.93097,-0.21777 4.27602,-0.95217 z m 103.72397,0.14859 c 6.63396,-3.25953 8.01594,-12.18057 2.65275,-17.12418 l -1.28934,-1.18848 -5.86341,0 -5.8634,0 -1.28934,1.18848 c -4.89699,4.51389 -4.31697,12.44826 1.18683,16.23498 2.11775,1.45704 3.27332,1.76949 6.26591,1.69416 2.16852,-0.0546 2.99526,-0.21303 4.2,-0.80496 z m -75.59039,-5.85243 c 3.00864,-1.76316 2.98593,-6.14502 -0.0408,-7.88028 -4.38129,-2.51184 -8.96187,2.9061 -5.82669,6.89184 1.39098,1.76835 3.83436,2.17995 5.86752,0.98844 z m 42.59046,0.13974 c 1.47552,-0.7143 2.54994,-2.42073 2.54994,-4.04997 0,-1.62924 -1.07442,-3.33567 -2.54994,-4.04997 -1.45962,-0.70659 -2.49756,-0.75537 -3.87015,-0.18186 -2.63838,1.10238 -3.58938,4.65171 -1.85547,6.92499 1.48125,1.94202 3.51915,2.42493 5.72562,1.35681 z m 225.68052,-26.26428 c 3.4807,-1.45437 4.6125,-5.52603 2.3997,-8.63356 -0.5042,-0.70815 -0.674,-0.78519 -0.9974,-0.45275 -0.5272,0.54199 -5.8667,8.08962 -6.0372,8.53395 -0.3428,0.89346 2.895,1.27932 4.6349,0.55236 z m -2.217,-5.83569 c 1.5648,-2.2275 2.736,-4.16175 2.6025,-4.29833 -0.4826,-0.49368 -2.4349,-0.73368 -3.6844,-0.45292 -3.3755,0.75841 -5.2668,4.27174 -3.9703,7.3749 0.2538,0.60741 0.6836,1.34979 0.955,1.6497 0.6291,0.69513 0.5454,0.7824 4.0972,-4.27335 z M 411.98541,281.17868 c 1.98552,-0.58963 4.04538,-2.54265 4.51287,-4.27875 0.22497,-0.83553 0.29928,-11.85438 0.24372,-36.15086 l -0.0799,-34.94901 -0.91332,-1.30076 c -0.50232,-0.71541 -1.51482,-1.63826 -2.25,-2.05076 -1.31397,-0.73726 -1.47678,-0.75254 -9.58668,-0.9 l -8.25,-0.15 -0.0792,-9.675 -0.0791,-9.675 4.12914,0.002 4.12917,0.002 5.25,6.80454 c 2.8875,3.7425 5.82375,7.54517 6.525,8.45039 l 1.275,1.64584 0,-14.00244 0,-14.00244 -14.51574,0 -14.51574,0 -1.60413,0.83802 c -1.0011,0.52297 -1.94442,1.32204 -2.50926,2.12558 l -0.90513,1.28758 -0.0826,16.17157 c -0.0798,15.64115 -0.0629,16.20996 0.51465,17.34218 0.76041,1.49046 2.67885,3.13852 4.17543,3.58691 0.7482,0.22416 3.84759,0.34817 8.70228,0.34817 l 7.5402,0 0,28.8 0,28.8 -3.97662,0 -3.97662,0 -6.50649,-12.975 -6.50652,-12.975 -0.0168,18.675 -0.0168,18.675 13.89555,0 c 11.73924,0 14.14107,-0.0729 15.47775,-0.46987 z m 49.5267,0.31687 c 0,-0.0841 -1.2825,-2.7153 -2.85,-5.847 l -2.85,-5.694 0,-43.953 0,-43.95301 2.925,0.0183 2.925,0.0183 6.3,8.10691 c 3.465,4.4588 6.40125,8.17102 6.525,8.24937 0.12375,0.0784 0.225,-6.07552 0.225,-13.67525 l 0,-13.81769 -25.05,0 -25.05,0 0,13.86429 c 0,11.75625 0.0625,13.79749 0.41121,13.425 0.22617,-0.24161 3.06315,-3.98304 6.30441,-8.31429 l 5.8932,-7.875 2.84559,0 2.84559,0 0,44.09602 0,44.09602 -2.85,5.50397 c -1.5675,3.02718 -2.85,5.59398 -2.85,5.70398 0,0.11001 5.4675,0.20002 12.15,0.20002 6.6825,0 12.15,-0.0688 12.15,-0.153 z m 61.49325,-18.522 -0.007,-18.675 -2.40858,4.65 c -1.32474,2.5575 -4.31562,8.39625 -6.64644,12.975 l -4.23783,8.325 -4.59681,0 -4.59684,0 0,-28.65 0,-28.65 4.65,0 4.65,0 0,-5.70001 0,-5.7 -4.65,0 -4.65,0 0,-9.75761 0,-9.75762 4.71198,0.0826 4.71198,0.0826 6.53802,8.34874 6.53802,8.34874 0,-13.97374 0,-13.97374 -20.7015,0 -20.7015,0 2.8515,5.697 2.8515,5.697 0,43.80601 0,43.806 -2.85,5.694 c -1.5675,3.1317 -2.85,5.76285 -2.85,5.847 0,0.0842 9.315,0.153 20.7,0.153 l 20.7,0 -0.007,-18.675 z m 25.50675,-15.675 0,-34.35 4.65,0 4.65,0 0,34.35 0,34.35 9.45,0 c 5.1975,0 9.45,-0.0657 9.45,-0.14602 0,-0.0803 -1.2825,-2.6228 -2.85,-5.64999 l -2.85,-5.50397 0,-46.95525 c 0,-34.30467 -0.092,-47.22998 -0.34143,-47.97501 -0.55728,-1.66441 -1.6527,-2.87384 -3.35922,-3.70876 l -1.60563,-0.78556 -12.87186,0.0873 -12.87186,0.0873 -1.41483,0.83169 c -1.67712,0.98586 -2.75352,2.31905 -3.20403,3.96831 -0.23046,0.84368 -0.32829,15.03071 -0.32946,47.77801 l -0.003,46.578 -2.8515,5.697 -2.8515,5.697 9.6015,0 9.6015,0 0,-34.35 z m 0,-55.35001 0,-9.6 4.65,0 4.65,0 0,9.6 0,9.6 -4.65,0 -4.65,0 0,-9.6 z m 50.7,39.90001 0,-49.80001 4.8,0 4.8,0 0,49.80001 0,49.8 6.6,0 6.6,0 0,-49.8 0,-49.80001 4.8,0 4.8,0 0,49.80001 0,49.8 9.3,0 c 5.115,0 9.3,-0.0688 9.3,-0.153 0,-0.0841 -1.2825,-2.7153 -2.85,-5.847 l -2.85,-5.694 0,-47.00829 0,-47.00828 -0.63981,-1.32168 c -0.7188,-1.48485 -2.49255,-2.91871 -4.16901,-3.37013 -0.71901,-0.19361 -11.46741,-0.27338 -30.19812,-0.22412 l -29.08173,0.0765 2.93808,5.4 2.93808,5.4 0.006,44.25825 c 0.005,36.34982 -0.0651,44.36399 -0.39294,44.85 -0.21957,0.32547 -1.57461,2.85301 -3.01122,5.61676 l -2.61198,5.025 9.46119,0 9.46122,0 0,-49.8 z m 112.09598,48.9837 c 1.51266,-0.8089 3.01305,-2.5625 3.40851,-3.9837 0.18309,-0.65806 0.29277,-16.6907 0.29382,-42.95086 l 0.003,-41.90085 2.7,-5.61479 c 1.485,-3.08814 2.7,-5.66401 2.7,-5.72415 -10e-4,-0.0601 -4.11837,-0.10936 -9.15033,-0.10936 l -9.14903,0 -0.076,44.92501 -0.076,44.925 -4.575,0.0828 -4.575,0.0828 0,-45.00781 0,-45.00782 -6.45,0 -6.45,0 0,45.00001 0,45 -4.49901,0 -4.49904,0 -0.076,-44.925 -0.076,-44.92501 -9.225,-0.0793 c -5.07375,-0.0436 -9.225,-0.008 -9.225,0.0782 0,0.0866 1.215,2.58465 2.7,5.55117 l 2.7,5.39369 0,41.87031 c 0,30.9245 0.0916,42.23395 0.35025,43.26131 0.46497,1.84657 2.38104,3.78093 4.35078,4.3923 1.24191,0.38547 4.74996,0.44135 24.54897,0.39107 l 23.09999,-0.0587 1.24599,-0.6663 z m 46.15401,0.48976 c 1.89219,-0.5096 3.35028,-1.68102 4.19007,-3.36628 l 0.75993,-1.52499 -0.007,-45.3161 c -0.006,-43.31631 -0.0309,-45.3696 -0.55731,-46.52851 -0.60975,-1.34241 -2.03202,-2.67546 -3.63609,-3.40805 -0.90627,-0.41389 -2.69274,-0.47954 -13.05,-0.47954 -9.33387,0 -12.25566,0.0904 -13.15074,0.40676 -1.54797,0.54718 -3.17415,2.02553 -3.83976,3.49067 -0.52062,1.14599 -0.54663,3.33504 -0.5529,46.51867 l -0.007,45.3161 0.77115,1.54751 c 0.79464,1.59462 1.92645,2.51745 3.99354,3.25612 1.40796,0.50314 23.25912,0.57948 25.08531,0.0876 z m -16.95,-50.07346 0,-39.30001 4.5,0 4.5,0 0,39.30001 0,39.3 -4.5,0 -4.5,0 0,-39.3 z m 48.4515,44.703 -2.8515,-5.697 0,-39.153 0,-39.15301 3.98832,0 3.98832,0 6.28668,5.19362 6.28668,5.19362 0.0896,-7.96862 c 0.0578,-5.14589 -0.0267,-8.36888 -0.23853,-9.09859 -0.44226,-1.52299 -1.95945,-3.18509 -3.60108,-3.94506 -1.30917,-0.60607 -1.86027,-0.62778 -18.225,-0.71806 -10.38291,-0.0573 -16.875,0.0153 -16.875,0.18855 0,0.1549 1.215,2.64018 2.7,5.52285 l 2.7,5.2412 0,39.49841 0,39.4984 -2.7,5.39369 c -1.485,2.96652 -2.7,5.4626 -2.7,5.54684 0,0.0842 5.40069,0.15316 12.0015,0.15316 l 12.0015,0 -2.8515,-5.697 z m 38.32206,-24.378 0.0764,-30.075 4.725,-0.0826 4.725,-0.0826 0,30.15762 0,30.15762 9.15,0 c 5.0325,0 9.15,-0.0884 9.15,-0.19647 0,-0.10806 -1.2825,-2.66253 -2.85,-5.67661 l -2.85,-5.48014 0,-24.63303 c 0,-26.64904 0.0494,-25.79167 -1.58931,-27.57424 -0.90333,-0.9826 -2.81496,-1.81872 -4.26069,-1.86355 l -1.2,-0.0372 1.05,-0.29799 c 2.00655,-0.56945 3.25302,-1.21372 4.15869,-2.14955 1.7775,-1.83664 1.84131,-2.26486 1.84131,-12.35496 l 0,-9.18303 2.85,-5.48014 c 1.5675,-3.01408 2.85,-5.56855 2.85,-5.67661 0,-0.10806 -4.1175,-0.19647 -9.15,-0.19647 l -9.15,0 0,14.70762 0,14.70762 -4.725,-0.0826 -4.725,-0.0826 -0.0773,-18.225 -0.0773,-18.225 -9.32214,0 -9.32214,0 0.58122,0.975 c 0.31968,0.53625 1.68069,3.08915 3.02448,5.6731 l 2.44323,4.6981 0,42.65316 0,42.65316 -1.01046,1.84874 c -0.55575,1.01681 -1.91328,3.57 -3.01674,5.67375 l -2.00628,3.825 9.3153,0 9.3153,0 0.0764,-30.075 z m 60.18852,29.60847 c 2.00016,-0.59399 3.69411,-2.23134 4.19439,-4.05432 0.27885,-1.01607 0.34461,-9.38498 0.27915,-35.52915 -0.0852,-34.02834 -0.0888,-34.20603 -0.71277,-35.40001 -0.38997,-0.74614 -1.17498,-1.54039 -2.07561,-2.1 l -1.44843,-0.9 -7.44939,-0.0981 -7.44942,-0.0981 0,-5.52692 0,-5.52692 3.30753,0 3.3075,0 6.10893,5.1 c 3.35994,2.805 6.19155,5.1 6.2925,5.1 0.10095,0 0.18354,-4.86882 0.18354,-10.81961 l 0,-10.81961 -13.275,0.11548 c -10.48731,0.0912 -13.52649,0.20508 -14.47263,0.54223 -1.56708,0.55841 -3.33213,2.34988 -3.73122,3.78704 -0.19884,0.71609 -0.31596,5.46766 -0.3129,12.69447 0.005,10.52508 0.0534,11.65672 0.55125,12.75258 0.68709,1.51245 2.3826,3.01986 3.85731,3.42939 0.63702,0.1769 4.12212,0.31542 7.95972,0.31636 l 6.82656,0.002 -0.0766,28.125 -0.0765,28.125 -3.15414,0.0844 -3.15414,0.0844 -5.93772,-6.43667 c -3.26574,-3.54018 -6.1326,-6.59845 -6.37086,-6.79617 -0.37632,-0.31234 -0.43314,1.25852 -0.43314,11.97725 l 0,12.33673 12.84555,0 c 10.74711,0 13.1022,-0.0762 14.41653,-0.46653 z m -768.51449,-1.30601 c 16.0322,-3.47794 29.3906,-14.56827 35.64304,-29.59136 1.38892,-3.33725 2.47252,-7.14395 3.19842,-11.2361 0.61316,-3.45664 0.69054,-11.35605 0.14546,-14.85 -1.28495,-8.23655 -4.17167,-15.36272 -8.99262,-22.19922 -2.28308,-3.23758 -7.95376,-8.84843 -11.44187,-11.32114 -3.27859,-2.32417 -9.55317,-5.52216 -13.05,-6.65123 -17.60481,-5.68435 -36.407915,-1.53984 -49.781555,10.97265 -7.19807,6.73457 -12.22007,15.52533 -14.3858,25.18165 -2.57173,11.46651 -1.10757,23.20926 4.18615,33.57338 7.29248,14.27734 20.56061,23.91516 36.581205,26.57216 3.73436,0.61935 14.17704,0.35633 17.89757,-0.45079 z m -12.44657,-4.30246 c 0.92851,-2.29382 0.94637,-2.31312 1.47353,-1.59219 0.95612,1.30757 -0.0391,3.46719 -1.59785,3.46719 -0.63294,0 -0.6326,-0.005 0.12432,-1.875 z m -2.11383,0.93703 c -0.26794,-0.38254 -0.48717,-1.00914 -0.48717,-1.39242 0,-0.86111 1.25829,-2.16961 2.08636,-2.16961 0.3375,0 0.61364,0.0376 0.61364,0.0836 0,0.046 -0.38827,1.00396 -0.86283,2.12879 -0.85863,2.03518 -0.86519,2.04175 -1.35,1.34959 z m 22.80329,-4.18381 c -1.02003,-0.80235 -1.08373,-2.38496 -0.13421,-3.33447 0.36093,-0.36094 0.69313,-0.52969 0.73822,-0.375 0.25531,0.87602 0.5702,4.33125 0.39472,4.33125 -0.11455,0 -0.56398,-0.2798 -0.99873,-0.62178 z m 1.78874,-1.666 c -0.22225,-2.1693 -0.11305,-2.50408 0.66019,-2.02394 1.25022,0.77632 1.4836,2.54586 0.46953,3.55994 -0.75478,0.75478 -0.91772,0.53325 -1.12972,-1.536 z m -25.5292,-0.4363 c -14.877855,-2.03445 -27.454625,-12.52183 -32.070225,-26.74234 -1.54113,-4.74819 -1.8306,-6.7152 -1.82236,-12.38358 0.006,-3.76129 0.14875,-5.7511 0.54586,-7.58046 3.33409,-15.35877 14.32628,-26.75345 29.51455,-30.59522 2.971505,-0.75162 3.703955,-0.81756 9.082175,-0.81756 5.37822,0 6.11066,0.0659 9.08218,0.81756 15.20796,3.84676 26.22221,15.26409 29.53723,30.61818 0.75331,3.48909 0.73355,11.9594 -0.0362,15.5075 -3.40102,15.67713 -15.24741,27.45703 -30.93323,30.7596 -2.8429,0.59855 -9.90144,0.82636 -12.9,0.41632 z m 10.42546,-5.82043 c 9.40049,-1.41697 17.63055,-6.75992 23.04097,-14.95818 2.0353,-3.08405 3.33575,-6.05112 4.41588,-10.07518 0.67903,-2.52972 0.77338,-3.48016 0.79142,-7.97213 0.0216,-5.37484 -0.19269,-6.88991 -1.54869,-10.95 -0.75215,-2.25205 -2.42103,-5.85402 -2.62009,-5.65496 -0.0582,0.0582 0.0813,0.82711 0.31005,1.70875 0.78525,3.02721 1.11411,7.62814 0.77027,10.77651 -1.59646,14.61816 -11.2254,25.75492 -25.52603,29.5232 -2.94822,0.77687 -9.24508,1.0565 -12.63358,0.56103 -9.027475,-1.31999 -17.722215,-6.76358 -22.704275,-14.21467 -0.86426,-1.29257 -1.57138,-2.19256 -1.57138,-1.99997 0,0.75093 1.89685,5.03154 3.20151,7.22483 7.02243,11.80552 20.388145,18.09369 34.073945,16.03077 z m -30.537795,5.52455 c -0.10876,-0.17598 -0.15047,-0.35567 -0.0927,-0.39932 3.20589,-2.42207 3.55504,-2.55992 3.55504,-1.40348 0,1.02851 -1.16193,2.12276 -2.25406,2.12276 -0.55579,0 -1.09951,-0.14399 -1.20827,-0.31996 z m -0.98231,-1.94934 c 0.12479,-1.47805 1.25793,-2.38528 2.6087,-2.0886 0.51477,0.11306 0.93595,0.30696 0.93595,0.43088 0,0.12392 -0.63222,0.68694 -1.40492,1.25116 -2.29694,1.6772 -2.2462,1.66755 -2.13973,0.40656 z m 61.790675,-10.8557 c -0.81615,-0.6906 -1.07805,-1.88122 -0.56729,-2.57892 0.37664,-0.51451 0.49501,-0.43537 1.66338,1.11212 0.69183,0.91633 1.25788,1.73934 1.25788,1.82892 0,0.39038 -1.79012,0.11499 -2.35397,-0.36212 z m 1.78532,-1.94862 c -0.67725,-0.897 -1.23135,-1.71989 -1.23135,-1.82865 0,-0.10875 0.37954,-0.19773 0.84343,-0.19773 0.94032,0 2.13753,0.94848 2.19211,1.73668 0.14021,2.02483 -0.42557,2.11568 -1.80419,0.2897 z m -78.159915,-2.49781 c -0.73568,-0.73568 -0.57634,-0.93264 0.92044,-1.1378 2.87993,-0.39474 3.38242,-0.16507 2.20813,1.00923 -0.72775,0.72774 -2.45828,0.79886 -3.12857,0.12857 z m -0.77143,-2.05651 c 0,-0.56465 0.6631,-1.32541 1.43337,-1.64447 1.04032,-0.43091 2.27454,-0.0471 2.75894,0.85804 0.28668,0.53566 0.24097,0.6147 -0.35676,0.61697 -0.37705,0.002 -1.3943,0.0877 -2.26055,0.19179 -0.86625,0.10405 -1.575,0.094 -1.575,-0.0223 z m 84.722705,-14.86376 c -0.6104,-0.24684 -1.55713,-1.97388 -1.25027,-2.28075 0.0843,-0.0843 1.05997,0.21917 2.16824,0.6743 2.01324,0.82678 2.01444,0.82799 1.35393,1.36283 -0.71469,0.57873 -1.29053,0.64047 -2.2719,0.24362 z m 0.77729,-2.59524 c -1.55324,-0.70824 -1.61585,-0.7776 -1.06766,-1.18271 1.28828,-0.95205 3.46766,-0.0912 3.46766,1.36965 0,0.76633 -0.37315,0.73727 -2.4,-0.18694 z m -89.262675,-2.89787 c -0.50959,-0.43834 -0.75856,-0.91568 -0.69173,-1.32626 l 0.10441,-0.64145 1.8,0.75811 c 2.2194,0.93476 2.23158,0.94655 1.51719,1.46893 -0.84278,0.61626 -1.81984,0.52344 -2.72987,-0.25933 z m 1.66268,-1.96825 c -1.0725,-0.44871 -1.95,-0.94334 -1.95,-1.09917 0,-0.51331 1.59466,-0.88306 2.4743,-0.57371 0.78677,0.27669 1.72612,1.64542 1.52216,2.21794 -0.053,0.14893 -0.97396,-0.0964 -2.04646,-0.54506 z m 81.623635,-15.47178 -0.68095,-0.72483 1.75366,-0.19974 c 0.9645,-0.10986 1.9899,-0.26528 2.27865,-0.34539 0.69779,-0.19357 0.66309,0.23832 -0.0968,1.20434 -0.82432,1.04795 -2.3037,1.07779 -3.25458,0.0656 z m -0.62364,-1.95935 c 0,-0.61628 1.45539,-1.81582 2.20312,-1.81582 0.93183,0 2.2635,1.04432 1.84688,1.44834 -0.47104,0.45678 -4.05,0.78153 -4.05,0.36748 z m -74.699995,-1.72865 c -1.00446,-0.36933 -1.5,-1.10139 -1.5,-2.21596 0,-0.62469 0.11313,-1.20571 0.2514,-1.29117 0.31796,-0.19651 2.78012,3.12626 2.5693,3.46737 -0.17227,0.27875 -0.63302,0.29262 -1.3207,0.0398 z m 0.94701,-2.41081 -1.27029,-1.72636 0.95599,-0.0973 c 1.22235,-0.12443 2.16729,0.76529 2.16729,2.04065 0,1.67163 -0.507,1.61226 -1.85299,-0.21698 z m 59.523805,-10.54267 c -0.14444,-0.23371 2.84261,-2.73369 3.2663,-2.73369 0.43281,0 0.0921,1.87082 -0.43712,2.4 -0.61665,0.61665 -2.51586,0.84066 -2.82918,0.33369 z m -0.9517,-1.35597 c -0.29584,-0.77096 0.45357,-2.19361 1.35145,-2.56553 0.58842,-0.24373 1.05533,-0.24946 1.6579,-0.0204 l 0.83881,0.31892 -0.70864,0.53958 c -2.90858,2.2147 -2.94486,2.23467 -3.13952,1.7274 z m -43.054775,-1.07973 c -0.7966,-0.46545 -1.2378,-1.86572 -0.88239,-2.80051 0.27693,-0.72839 1.07152,-1.35137 1.3514,-1.05954 0.25293,0.26374 0.51252,4.16122 0.2766,4.15294 -0.14298,-0.005 -0.4785,-0.13682 -0.74561,-0.29289 z m 1.72643,-1.38986 c -0.39473,-2.87993 -0.16507,-3.38242 1.00923,-2.20813 0.72775,0.72775 0.79887,2.45828 0.12857,3.12858 -0.73568,0.73567 -0.93264,0.57634 -1.1378,-0.92045 z m 21.622965,-2.99438 c -0.25882,-0.25882 1.40946,-4.01736 1.73626,-3.91171 0.53947,0.17441 0.88311,1.6489 0.58291,2.50115 -0.26539,0.75344 -1.95104,1.77868 -2.31917,1.41056 z m -1.70319,-0.99402 c -0.38881,-0.7265 -0.39771,-1.69631 -0.022,-2.3983 0.29176,-0.54516 2.01056,-1.42234 2.27292,-1.15997 0.19123,0.19123 -1.45366,4.13332 -1.7259,4.13624 -0.11794,0.001 -0.35419,-0.25882 -0.525,-0.57797 z m 77.75081,48.88028 c 0.0337,-1.815 0.0675,-3.87294 0.075,-4.5732 l 0.0136,-1.2732 -10.95,-0.80857 c -6.0225,-0.44472 -11.50006,-0.81678 -12.17236,-0.82681 l -1.22236,-0.0182 -0.34146,4.56117 c -0.18781,2.50865 -0.27857,4.62408 -0.2017,4.70095 0.12239,0.12239 20.07965,1.3979 23.46288,1.49956 l 1.275,0.0383 0.0614,-3.3 z m 1.71762,-12.47328 c 0.20595,-0.9203 0.32869,-1.71716 0.27274,-1.7708 -0.11441,-0.10969 -25.12251,-1.95953 -26.46129,-1.95733 l -0.85957,10e-4 0.21352,1.725 c 0.11744,0.94875 0.25948,1.77273 0.31565,1.83108 0.14262,0.14814 21.74933,1.76492 24.16723,1.80837 l 1.97726,0.0356 0.37446,-1.67328 z m 3.09944,-8.52672 0.77666,-1.8 -0.95254,-0.0103 c -0.5239,-0.006 -8.04004,-0.53145 -16.70254,-1.1684 -8.6625,-0.63695 -15.77483,-1.13623 -15.80518,-1.10951 -0.0303,0.0267 0.23959,0.89 0.59986,1.9184 0.50182,1.43243 0.79543,1.87454 1.25518,1.89002 0.33008,0.0111 6.47264,0.46761 13.65014,1.01445 7.1775,0.54683 13.80414,1.01025 14.72588,1.0298 l 1.67588,0.0356 0.77666,-1.8 z m 4.25418,-7.52753 c 0.44679,-0.67514 0.76848,-1.25655 0.71487,-1.29203 -0.0536,-0.0355 -1.09309,0.44083 -2.30995,1.05845 l -2.21249,1.12294 1.31249,0.11667 c 0.72186,0.0642 1.39579,0.14025 1.49761,0.16908 0.10182,0.0288 0.55069,-0.49997 0.99747,-1.17511 z m -27.33171,-1.84748 c -1.01247,-0.70125 -2.32217,-1.65869 -2.91045,-2.12766 -1.024,-0.8163 -1.28112,-0.86779 -6.03002,-1.20749 -2.72823,-0.19516 -4.96042,-0.3004 -4.96042,-0.23386 0,0.12063 1.80055,3.375 2.0064,3.62642 0.0596,0.0728 3.04132,0.35748 6.626,0.63257 3.58468,0.27509 6.65074,0.51926 6.81347,0.5426 0.16273,0.0233 -0.53251,-0.53133 -1.54498,-1.23258 z m 21.04911,0.38019 c 7.92631,-2.50767 13.7746,-8.72712 15.79006,-16.79219 0.91013,-3.64194 0.70439,-9.3088 -0.46336,-12.763 -0.8006,-2.36816 -2.47557,-5.48187 -3.85269,-7.16199 l -0.70653,-0.86199 -0.52671,0.80386 c -0.52016,0.79386 -0.51319,0.82425 0.5591,2.43972 7.29245,10.98654 3.35311,25.62591 -8.39987,31.21559 -3.21913,1.531 -5.52722,2.03609 -9.3,2.03513 -2.58407,-6e-4 -3.78814,-0.15002 -5.55,-0.68848 -7.14792,-2.18458 -12.18028,-7.00501 -14.59652,-13.98184 -0.7523,-2.17223 -0.83005,-2.78435 -0.81922,-6.45 0.009,-2.96288 0.14672,-4.45263 0.51402,-5.55 l 0.50207,-1.5 -0.82518,-0.67576 -0.82517,-0.67576 -0.52709,1.6975 c -1.63971,5.28079 -1.1152,11.84206 1.33808,16.73834 3.2794,6.54506 8.95964,11.04561 15.9486,12.63638 2.78929,0.63487 9.0465,0.38677 11.74041,-0.46551 z m -12.86867,-5.77207 c -4.27603,-2.25332 -7.41261,-6.07568 -9.05364,-11.03312 -0.58454,-1.76583 -0.76846,-6.28653 -0.35056,-8.61619 0.21662,-1.20754 0.18376,-1.28862 -0.70947,-1.75052 -0.51513,-0.26639 -1.04517,-0.37161 -1.17786,-0.23382 -0.13269,0.1378 -0.38718,1.05158 -0.56553,2.03063 -1.01528,5.57339 0.70407,11.26859 4.67163,15.47442 2.22939,2.36327 4.17151,3.69832 6.80232,4.67603 2.84371,1.05683 3.00099,0.8321 0.38311,-0.54743 z m -17.33979,-4.80812 -0.99154,-1.875 -4.5,-0.34662 c -5.69988,-0.43904 -6.15299,-0.45221 -6.13622,-0.17838 0.008,0.12375 0.72998,1.0133 1.60534,1.97677 l 1.59156,1.75176 2.81966,0.23049 c 1.55081,0.12677 3.67085,0.24972 4.7112,0.27323 l 1.89155,0.0428 -0.99155,-1.875 z m -2.49154,-12.0754 0,-5.24962 -0.75,0.004 c -0.4125,0.002 -10.31459,-0.54894 -22.00463,-1.22507 -11.69005,-0.67613 -21.61255,-1.12637 -22.05,-1.00052 -0.59779,0.17196 -0.13918,0.28874 1.84612,0.47006 8.21572,0.75038 17.28586,4.04912 24.62249,8.95503 l 3.18579,2.13029 6.97511,0.54576 c 3.83632,0.30017 7.24512,0.56233 7.57512,0.5826 0.57854,0.0355 0.6,-0.15088 0.6,-5.21278 z m 744.61367,3.61404 c 1.5297,-1.52974 0.636,-3.38029 -1.9637,-4.06614 -1.7996,-0.47477 -2.1731,-0.8004 -1.7737,-1.54652 0.4442,-0.83014 2.1151,-0.64844 2.5198,0.27402 0.3905,0.8899 1.6539,0.93678 1.6539,0.0614 0,-1.05685 -1.3186,-2.08637 -2.6722,-2.08637 -2.3775,0 -3.7153,1.34024 -3.0181,3.0235 0.3428,0.82747 1.0561,1.23684 2.9656,1.70205 2.0242,0.49316 1.9043,2.17445 -0.1551,2.17445 -0.7424,0 -1.1352,-0.19671 -1.4978,-0.75 -0.2827,-0.43156 -0.7775,-0.75 -1.1653,-0.75 -0.5586,0 -0.6492,0.12941 -0.5292,0.75675 0.2369,1.23959 1.4233,1.94325 3.2762,1.94325 1.3234,0 1.7592,-0.136 2.3596,-0.73636 z m 3.1563,-2.03864 0.02,-2.775 0.9955,2.7 c 0.8503,2.30607 1.0941,2.7 1.6712,2.7 0.5816,0 0.8055,-0.37569 1.6094,-2.7 l 0.9339,-2.7 0.087,2.79436 c 0.083,2.69041 0.1112,2.79085 0.75,2.7 0.6458,-0.0918 0.6635,-0.19841 0.6635,-3.99436 l 0,-3.9 -1.0248,0 -1.0247,0 -0.9455,2.83496 c -0.5719,1.7148 -1.0359,2.68861 -1.1744,2.46458 -0.1259,-0.2037 -0.6016,-1.47943 -1.057,-2.83495 -0.8207,-2.4422 -0.8375,-2.46459 -1.8509,-2.46459 l -1.0227,0 -0.085,3.58254 c -0.047,1.97039 -0.017,3.75914 0.066,3.975 0.083,0.21585 0.4248,0.39246 0.76,0.39246 0.5672,0 0.6108,-0.19228 0.6295,-2.775 z M 185.23811,187.664 c 1.51844,-1.16582 1.45746,-3.46847 -0.11727,-4.42864 -1.28765,-0.78513 -2.08336,-0.73771 -3.1857,0.18985 -1.92157,1.61689 -0.81722,4.63479 1.68834,4.61379 0.62625,-0.005 1.35284,-0.174 1.61463,-0.375 z m -94.075985,-7.35921 3.3,-1.18693 0.0923,-1.23466 c 0.0622,-0.83296 0.23304,-1.23466 0.525,-1.23466 0.31289,0 0.43275,-0.37391 0.43275,-1.35 l 0,-1.35 -1.30474,0 c -0.7176,0 -2.31393,-0.0853 -3.54739,-0.18957 l -2.24266,-0.18957 -2.67761,-3.99903 c -2.59199,-3.87117 -2.71117,-3.99872 -3.7276,-3.98934 -2.17323,0.02 -2.23769,0.21868 -0.7774,2.39545 1.011,1.50705 2.03128,2.49375 4.33903,4.19621 2.43327,1.79506 3.01928,2.37391 3.0278,2.99085 0.006,0.42075 0.15329,0.90773 0.32773,1.08217 0.17444,0.17444 0.27569,1.01345 0.225,1.86447 l -0.0922,1.5473 -10.70895,-8.02947 c -5.88991,-4.41621 -10.71616,-8.10724 -10.725,-8.2023 -0.0234,-0.25165 20.36657,-2.42332 20.71733,-2.20654 0.18909,0.11687 0.17381,0.32972 -0.0424,0.5902 -0.18596,0.22407 -0.30234,0.7183 -0.25861,1.09829 0.0437,0.37998 -0.0243,1.00111 -0.15124,1.38028 -0.138,0.41232 -0.0944,0.85374 0.10862,1.09829 0.253,0.30486 0.2509,0.46356 -0.008,0.62374 -0.20654,0.12765 -0.28332,0.61119 -0.18918,1.19132 0.0888,0.54728 0.008,1.12717 -0.18442,1.31935 -0.25718,0.25717 -0.25256,0.4875 0.0185,0.92148 0.22795,0.36502 0.25286,0.64565 0.0675,0.76022 -0.42682,0.26379 -0.35996,1.21788 0.11283,1.61026 0.5225,0.43363 7.96554,0.92283 8.6767,0.57028 0.37171,-0.18427 0.51355,-0.55884 0.46797,-1.23575 -0.036,-0.53423 0.0351,-1.13389 0.15785,-1.33258 0.12279,-0.19869 0.0954,-0.58976 -0.0609,-0.86904 -0.18653,-0.33332 -0.16732,-0.6949 0.0559,-1.05238 0.25613,-0.41012 0.24973,-0.6893 -0.0259,-1.13068 -0.24862,-0.3981 -0.26552,-0.64821 -0.0527,-0.77975 0.17235,-0.10651 0.2801,-0.55152 0.23946,-0.98891 -0.0406,-0.43739 0.0293,-1.10547 0.1553,-1.48464 0.13653,-0.41068 0.092,-0.85472 -0.11017,-1.09829 -0.23341,-0.28125 -0.24115,-0.46959 -0.0248,-0.60331 0.17301,-0.10693 0.31475,-0.5577 0.31496,-1.00171 l 3e-4,-0.8073 26.891785,-2.90054 c 19.49384,-2.1026 26.96144,-3.01043 27.14501,-3.3 0.69265,-1.09263 -0.0666,-2.8143 -1.08759,-2.46605 -0.165,0.0563 -11.64,1.31758 -25.49999,2.80288 -13.86,1.4853 -25.608125,2.75755 -26.106945,2.82722 -0.72971,0.10193 -0.97333,-0.014 -1.24668,-0.59321 -0.20392,-0.4321 -0.22798,-0.78896 -0.0602,-0.89267 0.15376,-0.095 0.26481,-0.60137 0.24679,-1.1252 -0.018,-0.52383 0.0553,-1.23186 0.16298,-1.57338 0.11857,-0.37614 0.0314,-0.75735 -0.22108,-0.9669 -0.51384,-0.42645 -8.17814,-0.91812 -8.80896,-0.5651 -0.26604,0.14888 -0.42477,0.58753 -0.38141,1.05398 0.0409,0.43944 -0.0289,1.1092 -0.15491,1.48837 -0.13652,0.41067 -0.092,0.85471 0.11018,1.09829 0.23978,0.28893 0.24474,0.46737 0.0169,0.60818 -0.17735,0.1096 -0.29163,0.65685 -0.25397,1.21611 0.0377,0.55925 -0.0239,1.10924 -0.13689,1.22219 -0.11296,0.11296 -5.70898,0.79552 -12.43561,1.51681 -6.72662,0.72128 -12.54245,1.4446 -12.92407,1.60738 -0.54445,0.23223 -0.67364,0.49134 -0.6,1.2034 0.0839,0.81144 1.39509,1.89036 12.39385,10.19841 7.05364,5.32806 12.49194,9.23595 12.75,9.16199 0.2475,-0.0709 1.935,-0.66309 3.75,-1.31591 z m 92.427005,-1.56311 c 10.55728,-2.69992 17.52299,-11.64135 17.52299,-22.49314 0,-11.9168 -8.42185,-21.4788 -20.34141,-23.09523 -1.40263,-0.19021 -3.43474,-0.24801 -4.65,-0.13225 -2.48111,0.23634 -6.57582,1.34447 -8.4053,2.27469 -3.37995,1.71857 -6.76948,4.6137 -8.63722,7.37739 -0.52982,0.78397 -0.98931,1.46203 -1.02109,1.5068 -0.0318,0.0448 -0.78615,-0.25766 -1.67638,-0.67207 -1.90029,-0.88459 -3.29414,-0.96764 -3.93296,-0.23433 -0.99508,1.14227 -0.82428,1.37202 1.91639,2.5779 1.45638,0.6408 2.64797,1.25899 2.64797,1.37376 0,0.11477 -0.17396,0.44657 -0.38658,0.73733 -0.36238,0.49559 -0.53369,0.46163 -2.73745,-0.54266 -2.639,-1.20263 -3.03394,-1.27418 -3.29388,-0.59679 -0.62311,1.6238 0.33586,2.83072 3.07665,3.87215 1.29383,0.49162 1.54535,0.7029 1.42853,1.2 -0.74464,3.16848 -0.37753,7.99612 0.90137,11.85331 2.41443,7.28196 8.8537,13.16742 16.45176,15.0368 3.0509,0.75063 8.10828,0.7308 11.13661,-0.0437 z m -9.10575,-1.5058 c -4.47105,-0.80282 -8.45905,-2.90301 -11.62126,-6.12008 -3.82702,-3.8934 -5.77206,-8.33083 -6.06854,-13.84484 -0.20984,-3.90259 0.39956,-6.80428 2.22779,-10.60781 1.14846,-2.3893 1.7725,-3.245 3.96642,-5.43893 2.19393,-2.19393 3.04963,-2.81796 5.43893,-3.96642 3.80353,-1.82824 6.70522,-2.43763 10.60781,-2.22779 9.63659,0.51815 17.35282,6.94526 19.71168,16.41853 0.66989,2.6903 0.5247,7.83308 -0.29644,10.5 -2.27333,7.38337 -7.27675,12.41878 -14.58765,14.68091 -2.41233,0.74642 -6.96111,1.04055 -9.37874,0.60643 z m 5.17874,-2.98734 c 0.10792,-0.17461 -0.19197,-0.3 -0.71753,-0.3 -1.69292,0 -4.07904,-0.66161 -6.58928,-1.82705 -2.01351,-0.93481 -2.96344,-1.62226 -4.82723,-3.49339 -9.78103,-9.81953 -5.6828,-25.67737 7.78404,-30.11986 l 1.65,-0.5443 -1.35,0.17112 c -0.7425,0.0941 -2.33926,0.49822 -3.54835,0.89802 -5.31136,1.75624 -9.25378,5.66264 -11.31887,11.21546 -0.72848,1.95881 -0.83975,2.6965 -0.85978,5.7 -0.0185,2.77705 0.10679,3.85963 0.64237,5.55 2.12621,6.71057 7.69302,11.57323 14.55882,12.71729 2.2234,0.37048 4.35762,0.38574 4.57581,0.0327 z m 2.1,-4.25663 c 4.49249,-1.11695 8.8096,-5.46549 10.04839,-10.12155 0.19436,-0.7305 0.3503,-2.43056 0.34655,-3.77789 -0.0199,-7.12975 -5.01412,-12.88532 -12.14253,-13.99355 -9.36093,-1.45531 -17.72705,6.99662 -16.1589,16.32462 1.42567,8.48045 9.45711,13.66911 17.90649,11.56837 z m -6.27278,-7.01534 c -3.9892,-1.46162 -5.80232,-5.97979 -3.964,-9.87803 0.84294,-1.78749 1.67245,-2.60225 3.48678,-3.42479 3.85372,-1.74711 8.34343,0.18817 9.76162,4.20773 0.9614,2.72492 0.36172,5.16404 -1.80146,7.32723 -2.16829,2.16829 -4.73501,2.77468 -7.48294,1.76786 z m 4.34585,-4.90495 c 1.11795,-1.11794 1.15225,-2.34983 0.10026,-3.60006 -0.61403,-0.72973 -1.0132,-0.92302 -1.90619,-0.92302 -2.57401,0 -3.73453,2.99059 -1.79412,4.62334 1.25022,1.05199 2.48211,1.01769 3.60005,-0.10026 z m -21.33262,15.95192 c -0.005,-0.12375 -0.6465,-0.92292 -1.425,-1.77595 l -1.41545,-1.55096 -19.06501,-4.37404 c -11.93177,-2.73748 -19.62062,-4.3634 -20.55,-4.3456 -1.49043,0.0286 -7.6161,0.74089 -7.33499,0.85297 0.4494,0.17918 48.83527,11.36089 49.275,11.38719 0.28875,0.0173 0.5207,-0.0699 0.51545,-0.19361 z m 761.89612,-4.8 c -0.089,-0.45375 -0.3147,-2.6475 -0.5025,-4.875 -0.1878,-2.2275 -0.4297,-4.35353 -0.5377,-4.72453 l -0.1964,-0.67452 -1.2995,0.64301 c -2.4947,1.23439 -3.6517,4.29534 -2.6324,6.96436 0.7581,1.9848 2.6854,3.48593 4.4808,3.48984 0.7653,0.002 0.833,-0.0793 0.6877,-0.82316 z m 2.4838,0.39033 c 1.0935,-0.56545 2.6693,-2.37046 2.9113,-3.33469 0.3915,-1.55965 -0.038,-3.93519 -0.9197,-5.09165 -0.8217,-1.0773 -2.7843,-2.21919 -3.837,-2.2324 -0.654,-0.008 -0.6613,0.5727 -0.075,5.99341 0.241,2.2275 0.4408,4.28625 0.4441,4.575 0.01,0.6388 0.3725,0.66114 1.4763,0.0903 z m -655.0399,-1.17288 c 3.30355,-1.52346 6.04674,-5.03036 6.72124,-8.59245 0.17184,-0.9075 0.40132,-3.23625 0.50996,-5.175 l 0.19751,-3.525 -0.92959,0 -0.9296,0 0.0193,-2.025 c 0.0106,-1.11375 0.38545,-8.235 0.83293,-15.825 0.74234,-12.5913 0.85889,-13.79635 1.33067,-13.75833 0.28439,0.0229 0.52109,-0.0446 0.526,-0.15 0.005,-0.10542 0.1908,-3.18538 0.4131,-6.84436 0.45754,-7.53108 0.32683,-8.90841 -1.10023,-11.59359 -1.62115,-3.050379 -4.81229,-5.266419 -8.59738,-5.970339 -1.31905,-0.2453 -2.00675,-0.53666 -2.28294,-0.96721 -0.25258,-0.39375 -0.42658,-1.86152 -0.48205,-4.06617 -0.0477,-1.8975 -0.21628,-3.75699 -0.37454,-4.13219 -0.37535,-0.88987 -1.49722,-1.15978 -2.38979,-0.57494 -0.61333,0.40187 -0.74919,0.86345 -1.09138,3.70807 -0.57344,4.76701 -1.08414,5.49906 -3.8363,5.49906 -4.33263,0 -8.64797,3.09055 -10.23387,7.329249 -0.46352,1.23885 -0.68476,2.91442 -0.92106,6.97563 -0.17106,2.93982 -0.3826,6.18887 -0.4701,7.22012 -0.14638,1.72522 -0.11139,1.875 0.43798,1.875 0.54846,0 0.58481,0.15265 0.44653,1.875 -0.21383,2.66347 -1.62689,27.59394 -1.62689,28.70323 0,0.84577 -0.0829,0.92177 -1.00597,0.92177 l -1.00598,0 -0.19402,2.29527 c -0.34052,4.02824 -0.22663,7.40088 0.3031,8.97629 1.40476,4.17771 4.58429,7.08648 8.82892,8.07709 2.35575,0.54978 11.16699,0.98563 13.60443,0.67295 0.97926,-0.12562 2.46426,-0.54374 3.3,-0.92915 z m -3.38917,-18.41198 -1.00869,-0.12351 0.18702,-2.45348 c 0.10286,-1.34941 0.45453,-7.31348 0.7815,-13.25348 0.32696,-5.94 0.67428,-11.64915 0.77183,-12.687 l 0.17736,-1.887 3.04984,0.20234 c 1.67741,0.11129 3.10477,0.25038 3.17191,0.30908 0.0672,0.0587 -0.26175,6.85805 -0.73088,15.10966 l -0.85297,15.00292 -2.26911,-0.048 c -1.24801,-0.0264 -2.72303,-0.10359 -3.27781,-0.17152 z m -6.56631,-0.29763 c -1.36125,-0.0589 -2.47727,-0.20289 -2.48005,-0.31997 -0.0202,-0.85275 1.55479,-27.78963 1.68486,-28.81528 l 0.16518,-1.30241 2.95314,0.10241 c 1.62423,0.0563 3.04709,0.19665 3.16191,0.31182 0.11482,0.11517 -0.17796,6.93267 -0.65063,15.15 l -0.85941,14.94059 -0.75,0.02 c -0.4125,0.011 -1.86375,-0.0282 -3.225,-0.0871 z m -9.3,-0.6025 c -0.70125,-0.0632 -1.27768,-0.20832 -1.28096,-0.32259 -0.0252,-0.8795 1.56685,-28.33019 1.68854,-29.11372 l 0.15623,-1.00597 3.0556,0.21444 c 1.68058,0.11795 3.10036,0.2554 3.15507,0.30545 0.12757,0.1167 -1.43959,28.5683 -1.62309,29.46705 -0.12664,0.62025 -0.28945,0.67075 -2.0071,0.62259 -1.02811,-0.0288 -2.44304,-0.10409 -3.14429,-0.16725 z m -169.274985,6.06535 c 2.3925,-0.24447 4.67625,-0.44476 5.075,-0.44509 0.39875,-3e-4 0.65094,-0.0747 0.56042,-0.16517 -0.36436,-0.36436 -11.83238,-2.83991 -12.45585,-2.68879 -1.06977,0.25929 -1.15492,1.40126 -0.21085,2.82784 0.73051,1.10388 0.91805,1.21922 1.74975,1.07605 0.51234,-0.0882 2.88903,-0.36037 5.28153,-0.60484 z M 562.7538,152.27354 c 0.15741,-0.69397 13.65831,-91.752449 13.65831,-92.120209 0,-0.11263 -53.76507,-0.20479 -119.47794,-0.20479 l -119.47791,0 -11.2245,45.974999 c -6.17346,25.28625 -11.28414,46.21125 -11.35704,46.5 -0.12612,0.49937 5.91831,0.525 123.79668,0.525 l 123.92928,0 0.15312,-0.675 z m -242.72331,-3.75 c 0.0874,-0.28875 4.90581,-19.52625 10.70769,-42.75 l 10.5489,-42.224999 114.86253,0 c 109.68414,0 114.8625,0.0239 114.8625,0.53096 0,0.29203 -2.7,19.4256 -6,42.519039 -3.3,23.09345 -6,42.09201 -6,42.21904 0,0.12703 -53.80659,0.23096 -119.57022,0.23096 -113.7369,0 -119.56245,-0.0256 -119.4114,-0.525 z m 235.38162,-4.85508 c 0,-1.35663 -0.041,-1.42027 -1.31274,-2.03813 l -1.31274,-0.63778 -1.08726,0.73881 c -0.99429,0.67565 -1.08726,0.86108 -1.08726,2.1689 0,1.38499 0.0401,1.44949 1.2717,2.04599 l 1.2717,0.61592 1.1283,-0.74668 c 1.03662,-0.68601 1.1283,-0.86047 1.1283,-2.14703 z m -226.08408,2.26366 c 0.84414,-0.35271 1.02804,-0.61268 1.20174,-1.69898 0.18606,-1.1636 0.11829,-1.3721 -0.73065,-2.24801 -0.87879,-0.90667 -1.00278,-0.94604 -2.0364,-0.64648 -1.54626,0.44814 -1.77654,0.68364 -2.00799,2.05357 -0.17919,1.06058 -0.10146,1.31647 0.63267,2.08273 0.93651,0.9775 1.48953,1.06347 2.94063,0.45717 z m 154.71978,-11.12294 c 8.22003,-1.43643 15.09207,-6.30132 18.2373,-12.91064 2.48274,-5.21717 1.91595,-10.68867 -1.48995,-14.38364 -1.79796,-1.95056 -4.65294,-3.75765 -10.0257,-6.34592 -5.1615,-2.486489 -5.8794,-3.111039 -5.20638,-4.529449 0.2259,-0.47613 0.98472,-1.14357 1.74903,-1.53843 1.21917,-0.62985 1.64073,-0.68387 4.35,-0.55749 2.23254,0.10415 3.80583,0.38765 6.15,1.10821 1.7325,0.53253 3.33597,0.98591 3.56325,1.00749 0.29295,0.0278 0.9666,-2.00888 2.31411,-6.99665 1.0455,-3.86974 1.85331,-7.08344 1.7952,-7.14156 -0.0581,-0.0581 -1.36947,-0.37921 -2.91411,-0.71352 -4.12155,-0.89203 -11.55357,-1.09329 -15.57024,-0.42165 -11.40015,1.90623 -19.2372,8.26896 -20.45211,16.60462 -0.97032,6.657259 2.74671,11.266259 12.91704,16.016689 4.13238,1.93018 5.14686,2.69422 5.14686,3.87629 0,1.37141 -0.51213,2.05871 -2.05065,2.75215 -2.75439,1.24143 -7.97127,0.68403 -14.51943,-1.55134 -1.44105,-0.49194 -2.68077,-0.79624 -2.75493,-0.67623 -0.32709,0.52926 -4.04022,14.254 -3.9123,14.46098 0.19767,0.31984 5.06316,1.43569 8.35548,1.91624 3.79257,0.55357 11.21541,0.56593 14.31753,0.0239 z m -122.55864,-0.873 c 0.087,-0.2268 1.06581,-4.31055 2.17503,-9.075 l 2.01678,-8.66264 8.89677,-0.0794 c 8.14572,-0.0727 8.90955,-0.12338 9.04851,-0.6 0.32802,-1.12515 2.88585,-11.85331 2.88585,-12.10394 0,-0.14948 -3.88839,-0.26663 -8.85,-0.26663 -6.88113,0 -8.84952,-0.0834 -8.8479,-0.375 0,-0.20625 0.27111,-1.5225 0.59988,-2.924999 0.32877,-1.4025 0.66789,-2.85375 0.7536,-3.225 l 0.15585,-0.675 8.62635,0 8.62635,0 1.59612,-6.525 c 0.87783,-3.58875 1.66002,-6.76125 1.73814,-7.05 0.13413,-0.49577 -0.86571,-0.525 -17.95743,-0.525 l -18.09948,0 -5.94654,25.641209 c -3.27057,14.10266 -6.01815,25.91516 -6.10572,26.25 -0.15744,0.6021 -0.0565,0.60879 9.18522,0.60879 7.6503,0 9.37308,-0.0747 9.50262,-0.41236 z m 42.12294,0.22449 c 0,-0.10332 2.7,-11.83128 6,-26.06213 3.3,-14.230839 6,-25.960729 6,-26.066399 0,-0.10568 -4.21212,-0.15647 -9.36027,-0.11287 l -9.36027,0.0793 -6.03831,25.949999 c -3.32106,14.2725 -5.98596,26.05125 -5.922,26.175 0.13953,0.27003 18.68085,0.30689 18.68085,0.0371 z m 26.1,-8.41287 c 1.0725,-4.64792 2.02353,-8.52394 2.11338,-8.61338 0.16818,-0.1674 3.61686,8.32683 5.64918,13.91412 l 1.14579,3.15 10.24584,0.0789 c 6.83592,0.0527 10.24581,-0.0232 10.24581,-0.22798 0,-0.54808 -4.46229,-9.95018 -6.53349,-13.76615 -1.10907,-2.04336 -2.35497,-4.08129 -2.76867,-4.52874 l -0.75213,-0.81354 2.55213,-0.86186 c 10.38372,-3.50659 15.99861,-15.489969 11.54154,-24.632149 -2.31516,-4.74876 -6.98667,-7.22899 -15.47976,-8.21859 -5.4768,-0.63814 -25.30332,0.23061 -26.06385,1.14206 -0.18045,0.21626 -12.02265,51.274239 -12.00441,51.757409 0.005,0.12617 4.09239,0.19367 9.08364,0.15 l 9.075,-0.0794 1.95,-8.45074 z m 4.50873,-19.33096 c 0.0255,-1.22581 2.68161,-11.477869 3.03099,-11.699199 0.59895,-0.37943 4.05039,-0.3261 5.41824,0.0837 1.81818,0.54474 2.64204,1.73323 2.64204,3.81131 0,4.395279 -3.5826,7.653939 -8.853,8.052549 -1.80519,0.13652 -2.24529,0.0877 -2.23827,-0.24837 z m 101.10333,9.3317 4.40739,-18.449999 6.7233,-0.0805 6.72333,-0.0805 1.46514,-7.11954 c 0.8058,-3.91575 1.52667,-7.35579 1.60194,-7.64454 0.12942,-0.49657 -1.0902,-0.525 -22.5249,-0.525 l -22.66173,0 -0.30771,0.975 c -0.24711,0.78298 -3.51588,11.71694 -4.1256,13.8 -0.14331,0.48972 0.33162,0.525 7.06656,0.525 3.97113,0 7.22022,0.0751 7.22022,0.16697 0,0.0918 -1.9575,8.353949 -4.35,18.360249 -2.3925,10.00631 -4.35,18.3031 -4.35,18.43731 0,0.13421 4.20855,0.20835 9.35235,0.16475 l 9.35235,-0.0793 4.40736,-18.45 z m 5.4972,18.18636 c 2.81919,-1.17794 3.14694,-4.93744 0.56931,-6.5305 -2.34864,-1.45154 -5.7801,0.30933 -5.77746,2.96474 0,1.45879 0.95262,3.00114 2.1798,3.53463 1.2357,0.53719 1.80321,0.54303 3.02835,0.0311 z m -2.40216,-0.77737 c -1.6824,-0.69583 -2.17956,-3.3638 -0.87075,-4.67262 0.85404,-0.85404 2.37807,-0.98297 3.37395,-0.28544 0.88968,0.62317 1.39068,2.2444 1.00614,3.25586 -0.34359,0.90368 -0.91644,1.06196 -0.91644,0.25321 0,-0.297 -0.162,-0.702 -0.36,-0.9 -0.27999,-0.28 -0.27999,-0.36 0,-0.36 0.5355,0 0.4359,-1.40667 -0.11454,-1.6179 -0.261,-0.10015 -0.936,-0.1821 -1.5,-0.1821 l -1.02546,0 0,1.95 c 0,1.53334 0.0961,1.95 0.45,1.95 0.27999,0 0.45,-0.28333 0.45,-0.75 0,-0.4407 0.17217,-0.75 0.41748,-0.75 0.22962,0 0.50217,0.3375 0.6057,0.75 0.1074,0.4279 0.40482,0.75 0.69255,0.75 0.70809,0 0.11715,0.51885 -0.81573,0.71622 -0.4125,0.0873 -1.03932,0.039 -1.3929,-0.10723 z m 0.4929,-3.49108 c 0,-0.31636 0.16314,-0.4195 0.47454,-0.3 0.261,0.10015 0.53895,0.18209 0.6177,0.18209 0.0788,0 0.0597,0.135 -0.0422,0.3 -0.29544,0.47801 -1.05,0.34715 -1.05,-0.18209 z m 25.62063,-58.993879 c 0.25521,-1.29592 0.22098,-1.41795 -0.6,-2.13968 -1.00149,-0.88042 -1.54647,-0.94873 -2.93625,-0.36805 -0.85491,0.35721 -1.02324,0.60205 -1.18596,1.725 -0.17742,1.22469 -0.12093,1.36985 0.87996,2.26122 l 1.06956,0.95251 1.25103,-0.52835 c 1.12449,-0.47491 1.27839,-0.66735 1.52166,-1.90265 z m -216.89214,1.7543 c 0.84864,-0.3546 1.04292,-0.62128 1.22118,-1.67641 0.18816,-1.11367 0.1179,-1.35294 -0.62496,-2.12832 -0.93837,-0.97944 -1.48899,-1.0637 -2.9532,-0.45192 -0.84864,0.35459 -1.04292,0.62127 -1.22118,1.6764 -0.18816,1.11367 -0.1179,1.35294 0.62496,2.12832 0.93837,0.97944 1.48899,1.06371 2.9532,0.45193 z M 102.13455,150.54715 c 0.60531,-1.07174 1.33538,-1.99514 1.62237,-2.05202 0.47289,-0.0937 0.50133,0.10036 0.30348,2.07054 -0.19805,1.97205 -0.171,2.15579 0.29123,1.97841 0.28026,-0.10755 0.75018,-0.19554 1.04427,-0.19554 0.36297,0 0.70616,-0.45768 1.06855,-1.425 0.65127,-1.73843 0.56025,-1.62808 1.15473,-1.39996 0.34044,0.13064 0.49294,0.55046 0.49294,1.35706 0,1.07519 0.0655,1.16754 0.825,1.16331 1.10042,-0.006 1.48691,-0.29 1.73373,-1.27341 0.27723,-1.10455 1.01183,-1.04421 1.24105,0.10193 0.15209,0.76044 0.29675,0.89388 0.8175,0.7541 0.348,-0.0934 0.8664,-0.17168 1.152,-0.17393 0.30184,-0.002 0.59811,-0.31815 0.70753,-0.7541 0.2276,-0.90686 0.9084,-0.98428 1.17827,-0.13398 0.16255,0.51214 0.40422,0.60066 1.43326,0.525 1.02768,-0.0756 1.26664,-0.21453 1.40798,-0.81877 0.23804,-1.01766 0.73516,-1.08074 1.16048,-0.14725 0.28061,0.61588 0.50745,0.75106 1.0267,0.61187 0.36657,-0.0983 0.8889,-0.18052 1.16073,-0.18277 0.36279,-0.003 0.48247,-0.2549 0.45,-0.94713 -0.0596,-1.27011 0.5845,-1.41864 1.23043,-0.28375 0.44387,0.77985 0.70499,0.92329 1.68372,0.92489 l 1.15839,0.002 -0.22017,-1.125 c -0.33379,-1.70561 -0.32686,-1.94972 0.0592,-2.08632 0.1957,-0.0693 0.8707,0.54232 1.5,1.35903 1.01787,1.321 1.24353,1.46732 2.04418,1.32551 0.495,-0.0877 0.93494,-0.18621 0.97765,-0.21897 0.0427,-0.0328 -0.33872,-0.97785 -0.84762,-2.10022 -0.73266,-1.61584 -0.84251,-2.09201 -0.52766,-2.28736 0.27189,-0.16869 0.93147,0.28112 2.08574,1.42241 1.09633,1.084 1.88387,1.63142 2.24655,1.56157 0.89643,-0.17263 0.81016,-0.92048 -0.3233,-2.80279 -1.75129,-2.90831 -1.35417,-3.42987 1.12812,-1.48162 3.00637,2.3596 4.14689,1.51295 1.86851,-1.38707 -1.81744,-2.3133 -1.68877,-3.01282 0.36075,-1.96133 0.78719,0.40386 1.6906,0.92889 2.00757,1.16672 0.31697,0.23784 0.82322,0.36786 1.125,0.28894 0.9748,-0.25491 0.60337,-1.34926 -1.0137,-2.98668 -1.15715,-1.1717 -1.47487,-1.66956 -1.22496,-1.91947 0.24991,-0.24992 0.89212,-0.0818 2.47599,0.64829 1.89546,0.87367 2.18943,0.93486 2.58598,0.5383 0.65772,-0.65771 0.29781,-1.22502 -1.69144,-2.66613 -0.98075,-0.7104 -1.78318,-1.40756 -1.78318,-1.54914 0,-0.57899 1.00625,-0.56474 3.00565,0.0426 2.28591,0.69432 2.69808,0.63698 2.6874,-0.37384 -0.005,-0.49818 -0.51361,-0.94228 -2.1,-1.83457 -1.15118,-0.6475 -2.09305,-1.29299 -2.09305,-1.43442 0,-0.51566 0.98857,-0.61233 2.94565,-0.28803 1.63915,0.27162 2.07659,0.25605 2.41872,-0.0861 0.70425,-0.70425 0.17342,-1.25711 -2.04131,-2.12603 -1.5609,-0.6124 -2.12306,-0.97928 -2.12306,-1.38556 0,-0.49363 0.27317,-0.55261 2.55941,-0.55261 2.0542,0 2.59526,-0.0934 2.74103,-0.47326 0.28367,-0.73924 -0.46879,-1.20968 -2.84051,-1.7759 -1.70367,-0.40673 -2.16943,-0.63145 -2.09715,-1.01184 0.0704,-0.37064 0.66539,-0.56161 2.45818,-0.789 1.67856,-0.2129 2.45967,-0.45002 2.69041,-0.81674 0.48966,-0.77821 9e-4,-1.05277 -2.47749,-1.39209 -3.64165,-0.49855 -3.63077,-1.1097 0.0358,-2.00823 2.21207,-0.5421 2.46607,-0.73272 2.1795,-1.63562 -0.16972,-0.53475 -0.45688,-0.59732 -2.74136,-0.59732 -2.18935,0 -2.538,-0.0688 -2.45478,-0.48464 0.0567,-0.28308 0.9704,-0.8297 2.197,-1.31427 1.57732,-0.62313 2.1239,-0.98819 2.19604,-1.4667 0.13418,-0.8901 -0.44765,-1.0208 -2.98123,-0.6697 -1.65629,0.22953 -2.25278,0.21658 -2.41909,-0.0525 -0.29263,-0.47348 0.0234,-0.75417 2.07686,-1.84476 1.2103,-0.64278 1.75617,-1.11989 1.82346,-1.59376 0.14086,-0.99197 -0.48798,-1.07499 -2.95807,-0.39049 -1.71826,0.47615 -2.25968,0.52901 -2.44888,0.23907 -0.25157,-0.3855 0.95752,-1.60862 2.51453,-2.54372 0.88262,-0.53007 1.20971,-1.29063 0.82368,-1.91523 -0.25873,-0.41864 -0.92195,-0.24036 -3.95909,1.06427 -1.03692,0.44541 -1.14724,0.44587 -1.31623,0.005 -0.12408,-0.32334 0.32004,-0.99151 1.35678,-2.0413 2.58935,-2.621919 1.87825,-3.612889 -1.31222,-1.82868 -2.75002,1.5379 -3.15006,1.0901 -1.2323,-1.379409 2.32038,-2.988 1.37221,-3.9556 -1.59319,-1.62585 -1.59889,1.25616 -2.42105,1.50765 -2.42105,0.74056 0,-0.14642 0.49177,-1.10531 1.09283,-2.13086 0.83268,-1.42075 1.0196,-1.97805 0.78521,-2.34107 -0.47461,-0.73506 -1.15453,-0.43278 -2.66945,1.18679 -1.32149,1.41278 -1.99447,1.77593 -2.31876,1.25122 -0.0801,-0.12955 0.24947,-1.17191 0.7323,-2.31635 1.00296,-2.37729 1.05212,-2.71704 0.42787,-2.95659 -0.7242,-0.2779 -1.12419,0.0283 -2.48936,1.90559 -0.84974,1.1685 -1.4379,1.71605 -1.725,1.60588 -0.55694,-0.21372 -0.55393,-0.25682 0.18535,-2.65032 0.69908,-2.26335 0.61432,-2.85266 -0.4103,-2.85266 -0.55105,0 -0.85627,0.31609 -1.37599,1.425 -0.9366,1.99837 -1.60386,2.8099 -2.0703,2.51789 -0.30738,-0.19243 -0.31738,-0.68102 -0.0493,-2.40883 0.38491,-2.4808 0.24911,-3.11637 -0.63674,-2.9801 -0.45896,0.0706 -0.86426,0.67212 -1.5302,2.27104 -1.25116,3.00423 -1.74818,2.90336 -1.74818,-0.35452 0,-2.30672 -0.0556,-2.54742 -0.6302,-2.7298 -0.8754,-0.27784 -1.0844,0.0249 -1.73921,2.51899 -0.31525,1.20075 -0.62375,2.23375 -0.68557,2.29557 -0.40709,0.40708 -0.91868,-0.66174 -1.16434,-2.43251 -0.37562,-2.70754 -0.45469,-2.88206 -1.25434,-2.76851 -0.60509,0.0859 -0.70795,0.34348 -0.97634,2.44465 -0.20966,1.64133 -0.44858,2.431 -0.79337,2.62221 -0.42118,0.23356 -0.56924,-0.0443 -1.01185,-1.89861 -0.59658,-2.49945 -1.09307,-3.22792 -1.86718,-2.73962 -0.42706,0.26938 -0.49588,0.725 -0.41839,2.76991 0.0847,2.2346 0.0433,2.4475 -0.47554,2.4475 -0.42406,0 -0.79291,-0.55198 -1.4534,-2.175 -0.76561,-1.88132 -0.98606,-2.175 -1.6327,-2.175 -0.84148,0 -0.86827,0.18738 -0.47657,3.33345 0.18401,1.47797 0.1437,1.8659 -0.20789,2.00082 -0.30315,0.11633 -0.79094,-0.46352 -1.59963,-1.90151 -0.88055,-1.56576 -1.32332,-2.07056 -1.82078,-2.07581 -1.005985,-0.0106 -1.072835,0.41164 -0.406635,2.56855 0.725225,2.34802 0.749805,2.70817 0.199285,2.91942 -0.260265,0.0999 -0.889385,-0.49619 -1.689815,-1.60108 -1.42313,-1.96445 -1.99334,-2.3246 -2.64641,-1.67153 -0.39248,0.39248 -0.33165,0.69643 0.52098,2.6033 1.30522,2.91907 0.88968,3.34502 -1.24749,1.27872 -1.87477,-1.8126 -2.49923,-2.09543 -2.91425,-1.31995 -0.23725,0.44331 -0.0507,0.98996 0.88293,2.58769 1.71998,2.94333 1.22382,3.3548 -1.42039,1.17793 -2.94064,-2.42089 -3.86165,-1.22855 -1.43715,1.86052 1.94708,2.480779 1.44651,2.869469 -1.44781,1.124239 -0.97023,-0.585039 -1.98118,-1.021889 -2.24655,-0.970789 -1.04368,0.201 -0.7003,1.207079 0.99757,2.922859 1.32601,1.33999 1.61,1.78252 1.3041,2.03207 -0.28663,0.23384 -0.92924,0.0774 -2.4065,-0.5857 -1.10849,-0.4976 -2.22224,-0.82537 -2.475,-0.72838 -0.92394,0.35455 -0.45139,1.30525 1.34044,2.69673 2.6977,2.09496 2.42501,2.59969 -0.90585,1.67667 -2.38749,-0.66161 -2.99415,-0.60355 -2.99415,0.28655 0,0.40601 0.58934,0.91317 1.93681,1.66672 3.19399,1.78618 3.01943,2.40245 -0.53845,1.90084 -1.96181,-0.27659 -2.39688,-0.26117 -2.62462,0.0931 -0.52924,0.82318 -0.10042,1.23489 2.21686,2.12844 1.34352,0.51806 2.29173,1.05028 2.22586,1.24935 -0.071,0.21467 -1.04711,0.38 -2.56151,0.43389 -1.97296,0.0702 -2.50159,0.18952 -2.72992,0.61616 -0.45065,0.84204 -0.0147,1.16615 2.37876,1.76867 1.50533,0.37894 2.27542,0.72246 2.33705,1.0425 0.094,0.48782 -0.0679,0.533 -3.63224,1.0141 -1.33921,0.18076 -1.43493,0.25045 -1.35,0.98302 0.0868,0.74847 0.21303,0.8037 2.48855,1.08848 1.783,0.22314 2.42014,0.42106 2.48689,0.77251 0.0659,0.347 -0.39036,0.60599 -1.71762,0.975 -0.99405,0.27637 -1.9849,0.50249 -2.20189,0.50249 -0.62263,0 -1.059,0.59753 -0.89484,1.2253 0.13281,0.50787 0.43902,0.5747 2.6332,0.5747 1.97269,0 2.51982,0.0962 2.6625,0.46799 0.17862,0.46548 -0.20797,0.69136 -3.49039,2.03938 -1.16429,0.47815 -1.42217,1.07254 -0.71865,1.65641 0.2908,0.24134 0.85699,0.25179 1.99095,0.0367 3.88187,-0.73619 4.3974,-0.002 1.20779,1.71889 -2.07674,1.12079 -2.52697,1.757 -1.71831,2.42813 0.28,0.23238 0.94336,0.15112 2.40271,-0.29433 3.36591,-1.02739 3.84787,-0.33493 1.11051,1.59551 -1.28817,0.90845 -1.8,1.46084 -1.8,1.94264 0,1.10217 0.51463,1.11533 2.88467,0.0738 1.90555,-0.83743 2.29676,-0.92259 2.53836,-0.55257 0.21634,0.33134 -0.1156,0.81625 -1.36871,1.99941 -2.78779,2.63218 -1.91644,3.82717 1.35563,1.85916 1.41021,-0.84818 2.00769,-1.06398 2.29217,-0.82788 0.30164,0.25034 0.0945,0.69658 -0.95867,2.06525 -2.24715,2.92035 -1.4272,4.08801 1.32565,1.88782 0.75949,-0.60702 1.53173,-1.21618 1.71609,-1.3537 0.19425,-0.14489 0.47306,-0.0839 0.66304,0.145 0.24734,0.29802 0.0461,0.86344 -0.81937,2.30242 -1.96115,3.26067 -0.94706,4.04892 1.76244,1.36994 1.14168,-1.12883 1.78365,-1.5625 2.05957,-1.39131 0.31999,0.19853 0.20924,0.70905 -0.54885,2.53007 -0.99961,2.40118 -0.98376,2.9068 0.0907,2.89251 0.45275,-0.006 1.06196,-0.56618 1.95764,-1.8 1.962085,-2.70282 2.513535,-2.33361 1.573185,1.0533 -0.425725,1.53338 -0.494085,2.19994 -0.255115,2.48787 0.593305,0.7149 1.239995,0.2386 2.354015,-1.73382 z m 6.42757,-12.56662 c -6.22169,-1.8156 -10.976385,-6.70121 -12.610745,-12.95796 -0.68411,-2.61891 -0.46571,-7.47792 0.45354,-10.09086 1.88702,-5.36374 6.511395,-9.6865 12.157205,-11.36426 2.41695,-0.71824 6.88305,-0.71824 9.3,0 8.98594,2.67035 14.53584,11.32876 12.94468,20.19505 -0.69014,3.84556 -2.19237,6.65117 -5.11287,9.54891 -2.61575,2.59536 -4.88793,3.9296 -8.1302,4.77411 -2.36832,0.61687 -6.70112,0.56633 -9.00161,-0.10499 z m 8.7,-2.54039 c 9.19072,-2.45873 13.84187,-12.9308 9.55186,-21.50603 -3.6764,-7.34869 -12.59991,-10.38634 -20.11136,-6.84612 -5.235,2.46731 -8.568935,7.77249 -8.553295,13.61055 0.0184,6.8625 4.098475,12.52327 10.502105,14.57076 2.07703,0.66411 6.44304,0.75073 8.61069,0.17084 z m -5.76909,-4.70781 c -2.15109,-0.42456 -3.92735,-1.3888 -5.46341,-2.96582 -3.91404,-4.0184 -3.77049,-10.44784 0.31867,-14.27277 2.14246,-2.00402 3.77949,-2.64074 6.86383,-2.66964 3.1574,-0.0296 4.84204,0.6546 7.1092,2.88726 2.13394,2.10148 2.90064,3.93481 2.92204,6.98718 0.0143,2.03297 -0.11541,2.68663 -0.84784,4.27425 -0.93047,2.01689 -2.67285,3.85005 -4.5881,4.82713 -0.97554,0.49769 -4.30086,1.32691 -4.8754,1.21575 -0.0935,-0.0181 -0.74099,-0.14558 -1.43899,-0.28334 z m 5.16654,-5.34325 c 1.88027,-1.2805 2.59582,-2.78011 2.48055,-5.19863 -0.0813,-1.70469 -0.23297,-2.18062 -1.00424,-3.15 -0.87772,-1.10317 -3.28517,-2.61298 -3.72905,-2.33864 -0.11936,0.0738 -0.30553,1.92571 -0.41371,4.11543 -0.10818,2.18971 -0.27794,4.83958 -0.37725,5.88857 l -0.18056,1.90728 1.0134,-0.20426 c 0.55737,-0.11234 1.55226,-0.57123 2.21086,-1.01975 z m -3.84797,-4.91554 c 0.16861,-3.17625 0.26107,-5.83038 0.20548,-5.89806 -0.27977,-0.34059 -2.68402,0.73639 -3.70688,1.66048 -1.42667,1.28891 -1.90447,2.63872 -1.73982,4.91504 0.0954,1.31897 0.32928,2.00569 0.96851,2.84375 0.96119,1.26019 2.43235,2.25102 3.34469,2.25267 0.59653,10e-4 0.63375,-0.2305 0.92802,-5.77388 z m 44.79245,18.88008 c 0.004,-0.13471 -0.36219,-0.20221 -0.81472,-0.15 -1.01565,0.11717 -1.92236,1.64127 -1.23603,2.07764 0.2852,0.18133 0.65585,-0.0338 1.22575,-0.71139 0.44931,-0.53423 0.82056,-1.08154 0.825,-1.21625 z M 175.01212,21.548061 c 42.29845,-1.16928 82.44082,-4.14498 109.36514,-8.10708 6.09541,-0.89699 13.59132,-2.2489 13.83819,-2.49577 0.26499,-0.26499 -10.43678,-1.6780707 -18.35334,-2.4234107 -37.64521,-3.54429 -91.76236,-4.00249 -142.64999,-1.20781 -36.16753,1.98628 -61.758115,4.6055507 -85.442845,8.7453107 -0.54607,0.0954 -0.88357,0.27812 -0.75,0.40595 0.13357,0.12782 2.87535,0.58142 6.09285,1.00799 15.62282,2.07126 38.55006,3.53446 65.399995,4.17376 9.24687,0.22017 43.27614,0.15604 52.5,-0.0989 z m 57.94267,308.665659 c -4.85469,-0.27798 -6.05431,-0.66891 -7.16371,-2.33454 -0.45543,-0.68376 -0.68095,-1.4739 -0.68501,-2.4 -0.008,-1.75542 1.84998,-34.34731 1.96518,-34.47812 0.0472,-0.0536 1.72454,0.18083 3.72739,0.52099 11.62242,1.97398 22.204,0.52263 32.63412,-4.47605 8.99003,-4.30851 16.10574,-10.52308 21.60504,-18.86895 1.26064,-1.91318 2.30516,-3.50685 2.32118,-3.54149 0.0394,-0.0852 20.5234,1.06445 22.85749,1.28283 l 1.85433,0.17349 -1.0473,2.45333 c -1.6314,3.82159 -4.60515,9.36032 -6.79356,12.65334 -3.03957,4.57375 -5.64705,7.72025 -9.94806,12.0045 -5.72137,5.6991 -11.59489,9.97506 -19.06977,13.88292 l -2.85,1.48998 -0.35647,6.2613 c -0.42219,7.4157 -0.7151,9.03237 -1.82992,10.10019 -1.12263,1.07526 -2.39389,1.55499 -7.33943,2.76951 -5.52475,1.35675 -11.08041,2.15457 -17.62418,2.53095 -5.77255,0.33198 -6.0459,0.33144 -12.25732,-0.0243 z m 8.19286,-17.16915 0.21138,-3.55401 -0.99846,0.201 c -2.5935,0.52203 -4.74846,3.16593 -4.74846,5.82585 0,2.50278 1.86936,5.09811 4.1055,5.69985 l 0.8445,0.22728 0.18708,-2.42301 c 0.10289,-1.33263 0.2822,-4.02228 0.39846,-5.97696 z m 2.71704,7.94448 c 3.97154,-1.80423 4.86214,-6.74271 1.74921,-9.6996 -0.71599,-0.68007 -3.04589,-1.92435 -3.12697,-1.66992 -0.0139,0.0435 -0.18351,2.74527 -0.37702,6.00402 -0.39446,6.64308 -0.48023,6.38085 1.75478,5.3655 z m 32.95966,-4.19502 c 0.0996,-0.60252 0.1828,-1.97298 0.1848,-3.04548 l 0.004,-1.95 2.89165,-1.61208 c 14.20306,-7.91811 25.80751,-19.92178 33.08383,-34.22198 2.48715,-4.88796 4.82385,-10.62168 4.82385,-11.83652 0,-2.79853 0.28377,-2.7338 -15.94425,-3.63693 -7.64817,-0.42564 -14.33515,-0.83868 -14.85996,-0.91788 l -0.9542,-0.144 0.72835,-1.64693 c 1.00123,-2.26397 2.39103,-7.03915 2.85861,-9.82188 0.38409,-2.28584 0.61467,-2.69285 1.08154,-1.90903 0.51669,0.86747 2.15661,1.47199 13.88991,5.12018 6.6825,2.07777 13.2975,4.18079 14.7,4.67339 3.02589,1.06278 4.1853,1.11893 5.68617,0.27538 2.27955,-1.28117 2.63898,-2.86447 1.97676,-8.7072 -1.18824,-10.4836 -3.9663,-20.49565 -8.12967,-29.29909 l -1.60065,-3.38457 3.50871,-1.66806 c 13.98588,-6.64899 19.88772,-8.64905 25.40868,-8.61069 3.27738,0.0228 5.15271,0.66055 8.13999,2.76828 8.31231,5.8649 12.85647,16.23018 12.31017,28.07961 -0.42078,9.127 -3.59094,18.23123 -10.06299,28.89927 -12.72813,20.98009 -29.53683,35.78316 -51.48717,45.34365 -6.86793,2.99133 -18.44995,6.50802 -26.05946,7.91253 l -2.35946,0.43548 0.18116,-1.09545 z m -38.712,-32.20402 c 0.10007,-0.39869 0.46592,-1.36688 0.81301,-2.15153 0.51918,-1.1737 0.70692,-1.36367 1.05891,-1.07155 0.23531,0.1953 0.42784,0.85763 0.42784,1.47185 0,1.19373 -0.53892,1.88268 -1.76585,2.25747 -0.64366,0.19661 -0.6975,0.14556 -0.53391,-0.50624 z m -1.6885,-0.54436 c -0.28146,-0.40183 -0.51174,-0.95236 -0.51174,-1.2234 0,-0.82746 1.18499,-2.0737 1.97178,-2.0737 0.89391,0 0.89226,0.0295 -0.12481,2.23885 l -0.82349,1.78885 -0.51174,-0.7306 z m 22.64056,-4.29144 c -0.76702,-0.81645 -0.83818,-1.90677 -0.18529,-2.83891 0.66597,-0.95081 0.98016,-0.82915 1.18347,0.45825 0.48045,3.04231 0.48115,3.075 0.0654,3.075 -0.22621,0 -0.70483,-0.31245 -1.06359,-0.69434 z m 2.2544,-0.0689 c -0.71503,-3.7719 -0.5372,-4.3945 0.85694,-3.00036 0.92917,0.92917 0.93746,1.99639 0.0238,3.05863 l -0.71261,0.82846 -0.16809,-0.88673 z m -45.5983,-1.84104 c -0.29788,-0.0803 -0.50038,-0.25503 -0.45,-0.3882 0.10475,-0.27687 3.1416,-2.70748 3.38278,-2.70748 0.0874,0 0.15883,0.39004 0.15883,0.86676 0,1.54359 -1.53348,2.64917 -3.09161,2.22892 z m 18.5416,-0.23459 c -5.72536,-1.04899 -11.85525,-3.58021 -16.19999,-6.6895 -12.77985,-9.14579 -18.8743,-24.64043 -15.74041,-40.01867 1.1117,-5.4552 3.7064,-11.27929 6.93241,-15.56053 2.18136,-2.89487 6.75038,-7.27814 9.44115,-9.0573 4.52593,-2.9926 10.35607,-5.36506 15.41684,-6.27359 1.26199,-0.22655 4.29191,-0.40168 6.9,-0.39881 6.91591,0.008 11.9399,1.23302 18.04404,4.4012 10.79001,5.60022 18.43293,16.10059 20.53982,28.21904 0.66451,3.82207 0.43266,11.93896 -0.43976,15.39588 -0.87977,3.48604 -1.76,5.9318 -3.12078,8.67119 -5.55163,11.17597 -16.23568,19.14524 -28.53761,21.2863 -3.21983,0.56038 -10.24066,0.57354 -13.23571,0.0248 z m 12.52268,-5.69615 c 12.8174,-2.28529 23.26339,-12.00201 26.62364,-24.76494 0.49008,-1.86144 0.71292,-3.75061 0.82526,-6.99627 0.17524,-5.06337 -0.15226,-7.71727 -1.43807,-11.65333 -0.75383,-2.30758 -2.51793,-6.2504 -2.79657,-6.2504 -0.0574,0 0.16341,1.04625 0.49077,2.325 0.73258,2.86167 0.8905,10.58521 0.27451,13.425 -0.50787,2.34129 -2.04779,6.99239 -2.63215,7.95 l -0.45767,0.75 0.16682,-0.75 c 0.94903,-4.26672 0.96998,-10.49017 0.0469,-13.95 -1.7092,-6.40672 -5.83792,-12.38146 -11.02652,-15.95665 -2.84114,-1.95769 -4.62651,-2.84276 -7.66826,-3.80147 -15.36728,-4.84351 -31.71299,4.40368 -35.52079,20.09502 -0.90521,3.73022 -0.90852,9.14485 -0.008,12.81999 1.89313,7.72468 6.15638,13.50238 13.09724,17.7498 1.96366,1.20166 1.44767,1.14779 -1.80263,-0.18818 -6.18818,-2.54353 -11.81606,-7.29118 -15.41291,-13.00225 -0.51374,-0.81609 -0.93424,-1.41098 -0.93424,-1.322 0,0.57828 1.36707,3.93549 2.45349,6.02518 4.74765,9.13201 13.57863,15.64472 23.70003,17.47843 2.90231,0.52581 9.11618,0.53462 12.01915,0.017 z m -32.47267,3.92547 c 0,-1.17872 1.09407,-2.29045 2.25406,-2.29045 0.55579,0 1.08658,0.12305 1.17953,0.27345 0.16962,0.27445 -2.6838,2.72655 -3.17278,2.72655 -0.14345,0 -0.26081,-0.3193 -0.26081,-0.70955 z m 62.49461,-10.69255 c -1.10917,-0.44689 -1.67949,-2.22664 -1.03775,-3.23838 0.17765,-0.28008 0.61065,0.0903 1.53153,1.30997 1.00776,1.33478 1.19544,1.75645 0.87273,1.96088 -0.48726,0.30867 -0.52187,0.30785 -1.36651,-0.0325 z m 1.13427,-2.4695 c -0.92454,-1.21244 -1.10449,-1.62417 -0.78741,-1.80161 0.60271,-0.3373 1.85328,0.23369 2.42591,1.10763 0.50633,0.77276 0.40127,2.26558 -0.15944,2.26558 -0.15435,0 -0.81992,-0.70722 -1.47906,-1.5716 z m -77.61215,-2.02232 c -0.65559,-0.26489 -1.15067,-1.096 -0.77863,-1.3071 0.11654,-0.0661 1.05565,-0.21216 2.0869,-0.32451 2.13982,-0.23312 2.49522,0.19411 1.08454,1.30375 -0.84338,0.6634 -1.38032,0.73698 -2.39281,0.32786 z m -1.09655,-2.73328 c 0.38039,-1.45458 2.61163,-1.94099 3.73778,-0.81483 l 0.65798,0.65797 -0.73298,0.19363 c -0.40313,0.10649 -1.42695,0.2748 -2.27517,0.37401 -1.42864,0.1671 -1.53081,0.13685 -1.38761,-0.41078 z m 122.02981,-5.56587 c -0.99,-0.40703 -7.5375,-2.53512 -14.55,-4.72909 l -12.75,-3.98904 -0.0719,-1.0194 c -0.61032,-8.65726 -1.2934,-12.66797 -3.06049,-17.9694 -7.17171,-21.51579 -26.04899,-36.44105 -48.77977,-38.56755 l -2.11214,-0.19759 0.10091,-1.99243 c 0.14204,-2.80409 0.27592,-3.24638 1.04509,-3.45249 1.33357,-0.35734 12.02469,-0.18161 16.30631,0.26802 35.67203,3.7461 60.0323,27.7366 65.18141,64.19204 0.80757,5.71747 1.03575,8.25505 0.73944,8.22349 -0.13689,-0.0146 -1.05888,-0.35953 -2.04888,-0.76656 z m -12.15876,-15.25241 c 1.00371,-0.51904 1.93599,-1.75202 2.22354,-2.94077 0.27777,-1.14826 -0.26235,-2.96597 -1.12104,-3.77266 l -0.71298,-0.66982 -2.00292,3.62272 c -1.1016,1.9925 -1.9218,3.75397 -1.82268,3.91437 0.27525,0.44536 2.46714,0.34723 3.43608,-0.15384 z m -2.24952,-4.06158 c 1.04466,-1.89362 1.83717,-3.54419 1.76112,-3.66794 -0.0761,-0.12375 -0.75561,-0.225 -1.51014,-0.225 -2.68608,0 -4.51242,2.04292 -4.21167,4.71114 0.14529,1.28912 1.21704,2.90616 1.79784,2.71256 0.1449,-0.0483 1.11819,-1.63714 2.16285,-3.53076 z m -23.54172,9.90706 c -0.554,-0.55401 -0.88385,-2.31035 -0.375,-1.99675 0.12375,0.0763 1.035,0.49821 2.025,0.93766 1.68931,0.74986 1.76419,0.82544 1.21766,1.22904 -0.82785,0.61135 -2.16564,0.53207 -2.86766,-0.16995 z m 1.54177,-2.03935 -1.90823,-0.78131 0.66647,-0.53967 c 1.29536,-1.04892 3.06665,-0.36724 3.46972,1.33533 0.23264,0.98265 0.20668,0.98249 -2.22796,-0.0143 z m -89.68947,-3.15499 c -0.35876,-0.38188 -0.65229,-0.97928 -0.65229,-1.32754 0,-0.62777 0.0161,-0.62644 1.875,0.15478 2.31734,0.9739 2.18337,0.86479 1.73101,1.40984 -0.58194,0.70121 -2.19379,0.57183 -2.95372,-0.23708 z m 1.48947,-1.94501 -1.90823,-0.78131 0.66647,-0.53967 c 0.92339,-0.74772 1.99267,-0.67427 2.86363,0.19669 0.6805,0.68049 1.02966,2.00146 0.51137,1.93462 -0.12375,-0.016 -1.08371,-0.38061 -2.13324,-0.81033 z m 82.55074,-14.81241 c -0.5749,-0.28357 -1.1574,-1.10529 -0.92457,-1.30424 0.0451,-0.0386 0.99331,-0.16499 2.10706,-0.28094 1.65103,-0.17189 2.025,-0.13189 2.025,0.21656 0,1.07177 -2.04247,1.94328 -3.20749,1.36862 z m -1.29251,-2.35905 c 0,-0.11455 0.2798,-0.56399 0.62178,-0.99874 0.80235,-1.02002 2.38496,-1.08372 3.33447,-0.1342 0.36094,0.36093 0.52969,0.69313 0.375,0.73821 -0.87602,0.25532 -4.33125,0.57021 -4.33125,0.39473 z m -75.4256,-2.4236 c -0.65091,-0.51201 -0.78894,-0.84034 -0.71545,-1.70181 0.0501,-0.58707 0.22606,-1.10591 0.39106,-1.15297 0.29679,-0.0846 2.10783,2.16963 2.44141,3.03894 0.266,0.69316 -1.1593,0.56918 -2.11702,-0.18416 z m 1.67144,-1.99059 -1.26947,-1.725 0.78121,-0.0968 c 1.00032,-0.12395 2.18114,0.64815 2.41475,1.57894 0.1947,0.77572 -0.0688,1.96786 -0.43488,1.96786 -0.12217,0 -0.7934,-0.77625 -1.49161,-1.725 z m 59.95416,-10.28669 c -0.46741,-0.31421 -0.0239,-0.81029 2.15323,-2.40852 0.78562,-0.57672 0.80718,-0.57714 0.98427,-0.0192 0.50646,1.5957 -1.76295,3.3517 -3.1375,2.42771 z m -1.2,-2.08832 c 0,-1.1277 0.94102,-2.10144 2.025,-2.0954 1.69428,0.009 1.68274,0.44198 -0.0466,1.74767 -0.90893,0.68626 -1.72589,1.24773 -1.81547,1.24773 -0.0896,0 -0.16288,-0.405 -0.16288,-0.9 z m -43.49999,-0.9 c -0.76607,-0.76606 -0.79365,-2.43176 -0.0514,-3.1035 0.30174,-0.27307 0.62657,-0.4965 0.72185,-0.4965 0.0953,0 0.26316,0.70875 0.37308,1.575 0.10991,0.86625 0.26668,1.81125 0.34836,2.1 0.2054,0.72607 -0.63619,0.68073 -1.39191,-0.075 z m 2.33505,0.42424 c -0.0887,-0.15083 -0.25629,-1.18759 -0.37251,-2.30391 l -0.2113,-2.02968 0.74129,0.33776 c 0.73058,0.33287 1.40747,1.40004 1.40747,2.21898 0,0.57094 -1.36366,2.11925 -1.56495,1.77685 z m 21.70444,-5.74924 c 0.34,-0.78375 0.75028,-1.7625 0.91175,-2.175 0.28529,-0.72882 0.30565,-0.73356 0.72116,-0.16766 0.70887,0.96542 0.53921,2.43632 -0.36286,3.14589 -0.43475,0.34198 -1.03746,0.62177 -1.33934,0.62177 -0.52212,0 -0.51874,-0.0695 0.0693,-1.425 z m -2.14692,0.0555 c -0.4415,-1.16123 -0.36241,-1.5879 0.44379,-2.3941 0.62008,-0.62009 1.96363,-1.03482 1.96363,-0.60614 0,0.44746 -1.62744,3.76977 -1.84663,3.76977 -0.14752,0 -0.39987,-0.34628 -0.56079,-0.76953 z m 670.7275,-65.6556 c -0.7864,-0.21154 -1.4789,-0.43867 -1.539,-0.50475 -0.06,-0.0661 -1.7505,-2.80228 -3.7567,-6.08044 -3.6158,-5.9083 -3.6446,-5.9698 -3.2993,-7.05 0.7239,-2.26438 2.7337,-5.67696 4.2532,-7.22177 2.3099,-2.34846 4.3299,-3.18918 9.0432,-3.76382 7.1486,-0.87154 12.6361,-2.35368 17.8384,-4.81806 1.5513,-0.734829 2.8699,-1.336059 2.9303,-1.336059 0.4624,0 -0.5585,6.908289 -1.6971,11.484089 -1.6515,6.63704 -4.3291,11.83497 -7.6689,14.88728 -1.8623,1.70212 -5.6666,3.69275 -8.3622,4.37565 -2.1472,0.54397 -5.7746,0.55704 -7.7419,0.0279 z m -71.32009,-8.14952 c -7.8495,-0.86797 -14.124,-3.50496 -19.71063,-8.28379 -7.41786,-6.34532 -11.79228,-15.889429 -11.78817,-25.719449 0.007,-16.92593 12.31749,-31.25956 29.00775,-33.7753 4.99491,-0.75288 9.79692,-0.41578 15.09105,1.05941 2.56956,0.716 6.72717,2.64287 7.72137,3.57853 0.91506,0.86116 1.17042,2.04634 0.64326,2.98552 -0.29157,0.51949 -4.07625,2.86295 -11.89614,7.36607 l -11.46849,6.60421 0,8.4539 0,8.45389 7.33083,4.07582 c 4.03197,2.2417 7.38909,4.075809 7.46028,4.075809 0.0712,0 3.96108,-2.309909 8.64417,-5.133149 10.6305,-6.40866 12.86766,-7.56494 13.88682,-7.17745 0.41058,0.1561 0.97431,0.63146 1.25271,1.05635 1.54938,2.36466 -1.98585,13.022529 -6.13539,18.496759 -5.19612,6.85492 -12.59463,11.55777 -20.8965,13.28283 -2.2137,0.45999 -7.3569,0.79753 -9.14292,0.60004 z m -127.95,-12.0281 c -13.40558,-0.84521 -20.0696,-1.64374 -22.03682,-2.6406 -2.5539,-1.29416 -4.67115,-4.24339 -6.32514,-8.810559 -0.37923,-1.04713 -0.83541,-1.94773 -1.01376,-2.00133 -0.17835,-0.0536 -1.47177,-0.17938 -2.87427,-0.27951 l -2.55,-0.18205 -0.0305,2.63338 c -0.0444,3.829979 -1.14957,6.121399 -1.95735,4.058389 -0.35943,-0.91797 -0.16344,-4.906399 0.30114,-6.128319 0.22308,-0.58678 0.17865,-0.87619 -0.19128,-1.24614 -0.44247,-0.44248 -0.44061,-0.52746 0.0231,-1.03982 0.3774,-0.41701 0.50538,-1.1204 0.50664,-2.78434 0.003,-3.40413 0.79839,-5.78175 1.68813,-5.04335 0.49194,0.40829 0.57045,4.66213 0.11532,6.24908 -0.16218,0.56549 -0.24246,1.08055 -0.17844,1.14459 0.30705,0.30704 4.67304,0.5291 4.66974,0.2375 -0.003,-0.17281 -0.21156,-1.0567 -0.46578,-1.9642 -0.25425,-0.9075 -0.5085,-2.64702 -0.56502,-3.86561 l -0.10278,-2.21561 -3.74778,-1.71205 c -6.38583,-2.91718 -12.50991,-6.75615 -16.79565,-10.52861 l -1.80456,-1.58844 -0.58698,0.73016 c -0.32283,0.40159 -1.88994,2.25115 -3.48243,4.11013 -2.54553,2.97149 -3.17301,3.52444 -5.19204,4.57541 -2.06595,1.07537 -10.42368,4.49462 -10.9863,4.49462 -0.16866,0 0.31944,-7.77938 0.50106,-7.98625 0.0174,-0.0199 0.86025,-0.12998 1.87278,-0.24453 3.86406,-0.43717 7.275,-2.56017 8.63844,-5.37665 0.66534,-1.37439 1.4484,-7.6036 1.00635,-8.00531 -0.12966,-0.11783 -1.4277,-0.30607 -2.88453,-0.41833 l -2.64879,-0.20409 0.19869,1.59258 c 0.10926,0.87592 0.0433,2.72663 -0.1467,4.1127 -0.54633,3.98661 -1.4976,5.7732 -2.45748,4.61546 -0.59913,-0.72264 -0.51801,-7.63618 0.10935,-9.31752 0.45417,-1.21718 0.44967,-1.29729 -0.089,-1.58556 -0.75585,-0.40452 -0.71955,-1.34183 0.0735,-1.89731 0.5745,-0.40239 0.62034,-0.62967 0.44316,-2.19598 -0.37938,-3.35307 0.89535,-9.08921 2.01981,-9.08921 0.24066,0 0.58575,0.42515 0.76689,0.94477 0.4614,1.32361 0.40206,5.75816 -0.10578,7.90523 -0.23418,0.99 -0.33333,1.88482 -0.22032,1.98849 0.11298,0.10367 1.3746,0.27848 2.80359,0.38847 l 2.59812,0.19998 0.22617,-2.33847 c 0.5487,-5.67366 0.0941,-7.62196 -2.34849,-10.06451 -1.30389,-1.3039 -4.15617,-2.77529 -5.97582,-3.08272 l -1.18851,-0.2008 0.2082,-2.74522 c 0.11451,-1.50987 0.23988,-2.78273 0.27855,-2.82859 0.0387,-0.0459 5.25285,1.85051 11.58699,4.21414 l 11.51664,4.29749 2.7,-1.64086 c 11.14044,-6.77035 23.94618,-10.5374 35.82087,-10.5374 l 3.84018,0 0.19266,-2.475 c 0.10596,-1.36125 0.19335,-2.88 0.19419,-3.375 l 0.003,-0.9 -4.42473,-0.0164 c -6.16134,-0.0228 -10.42473,-1.18113 -10.42473,-2.83232 0,-0.60662 0.2277,-0.82481 1.2,-1.14983 2.43687,-0.81459 9.92331,-0.40464 13.104,0.71757 1.04412,0.36838 1.1301,0.34992 1.58195,-0.33975 0.69036,-1.05359 2.13456,-1.00361 2.76528,0.0957 l 0.47337,0.825 4.68768,0 c 5.06304,0 7.60614,0.39147 9.52686,1.4665 0.6927,0.3877 1.19859,0.91175 1.25448,1.29946 0.13905,0.96523 -2.2434,1.5851 -6.07308,1.5801 -2.67036,-0.004 -7.35489,-0.7062 -8.91687,-1.33761 -0.43077,-0.17413 -0.52455,0.14877 -0.71028,2.44546 -0.36354,4.49527 -0.42789,4.13565 0.7566,4.22758 6.10293,0.47364 16.83207,2.89267 23.55,5.30966 4.48554,1.61382 12.96699,5.65023 16.55046,7.87653 5.62269,3.49323 11.42343,8.54796 14.09151,12.27927 1.53135,2.14159 3.47268,6.19866 3.98745,8.33307 0.34113,1.41452 0.31962,1.53288 -0.48624,2.67483 -1.54272,2.1861 -9.15051,7.68393 -14.55567,10.51876 -5.33397,2.7975 -13.40358,5.67497 -18.99312,6.77259 -1.80483,0.35441 -1.80627,0.35553 -3.26037,2.57765 l -1.45473,2.22308 -1.53966,-0.17111 c -0.84678,-0.0941 -5.09427,-0.46797 -9.43884,-0.8308 -8.82363,-0.7369 -9.3993,-0.68393 -10.35171,0.95247 -0.50442,0.86663 -0.53436,1.15173 -0.2283,2.17325 0.55083,1.83852 1.14798,2.00653 9.69813,2.728539 4.16958,0.35209 7.63371,0.68391 7.69803,0.73738 0.0643,0.0535 -0.71214,1.34959 -1.72545,2.88028 -4.32834,6.53835 -3.9069,6.25037 -9.04149,6.17786 -2.0625,-0.0291 -4.425,-0.0955 -5.25,-0.14752 z m -7.49816,-11.572749 c 0.52854,-0.45462 0.84054,-1.08743 0.95427,-1.93551 0.14982,-1.11698 0.0652,-1.36389 -0.74547,-2.17454 -0.50295,-0.50296 -1.22862,-0.92167 -1.61256,-0.93045 -0.38394,-0.009 -3.3675,-0.25175 -6.63018,-0.53992 -6.73917,-0.59524 -7.43652,-0.49077 -8.15184,1.22121 -0.52071,1.2462 -0.30489,2.39966 0.60972,3.2589 0.61557,0.57828 1.28877,0.72503 4.84458,1.05604 9.52824,0.887 9.75069,0.88791 10.73148,0.0443 z m -123.33192,-8.75538 c -1.04292,-0.45123 -1.31991,-0.9595 -1.31991,-2.42191 0,-0.72698 0.21792,-1.17511 0.79047,-1.62546 2.38011,-1.87221 5.36211,1.15695 3.33453,3.38725 -0.88212,0.9703 -1.66332,1.15414 -2.80509,0.66012 z m 7.39212,-6.41098 c -1.17405,-1.17404 -1.18503,-2.23132 -0.0351,-3.38124 1.06845,-1.06847 2.10483,-1.12189 3.21633,-0.16581 1.62135,1.39462 0.8751,3.83021 -1.30728,4.26669 -0.80862,0.16172 -1.1073,0.047 -1.87395,-0.71964 z m 8.41209,-5.08317 c -1.65288,-1.35088 -0.74784,-4.275 1.32312,-4.275 1.42017,0 1.91181,0.25063 2.42022,1.23377 1.17267,2.26767 -1.76733,4.65623 -3.74334,3.04123 z m 9.27588,-4.35595 c -1.6302,-0.84033 -1.82553,-2.98346 -0.37584,-4.12379 1.65861,-1.30465 3.97584,-0.0795 3.97584,2.10213 0,0.77704 -1.18563,2.04405 -2.1,2.24414 -0.4125,0.0903 -1.0875,-0.01 -1.5,-0.22248 z m 8.45229,-4.51338 c -1.40952,-1.50038 -0.30051,-4.10567 1.74771,-4.10567 2.08155,0 3.20715,2.73714 1.70565,4.14771 -0.95148,0.89387 -2.59287,0.87389 -3.45336,-0.042 z m 9.55974,-3.1475 c -1.17405,-1.17404 -1.18503,-2.23132 -0.0351,-3.38124 1.06845,-1.06847 2.10483,-1.12189 3.21633,-0.16581 1.62135,1.39462 0.8751,3.83021 -1.30728,4.26669 -0.80862,0.16172 -1.1073,0.047 -1.87395,-0.71964 z m 9.42432,-2.59453 c -2.00523,-2.00523 0.60027,-5.13552 3.14223,-3.7751 0.91359,0.48894 1.35852,1.95618 0.91668,3.02293 -0.68805,1.66109 -2.76507,2.04599 -4.05891,0.75217 z"
     id="path4146"
     inkscape:connector-curvature="0" />
</svg>
