<?xml version="1.0" encoding="UTF-8" standalone="no"?>
<!-- Generator: Adobe Illustrator 17.1.0, SVG Export Plug-In . SVG Version: 6.00 Build 0)  -->

<svg
   xmlns:dc="http://purl.org/dc/elements/1.1/"
   xmlns:cc="http://creativecommons.org/ns#"
   xmlns:rdf="http://www.w3.org/1999/02/22-rdf-syntax-ns#"
   xmlns:svg="http://www.w3.org/2000/svg"
   xmlns="http://www.w3.org/2000/svg"
   xmlns:sodipodi="http://sodipodi.sourceforge.net/DTD/sodipodi-0.dtd"
   xmlns:inkscape="http://www.inkscape.org/namespaces/inkscape"
   version="1.1"
   id="Layer_2"
   x="0px"
   y="0px"
   viewBox="0 0 192.69999 45.599998"
   enable-background="new 0 0 238.8 100.5"
   xml:space="preserve"
   inkscape:version="0.91 r13725"
   sodipodi:docname="frc-logo-horizontal.svg"
   width="192.7"
   height="45.599998"><metadata
   id="metadata7813"><rdf:RDF><cc:Work
       rdf:about=""><dc:format>image/svg+xml</dc:format><dc:type
         rdf:resource="http://purl.org/dc/dcmitype/StillImage" /><dc:title></dc:title></cc:Work></rdf:RDF></metadata><defs
   id="defs7811" /><sodipodi:namedview
   pagecolor="#ffffff"
   bordercolor="#666666"
   borderopacity="1"
   objecttolerance="10"
   gridtolerance="10"
   guidetolerance="10"
   inkscape:pageopacity="0"
   inkscape:pageshadow="2"
   inkscape:window-width="707"
   inkscape:window-height="480"
   id="namedview7809"
   showgrid="false"
   fit-margin-top="0"
   fit-margin-left="0"
   fit-margin-right="0"
   fit-margin-bottom="0"
   inkscape:zoom="1.3484087"
   inkscape:cx="93.600002"
   inkscape:cy="23.15"
   inkscape:window-x="2811"
   inkscape:window-y="163"
   inkscape:window-maximized="0"
   inkscape:current-layer="Layer_2" />
<g
   id="g7745"
   transform="translate(-25.8,-27.8)">
	<path
   d="m 103.5,44.6 6.4,0 c 2.2,0 4.4,1 4.4,3.5 0,1.3 -0.6,2.6 -2,3.1 l 0,0 c 1.3,0.3 1.7,1.8 1.8,3 0,0.5 0.1,2.4 0.5,2.8 l -3.2,0 c -0.3,-0.4 -0.3,-1.6 -0.4,-2 -0.1,-1.3 -0.3,-2.6 -1.8,-2.6 l -2.5,0 0,4.6 -3.3,0 0,-12.4 z m 3.3,5.5 2.7,0 c 1,0 1.5,-0.5 1.5,-1.5 0,-0.9 -0.7,-1.3 -1.6,-1.3 l -2.6,0 0,2.8 z"
   id="path7747"
   inkscape:connector-curvature="0" />
	<path
   d="m 120.8,44.4 c 3.9,0 6.2,2.9 6.2,6.5 0,3.6 -2.2,6.5 -6.2,6.5 -4,0 -6.2,-2.9 -6.2,-6.5 0,-3.6 2.2,-6.5 6.2,-6.5 z m 0,10.2 c 2.1,0 2.9,-1.9 2.9,-3.7 0,-1.9 -0.8,-3.7 -2.9,-3.7 -2.1,0 -2.9,1.9 -2.9,3.7 0,1.8 0.8,3.7 2.9,3.7 z"
   id="path7749"
   inkscape:connector-curvature="0" />
	<path
   d="m 127.7,44.6 5.8,0 c 2.2,0 4.5,0.5 4.5,3.1 0,1.1 -0.7,2 -1.6,2.5 1.3,0.4 2.2,1.5 2.2,3 0,3 -2.2,3.9 -4.9,3.9 l -6,0 0,-12.5 z m 3.2,4.9 2.5,0 c 0.6,0 1.3,-0.3 1.3,-1.2 0,-0.9 -0.6,-1.2 -1.3,-1.2 l -2.5,0 0,2.4 z m 0,5 2.6,0 c 1,0 1.8,-0.4 1.8,-1.4 0,-1.1 -0.8,-1.5 -1.8,-1.5 l -2.6,0 0,2.9 z"
   id="path7751"
   inkscape:connector-curvature="0" />
	<path
   d="m 144.9,44.4 c 3.9,0 6.2,2.9 6.2,6.5 0,3.6 -2.2,6.5 -6.2,6.5 -3.9,0 -6.2,-2.9 -6.2,-6.5 0.1,-3.6 2.3,-6.5 6.2,-6.5 z m 0,10.2 c 2.1,0 2.9,-1.9 2.9,-3.7 0,-1.9 -0.8,-3.7 -2.9,-3.7 -2.1,0 -2.9,1.9 -2.9,3.7 0,1.8 0.8,3.7 2.9,3.7 z"
   id="path7753"
   inkscape:connector-curvature="0" />
	<path
   d="m 161.4,47.4 -3.7,0 0,9.7 -3.3,0 0,-9.7 -3.7,0 0,-2.8 10.7,0 0,2.8 z"
   id="path7755"
   inkscape:connector-curvature="0" />
	<path
   d="m 162.1,44.6 3.3,0 0,12.5 -3.3,0 0,-12.5 z"
   id="path7757"
   inkscape:connector-curvature="0" />
	<path
   d="m 174.9,49.1 c -0.2,-1.3 -1.2,-1.9 -2.5,-1.9 -2.1,0 -2.9,1.9 -2.9,3.7 0,1.9 0.8,3.7 2.9,3.7 1.5,0 2.4,-0.9 2.5,-2.3 l 3.3,0 c -0.2,3.2 -2.5,5.1 -5.7,5.1 -3.8,0 -6.2,-2.9 -6.2,-6.5 0,-3.6 2.4,-6.5 6.2,-6.5 2.7,0 5.6,1.7 5.7,4.7 l -3.3,0 z"
   id="path7759"
   inkscape:connector-curvature="0" />
	<path
   d="m 181.3,52.9 c 0.1,1.5 1,1.9 2.4,1.9 1,0 2,-0.3 2,-1.3 0,-1.1 -1.8,-1.3 -3.6,-1.8 -1.8,-0.5 -3.7,-1.3 -3.7,-3.6 0,-2.7 2.7,-3.8 5.1,-3.8 2.5,0 5,1.2 5,4 l -3.3,0 c 0.1,-1.1 -1,-1.5 -2,-1.5 -0.7,0 -1.6,0.2 -1.6,1.1 0,1 1.8,1.1 3.6,1.6 1.8,0.5 3.6,1.3 3.6,3.6 0,3.2 -2.7,4.2 -5.4,4.2 -2.9,0 -5.4,-1.3 -5.4,-4.5 l 3.3,0 z"
   id="path7761"
   inkscape:connector-curvature="0" />
</g>
<path
   d="m 86.4,37.3 c -0.2,-1.3 -1.2,-1.9 -2.5,-1.9 -2.1,0 -2.9,1.9 -2.9,3.7 0,1.9 0.8,3.7 2.9,3.7 1.5,0 2.4,-0.9 2.5,-2.3 l 3.3,0 c -0.2,3.2 -2.5,5.1 -5.7,5.1 -3.8,0 -6.2,-2.9 -6.2,-6.5 0,-3.6 2.4,-6.5 6.2,-6.5 2.7,0 5.6,1.7 5.7,4.7 l -3.3,0 z"
   id="path7763"
   inkscape:connector-curvature="0" />
<path
   d="m 96,32.6 c 3.9,0 6.2,2.9 6.2,6.5 0,3.6 -2.2,6.5 -6.2,6.5 -3.9,0 -6.2,-2.9 -6.2,-6.5 0.1,-3.6 2.3,-6.5 6.2,-6.5 z m 0,10.2 c 2.1,0 2.9,-1.9 2.9,-3.7 0,-1.9 -0.8,-3.7 -2.9,-3.7 -2.1,0 -2.9,1.9 -2.9,3.7 0,1.8 0.8,3.7 2.9,3.7 z"
   id="path7765"
   inkscape:connector-curvature="0" />
<path
   d="m 102.6,32.8 4.8,0 2.2,8.3 0,0 2.2,-8.3 4.8,0 0,12.5 -3.1,0 0,-9.5 0,0 -2.6,9.5 -2.5,0 -2.6,-9.5 0,0 0,9.5 -3.1,0 0,-12.5 z"
   id="path7767"
   inkscape:connector-curvature="0" />
<path
   d="m 117.7,32.8 5.9,0 c 2.3,0 4.5,1.1 4.5,4 0,3.1 -1.8,4.3 -4.5,4.3 l -2.7,0 0,4.2 -3.3,0 0,-12.5 z m 3.3,5.8 2.2,0 c 1,0 1.8,-0.4 1.8,-1.6 0,-1.2 -0.8,-1.6 -1.8,-1.6 l -2.2,0 0,3.2 z"
   id="path7769"
   inkscape:connector-curvature="0" />
<path
   d="m 128.7,32.8 10,0 0,2.6 -6.7,0 0,2.2 6.1,0 0,2.5 -6.1,0 0,2.4 6.9,0 0,2.8 -10.1,0 0,-12.5 z"
   id="path7771"
   inkscape:connector-curvature="0" />
<path
   d="m 149.8,35.6 -3.7,0 0,9.7 -3.3,0 0,-9.7 -3.7,0 0,-2.8 10.7,0 0,2.8 z"
   id="path7773"
   inkscape:connector-curvature="0" />
<path
   d="m 150.2,32.8 3.3,0 0,12.5 -3.3,0 0,-12.5 z"
   id="path7775"
   inkscape:connector-curvature="0" />
<path
   d="m 164.6,35.6 -3.7,0 0,9.7 -3.3,0 0,-9.7 -3.7,0 0,-2.8 10.7,0 0,2.8 z"
   id="path7777"
   inkscape:connector-curvature="0" />
<path
   d="m 165,32.8 3.3,0 0,12.5 -3.3,0 0,-12.5 z"
   id="path7779"
   inkscape:connector-curvature="0" />
<path
   d="m 175.1,32.6 c 3.9,0 6.2,2.9 6.2,6.5 0,3.6 -2.2,6.5 -6.2,6.5 -4,0 -6.2,-2.9 -6.2,-6.5 0.1,-3.6 2.3,-6.5 6.2,-6.5 z m 0,10.2 c 2.1,0 2.9,-1.9 2.9,-3.7 0,-1.9 -0.8,-3.7 -2.9,-3.7 -2.1,0 -2.9,1.9 -2.9,3.7 0,1.8 0.8,3.7 2.9,3.7 z"
   id="path7781"
   inkscape:connector-curvature="0" />
<path
   d="m 182,32.8 3.3,0 4.3,7.7 0,0 0,-7.7 3.1,0 0,12.5 -3.3,0 -4.3,-7.8 0,0 0,7.8 -3.1,0 0,-12.5 z"
   id="path7783"
   inkscape:connector-curvature="0" />
<g
   id="g7785"
   transform="translate(-25.8,-27.8)">
	<path
   d="m 106.4,28.1 8.8,0 -0.8,3.4 -4.2,0 -0.4,1.8 4.4,0 -0.8,3.2 -4.4,0 -1,4.5 -4.6,0 3,-12.9 z"
   id="path7787"
   inkscape:connector-curvature="0" />
	<path
   d="m 116.4,28.1 4.6,0 -3,12.8 -4.6,0 3,-12.8 z"
   id="path7789"
   inkscape:connector-curvature="0" />
	<path
   d="m 122.2,28.2 0.3,0 c 1.5,-0.2 3.3,-0.3 4.3,-0.3 1.7,0 3,0.2 4,0.6 1.3,0.5 2,1.7 2,3 0,1.2 -0.4,2.3 -1.2,3.2 -0.7,0.8 -1.2,1.1 -2.5,1.5 l -0.3,0.1 c 0.1,0.1 0.2,0.1 0.2,0.2 0.4,0.4 1.4,2.5 2.3,4.5 l -5,0 c -0.6,-1.8 -0.8,-2.3 -1.7,-4.4 l -1,4.4 -4.4,0 3,-12.8 z m 3.4,6 c 1.5,0 2.5,-0.9 2.5,-2.1 0,-0.7 -0.5,-1 -1.4,-1 -0.3,0 -0.4,0 -0.7,0.1 l -0.7,3 c 0.1,0 0.1,0 0.3,0 z"
   id="path7791"
   inkscape:connector-curvature="0" />
	<path
   d="m 143.6,28.1 11.1,0 -0.8,3.7 -3.3,0 -2.2,9.1 -4.6,0 2.2,-9.1 -3.6,0 1.2,-3.7 z"
   id="path7793"
   inkscape:connector-curvature="0" />
	<path
   d="m 150.6,38.7 c 0.6,0 1.1,0.5 1.1,1.1 0,0.6 -0.5,1.1 -1.1,1.1 -0.6,0 -1.1,-0.5 -1.1,-1.1 0,-0.7 0.5,-1.1 1.1,-1.1 z m 0,2 c 0.5,0 1,-0.4 1,-1 0,-0.5 -0.4,-1 -1,-1 -0.5,0 -1,0.4 -1,1 0,0.6 0.5,1 1,1 z m -0.4,-1.5 c 0.1,0 0.1,0 0.2,0 0.1,0 0.2,0 0.2,0 0.4,0 0.5,0.1 0.5,0.4 0,0.2 -0.1,0.3 -0.2,0.3 l 0,0 c 0,0 0,0 0,0 0,0 0.2,0.2 0.3,0.4 l -0.4,0 c -0.1,-0.2 -0.1,-0.2 -0.2,-0.4 l 0,0.4 -0.4,0 0,-1.1 z m 0.4,0.5 c 0.1,0 0.2,0 0.2,-0.1 0,-0.1 -0.1,-0.1 -0.2,-0.1 0,0 0,0 0,0 l 0,0.2 c -0.1,0 0,0 0,0 z"
   id="path7795"
   inkscape:connector-curvature="0" />
	<g
   id="g7797">
		<path
   d="m 131.9,40.6 c 1.3,0.4 2.7,0.6 4,0.6 1.8,0 3.1,-0.4 4.3,-1.3 1.3,-0.9 2.1,-2.3 2.1,-3.6 0,-0.9 -0.4,-1.7 -1,-2.2 -0.5,-0.4 -1.1,-0.8 -2.2,-1.3 l -0.9,-0.4 c -0.3,-0.2 -0.4,-0.3 -0.4,-0.5 0,-0.5 0.6,-0.8 1.4,-0.8 0.6,0 1.3,0.2 2.7,0.6 l 0.9,-3.5 c -1,-0.3 -2,-0.4 -3,-0.4 -3.7,0 -6.6,2 -6.6,4.7 0,1.4 0.9,2.4 3.2,3.4 1.1,0.5 1.3,0.6 1.3,1 0,0.5 -0.6,0.8 -1.5,0.8 -0.8,0 -1.9,-0.3 -3.3,-0.8 l 0,0 -1,3.7 z"
   id="path7799"
   inkscape:connector-curvature="0" />
	</g>
</g>
<g
   id="g7801"
   transform="translate(-25.8,-27.8)">
	<path
   d="m 37.1,58.4 -0.5,2.7 5.2,-2.2 C 41.5,58.2 41.2,57.5 41,56.7 l -3.9,1.7 z"
   id="path7803"
   inkscape:connector-curvature="0" />
	<line
   x1="37.099998"
   y1="58.400002"
   x2="37.099998"
   y2="58.400002"
   id="line7805" />
	<path
   d="m 99.7,48.4 0,0 0,0 -21,-20.1 -7.1,7.3 c -2.9,-1.1 -7.5,-2 -11,-2 -5.1,0 -10.3,1.7 -13.9,4 l -9.8,-9.3 0,0 0,0 0,0 0,0 -3.5,0.4 -7.6,41.6 3.5,0.4 0,0 16,-7 c 0,0 0,0 0.1,0.1 3.8,3.4 9.5,5.5 15.9,5.5 4.4,0 8.6,-1 11.9,-2.8 l 6.4,6.2 20,-20.8 0,-3.5 0.1,0 0,0 z M 60.5,34.5 c 3.3,0 7.7,0.8 10.5,1.9 l -0.1,0.1 -3.1,3.2 0,0 c -2,-0.7 -4.1,-1 -6.5,-1 -4,0 -7.7,1.1 -10.4,2.9 l 0,0 -3.3,-3.1 -0.3,-0.3 c 3.6,-2.1 8.2,-3.7 13.2,-3.7 z m 4.4,8.3 -6.1,6.4 -5.4,-5.2 c 2.3,-1 5,-1.6 7.9,-1.6 1.3,0.1 2.4,0.2 3.6,0.4 z m -35.5,27 7.3,-40.7 10.5,9.9 3.3,3.1 2.5,2.4 5.9,5.7 0,2.6 2.5,2.4 -7.9,3.6 C 51.7,58 50.2,57 49,55.8 c 0,0 0,-0.1 -0.1,-0.1 l 6,-2.8 -14.1,-13.3 -0.3,-0.3 -0.3,1.8 -3.4,17.5 -0.5,2.7 0.9,-0.4 0,0 4.6,-2 c 0.7,1.5 1.7,2.9 3,4.2 l -15.4,6.7 z m 33.3,-13.5 3.4,3.3 c -1.6,0.4 -3.2,0.6 -4.9,0.6 -2.1,0 -4.1,-0.3 -6,-0.9 -0.3,-0.1 -0.5,-0.2 -0.7,-0.3 l 7.5,-3.4 0.7,0.7 z m -15,-2.2 c 0,-0.1 -0.1,-0.1 -0.1,-0.2 -0.5,-0.8 -0.9,-1.6 -1.1,-2.5 0,-0.1 0,-0.2 -0.1,-0.3 0.2,-0.9 0.6,-1.7 1.1,-2.4 l 4,3.9 -3.8,1.5 z m -7.6,-2 c 0,0.1 0,0.1 0,0 0,0.2 0,0.3 0,0.3 0,1 0.6,3.4 0.9,4.3 0,0 0,0 0,0 l -3.3,1.4 3.1,-16.1 1.3,1.3 c -1.4,2.2 -2.2,4.5 -2.2,6.9 0,0.6 0.1,1.3 0.2,1.9 z m 32.7,10.6 c -0.8,0.4 -1.6,0.7 -2.4,1 -2.9,1.1 -6,1.6 -9.2,1.6 -4.6,0 -8.9,-1.1 -12.6,-3.2 -2,-1.1 -3.7,-2.5 -5,-4.1 -0.5,-0.6 -0.9,-1.2 -1.3,-1.9 -0.8,-1.3 -1.3,-2.7 -1.5,-4.1 -0.1,-0.6 -0.2,-1.2 -0.2,-1.8 0,-2.2 0.6,-4.3 1.9,-6.3 l 3.3,3.4 c -0.2,0.8 -0.3,1.6 -0.3,2.3 0,0.7 0.1,1.3 0.2,2 0.2,0.9 0.6,1.8 1.2,2.7 0.4,0.7 1,1.3 1.6,1.9 1.7,1.7 3.9,3 6.5,3.8 2,0.6 4.1,0.9 6.2,0.9 1.7,0 3.5,-0.2 5.1,-0.6 0.9,-0.2 1.9,-0.5 2.7,-0.9 2,-0.8 3.7,-2 5,-3.3 1.3,-1.4 2.2,-2.9 2.6,-4.5 0.2,-0.7 0.2,-1.3 0.2,-2 0,-1.9 -0.7,-4 -1.8,-5.6 l 2.8,-3 c 2.4,2.5 3.9,5.9 3.9,9.1 0,0.6 -0.1,1.2 -0.2,1.8 -0.4,2.7 -1.9,5.2 -4.1,7.4 -1.2,1.4 -2.8,2.5 -4.6,3.4 z m 0.8,-7.3 -4.9,-4.8 4.2,-4.4 c 1.5,1.2 2.6,2.7 3.2,4.4 0,0.3 -0.1,0.5 -0.1,0.8 -0.4,1.5 -1.2,2.8 -2.4,4 z M 82.3,52 c 0.1,-0.6 0.1,-1.2 0.1,-1.8 0,-3.4 -1.5,-7 -4.1,-9.7 l 0.7,-0.7 10.5,10.1 -8.7,9 c 0.9,-2.1 1.5,-4.8 1.5,-6.7 0.1,0 0.1,-0.1 0,-0.2 z m -2.6,17.2 -4.3,-4.1 c 1.7,-1.1 3.1,-2.5 4.2,-4 0,0 0,0 0,-0.1 L 90,50.3 90.3,50 91.7,48.6 79,36.4 l -2.8,3 -3.1,3.3 -2.1,2.2 -4,4.2 0,0 -0.3,0.4 1.2,1.1 5.5,5.3 C 72,57 70.5,58 68.8,58.7 c 0,0 0,0 0,0 l -3.6,-3.5 -3.5,-3.4 -2.4,-2.3 5.7,-6 2.9,-3 3.1,-3.2 7.8,-8.1 20.5,19.6 -19.6,20.4 z"
   id="path7807"
   inkscape:connector-curvature="0" />
</g>
</svg>