<?xml version="1.0" encoding="UTF-8" standalone="no"?>
<!-- Generator: Adobe Illustrator 17.1.0, SVG Export Plug-In . SVG Version: 6.00 Build 0)  -->

<svg
   xmlns:dc="http://purl.org/dc/elements/1.1/"
   xmlns:cc="http://creativecommons.org/ns#"
   xmlns:rdf="http://www.w3.org/1999/02/22-rdf-syntax-ns#"
   xmlns:svg="http://www.w3.org/2000/svg"
   xmlns="http://www.w3.org/2000/svg"
   xmlns:sodipodi="http://sodipodi.sourceforge.net/DTD/sodipodi-0.dtd"
   xmlns:inkscape="http://www.inkscape.org/namespaces/inkscape"
   version="1.1"
   id="Layer_2"
   x="0px"
   y="0px"
   viewBox="0 0 167.89999 115.4"
   enable-background="new 0 0 225 164"
   xml:space="preserve"
   inkscape:version="0.91 r13725"
   sodipodi:docname="frc-logo-vertical.svg"
   width="167.89999"
   height="115.4"><metadata
   id="metadata8996"><rdf:RDF><cc:Work
       rdf:about=""><dc:format>image/svg+xml</dc:format><dc:type
         rdf:resource="http://purl.org/dc/dcmitype/StillImage" /><dc:title /></cc:Work></rdf:RDF></metadata><defs
   id="defs8994" /><sodipodi:namedview
   pagecolor="#ffffff"
   bordercolor="#666666"
   borderopacity="1"
   objecttolerance="10"
   gridtolerance="10"
   guidetolerance="10"
   inkscape:pageopacity="0"
   inkscape:pageshadow="2"
   inkscape:window-width="2560"
   inkscape:window-height="1377"
   id="namedview8992"
   showgrid="false"
   fit-margin-top="0"
   fit-margin-left="0"
   fit-margin-right="0"
   fit-margin-bottom="0"
   inkscape:zoom="5.7244444"
   inkscape:cx="119.75048"
   inkscape:cy="37.271426"
   inkscape:window-x="2552"
   inkscape:window-y="-8"
   inkscape:window-maximized="1"
   inkscape:current-layer="Layer_2" />
<g
   id="g8926"
   transform="translate(-30.2,-23)"
   style="fill:#000000">
	<path
   d="m 51.8,96.5 9.3,0 c 3.2,0 6.4,1.5 6.4,5.1 0,2 -0.9,3.8 -2.9,4.6 l 0,0.1 c 1.9,0.5 2.5,2.6 2.7,4.4 0.1,0.8 0.1,3.4 0.8,4.1 l -4.7,0 c -0.4,-0.6 -0.5,-2.4 -0.5,-2.9 -0.1,-1.8 -0.4,-3.7 -2.7,-3.7 l -3.6,0 0,6.6 -4.7,0 0,-18.3 z m 4.8,7.9 4,0 c 1.4,0 2.2,-0.8 2.2,-2.1 0,-1.4 -1.1,-2 -2.4,-2 l -3.8,0 0,4.1 z"
   id="path8928"
   inkscape:connector-curvature="0"
   style="fill:#000000" />
	<path
   d="m 77,96.1 c 5.7,0 9,4.2 9,9.5 0,5.3 -3.2,9.5 -9,9.5 -5.7,0 -9,-4.2 -9,-9.5 0,-5.3 3.3,-9.5 9,-9.5 z m 0,14.9 c 3.1,0 4.2,-2.7 4.2,-5.4 0,-2.7 -1.2,-5.4 -4.2,-5.4 -3.1,0 -4.2,2.7 -4.2,5.4 0,2.7 1.2,5.4 4.2,5.4 z"
   id="path8930"
   inkscape:connector-curvature="0"
   style="fill:#000000" />
	<path
   d="m 87,96.5 8.5,0 c 3.1,-0.1 6.6,0.8 6.6,4.6 0,1.6 -1,3 -2.4,3.7 1.9,0.6 3.1,2.2 3.1,4.3 0,4.3 -3.2,5.7 -7.1,5.7 l -8.7,0 0,-18.3 z m 4.8,7.2 3.7,0 c 0.8,0 1.9,-0.4 1.9,-1.7 0,-1.3 -0.9,-1.8 -1.9,-1.8 l -3.7,0 0,3.5 z m 0,7.2 3.8,0 c 1.5,0 2.6,-0.5 2.6,-2 0,-1.6 -1.1,-2.1 -2.6,-2.1 l -3.8,0 0,4.1 z"
   id="path8932"
   inkscape:connector-curvature="0"
   style="fill:#000000" />
	<path
   d="m 112.2,96.1 c 5.7,0 9,4.2 9,9.5 0,5.3 -3.2,9.5 -9,9.5 -5.7,0 -9,-4.2 -9,-9.5 0,-5.3 3.3,-9.5 9,-9.5 z m 0,14.9 c 3.1,0 4.2,-2.7 4.2,-5.4 0,-2.7 -1.2,-5.4 -4.2,-5.4 -3.1,0 -4.2,2.7 -4.2,5.4 0,2.7 1.2,5.4 4.2,5.4 z"
   id="path8934"
   inkscape:connector-curvature="0"
   style="fill:#000000" />
	<path
   d="m 136.7,100.6 -5.4,0 0,14.1 -4.7,0 0,-14.1 -5.4,0 0,-4.1 15.6,0 0,4.1 z"
   id="path8936"
   inkscape:connector-curvature="0"
   style="fill:#000000" />
	<path
   d="m 137.8,96.7 4.7,0 0,18.2 -4.7,0 0,-18.2 z"
   id="path8938"
   inkscape:connector-curvature="0"
   style="fill:#000000" />
	<path
   d="m 155.9,103 c -0.3,-1.8 -1.7,-2.8 -3.7,-2.8 -3.1,0 -4.2,2.7 -4.2,5.4 0,2.7 1.2,5.4 4.2,5.4 2.2,0 3.5,-1.3 3.7,-3.4 l 4.7,0 c -0.3,4.7 -3.7,7.5 -8.3,7.5 -5.5,0 -9.1,-4.2 -9.1,-9.5 0,-5.3 3.6,-9.5 9.1,-9.5 3.9,0 8.2,2.5 8.3,6.9 l -4.7,0 z"
   id="path8940"
   inkscape:connector-curvature="0"
   style="fill:#000000" />
	<path
   d="m 165.3,108.6 c 0.1,2.1 1.4,2.8 3.4,2.8 1.4,0 2.9,-0.5 2.9,-1.9 0,-1.6 -2.6,-1.9 -5.2,-2.7 -2.6,-0.7 -5.3,-1.9 -5.3,-5.3 0,-4 4,-5.5 7.4,-5.5 3.6,0 7.3,1.8 7.3,5.9 l -4.7,0 c 0.1,-1.7 -1.5,-2.2 -2.9,-2.2 -1,0 -2.3,0.4 -2.3,1.6 0,1.4 2.6,1.7 5.3,2.4 2.6,0.7 5.3,2 5.3,5.3 0,4.6 -3.9,6.1 -7.9,6.1 -4.2,0 -7.9,-1.8 -7.9,-6.5 l 4.6,0 z"
   id="path8942"
   inkscape:connector-curvature="0"
   style="fill:#000000" />
</g>
<g
   id="g8944"
   transform="translate(-30.2,-23)"
   style="fill:#000000">
	<path
   d="m 42.9,126.3 c -0.3,-1.8 -1.7,-2.8 -3.7,-2.8 -3.1,0 -4.2,2.7 -4.2,5.4 0,2.7 1.2,5.4 4.2,5.4 2.2,0 3.5,-1.3 3.7,-3.4 l 4.7,0 c -0.3,4.7 -3.7,7.5 -8.3,7.5 -5.5,0 -9.1,-4.2 -9.1,-9.5 0,-5.3 3.6,-9.5 9.1,-9.5 3.9,0 8.2,2.5 8.3,6.9 l -4.7,0 z"
   id="path8946"
   inkscape:connector-curvature="0"
   style="fill:#000000" />
	<path
   d="m 57,119.4 c 5.7,0 9,4.2 9,9.5 0,5.3 -3.2,9.5 -9,9.5 -5.7,0 -9,-4.2 -9,-9.5 0,-5.2 3.2,-9.5 9,-9.5 z m 0,14.9 c 3.1,0 4.2,-2.7 4.2,-5.4 0,-2.7 -1.2,-5.4 -4.2,-5.4 -3.1,0 -4.2,2.7 -4.2,5.4 -0.1,2.7 1.1,5.4 4.2,5.4 z"
   id="path8948"
   inkscape:connector-curvature="0"
   style="fill:#000000" />
	<path
   d="m 67,119.8 7,0 3.1,12.1 0.1,0 3.1,-12.1 7,0 0,18.2 -4.5,0 0,-13.8 -0.1,0 -3.7,13.9 -3.6,0 -3.8,-13.8 0,0 0,13.8 -4.6,0 0,-18.3 z"
   id="path8950"
   inkscape:connector-curvature="0"
   style="fill:#000000" />
	<path
   d="m 88.1,119.8 8.7,0 c 3.4,0 6.6,1.6 6.6,5.9 0,4.5 -2.6,6.3 -6.6,6.3 l -3.9,0 0,6.1 -4.7,0 0,-18.3 z m 4.7,8.5 3.2,0 c 1.5,0 2.6,-0.6 2.6,-2.3 0,-1.7 -1.1,-2.4 -2.6,-2.4 l -3.2,0 0,4.7 z"
   id="path8952"
   inkscape:connector-curvature="0"
   style="fill:#000000" />
	<path
   d="m 104.4,119.8 14.5,0 0,3.8 -9.8,0 0,3.2 8.9,0 0,3.7 -8.9,0 0,3.5 10,0 0,4.1 -14.8,0 0,-18.3 z"
   id="path8954"
   inkscape:connector-curvature="0"
   style="fill:#000000" />
	<path
   d="m 135.3,123.9 -5.4,0 0,14.1 -4.7,0 0,-14.1 -5.4,0 0,-4.1 15.6,0 0,4.1 z"
   id="path8956"
   inkscape:connector-curvature="0"
   style="fill:#000000" />
	<path
   d="m 136,119.8 4.7,0 0,18.2 -4.7,0 0,-18.2 z"
   id="path8958"
   inkscape:connector-curvature="0"
   style="fill:#000000" />
	<path
   d="m 157.1,123.9 -5.4,0 0,14.1 -4.7,0 0,-14.1 -5.4,0 0,-4.1 15.6,0 0,4.1 z"
   id="path8960"
   inkscape:connector-curvature="0"
   style="fill:#000000" />
	<path
   d="m 158,119.8 4.7,0 0,18.2 -4.7,0 0,-18.2 z"
   id="path8962"
   inkscape:connector-curvature="0"
   style="fill:#000000" />
	<path
   d="m 172.8,119.4 c 5.7,0 9,4.2 9,9.5 0,5.3 -3.2,9.5 -9,9.5 -5.7,0 -9,-4.2 -9,-9.5 0,-5.2 3.2,-9.5 9,-9.5 z m 0,14.9 c 3.1,0 4.2,-2.7 4.2,-5.4 0,-2.7 -1.2,-5.4 -4.2,-5.4 -3.1,0 -4.2,2.7 -4.2,5.4 -0.1,2.7 1.1,5.4 4.2,5.4 z"
   id="path8964"
   inkscape:connector-curvature="0"
   style="fill:#000000" />
	<path
   d="m 182.3,119.8 4.9,0 6.3,11.2 0.1,0 0,-11.2 4.5,0 0,18.2 -4.9,0 -6.3,-11.4 -0.1,0 0,11.4 -4.5,0 0,-18.2 z"
   id="path8966"
   inkscape:connector-curvature="0"
   style="fill:#000000" />
</g>
<g
   id="g8968"
   transform="translate(-30.2,-23)"
   style="fill:#000000">
	<path
   d="m 87.9,53.7 -0.5,2.8 5.3,-2.3 C 92.4,53.5 92.1,52.8 91.9,52 l -4,1.7 z"
   id="path8970"
   inkscape:connector-curvature="0"
   style="fill:#000000" />
	<line
   x1="87.900002"
   y1="53.700001"
   x2="87.900002"
   y2="53.700001"
   id="line8972"
   style="fill:#000000" />
	<path
   d="m 151.9,43.6 0,0 0,0 -21.5,-20.5 -7.2,7.5 c -3,-1.2 -7.7,-2.1 -11.2,-2.1 -5.2,0 -10.5,1.8 -14.3,4.1 l -10,-9.6 0,0 0,0 0,0 0,0 -3.6,0.4 -7.8,42.5 3.6,0.4 0,0 16.4,-7.2 c 0,0 0.1,0 0.1,0.1 3.9,3.4 9.8,5.6 16.3,5.6 4.5,0 8.7,-1.1 12.2,-2.9 l 6.6,6.3 20.4,-21.2 0,-3.4 0,0 0,0 z M 111.8,29.3 c 3.4,0 7.9,0.9 10.8,1.9 l -0.1,0.1 -3.2,3.3 0,0 c -2,-0.7 -4.2,-1 -6.6,-1 -4.1,0 -7.9,1.1 -10.6,3 l 0,0 -3.3,-3.2 -0.3,-0.3 c 3.5,-2.1 8.3,-3.8 13.3,-3.8 z m 4.5,8.5 -6.2,6.5 -5.5,-5.2 c 2.4,-1 5.1,-1.6 8.1,-1.6 1.3,0 2.5,0.1 3.6,0.3 z m -36.2,27.6 7.5,-41.7 10.7,10.1 3.3,3.2 2.6,2.4 6.1,5.8 0,2.6 2.6,2.5 -8.1,3.7 c -1.8,-0.8 -3.4,-1.8 -4.6,-3 0,0 -0.1,-0.1 -0.1,-0.1 L 106.3,48 91.7,34.5 91.4,34.2 91,36.1 87.6,54 l -0.5,2.8 0.9,-0.4 0,0 4.7,-2 c 0.7,1.5 1.8,3 3.1,4.2 l -15.7,6.8 z m 34,-13.8 3.5,3.3 c -1.6,0.4 -3.3,0.6 -5,0.6 -2.1,0 -4.2,-0.3 -6.1,-0.9 -0.3,-0.1 -0.5,-0.2 -0.8,-0.3 l 7.7,-3.5 0.7,0.8 z M 98.7,49.3 c 0,-0.1 -0.1,-0.1 -0.1,-0.2 -0.5,-0.8 -0.9,-1.7 -1.1,-2.5 0,-0.1 0,-0.2 -0.1,-0.3 0.2,-0.9 0.6,-1.7 1.2,-2.5 l 4,4 -3.9,1.5 z M 91,47.4 c 0,0 0,0 0,0 0,0.2 0,0.3 0,0.3 0,1 0.6,3.5 0.9,4.4 0,0 0,0 0,0 L 88.6,53.5 91.7,37 93,38.3 c -1.5,2.2 -2.2,4.6 -2.2,7.1 0,0.6 0,1.3 0.2,2 z m 33.4,10.7 c -0.8,0.4 -1.6,0.8 -2.5,1.1 -2.9,1.1 -6.1,1.6 -9.4,1.6 -4.7,0 -9.1,-1.1 -12.8,-3.2 -2,-1.2 -3.8,-2.6 -5.1,-4.2 -0.5,-0.6 -1,-1.3 -1.4,-1.9 -0.8,-1.3 -1.3,-2.8 -1.5,-4.2 -0.1,-0.6 -0.2,-1.3 -0.2,-1.9 0,-2.2 0.6,-4.4 1.9,-6.4 l 3.4,3.5 c -0.2,0.8 -0.3,1.6 -0.3,2.4 0,0.7 0.1,1.3 0.2,2 0.2,0.9 0.6,1.9 1.2,2.8 0.4,0.7 1,1.4 1.6,2 1.7,1.7 4,3 6.6,3.8 2,0.6 4.2,0.9 6.4,0.9 1.8,0 3.6,-0.2 5.2,-0.6 1,-0.2 1.9,-0.5 2.8,-0.9 2,-0.8 3.8,-2 5.1,-3.4 1.4,-1.4 2.3,-2.9 2.7,-4.6 0.2,-0.7 0.2,-1.4 0.2,-2 0,-1.9 -0.7,-4 -1.9,-5.7 l 2.9,-3 c 2.5,2.6 4,6 4,9.3 0,0.6 -0.1,1.2 -0.2,1.9 -0.4,2.7 -1.9,5.3 -4.2,7.5 -1.2,1.2 -2.8,2.3 -4.7,3.2 z m 0.9,-7.4 -5.1,-4.9 4.3,-4.5 c 1.5,1.3 2.7,2.8 3.3,4.5 0,0.3 -0.1,0.5 -0.2,0.8 -0.4,1.5 -1.1,2.9 -2.3,4.1 z m 8.9,-3.5 c 0.1,-0.6 0.1,-1.2 0.1,-1.8 0,-3.5 -1.6,-7.1 -4.2,-9.9 l 0.7,-0.7 10.7,10.3 -8.9,9.2 c 0.9,-2.2 1.6,-4.9 1.6,-6.8 0,-0.1 0,-0.2 0,-0.3 z m -2.7,17.6 -4.4,-4.2 c 1.7,-1.2 3.2,-2.5 4.3,-4.1 0,0 0,0 0,-0.1 l 10.6,-11 0.3,-0.3 1.4,-1.4 -12.9,-12.4 -2.9,3 -3.2,3.3 -2.2,2.3 -4.1,4.3 0,0 -0.4,0.4 1.2,1.2 5.6,5.4 c -1.2,1.2 -2.8,2.1 -4.5,2.9 0,0 0,0 0,0 l -3.7,-3.5 -3.6,-3.5 -2.5,-2.3 5.8,-6.1 2.9,-3.1 3.2,-3.3 8,-8.3 21,20.1 -19.9,20.7 z"
   id="path8974"
   inkscape:connector-curvature="0"
   style="fill:#000000" />
</g>
<g
   id="g8976"
   transform="translate(-30.2,-23)"
   style="fill:#000000">
	<path
   d="m 76.8,71.2 14.6,0 -1.4,5.6 -7,0 -0.7,2.9 7.3,0 -1.3,5.3 -7.2,0 -1.7,7.4 -7.5,0 4.9,-21.2 z"
   id="path8978"
   inkscape:connector-curvature="0"
   style="fill:#000000" />
	<path
   d="m 93.3,71.2 7.5,0 -4.8,21.2 -7.5,0 4.8,-21.2 z"
   id="path8980"
   inkscape:connector-curvature="0"
   style="fill:#000000" />
	<path
   d="m 102.8,71.3 0.5,-0.1 c 2.4,-0.3 5.4,-0.5 7.1,-0.5 2.8,0 4.9,0.3 6.5,1 2.1,0.9 3.3,2.7 3.3,5 0,1.9 -0.7,3.8 -1.9,5.2 -1.1,1.2 -2,1.8 -4,2.4 l -0.5,0.2 c 0.2,0.2 0.3,0.2 0.4,0.3 0.6,0.7 2.3,4.1 3.8,7.5 l -8.3,0 c -1.1,-3 -1.4,-3.8 -2.8,-7.2 l -1.7,7.2 -7.2,0 4.8,-21 z m 5.6,10 c 2.4,0 4.1,-1.4 4.1,-3.5 0,-1.1 -0.8,-1.6 -2.3,-1.6 -0.4,0 -0.7,0 -1.2,0.1 l -1.1,4.9 c 0.2,0.1 0.2,0.1 0.5,0.1 z"
   id="path8982"
   inkscape:connector-curvature="0"
   style="fill:#000000" />
	<path
   d="m 138.1,71.2 18.3,0 -1.3,6.1 -5.4,0 -3.6,15 -7.5,0 3.6,-15 -5.9,0 1.8,-6.1 z"
   id="path8984"
   inkscape:connector-curvature="0"
   style="fill:#000000" />
	<path
   d="m 149.6,88.6 c 1,0 1.8,0.8 1.8,1.8 0,1 -0.8,1.8 -1.8,1.8 -1,0 -1.8,-0.8 -1.8,-1.8 0,-1 0.8,-1.8 1.8,-1.8 z m 0,3.4 c 0.9,0 1.6,-0.7 1.6,-1.6 0,-0.9 -0.7,-1.6 -1.6,-1.6 -0.9,0 -1.6,0.7 -1.6,1.6 0,0.9 0.7,1.6 1.6,1.6 z m -0.7,-2.5 c 0.1,0 0.1,0 0.3,0 0.2,0 0.3,0 0.3,0 0.6,0 0.9,0.2 0.9,0.7 0,0.3 -0.1,0.4 -0.4,0.5 l 0,0 c 0,0 0,0 0,0 0.1,0.1 0.3,0.4 0.5,0.7 l -0.7,0 c -0.1,-0.3 -0.2,-0.3 -0.4,-0.6 l 0,0.6 -0.6,0 0,-1.9 z m 0.6,0.9 c 0.2,0 0.3,-0.1 0.3,-0.2 0,-0.1 -0.1,-0.2 -0.2,-0.2 0,0 0,0 -0.1,0 l 0,0.4 c 0,0 0,0 0,0 z"
   id="path8986"
   inkscape:connector-curvature="0"
   style="fill:#000000" />
	<g
   id="g8988"
   style="fill:#000000">
		<path
   d="m 118.8,91.8 c 2.1,0.6 4.4,1 6.6,1 2.9,0 5.2,-0.7 7.1,-2.1 2.1,-1.5 3.5,-3.9 3.5,-6 0,-1.4 -0.6,-2.7 -1.7,-3.6 -0.9,-0.7 -1.8,-1.2 -3.6,-2.1 l -1.5,-0.7 c -0.5,-0.3 -0.7,-0.5 -0.7,-0.8 0,-0.8 1,-1.3 2.3,-1.3 1,0 2.2,0.3 4.4,1 l 1.5,-5.7 c -1.7,-0.5 -3.3,-0.7 -4.9,-0.7 -6.1,0 -10.9,3.4 -10.9,7.7 0,2.3 1.5,3.9 5.3,5.7 1.8,0.8 2.1,1 2.1,1.6 0,0.9 -0.9,1.4 -2.5,1.4 -1.3,0 -3.1,-0.4 -5.4,-1.3 l 0,0 -1.6,5.9 z"
   id="path8990"
   inkscape:connector-curvature="0"
   style="fill:#000000" />
	</g>
</g>
</svg>