<?xml version="1.0" encoding="UTF-8" standalone="no"?>
<!-- Generator: Adobe Illustrator 17.1.0, SVG Export Plug-In . SVG Version: 6.00 Build 0)  -->

<svg
   xmlns:dc="http://purl.org/dc/elements/1.1/"
   xmlns:cc="http://creativecommons.org/ns#"
   xmlns:rdf="http://www.w3.org/1999/02/22-rdf-syntax-ns#"
   xmlns:svg="http://www.w3.org/2000/svg"
   xmlns="http://www.w3.org/2000/svg"
   xmlns:sodipodi="http://sodipodi.sourceforge.net/DTD/sodipodi-0.dtd"
   xmlns:inkscape="http://www.inkscape.org/namespaces/inkscape"
   version="1.1"
   id="Layer_2"
   x="0px"
   y="0px"
   viewBox="0 0 167.89999 68.099998"
   enable-background="new 0 0 225 164"
   xml:space="preserve"
   inkscape:version="0.91 r13725"
   sodipodi:docname="frc-wordmark.svg"
   width="167.89999"
   height="68.099998"><metadata
   id="metadata9603"><rdf:RDF><cc:Work
       rdf:about=""><dc:format>image/svg+xml</dc:format><dc:type
         rdf:resource="http://purl.org/dc/dcmitype/StillImage" /><dc:title></dc:title></cc:Work></rdf:RDF></metadata><defs
   id="defs9601" /><sodipodi:namedview
   pagecolor="#ffffff"
   bordercolor="#666666"
   borderopacity="1"
   objecttolerance="10"
   gridtolerance="10"
   guidetolerance="10"
   inkscape:pageopacity="0"
   inkscape:pageshadow="2"
   inkscape:window-width="707"
   inkscape:window-height="480"
   id="namedview9599"
   showgrid="false"
   fit-margin-top="0"
   fit-margin-left="0"
   fit-margin-right="0"
   fit-margin-bottom="0"
   inkscape:zoom="1.4311111"
   inkscape:cx="86.5"
   inkscape:cy="39.4"
   inkscape:window-x="2753"
   inkscape:window-y="175"
   inkscape:window-maximized="0"
   inkscape:current-layer="Layer_2" />
<g
   id="g9539"
   transform="translate(-26,-53.3)">
	<g
   id="g9541">
		<path
   d="m 47.6,79.5 9.3,0 c 3.2,0 6.4,1.5 6.4,5.1 0,2 -0.9,3.8 -2.9,4.6 l 0,0.1 c 1.9,0.5 2.5,2.6 2.7,4.4 0.1,0.8 0.1,3.4 0.8,4.1 l -4.7,0 C 58.8,97.2 58.7,95.4 58.7,94.9 58.6,93.1 58.3,91.2 56,91.2 l -3.6,0 0,6.6 -4.7,0 0,-18.3 z m 4.8,7.9 4,0 c 1.4,0 2.2,-0.8 2.2,-2.1 0,-1.4 -1.1,-2 -2.4,-2 l -3.8,0 0,4.1 z"
   id="path9543"
   inkscape:connector-curvature="0" />
		<path
   d="m 72.8,79.1 c 5.7,0 9,4.2 9,9.5 0,5.3 -3.2,9.5 -9,9.5 -5.7,0 -9,-4.2 -9,-9.5 0,-5.3 3.3,-9.5 9,-9.5 z m 0,14.9 c 3.1,0 4.2,-2.7 4.2,-5.4 0,-2.7 -1.2,-5.4 -4.2,-5.4 -3.1,0 -4.2,2.7 -4.2,5.4 0,2.7 1.2,5.4 4.2,5.4 z"
   id="path9545"
   inkscape:connector-curvature="0" />
		<path
   d="m 82.8,79.5 8.5,0 c 3.1,-0.1 6.6,0.8 6.6,4.6 0,1.6 -1,3 -2.4,3.7 1.9,0.6 3.1,2.2 3.1,4.3 0,4.3 -3.2,5.7 -7.1,5.7 l -8.8,0 0,-18.3 z m 4.8,7.2 3.7,0 c 0.8,0 1.9,-0.4 1.9,-1.7 0,-1.3 -0.9,-1.8 -1.9,-1.8 l -3.7,0 0,3.5 z m 0,7.2 3.8,0 c 1.5,0 2.6,-0.5 2.6,-2 0,-1.6 -1.1,-2.1 -2.6,-2.1 l -3.8,0 0,4.1 z"
   id="path9547"
   inkscape:connector-curvature="0" />
		<path
   d="m 108,79.1 c 5.7,0 9,4.2 9,9.5 0,5.3 -3.2,9.5 -9,9.5 -5.7,0 -9,-4.2 -9,-9.5 0,-5.3 3.3,-9.5 9,-9.5 z m 0,14.9 c 3.1,0 4.2,-2.7 4.2,-5.4 0,-2.7 -1.2,-5.4 -4.2,-5.4 -3.1,0 -4.2,2.7 -4.2,5.4 0,2.7 1.2,5.4 4.2,5.4 z"
   id="path9549"
   inkscape:connector-curvature="0" />
		<path
   d="m 132.5,83.6 -5.4,0 0,14.1 -4.7,0 0,-14.1 -5.4,0 0,-4.1 15.6,0 0,4.1 z"
   id="path9551"
   inkscape:connector-curvature="0" />
		<path
   d="m 133.6,79.7 4.7,0 0,18.2 -4.7,0 0,-18.2 z"
   id="path9553"
   inkscape:connector-curvature="0" />
		<path
   d="m 151.7,86 c -0.3,-1.8 -1.7,-2.8 -3.7,-2.8 -3.1,0 -4.2,2.7 -4.2,5.4 0,2.7 1.2,5.4 4.2,5.4 2.2,0 3.5,-1.3 3.7,-3.4 l 4.7,0 c -0.3,4.7 -3.7,7.5 -8.3,7.5 -5.5,0 -9.1,-4.2 -9.1,-9.5 0,-5.3 3.6,-9.5 9.1,-9.5 3.9,0 8.2,2.5 8.3,6.9 l -4.7,0 z"
   id="path9555"
   inkscape:connector-curvature="0" />
		<path
   d="m 161.1,91.6 c 0.1,2.1 1.4,2.8 3.4,2.8 1.4,0 2.9,-0.5 2.9,-1.9 0,-1.6 -2.6,-1.9 -5.2,-2.7 -2.6,-0.7 -5.3,-1.9 -5.3,-5.3 0,-4 4,-5.5 7.4,-5.5 3.6,0 7.3,1.8 7.3,5.9 l -4.7,0 c 0.1,-1.7 -1.5,-2.2 -2.9,-2.2 -1,0 -2.3,0.4 -2.3,1.6 0,1.4 2.6,1.7 5.3,2.4 2.6,0.7 5.3,2 5.3,5.3 0,4.6 -3.9,6.1 -7.9,6.1 -4.2,0 -7.9,-1.8 -7.9,-6.5 l 4.6,0 z"
   id="path9557"
   inkscape:connector-curvature="0" />
	</g>
	<g
   id="g9559">
		<path
   d="m 38.7,109.3 c -0.3,-1.8 -1.7,-2.8 -3.7,-2.8 -3.1,0 -4.2,2.7 -4.2,5.4 0,2.7 1.2,5.4 4.2,5.4 2.2,0 3.5,-1.3 3.7,-3.4 l 4.7,0 c -0.3,4.7 -3.7,7.5 -8.3,7.5 -5.5,0 -9.1,-4.2 -9.1,-9.5 0,-5.3 3.6,-9.5 9.1,-9.5 3.9,0 8.2,2.5 8.3,6.9 l -4.7,0 z"
   id="path9561"
   inkscape:connector-curvature="0" />
		<path
   d="m 52.7,102.4 c 5.7,0 9,4.2 9,9.5 0,5.3 -3.2,9.5 -9,9.5 -5.7,0 -9,-4.2 -9,-9.5 0.1,-5.2 3.3,-9.5 9,-9.5 z m 0,14.9 c 3.1,0 4.2,-2.7 4.2,-5.4 0,-2.7 -1.2,-5.4 -4.2,-5.4 -3.1,0 -4.2,2.7 -4.2,5.4 0,2.7 1.2,5.4 4.2,5.4 z"
   id="path9563"
   inkscape:connector-curvature="0" />
		<path
   d="m 62.8,102.8 7,0 3.1,12.1 0.1,0 3.1,-12.1 7,0 0,18.2 -4.5,0 0,-13.8 -0.1,0 -3.8,13.8 -3.6,0 -3.8,-13.8 0,0 0,13.8 -4.5,0 0,-18.2 z"
   id="path9565"
   inkscape:connector-curvature="0" />
		<path
   d="m 83.9,102.8 8.7,0 c 3.4,0 6.6,1.6 6.6,5.9 0,4.5 -2.6,6.3 -6.6,6.3 l -3.9,0 0,6.1 -4.7,0 0,-18.3 z m 4.7,8.5 3.2,0 c 1.5,0 2.6,-0.6 2.6,-2.3 0,-1.7 -1.1,-2.4 -2.6,-2.4 l -3.2,0 0,4.7 z"
   id="path9567"
   inkscape:connector-curvature="0" />
		<path
   d="m 100.2,102.8 14.5,0 0,3.8 -9.8,0 0,3.2 8.9,0 0,3.7 -8.9,0 0,3.5 10,0 0,4.1 -14.8,0 0,-18.3 z"
   id="path9569"
   inkscape:connector-curvature="0" />
		<path
   d="m 131,106.9 -5.4,0 0,14.1 -4.7,0 0,-14.1 -5.4,0 0,-4.1 15.5,0 0,4.1 z"
   id="path9571"
   inkscape:connector-curvature="0" />
		<path
   d="m 131.8,102.8 4.7,0 0,18.2 -4.7,0 0,-18.2 z"
   id="path9573"
   inkscape:connector-curvature="0" />
		<path
   d="m 152.9,106.9 -5.4,0 0,14.1 -4.7,0 0,-14.1 -5.4,0 0,-4.1 15.6,0 0,4.1 z"
   id="path9575"
   inkscape:connector-curvature="0" />
		<path
   d="m 153.8,102.8 4.7,0 0,18.2 -4.7,0 0,-18.2 z"
   id="path9577"
   inkscape:connector-curvature="0" />
		<path
   d="m 168.6,102.4 c 5.7,0 9,4.2 9,9.5 0,5.3 -3.2,9.5 -9,9.5 -5.7,0 -9,-4.2 -9,-9.5 0,-5.2 3.2,-9.5 9,-9.5 z m 0,14.9 c 3.1,0 4.2,-2.7 4.2,-5.4 0,-2.7 -1.2,-5.4 -4.2,-5.4 -3.1,0 -4.2,2.7 -4.2,5.4 -0.1,2.7 1.1,5.4 4.2,5.4 z"
   id="path9579"
   inkscape:connector-curvature="0" />
		<path
   d="m 178.1,102.8 4.9,0 6.3,11.2 0.1,0 0,-11.2 4.5,0 0,18.2 -4.9,0 -6.3,-11.4 -0.1,0 0,11.4 -4.5,0 0,-18.2 z"
   id="path9581"
   inkscape:connector-curvature="0" />
	</g>
	<g
   id="g9583">
		<path
   d="m 72.5,53.8 14.6,0 -1.4,5.6 -7,0 -0.7,3 7.3,0 -1.3,5.2 -7.2,0 -1.7,7.4 -7.5,0 4.9,-21.2 z"
   id="path9585"
   inkscape:connector-curvature="0" />
		<path
   d="m 89.1,53.8 7.5,0 -4.9,21.2 -7.5,0 4.9,-21.2 z"
   id="path9587"
   inkscape:connector-curvature="0" />
		<path
   d="m 98.6,53.9 0.5,-0.1 c 2.4,-0.3 5.4,-0.5 7.1,-0.5 2.8,0 4.9,0.3 6.5,1 2.1,0.9 3.3,2.7 3.3,5 0,1.9 -0.7,3.8 -1.9,5.2 -1.1,1.2 -2,1.8 -4,2.4 l -0.5,0.2 c 0.2,0.2 0.3,0.2 0.4,0.3 0.6,0.7 2.4,4.1 3.8,7.5 l -8.3,0 c -1.1,-3 -1.4,-3.8 -2.8,-7.2 l -1.7,7.2 -7.3,0 4.9,-21 z m 5.6,10 c 2.4,0 4.1,-1.4 4.1,-3.5 0,-1.1 -0.8,-1.6 -2.4,-1.6 -0.4,0 -0.7,0 -1.2,0.1 l -1.1,4.9 c 0.3,0 0.3,0.1 0.6,0.1 z"
   id="path9589"
   inkscape:connector-curvature="0" />
		<path
   d="m 133.9,53.8 18.3,0 -1.3,6.1 -5.4,0 -3.6,15 -7.5,0 3.6,-15 -5.9,0 1.8,-6.1 z"
   id="path9591"
   inkscape:connector-curvature="0" />
		<path
   d="m 145.4,71.1 c 1,0 1.8,0.8 1.8,1.8 0,1 -0.8,1.8 -1.8,1.8 -1,0 -1.8,-0.8 -1.8,-1.8 0,-0.9 0.8,-1.8 1.8,-1.8 z m 0,3.5 c 0.9,0 1.6,-0.7 1.6,-1.6 0,-0.9 -0.7,-1.6 -1.6,-1.6 -0.9,0 -1.6,0.7 -1.6,1.6 0,0.9 0.7,1.6 1.6,1.6 z M 144.7,72 c 0.1,0 0.1,0 0.3,0 0.2,0 0.3,0 0.3,0 0.6,0 0.9,0.2 0.9,0.7 0,0.3 -0.1,0.4 -0.4,0.5 l 0,0 c 0,0 0,0 0,0 0.1,0.1 0.3,0.4 0.5,0.7 l -0.7,0 c -0.1,-0.3 -0.2,-0.3 -0.4,-0.6 l 0,0.6 -0.6,0 0,-1.9 z m 0.7,0.9 c 0.2,0 0.3,-0.1 0.3,-0.2 0,-0.1 -0.1,-0.2 -0.2,-0.2 0,0 0,0 -0.1,0 l 0,0.4 c -0.1,0 0,0 0,0 z"
   id="path9593"
   inkscape:connector-curvature="0" />
		<g
   id="g9595">
			<path
   d="m 114.6,74.4 c 2.1,0.6 4.4,1 6.6,1 2.9,0 5.2,-0.7 7.1,-2.1 2.1,-1.5 3.5,-3.9 3.5,-6 0,-1.4 -0.6,-2.7 -1.7,-3.7 -0.9,-0.7 -1.8,-1.2 -3.6,-2.1 L 125,60.8 c -0.5,-0.3 -0.7,-0.5 -0.7,-0.8 0,-0.8 1,-1.3 2.3,-1.3 1,0 2.2,0.3 4.4,1 l 1.5,-5.7 c -1.7,-0.5 -3.3,-0.7 -4.9,-0.7 -6.2,0 -10.9,3.4 -10.9,7.7 0,2.3 1.5,3.9 5.3,5.7 1.8,0.8 2.1,1 2.1,1.6 0,0.9 -0.9,1.4 -2.5,1.4 -1.3,0 -3.1,-0.4 -5.4,-1.3 l 0,0 -1.6,6 z"
   id="path9597"
   inkscape:connector-curvature="0" />
		</g>
	</g>
</g>
</svg>