<?xml version="1.0" encoding="UTF-8" standalone="no"?>
<!-- Generator: Adobe Illustrator 17.1.0, SVG Export Plug-In . SVG Version: 6.00 Build 0)  -->

<svg
   xmlns:dc="http://purl.org/dc/elements/1.1/"
   xmlns:cc="http://creativecommons.org/ns#"
   xmlns:rdf="http://www.w3.org/1999/02/22-rdf-syntax-ns#"
   xmlns:svg="http://www.w3.org/2000/svg"
   xmlns="http://www.w3.org/2000/svg"
   xmlns:sodipodi="http://sodipodi.sourceforge.net/DTD/sodipodi-0.dtd"
   xmlns:inkscape="http://www.inkscape.org/namespaces/inkscape"
   version="1.1"
   id="Layer_1"
   x="0px"
   y="0px"
   viewBox="0 0 432 434.70001"
   enable-background="new 0 0 504 504"
   xml:space="preserve"
   inkscape:version="0.91 r13725"
   sodipodi:docname="ftc-velocity-vortex.svg"
   width="432"
   height="434.70001"><metadata
   id="metadata4257"><rdf:RDF><cc:Work
       rdf:about=""><dc:format>image/svg+xml</dc:format><dc:type
         rdf:resource="http://purl.org/dc/dcmitype/StillImage" /><dc:title></dc:title></cc:Work></rdf:RDF></metadata><defs
   id="defs4255" /><sodipodi:namedview
   pagecolor="#ffffff"
   bordercolor="#666666"
   borderopacity="1"
   objecttolerance="10"
   gridtolerance="10"
   guidetolerance="10"
   inkscape:pageopacity="0"
   inkscape:pageshadow="2"
   inkscape:window-width="707"
   inkscape:window-height="480"
   id="namedview4253"
   showgrid="false"
   fit-margin-top="0"
   fit-margin-left="0"
   fit-margin-right="0"
   fit-margin-bottom="0"
   inkscape:zoom="0.46825397"
   inkscape:cx="233"
   inkscape:cy="216.7"
   inkscape:window-x="2762"
   inkscape:window-y="153"
   inkscape:window-maximized="0"
   inkscape:current-layer="Layer_1" />
<g
   id="g4137"
   transform="translate(-19,-34)">
	<g
   id="g4139">
		<g
   id="g4141">
			<path
   d="m 99.2,329.1 c -1.8,6.1 -2.3,7.8 -3.7,9.6 -1.9,2.6 -5.4,4.2 -8.8,4.2 -6.4,0 -10,-4 -12.8,-13.7 l -19,-66.3 17.4,0 14.5,55.7 14.9,-55.7 16.9,0 -19.4,66.2 z"
   id="path4143"
   inkscape:connector-curvature="0" />
			<path
   d="m 197.6,302.5 c 0,21.6 -18.2,39.6 -40.2,39.6 -22.3,0 -40.3,-18 -40.3,-40.3 0,-22.3 18,-40.2 40.5,-40.2 22.4,0.1 40,18.2 40,40.9 z m -64.5,-0.7 c 0,13.8 10.9,24.9 24.4,24.9 13.2,0 24.3,-11.2 24.3,-24.4 0,-13.9 -10.9,-25.2 -24.2,-25.2 -13.7,0 -24.5,11 -24.5,24.7 z"
   id="path4145"
   inkscape:connector-curvature="0" />
			<path
   d="m 205.4,279.3 c 0,-8.2 0.8,-10.9 4.2,-13.5 2.9,-2.3 4.7,-2.8 11.7,-2.8 l 8.3,0 c 6.7,0 10.7,1.2 15.2,4.2 6.1,4.2 9.5,10.5 9.5,18 0,6.5 -2.3,11.6 -7.8,16.6 6.3,1.8 8.6,5.7 8.6,14.1 l 0,25 -16,0 0,-23.5 c 0,-5.4 -1.6,-6.7 -8.3,-6.5 -6.1,0.4 -8.9,-1.6 -9.5,-6.4 l 0,36.4 -15.9,0 0,-61.6 z m 15.9,23.2 c 0.3,-5 2.7,-6.9 8.5,-7.4 5.5,-0.5 8.4,-3.5 8.4,-8.5 0,-5.4 -3.4,-8.3 -9.8,-8.3 l -7.1,0 0,24.2 z"
   id="path4147"
   inkscape:connector-curvature="0" />
			<path
   d="m 306.5,278.1 -14.7,0 0,62.7 -15.9,0 0,-62.7 -14.6,0 0,-15.1 45.2,0 0,15.1 z"
   id="path4149"
   inkscape:connector-curvature="0" />
			<path
   d="m 350,278.1 -23,0 0,14.7 21.4,0 0,14.8 -21.4,0 0,17.9 23,0 0,15.3 -22.8,0 c -7.1,0 -10.4,-1.2 -13.1,-4.6 -2.1,-2.7 -3,-6.2 -3,-11.9 l 0,-44.9 c 0,-6.5 1.3,-10.6 4.2,-13.3 2.7,-2.5 5.5,-3.2 11.9,-3.2 l 22.8,0 0,15.2 z"
   id="path4151"
   inkscape:connector-curvature="0" />
			<path
   d="m 396.9,340.8 -8.8,-18.3 c -0.7,-1.2 -1.5,-2.9 -2.6,-5.3 l -0.7,1.5 -1.9,3.9 -8.2,18.2 -18.7,0 20.5,-41.3 -18.4,-36.5 18.4,0 5.6,12.3 c 0.5,0.9 0.9,2 1.4,3 1.2,2.6 1.4,2.9 2.1,4.7 l 0.7,-1.5 c 0.9,-2.1 1.9,-4.2 2.8,-6.2 l 5.3,-12.3 18.6,0 -18.6,36.5 20.8,41.3 -18.3,0 z"
   id="path4153"
   inkscape:connector-curvature="0" />
		</g>
		<g
   id="g4155">
			<path
   d="m 63.4,236.2 c -1.8,6.1 -2.3,7.8 -3.7,9.6 -1.9,2.6 -5.4,4.2 -8.8,4.2 -6.4,0 -10,-4 -12.8,-13.7 L 19,170 l 17.4,0 14.5,55.7 14.9,-55.7 16.9,0 -19.3,66.2 z"
   id="path4157"
   inkscape:connector-curvature="0" />
			<path
   d="m 127.8,185.2 -23,0 0,14.7 21.4,0 0,14.8 -21.4,0 0,17.9 23,0 0,15.3 -22.8,0 c -7.1,0 -10.4,-1.2 -13.1,-4.6 -2.1,-2.7 -3,-6.2 -3,-11.9 l 0,-44.9 c 0,-6.5 1.3,-10.6 4.2,-13.3 2.7,-2.5 5.5,-3.2 11.9,-3.2 l 22.8,0 0,15.2 z"
   id="path4159"
   inkscape:connector-curvature="0" />
			<path
   d="m 156.9,247.9 c -11.7,0 -16,-4.6 -16,-16.5 l 0,-61.4 15.9,0 0,62.6 22.8,0 0,15.3 -22.7,0 z"
   id="path4161"
   inkscape:connector-curvature="0" />
			<path
   d="m 260.2,209.6 c 0,21.6 -18.2,39.6 -40.2,39.6 -22.3,0 -40.3,-18 -40.3,-40.3 0,-22.3 18,-40.2 40.5,-40.2 22.4,0.1 40,18.1 40,40.9 z m -64.5,-0.7 c 0,13.8 10.9,24.9 24.4,24.9 13.2,0 24.3,-11.2 24.3,-24.4 0,-13.9 -10.9,-25.2 -24.2,-25.2 -13.7,0 -24.5,10.9 -24.5,24.7 z"
   id="path4163"
   inkscape:connector-curvature="0" />
			<path
   d="m 309.1,185.1 c -7.4,0 -11.4,1.2 -16,4.4 -6.2,4.4 -10,11.9 -10,19.6 0,7.7 3.7,14.8 10.3,19.4 4.8,3.4 8.6,4.4 16.2,4.4 l 4.6,0 0,14.9 -4.6,0 c -10.7,0 -15.9,-1.2 -22.9,-5.1 -12,-7 -19.4,-19.7 -19.4,-33.7 0,-14 7.2,-26.6 19.1,-33.6 6.7,-4 12.5,-5.4 22.3,-5.4 l 5.4,0 0,15.1 -5,0 z"
   id="path4165"
   inkscape:connector-curvature="0" />
			<path
   d="m 341.4,247.9 -15.9,0 0,-77.9 15.9,0 0,77.9 z"
   id="path4167"
   inkscape:connector-curvature="0" />
			<path
   d="m 393.6,185.2 -14.7,0 0,62.7 -15.9,0 0,-62.7 -14.6,0 0,-15.2 45.2,0 0,15.2 z"
   id="path4169"
   inkscape:connector-curvature="0" />
			<path
   d="m 413.9,247.9 0,-33.7 -20.7,-44.2 17.3,0 11.6,27 12.1,-27 16.8,0 -21.4,44.1 0,33.7 -15.7,0 z"
   id="path4171"
   inkscape:connector-curvature="0" />
		</g>
		<g
   id="g4173">
			<path
   d="m 420.4,266.6 c -0.1,-1.3 -1,-1.9 -2.3,-1.9 -1,0 -2.1,0.4 -2.1,1.6 0,1.2 1.5,1.3 3,1.7 1.5,0.3 3,0.9 3,2.7 0,2 -2,2.8 -3.7,2.8 -2.1,0 -3.9,-1 -3.9,-3.3 l 1.2,0 c 0,1.6 1.3,2.3 2.7,2.3 1.1,0 2.4,-0.4 2.4,-1.7 0,-1.3 -1.5,-1.5 -3,-1.8 -1.5,-0.3 -3,-0.8 -3,-2.5 0,-1.9 1.7,-2.7 3.4,-2.7 1.9,0 3.4,0.9 3.4,3 l -1.1,0 z"
   id="path4175"
   inkscape:connector-curvature="0" />
			<path
   d="m 423.7,263.9 1.7,0 2.9,7.9 3,-7.9 1.7,0 0,9.4 -1.2,0 0,-7.8 0,0 -2.9,7.8 -1.1,0 -2.9,-7.8 0,0 0,7.8 -1.2,0 0,-9.4 z"
   id="path4177"
   inkscape:connector-curvature="0" />
		</g>
	</g>
	<g
   id="g4179">
		<path
   d="m 214.4,151 c -2.7,-4.3 -4.1,-9.5 -4.1,-15.4 0,-24.7 21.4,-44.8 47.8,-44.8 12.7,0 25.1,5.4 34.8,15.1 12.4,12.4 19.4,30.6 19.4,50.1 0,0.4 0,0.9 0,1.4 l 25.7,0 c -0.7,-27.8 -9.8,-51.2 -26.4,-67.8 -18.2,-18.2 -41.4,-24.7 -57.1,-24.7 -18.2,0 -35.1,6.5 -46.5,17.9 -8.8,8.8 -13.6,19.8 -13.6,31.2 0,12 4.5,23 12.6,31.2 2.3,2.2 4.8,4.2 7.4,5.8 z"
   id="path4181"
   inkscape:connector-curvature="0" />
		<path
   d="m 281.3,157.4 26,0 c 0,-0.5 0,-1 0,-1.5 0,-18.2 -6.5,-35.1 -17.9,-46.5 -8.8,-8.8 -19.8,-13.6 -31.2,-13.6 -12,0 -23,4.5 -31.2,12.6 -2.3,2.3 -4.2,4.8 -5.9,7.4 4.3,-2.7 9.5,-4.1 15.4,-4.1 24.1,-0.1 43.8,20.2 44.8,45.7 z"
   id="path4183"
   inkscape:connector-curvature="0" />
		<g
   id="g4185">
			<path
   d="m 255.7,157.4 20.6,0 c -0.5,-11.2 -4.9,-21.5 -12.6,-29.1 -2.3,-2.3 -4.8,-4.2 -7.4,-5.9 2.7,4.3 4.1,9.5 4.1,15.4 0.1,7 -1.7,13.7 -4.7,19.6 z"
   id="path4187"
   inkscape:connector-curvature="0" />
			<path
   d="m 169.7,157.4 c -7.3,-11.3 -11.3,-25.3 -11.3,-40 0,-15.8 6.6,-38.3 23.2,-57.5 2.2,-2.5 3.5,-5.8 3.5,-9.4 0,-7.9 -6.4,-14.4 -14.4,-14.4 -3.9,0 -7.5,1.6 -10.1,4.1 -2.1,2.1 -4,4.5 -5.8,6.8 -20.5,26.7 -22.1,56.8 -22.1,65.4 0,16.6 2.9,31.7 8.6,44.8 l 28.4,0 z"
   id="path4189"
   inkscape:connector-curvature="0" />
		</g>
		<path
   d="m 215.5,157.4 c -15.3,-7.6 -26,-24.2 -26,-43.4 0,-12.7 5.4,-25.1 15.1,-34.8 12.4,-12.4 30.6,-19.4 50.1,-19.4 15.8,0 38.3,6.6 57.5,23.2 2.5,2.2 5.8,3.5 9.4,3.5 7.9,0 14.4,-6.4 14.4,-14.4 0,-3.9 -1.6,-7.5 -4.1,-10.1 -2.1,-2.1 -4.5,-4 -6.8,-5.8 C 298.2,35.6 268.1,34 259.5,34 c -29.3,0 -54,9.1 -71.3,26.4 -18.2,18.2 -24.7,41.4 -24.7,57.1 0,14.9 4.4,29 12.3,39.8 l 39.7,0 z"
   id="path4191"
   inkscape:connector-curvature="0" />
		<path
   d="m 221.1,137.1 c 0,-8.7 7,-15.7 15.7,-15.7 8.7,0 15.7,7 15.7,15.7 0,8.7 -7,15.7 -15.7,15.7 -8.7,-0.1 -15.7,-7.1 -15.7,-15.7 z"
   id="path4193"
   inkscape:connector-curvature="0" />
	</g>
</g>
<g
   id="g4195"
   transform="translate(-19,-34)">
	<path
   d="m 169.2,366.6 c 0.9,0 1.5,0.2 2,0.7 0.4,0.4 0.7,1.1 0.7,1.9 0,0.8 -0.2,1.4 -0.7,1.9 -0.4,0.4 -1.1,0.7 -2,0.7 l -2.6,0 0,3.5 -1.1,0 0,-8.6 3.7,0 z m -0.4,4.1 c 0.6,0 1.1,-0.1 1.4,-0.4 0.3,-0.3 0.4,-0.7 0.4,-1.2 0,-0.5 -0.1,-0.9 -0.4,-1.2 -0.3,-0.3 -0.8,-0.4 -1.4,-0.4 l -2.2,0 0,3.1 2.2,0 z"
   id="path4197"
   inkscape:connector-curvature="0" />
	<path
   d="m 177.5,366.6 c 0.8,0 1.5,0.2 1.9,0.6 0.5,0.4 0.7,0.9 0.7,1.6 0,0.5 -0.1,1 -0.4,1.4 -0.2,0.4 -0.6,0.7 -1.1,0.8 l 0,0 c 0.2,0 0.5,0.1 0.6,0.2 0.2,0.1 0.3,0.2 0.4,0.4 0.1,0.2 0.2,0.3 0.2,0.5 0,0.2 0.1,0.4 0.1,0.6 0,0.2 0,0.4 0,0.6 0,0.2 0,0.4 0.1,0.6 0,0.2 0.1,0.4 0.1,0.6 0.1,0.2 0.2,0.4 0.3,0.5 l -1.3,0 c -0.1,-0.1 -0.1,-0.2 -0.2,-0.4 0,-0.2 0,-0.3 -0.1,-0.5 0,-0.2 0,-0.4 0,-0.6 0,-0.2 0,-0.4 -0.1,-0.6 0,-0.2 -0.1,-0.4 -0.1,-0.6 0,-0.2 -0.1,-0.4 -0.2,-0.5 -0.1,-0.1 -0.2,-0.3 -0.4,-0.3 -0.2,-0.1 -0.4,-0.1 -0.7,-0.1 l -2.8,0 0,3.7 -1.1,0 0,-8.6 4.1,0 z m 0.2,3.9 c 0.2,0 0.5,-0.1 0.6,-0.2 0.2,-0.1 0.3,-0.3 0.4,-0.5 0.1,-0.2 0.2,-0.4 0.2,-0.8 0,-0.4 -0.1,-0.8 -0.4,-1.1 -0.2,-0.3 -0.6,-0.4 -1.2,-0.4 l -2.8,0 0,3 2.4,0 c 0.3,0.1 0.6,0 0.8,0 z"
   id="path4199"
   inkscape:connector-curvature="0" />
	<path
   d="m 187.8,366.6 0,1 -4.8,0 0,2.7 4.5,0 0,1 -4.5,0 0,3 4.8,0 0,1 -6,0 0,-8.6 6,0 z"
   id="path4201"
   inkscape:connector-curvature="0" />
	<path
   d="m 193.8,367.8 c -0.4,-0.3 -0.9,-0.4 -1.5,-0.4 -0.2,0 -0.5,0 -0.7,0.1 -0.2,0 -0.4,0.1 -0.6,0.2 -0.2,0.1 -0.3,0.3 -0.4,0.4 -0.1,0.2 -0.2,0.4 -0.2,0.7 0,0.3 0.1,0.5 0.2,0.6 0.2,0.2 0.4,0.3 0.6,0.4 0.3,0.1 0.6,0.2 0.9,0.3 0.3,0.1 0.7,0.1 1,0.2 0.3,0.1 0.7,0.2 1,0.3 0.3,0.1 0.6,0.3 0.9,0.4 0.3,0.2 0.5,0.4 0.6,0.7 0.2,0.3 0.2,0.6 0.2,1.1 0,0.5 -0.1,0.8 -0.3,1.2 -0.2,0.3 -0.5,0.6 -0.8,0.8 -0.3,0.2 -0.7,0.4 -1.1,0.4 -0.4,0.1 -0.8,0.1 -1.2,0.1 -0.5,0 -0.9,-0.1 -1.4,-0.2 -0.4,-0.1 -0.8,-0.3 -1.1,-0.5 -0.3,-0.2 -0.6,-0.6 -0.8,-0.9 -0.2,-0.4 -0.3,-0.8 -0.3,-1.3 l 1.1,0 c 0,0.4 0.1,0.7 0.2,0.9 0.1,0.3 0.3,0.5 0.6,0.6 0.2,0.2 0.5,0.3 0.8,0.4 0.3,0.1 0.6,0.1 0.9,0.1 0.3,0 0.5,0 0.8,-0.1 0.3,0 0.5,-0.1 0.7,-0.2 0.2,-0.1 0.4,-0.3 0.5,-0.5 0.1,-0.2 0.2,-0.5 0.2,-0.8 0,-0.3 -0.1,-0.5 -0.2,-0.7 -0.2,-0.2 -0.4,-0.3 -0.6,-0.4 -0.3,-0.1 -0.6,-0.2 -0.9,-0.3 -0.3,-0.1 -0.7,-0.1 -1,-0.2 -0.3,-0.1 -0.7,-0.2 -1,-0.3 -0.3,-0.1 -0.6,-0.2 -0.9,-0.4 -0.3,-0.2 -0.5,-0.4 -0.6,-0.6 -0.2,-0.3 -0.2,-0.6 -0.2,-1 0,-0.4 0.1,-0.8 0.3,-1.1 0.2,-0.3 0.4,-0.6 0.7,-0.8 0.3,-0.2 0.6,-0.4 1,-0.5 0.4,-0.1 0.8,-0.2 1.1,-0.2 0.4,0 0.8,0.1 1.2,0.2 0.4,0.1 0.7,0.3 1,0.5 0.3,0.2 0.5,0.5 0.7,0.8 0.2,0.3 0.3,0.7 0.3,1.2 l -1.1,0 c 0,-0.5 -0.2,-0.9 -0.6,-1.2 z"
   id="path4203"
   inkscape:connector-curvature="0" />
	<path
   d="m 203.4,366.6 0,1 -4.8,0 0,2.7 4.5,0 0,1 -4.5,0 0,3 4.8,0 0,1 -6,0 0,-8.6 6,0 z"
   id="path4205"
   inkscape:connector-curvature="0" />
	<path
   d="m 206.3,366.6 4.5,6.9 0,0 0,-6.9 1.1,0 0,8.6 -1.2,0 -4.5,-6.9 0,0 0,6.9 -1.1,0 0,-8.6 1.2,0 z"
   id="path4207"
   inkscape:connector-curvature="0" />
	<path
   d="m 213.1,367.6 0,-1 6.9,0 0,1 -2.9,0 0,7.6 -1.1,0 0,-7.6 -2.9,0 z"
   id="path4209"
   inkscape:connector-curvature="0" />
	<path
   d="m 222.3,366.6 0,8.6 -1.1,0 0,-8.6 1.1,0 z"
   id="path4211"
   inkscape:connector-curvature="0" />
	<path
   d="m 225.7,366.6 4.5,6.9 0,0 0,-6.9 1.1,0 0,8.6 -1.3,0 -4.5,-6.9 0,0 0,6.9 -1.1,0 0,-8.6 1.3,0 z"
   id="path4213"
   inkscape:connector-curvature="0" />
	<path
   d="m 238.5,375.1 c -0.5,0.2 -1,0.3 -1.5,0.3 -0.6,0 -1.2,-0.1 -1.7,-0.4 -0.5,-0.2 -0.9,-0.6 -1.3,-1 -0.4,-0.4 -0.6,-0.9 -0.8,-1.4 -0.2,-0.5 -0.3,-1.1 -0.3,-1.6 0,-0.6 0.1,-1.2 0.3,-1.8 0.2,-0.6 0.4,-1.1 0.8,-1.5 0.3,-0.4 0.8,-0.8 1.3,-1 0.5,-0.3 1.1,-0.4 1.8,-0.4 0.5,0 0.9,0.1 1.3,0.2 0.4,0.1 0.8,0.3 1.1,0.5 0.3,0.2 0.6,0.5 0.8,0.9 0.2,0.4 0.4,0.8 0.5,1.3 l -1.1,0 c -0.1,-0.3 -0.2,-0.6 -0.3,-0.8 -0.2,-0.2 -0.3,-0.4 -0.6,-0.6 -0.2,-0.2 -0.5,-0.3 -0.8,-0.3 -0.3,-0.1 -0.6,-0.1 -0.9,-0.1 -0.5,0 -1,0.1 -1.3,0.3 -0.4,0.2 -0.7,0.5 -0.9,0.8 -0.2,0.3 -0.4,0.7 -0.5,1.2 -0.1,0.4 -0.2,0.9 -0.2,1.3 0,0.4 0.1,0.9 0.2,1.3 0.1,0.4 0.3,0.8 0.6,1.1 0.2,0.3 0.6,0.6 0.9,0.8 0.4,0.2 0.8,0.3 1.3,0.3 0.4,0 0.8,-0.1 1.2,-0.2 0.3,-0.1 0.6,-0.3 0.9,-0.6 0.2,-0.3 0.4,-0.5 0.5,-0.9 0.1,-0.3 0.2,-0.7 0.2,-1.1 l -3,0 0,-1 3.8,0 0,4.5 -0.7,0 -0.3,-1.1 c -0.4,0.5 -0.8,0.8 -1.3,1 z"
   id="path4215"
   inkscape:connector-curvature="0" />
	<path
   d="m 250.6,367.8 c -0.4,-0.3 -0.9,-0.4 -1.5,-0.4 -0.2,0 -0.5,0 -0.7,0.1 -0.2,0 -0.4,0.1 -0.6,0.2 -0.2,0.1 -0.3,0.3 -0.4,0.4 -0.1,0.2 -0.2,0.4 -0.2,0.7 0,0.3 0.1,0.5 0.2,0.6 0.2,0.2 0.4,0.3 0.6,0.4 0.3,0.1 0.6,0.2 0.9,0.3 0.3,0.1 0.7,0.1 1,0.2 0.3,0.1 0.7,0.2 1,0.3 0.3,0.1 0.6,0.3 0.9,0.4 0.3,0.2 0.5,0.4 0.6,0.7 0.2,0.3 0.2,0.6 0.2,1.1 0,0.5 -0.1,0.8 -0.3,1.2 -0.2,0.3 -0.5,0.6 -0.8,0.8 -0.3,0.2 -0.7,0.4 -1.1,0.4 -0.4,0.1 -0.8,0.1 -1.2,0.1 -0.5,0 -0.9,-0.1 -1.4,-0.2 -0.4,-0.1 -0.8,-0.3 -1.1,-0.5 -0.3,-0.2 -0.6,-0.6 -0.8,-0.9 -0.2,-0.4 -0.3,-0.8 -0.3,-1.3 l 1.1,0 c 0,0.4 0.1,0.7 0.2,0.9 0.1,0.3 0.3,0.5 0.6,0.6 0.2,0.2 0.5,0.3 0.8,0.4 0.3,0.1 0.6,0.1 0.9,0.1 0.3,0 0.5,0 0.8,-0.1 0.3,0 0.5,-0.1 0.7,-0.2 0.2,-0.1 0.4,-0.3 0.5,-0.5 0.1,-0.2 0.2,-0.5 0.2,-0.8 0,-0.3 -0.1,-0.5 -0.2,-0.7 -0.2,-0.2 -0.4,-0.3 -0.6,-0.4 -0.3,-0.1 -0.6,-0.2 -0.9,-0.3 -0.3,-0.1 -0.7,-0.1 -1,-0.2 -0.3,-0.1 -0.7,-0.2 -1,-0.3 -0.3,-0.1 -0.6,-0.2 -0.9,-0.4 -0.3,-0.2 -0.5,-0.4 -0.6,-0.6 -0.2,-0.3 -0.2,-0.6 -0.2,-1 0,-0.4 0.1,-0.8 0.3,-1.1 0.2,-0.3 0.4,-0.6 0.7,-0.8 0.3,-0.2 0.6,-0.4 1,-0.5 0.4,-0.1 0.8,-0.2 1.1,-0.2 0.4,0 0.8,0.1 1.2,0.2 0.4,0.1 0.7,0.3 1,0.5 0.3,0.2 0.5,0.5 0.7,0.8 0.2,0.3 0.3,0.7 0.3,1.2 l -1.1,0 c 0,-0.5 -0.2,-0.9 -0.6,-1.2 z"
   id="path4217"
   inkscape:connector-curvature="0" />
	<path
   d="m 258.1,366.6 c 0.9,0 1.5,0.2 2,0.7 0.4,0.4 0.7,1.1 0.7,1.9 0,0.8 -0.2,1.4 -0.7,1.9 -0.4,0.4 -1.1,0.7 -2,0.7 l -2.6,0 0,3.5 -1.1,0 0,-8.6 3.7,0 z m -0.4,4.1 c 0.6,0 1.1,-0.1 1.4,-0.4 0.3,-0.3 0.4,-0.7 0.4,-1.2 0,-0.5 -0.1,-0.9 -0.4,-1.2 -0.3,-0.3 -0.8,-0.4 -1.4,-0.4 l -2.2,0 0,3.1 2.2,0 z"
   id="path4219"
   inkscape:connector-curvature="0" />
	<path
   d="m 262.1,369.2 c 0.2,-0.5 0.4,-1 0.8,-1.4 0.3,-0.4 0.8,-0.7 1.3,-1 0.5,-0.2 1.1,-0.4 1.8,-0.4 0.7,0 1.3,0.1 1.8,0.4 0.5,0.2 0.9,0.6 1.3,1 0.3,0.4 0.6,0.9 0.8,1.4 0.2,0.5 0.3,1.1 0.3,1.7 0,0.6 -0.1,1.1 -0.3,1.7 -0.2,0.5 -0.4,1 -0.8,1.4 -0.3,0.4 -0.8,0.7 -1.3,1 -0.5,0.2 -1.1,0.4 -1.8,0.4 -0.7,0 -1.3,-0.1 -1.8,-0.4 -0.5,-0.2 -0.9,-0.6 -1.3,-1 -0.3,-0.4 -0.6,-0.9 -0.8,-1.4 -0.2,-0.5 -0.3,-1.1 -0.3,-1.7 0,-0.6 0.1,-1.1 0.3,-1.7 z m 1.1,3 c 0.1,0.4 0.3,0.8 0.5,1.1 0.2,0.3 0.5,0.6 0.9,0.8 0.4,0.2 0.8,0.3 1.3,0.3 0.5,0 1,-0.1 1.3,-0.3 0.4,-0.2 0.7,-0.5 0.9,-0.8 0.2,-0.3 0.4,-0.7 0.5,-1.1 0.1,-0.4 0.2,-0.8 0.2,-1.3 0,-0.4 -0.1,-0.9 -0.2,-1.3 -0.1,-0.4 -0.3,-0.8 -0.5,-1.1 -0.2,-0.3 -0.5,-0.6 -0.9,-0.8 -0.4,-0.2 -0.8,-0.3 -1.3,-0.3 -0.5,0 -1,0.1 -1.3,0.3 -0.4,0.2 -0.7,0.5 -0.9,0.8 -0.2,0.3 -0.4,0.7 -0.5,1.1 -0.1,0.4 -0.2,0.8 -0.2,1.3 0,0.4 0,0.9 0.2,1.3 z"
   id="path4221"
   inkscape:connector-curvature="0" />
	<path
   d="m 272.9,366.6 4.5,6.9 0,0 0,-6.9 1.1,0 0,8.6 -1.2,0 -4.5,-6.9 0,0 0,6.9 -1.1,0 0,-8.6 1.2,0 z"
   id="path4223"
   inkscape:connector-curvature="0" />
	<path
   d="m 284.9,367.8 c -0.4,-0.3 -0.9,-0.4 -1.5,-0.4 -0.2,0 -0.5,0 -0.7,0.1 -0.2,0 -0.4,0.1 -0.6,0.2 -0.2,0.1 -0.3,0.3 -0.4,0.4 -0.1,0.2 -0.2,0.4 -0.2,0.7 0,0.3 0.1,0.5 0.2,0.6 0.2,0.2 0.4,0.3 0.6,0.4 0.3,0.1 0.6,0.2 0.9,0.3 0.3,0.1 0.7,0.1 1,0.2 0.3,0.1 0.7,0.2 1,0.3 0.3,0.1 0.6,0.3 0.9,0.4 0.3,0.2 0.5,0.4 0.6,0.7 0.2,0.3 0.2,0.6 0.2,1.1 0,0.5 -0.1,0.8 -0.3,1.2 -0.2,0.3 -0.5,0.6 -0.8,0.8 -0.3,0.2 -0.7,0.4 -1.1,0.4 -0.4,0.1 -0.8,0.1 -1.2,0.1 -0.5,0 -0.9,-0.1 -1.4,-0.2 -0.4,-0.1 -0.8,-0.3 -1.1,-0.5 -0.3,-0.2 -0.6,-0.6 -0.8,-0.9 -0.2,-0.4 -0.3,-0.8 -0.3,-1.3 l 1.1,0 c 0,0.4 0.1,0.7 0.2,0.9 0.1,0.3 0.3,0.5 0.6,0.6 0.2,0.2 0.5,0.3 0.8,0.4 0.3,0.1 0.6,0.1 0.9,0.1 0.3,0 0.5,0 0.8,-0.1 0.3,0 0.5,-0.1 0.7,-0.2 0.2,-0.1 0.4,-0.3 0.5,-0.5 0.1,-0.2 0.2,-0.5 0.2,-0.8 0,-0.3 -0.1,-0.5 -0.2,-0.7 -0.2,-0.2 -0.4,-0.3 -0.6,-0.4 -0.3,-0.1 -0.6,-0.2 -0.9,-0.3 -0.3,-0.1 -0.7,-0.1 -1,-0.2 -0.3,-0.1 -0.7,-0.2 -1,-0.3 -0.3,-0.1 -0.6,-0.2 -0.9,-0.4 -0.3,-0.2 -0.5,-0.4 -0.6,-0.6 -0.2,-0.3 -0.2,-0.6 -0.2,-1 0,-0.4 0.1,-0.8 0.3,-1.1 0.2,-0.3 0.4,-0.6 0.7,-0.8 0.3,-0.2 0.6,-0.4 1,-0.5 0.4,-0.1 0.8,-0.2 1.1,-0.2 0.4,0 0.8,0.1 1.2,0.2 0.4,0.1 0.7,0.3 1,0.5 0.3,0.2 0.5,0.5 0.7,0.8 0.2,0.3 0.3,0.7 0.3,1.2 l -1.1,0 c 0,-0.5 -0.2,-0.9 -0.6,-1.2 z"
   id="path4225"
   inkscape:connector-curvature="0" />
	<path
   d="m 288.4,369.2 c 0.2,-0.5 0.4,-1 0.8,-1.4 0.3,-0.4 0.8,-0.7 1.3,-1 0.5,-0.2 1.1,-0.4 1.8,-0.4 0.7,0 1.3,0.1 1.8,0.4 0.5,0.2 0.9,0.6 1.3,1 0.3,0.4 0.6,0.9 0.8,1.4 0.2,0.5 0.3,1.1 0.3,1.7 0,0.6 -0.1,1.1 -0.3,1.7 -0.2,0.5 -0.4,1 -0.8,1.4 -0.3,0.4 -0.8,0.7 -1.3,1 -0.5,0.2 -1.1,0.4 -1.8,0.4 -0.7,0 -1.3,-0.1 -1.8,-0.4 -0.5,-0.2 -0.9,-0.6 -1.3,-1 -0.3,-0.4 -0.6,-0.9 -0.8,-1.4 -0.2,-0.5 -0.3,-1.1 -0.3,-1.7 0,-0.6 0.1,-1.1 0.3,-1.7 z m 1,3 c 0.1,0.4 0.3,0.8 0.5,1.1 0.2,0.3 0.5,0.6 0.9,0.8 0.4,0.2 0.8,0.3 1.3,0.3 0.5,0 1,-0.1 1.3,-0.3 0.4,-0.2 0.7,-0.5 0.9,-0.8 0.2,-0.3 0.4,-0.7 0.5,-1.1 0.1,-0.4 0.2,-0.8 0.2,-1.3 0,-0.4 -0.1,-0.9 -0.2,-1.3 -0.1,-0.4 -0.3,-0.8 -0.5,-1.1 -0.2,-0.3 -0.5,-0.6 -0.9,-0.8 -0.4,-0.2 -0.8,-0.3 -1.3,-0.3 -0.5,0 -1,0.1 -1.3,0.3 -0.4,0.2 -0.7,0.5 -0.9,0.8 -0.2,0.3 -0.4,0.7 -0.5,1.1 -0.1,0.4 -0.2,0.8 -0.2,1.3 0.1,0.4 0.1,0.9 0.2,1.3 z"
   id="path4227"
   inkscape:connector-curvature="0" />
	<path
   d="m 302,366.6 c 0.8,0 1.5,0.2 1.9,0.6 0.5,0.4 0.7,0.9 0.7,1.6 0,0.5 -0.1,1 -0.4,1.4 -0.2,0.4 -0.6,0.7 -1.1,0.8 l 0,0 c 0.2,0 0.5,0.1 0.6,0.2 0.2,0.1 0.3,0.2 0.4,0.4 0.1,0.2 0.2,0.3 0.2,0.5 0,0.2 0.1,0.4 0.1,0.6 0,0.2 0,0.4 0,0.6 0,0.2 0,0.4 0.1,0.6 0,0.2 0.1,0.4 0.1,0.6 0.1,0.2 0.2,0.4 0.3,0.5 l -1.3,0 c -0.1,-0.1 -0.1,-0.2 -0.2,-0.4 0,-0.2 0,-0.3 -0.1,-0.5 0,-0.2 0,-0.4 0,-0.6 0,-0.2 0,-0.4 -0.1,-0.6 0,-0.2 -0.1,-0.4 -0.1,-0.6 0,-0.2 -0.1,-0.4 -0.2,-0.5 -0.1,-0.1 -0.2,-0.3 -0.4,-0.3 -0.2,-0.1 -0.4,-0.1 -0.7,-0.1 l -2.8,0 0,3.7 -1,0 0,-8.6 4,0 z m 0.2,3.9 c 0.2,0 0.5,-0.1 0.6,-0.2 0.2,-0.1 0.3,-0.3 0.4,-0.5 0.1,-0.2 0.2,-0.4 0.2,-0.8 0,-0.4 -0.1,-0.8 -0.4,-1.1 -0.2,-0.3 -0.6,-0.4 -1.2,-0.4 l -2.8,0 0,3 2.4,0 c 0.3,0.1 0.6,0 0.8,0 z"
   id="path4229"
   inkscape:connector-curvature="0" />
</g>
<g
   id="g4231"
   transform="translate(-19,-34)">
	<g
   id="g4233">
		<path
   d="m 214.9,450.4 c 0,0.9 1,1.9 1.9,1.9 l 13.1,0 -2.9,-4.7 -7.6,0 0,-18.2 -4.5,0 0,21 z"
   id="path4235"
   inkscape:connector-curvature="0" />
		<path
   d="m 166.7,441.4 c 0,-11 -8.9,-19.9 -19.9,-19.9 -11,0 -19.9,8.9 -19.9,19.9 0,11 8.9,19.9 19.9,19.9 1.2,0 2.3,-0.1 3.4,-0.3 l 0,7.7 5.6,0 0,-9.6 c 6.4,-3.3 10.9,-10 10.9,-17.7 z m -11,9.3 0,-6.4 -5.6,1.6 0,7.9 c -1.1,0.3 -2.2,0.5 -3.4,0.5 -7.1,0 -12.9,-5.8 -12.9,-12.9 0,-7.1 5.8,-12.9 12.9,-12.9 7.1,0 12.9,5.8 12.9,12.9 0.1,3.6 -1.4,6.9 -3.9,9.3 z"
   id="path4237"
   inkscape:connector-curvature="0" />
		<path
   d="m 185,452.3 -13,0 c -0.9,0 -1.9,-1 -1.9,-1.9 l 0,-21.1 4.5,0 0,18.2 7.8,0 0,-18.2 4.5,0 0,21.1 c 0,0.9 -1,1.9 -1.9,1.9 z"
   id="path4239"
   inkscape:connector-curvature="0" />
		<g
   id="g4241">
			<path
   d="m 245.5,430.2 c -1.8,-1.1 -3.9,-1.7 -6.2,-1.7 -6.7,0 -12.2,5.5 -12.2,12.2 0,6.7 5.5,12.2 12.2,12.2 2.1,0 4.1,-0.5 5.8,-1.5 l -2.2,-4 c -1.1,0.6 -2.3,0.9 -3.6,0.9 -4.2,0 -7.7,-3.4 -7.7,-7.7 0,-4.2 3.4,-7.7 7.7,-7.7 1.4,0 2.8,0.4 3.9,1.1 l 2.3,-3.8 z"
   id="path4243"
   inkscape:connector-curvature="0" />
		</g>
		<path
   d="m 255.9,428.6 c -6.7,0 -12.2,5.5 -12.2,12.2 0,6.7 5.4,12.2 12.2,12.2 6.7,0 12.2,-5.5 12.2,-12.2 0,-6.7 -5.4,-12.2 -12.2,-12.2 z m 0,19.9 c -4.2,0 -7.7,-3.4 -7.7,-7.6 0,-4.2 3.4,-7.7 7.7,-7.7 4.2,0 7.7,3.4 7.7,7.7 0,4.1 -3.4,7.6 -7.7,7.6 z"
   id="path4245"
   inkscape:connector-curvature="0" />
		<path
   d="m 203.1,429.4 -4.5,0 -10.1,22.8 4.8,0 2.4,-5 10.4,0 0.2,0.5 2,4.5 4.8,0 -10,-22.8 z m -5.8,14 3.6,-8.2 3.6,8.2 -7.2,0 z"
   id="path4247"
   inkscape:connector-curvature="0" />
		<path
   d="m 340.6,449.5 -8.3,-19 c -0.5,-0.9 -1.3,-1.3 -2.5,-1.3 -1.2,0 -2,0.4 -2.5,1.3 l -6.1,14 -6.1,-14 c -0.5,-0.9 -1.3,-1.3 -2.5,-1.3 -1.2,0 -2,0.4 -2.5,1.3 l -6.1,14 -6.1,-14 c -0.5,-0.9 -1.3,-1.3 -2.5,-1.3 -1.2,0 -2,0.4 -2.5,1.3 l -6.1,14 -6.1,-14 c -0.5,-0.9 -1.3,-1.3 -2.5,-1.3 -1.2,0 -2,0.4 -2.5,1.3 l -8.3,19 c -1.1,3 3,4.5 4.3,2.1 l 6.5,-15.2 6.5,15.2 c 0.8,1.6 3.5,1.5 4.2,0 l 6.5,-15.2 6.5,15.2 c 0.4,0.8 1.1,1.1 1.9,1.1 0.1,0 0.2,0 0.3,0 0.1,0 0.2,0 0.3,0 0.7,0 1.4,-0.4 1.9,-1.1 l 6.5,-15.2 6.5,15.2 c 0.8,1.5 3.4,1.6 4.2,0 l 6.5,-15.2 6.5,15.2 c 1.1,2.4 5.2,0.9 4.1,-2.1 z"
   id="path4249"
   inkscape:connector-curvature="0" />
	</g>
	<path
   d="m 340.3,429.6 c -1.5,0 -2.7,1.1 -2.7,2.7 0,1.5 1.2,2.7 2.7,2.7 1.4,0 2.7,-1.1 2.7,-2.7 0,-1.6 -1.2,-2.7 -2.7,-2.7 z m 0,4.8 c -1.2,0 -2.2,-0.9 -2.2,-2.2 0,-1.3 1,-2.2 2.2,-2.2 1.2,0 2.2,1 2.2,2.2 0,1.3 -0.9,2.2 -2.2,2.2 z m 1.3,-2.8 c 0,-0.6 -0.4,-0.9 -1.1,-0.9 l -1.2,0 0,3.1 0.5,0 0,-1.3 0.5,0 0.8,1.3 0.5,0 -0.9,-1.4 c 0.5,-0.1 0.9,-0.3 0.9,-0.8 z m -1.8,0.4 0,-1 0.6,0 c 0.3,0 0.7,0.1 0.7,0.5 0,0.5 -0.3,0.5 -0.7,0.5 l -0.6,0 z"
   id="path4251"
   inkscape:connector-curvature="0" />
</g>
</svg>