<?xml version="1.0" encoding="UTF-8" standalone="no"?>
<!-- Generator: Adobe Illustrator 17.1.0, SVG Export Plug-In . SVG Version: 6.00 Build 0)  -->

<svg
   xmlns:dc="http://purl.org/dc/elements/1.1/"
   xmlns:cc="http://creativecommons.org/ns#"
   xmlns:rdf="http://www.w3.org/1999/02/22-rdf-syntax-ns#"
   xmlns:svg="http://www.w3.org/2000/svg"
   xmlns="http://www.w3.org/2000/svg"
   xmlns:sodipodi="http://sodipodi.sourceforge.net/DTD/sodipodi-0.dtd"
   xmlns:inkscape="http://www.inkscape.org/namespaces/inkscape"
   version="1.1"
   id="Layer_2"
   x="0px"
   y="0px"
   viewBox="0 0 146.7 68.300003"
   enable-background="new 0 0 225 164"
   xml:space="preserve"
   inkscape:version="0.91 r13725"
   sodipodi:docname="ftc-wordmark.svg"
   width="146.7"
   height="68.300003"><metadata
   id="metadata11398"><rdf:RDF><cc:Work
       rdf:about=""><dc:format>image/svg+xml</dc:format><dc:type
         rdf:resource="http://purl.org/dc/dcmitype/StillImage" /><dc:title></dc:title></cc:Work></rdf:RDF></metadata><defs
   id="defs11396" /><sodipodi:namedview
   pagecolor="#ffffff"
   bordercolor="#666666"
   borderopacity="1"
   objecttolerance="10"
   gridtolerance="10"
   guidetolerance="10"
   inkscape:pageopacity="0"
   inkscape:pageshadow="2"
   inkscape:window-width="707"
   inkscape:window-height="480"
   id="namedview11394"
   showgrid="false"
   fit-margin-top="0"
   fit-margin-left="0"
   fit-margin-right="0"
   fit-margin-bottom="0"
   inkscape:zoom="1.4311111"
   inkscape:cx="69"
   inkscape:cy="35.8"
   inkscape:window-x="2560"
   inkscape:window-y="0"
   inkscape:window-maximized="0"
   inkscape:current-layer="Layer_2" />
<g
   id="g11348"
   transform="translate(-43.5,-49.5)">
	<path
   d="m 95.6,79.9 -5.4,0 0,14.2 -4.8,0 0,-14.2 -5.4,0 0,-4.1 15.6,0 0,4.1 z"
   id="path11350"
   inkscape:connector-curvature="0" />
	<path
   d="m 96.2,75.8 14.5,0 0,3.8 -9.7,0 0,3.2 8.9,0 0,3.7 -8.9,0 0,3.5 10,0 0,4.1 -14.8,0 0,-18.3 z"
   id="path11352"
   inkscape:connector-curvature="0" />
	<path
   d="m 124.3,82.3 c -0.3,-1.8 -1.7,-2.8 -3.7,-2.8 -3.1,0 -4.2,2.7 -4.2,5.4 0,2.7 1.2,5.4 4.2,5.4 2.2,0 3.5,-1.3 3.7,-3.4 l 4.8,0 c -0.3,4.7 -3.7,7.5 -8.3,7.5 -5.5,0 -9.1,-4.2 -9.1,-9.5 0,-5.3 3.6,-9.5 9.1,-9.5 3.9,0 8.2,2.5 8.3,6.9 l -4.8,0 z"
   id="path11354"
   inkscape:connector-curvature="0" />
	<path
   d="m 130,75.8 4.8,0 0,6.6 6.3,0 0,-6.6 4.8,0 0,18.2 -4.9,0 0,-7.5 -6.3,0 0,7.5 -4.7,0 0,-18.2 z"
   id="path11356"
   inkscape:connector-curvature="0" />
</g>
<g
   id="g11358"
   transform="translate(-43.5,-49.5)">
	<path
   d="m 56.1,105.7 c -0.3,-1.8 -1.7,-2.8 -3.7,-2.8 -3.1,0 -4.2,2.7 -4.2,5.4 0,2.7 1.2,5.4 4.2,5.4 2.2,0 3.5,-1.3 3.7,-3.4 l 4.8,0 c -0.3,4.7 -3.7,7.5 -8.3,7.5 -5.5,0 -9.1,-4.2 -9.1,-9.5 0,-5.3 3.6,-9.5 9.1,-9.5 3.9,0 8.2,2.5 8.3,6.9 l -4.8,0 z"
   id="path11360"
   inkscape:connector-curvature="0" />
	<path
   d="m 61.8,99.2 4.8,0 0,6.6 6.3,0 0,-6.6 4.8,0 0,18.2 -4.8,0 0,-7.5 -6.3,0 0,7.5 -4.8,0 0,-18.2 z"
   id="path11362"
   inkscape:connector-curvature="0" />
	<path
   d="m 84.2,99.2 4.8,0 6.8,18.2 -5,0 -1.1,-3.3 -6.4,0 -1.2,3.3 -4.9,0 7,-18.2 z m 0.3,11.4 4.1,0 -2,-6.4 -0.1,0 -2,6.4 z"
   id="path11364"
   inkscape:connector-curvature="0" />
	<path
   d="m 95.7,99.2 4.8,0 0,14.2 8.5,0 0,4.1 -13.3,0 0,-18.3 z"
   id="path11366"
   inkscape:connector-curvature="0" />
	<path
   d="m 109.8,99.2 4.8,0 0,14.2 8.5,0 0,4.1 -13.3,0 0,-18.3 z"
   id="path11368"
   inkscape:connector-curvature="0" />
	<path
   d="m 123.8,99.2 14.5,0 0,3.8 -9.8,0 0,3.2 8.9,0 0,3.7 -8.9,0 0,3.5 10,0 0,4.1 -14.8,0 0,-18.3 z"
   id="path11370"
   inkscape:connector-curvature="0" />
	<path
   d="m 139.7,99.2 4.9,0 6.3,11.2 0.1,0 0,-11.2 4.5,0 0,18.2 -4.9,0 -6.3,-11.4 -0.1,0 0,11.4 -4.5,0 0,-18.2 z"
   id="path11372"
   inkscape:connector-curvature="0" />
	<path
   d="m 174,117.4 -3.1,0 -0.3,-2 c -1.3,1.8 -3.4,2.4 -5.1,2.4 -5.5,0 -9.1,-4.2 -9.1,-9.5 0,-5.3 3.6,-9.5 9.1,-9.5 3.8,0 7.8,2 8.3,6.6 l -4.8,0 c -0.2,-1.6 -1.7,-2.5 -3.6,-2.5 -3.1,0 -4.2,2.7 -4.2,5.4 0,2.7 1.2,5.4 4.2,5.4 2.3,0 3.9,-1.1 4.2,-2.8 l -3.3,0 0,-3.5 7.7,0 0,10 z"
   id="path11374"
   inkscape:connector-curvature="0" />
	<path
   d="m 175.5,99.2 14.5,0 0,3.8 -9.8,0 0,3.2 8.9,0 0,3.7 -8.9,0 0,3.5 10,0 0,4.1 -14.8,0 0,-18.3 z"
   id="path11376"
   inkscape:connector-curvature="0" />
</g>
<g
   id="g11378"
   transform="translate(-43.5,-49.5)">
	<path
   d="m 79.5,49.9 14.6,0 -1.4,5.6 -7,0 -0.7,3 7.3,0 -1.3,5.2 -7.2,0 -1.7,7.4 -7.5,0 4.9,-21.2 z"
   id="path11380"
   inkscape:connector-curvature="0" />
	<path
   d="m 96.1,49.9 7.5,0 -4.9,21.2 -7.5,0 4.9,-21.2 z"
   id="path11382"
   inkscape:connector-curvature="0" />
	<path
   d="M 105.6,50.1 106,50 c 2.4,-0.3 5.4,-0.5 7.1,-0.5 2.8,0 4.9,0.3 6.5,1 2.1,0.9 3.3,2.7 3.3,5 0,1.9 -0.7,3.8 -1.9,5.2 -1.1,1.2 -2,1.8 -4,2.4 l -0.5,0.2 c 0.2,0.2 0.3,0.2 0.4,0.3 0.6,0.7 2.4,4.1 3.8,7.5 l -8.3,0 c -1.1,-3 -1.4,-3.8 -2.8,-7.2 l -1.7,7.2 -7.3,0 5,-21 z m 5.5,9.9 c 2.4,0 4.1,-1.4 4.1,-3.5 0,-1.1 -0.8,-1.6 -2.4,-1.6 -0.4,0 -0.7,0 -1.2,0.1 l -1.1,4.9 c 0.3,0.1 0.4,0.1 0.6,0.1 z"
   id="path11384"
   inkscape:connector-curvature="0" />
	<path
   d="m 140.9,49.9 18.3,0 -1.3,6.1 -5.4,0 -3.6,15 -7.5,0 3.6,-15 -6,0 1.9,-6.1 z"
   id="path11386"
   inkscape:connector-curvature="0" />
	<path
   d="m 152.4,67.3 c 1,0 1.8,0.8 1.8,1.8 0,1 -0.8,1.8 -1.8,1.8 -1,0 -1.8,-0.8 -1.8,-1.8 0,-1 0.8,-1.8 1.8,-1.8 z m 0,3.5 c 0.9,0 1.6,-0.7 1.6,-1.6 0,-0.9 -0.7,-1.6 -1.6,-1.6 -0.9,0 -1.6,0.7 -1.6,1.6 0,0.9 0.7,1.6 1.6,1.6 z m -0.7,-2.6 c 0.1,0 0.1,0 0.3,0 0.2,0 0.3,0 0.3,0 0.6,0 0.9,0.2 0.9,0.7 0,0.3 -0.1,0.4 -0.4,0.5 l 0,0 c 0,0 0,0 0,0 0.1,0.1 0.3,0.4 0.5,0.7 l -0.7,0 c -0.1,-0.3 -0.2,-0.3 -0.4,-0.6 l 0,0.6 -0.6,0 0,-1.9 z m 0.6,0.9 c 0.2,0 0.3,-0.1 0.3,-0.2 0,-0.1 -0.1,-0.2 -0.2,-0.2 0,0 0,0 -0.1,0 l 0,0.4 c 0,0 0,0 0,0 z"
   id="path11388"
   inkscape:connector-curvature="0" />
	<g
   id="g11390">
		<path
   d="m 121.5,70.6 c 2.1,0.6 4.4,1 6.6,1 2.9,0 5.2,-0.7 7.1,-2.1 2.1,-1.5 3.5,-3.9 3.5,-6 0,-1.4 -0.6,-2.7 -1.7,-3.7 -0.9,-0.7 -1.8,-1.2 -3.6,-2.1 L 131.9,57 c -0.5,-0.3 -0.7,-0.5 -0.7,-0.8 0,-0.8 1,-1.3 2.3,-1.3 1,0 2.2,0.3 4.4,1 l 1.5,-5.7 c -1.7,-0.5 -3.3,-0.7 -4.9,-0.7 -6.2,0 -10.9,3.4 -10.9,7.7 0,2.3 1.5,3.9 5.3,5.7 1.8,0.8 2.1,1 2.1,1.6 0,0.9 -0.9,1.4 -2.5,1.4 -1.3,0 -3.1,-0.4 -5.4,-1.3 l 0,0 -1.6,6 z"
   id="path11392"
   inkscape:connector-curvature="0" />
	</g>
</g>
</svg>