<?xml version="1.0" encoding="UTF-8" standalone="no"?>
<!-- Generator: Adobe Illustrator 17.1.0, SVG Export Plug-In . SVG Version: 6.00 Build 0)  -->

<svg
   xmlns:dc="http://purl.org/dc/elements/1.1/"
   xmlns:cc="http://creativecommons.org/ns#"
   xmlns:rdf="http://www.w3.org/1999/02/22-rdf-syntax-ns#"
   xmlns:svg="http://www.w3.org/2000/svg"
   xmlns="http://www.w3.org/2000/svg"
   xmlns:sodipodi="http://sodipodi.sourceforge.net/DTD/sodipodi-0.dtd"
   xmlns:inkscape="http://www.inkscape.org/namespaces/inkscape"
   version="1.1"
   id="Layer_2"
   x="0px"
   y="0px"
   viewBox="0 0 146.8 116"
   enable-background="new 0 0 225 164"
   xml:space="preserve"
   inkscape:version="0.91 r13725"
   sodipodi:docname="ftc-logo-vertical.svg"
   width="146.8"
   height="116"><metadata
   id="metadata10805"><rdf:RDF><cc:Work
       rdf:about=""><dc:format>image/svg+xml</dc:format><dc:type
         rdf:resource="http://purl.org/dc/dcmitype/StillImage" /><dc:title></dc:title></cc:Work></rdf:RDF></metadata><defs
   id="defs10803" /><sodipodi:namedview
   pagecolor="#ffffff"
   bordercolor="#666666"
   borderopacity="1"
   objecttolerance="10"
   gridtolerance="10"
   guidetolerance="10"
   inkscape:pageopacity="0"
   inkscape:pageshadow="2"
   inkscape:window-width="707"
   inkscape:window-height="480"
   id="namedview10801"
   showgrid="false"
   fit-margin-top="0"
   fit-margin-left="0"
   fit-margin-right="0"
   fit-margin-bottom="0"
   inkscape:zoom="1.4311111"
   inkscape:cx="71.7"
   inkscape:cy="59.3"
   inkscape:window-x="2811"
   inkscape:window-y="220"
   inkscape:window-maximized="0"
   inkscape:current-layer="Layer_2" />
<g
   id="g10747"
   transform="translate(-40.8,-25.3)">
	<path
   d="m 88,56 -0.5,2.8 5.3,-2.3 C 92.5,55.8 92.2,55.1 92,54.3 L 88,56 Z"
   id="path10749"
   inkscape:connector-curvature="0" />
	<line
   x1="88"
   y1="56"
   x2="88"
   y2="56"
   id="line10751" />
	<path
   d="m 152,45.8 0,0 0,0 -21.5,-20.5 -7.2,7.5 c -3,-1.2 -7.7,-2.1 -11.2,-2.1 -5.2,0 -10.5,1.8 -14.3,4.1 l -10.1,-9.5 0,0 0,0 0,0 0,0 -3.6,0.4 -7.8,42.5 3.6,0.4 0,0 16.4,-7.2 c 0,0 0.1,0 0.1,0.1 3.9,3.4 9.8,5.6 16.3,5.6 4.5,0 8.7,-1.1 12.2,-2.9 l 6.6,6.3 20.5,-21.2 0,-3.5 0,0 0,0 z M 111.9,31.6 c 3.4,0 7.9,0.9 10.8,1.9 l -0.1,0.1 -3.2,3.3 0,0 c -2,-0.7 -4.2,-1 -6.6,-1 -4.1,0 -7.9,1.1 -10.6,3 l 0,0 -3.3,-3.2 -0.3,-0.3 c 3.5,-2.2 8.3,-3.8 13.3,-3.8 z m 4.5,8.4 -6.2,6.5 -5.5,-5.2 c 2.4,-1 5.1,-1.6 8.1,-1.6 1.2,0 2.5,0.1 3.6,0.3 z M 80.2,67.7 87.7,26 l 10.7,10.1 3.3,3.2 2.6,2.4 6.1,5.8 0,2.6 2.6,2.5 -8.1,3.7 c -1.8,-0.8 -3.4,-1.8 -4.6,-3 0,0 -0.1,-0.1 -0.1,-0.1 l 6.2,-2.9 -14.7,-13.6 -0.3,-0.3 -0.3,1.9 -3.4,17.9 -0.5,2.8 0.9,-0.4 0,0 4.7,-2 c 0.7,1.5 1.8,3 3.1,4.2 l -15.7,6.9 z m 34,-13.8 3.5,3.3 c -1.6,0.4 -3.3,0.6 -5,0.6 -2.1,0 -4.2,-0.3 -6.1,-0.9 -0.3,-0.1 -0.5,-0.2 -0.8,-0.3 l 7.7,-3.5 0.7,0.8 z M 98.8,51.6 c 0,-0.1 -0.1,-0.1 -0.1,-0.2 -0.5,-0.8 -0.9,-1.7 -1.1,-2.5 0,-0.1 0,-0.2 -0.1,-0.3 0.2,-0.9 0.6,-1.7 1.2,-2.5 l 4,4 -3.9,1.5 z m -7.8,-2 c 0,0 0.1,0.1 0,0 0,0.2 0,0.3 0,0.3 0,1 0.6,3.5 0.9,4.4 0,0 0,0 0,0 l -3.3,1.4 3.2,-16.6 1.3,1.3 c -1.5,2.2 -2.2,4.6 -2.2,7.1 0,0.8 0,1.4 0.1,2.1 z m 33.5,10.8 c -0.8,0.4 -1.6,0.8 -2.5,1.1 -2.9,1.1 -6.1,1.6 -9.4,1.6 -4.7,0 -9.1,-1.1 -12.8,-3.2 -2,-1.2 -3.8,-2.6 -5.1,-4.2 -0.5,-0.6 -1,-1.3 -1.4,-1.9 C 92.5,52.5 92,51 91.8,49.6 91.7,49 91.6,48.3 91.6,47.7 c 0,-2.2 0.6,-4.4 1.9,-6.4 l 3.4,3.5 c -0.2,0.8 -0.3,1.6 -0.3,2.4 0,0.7 0.1,1.3 0.2,2 0.2,0.9 0.6,1.9 1.2,2.8 0.4,0.7 1,1.4 1.6,2 1.7,1.7 4,3 6.6,3.8 2,0.6 4.2,0.9 6.4,0.9 1.8,0 3.6,-0.2 5.2,-0.6 1,-0.2 1.9,-0.5 2.8,-0.9 2,-0.8 3.8,-2 5.1,-3.4 1.4,-1.4 2.3,-2.9 2.7,-4.6 0.2,-0.7 0.2,-1.4 0.2,-2 0,-1.9 -0.7,-4 -1.9,-5.7 l 2.9,-3 c 2.5,2.6 4,6 4,9.3 0,0.6 -0.1,1.2 -0.2,1.9 -0.4,2.7 -1.9,5.3 -4.2,7.5 -1.2,1.1 -2.9,2.2 -4.7,3.2 z m 0.9,-7.4 -5.1,-4.9 4.3,-4.5 c 1.5,1.3 2.7,2.8 3.3,4.5 0,0.3 -0.1,0.5 -0.2,0.8 -0.4,1.4 -1.2,2.8 -2.3,4.1 z m 8.9,-3.5 c 0.1,-0.6 0.1,-1.2 0.1,-1.8 0,-3.5 -1.6,-7.1 -4.2,-9.9 l 0.7,-0.7 10.7,10.3 -8.9,9.2 c 0.9,-2.2 1.6,-4.9 1.6,-6.8 0,-0.2 0,-0.2 0,-0.3 z m -2.7,17.6 -4.4,-4.2 c 1.7,-1.2 3.2,-2.5 4.3,-4.1 0,0 0,0 0,-0.1 l 10.6,-11 0.3,-0.3 1.4,-1.4 -12.9,-12.4 -2.9,3 -3.2,3.3 -2.2,2.3 -4.1,4.3 0,0 -0.4,0.4 1.2,1.2 5.6,5.4 c -1.2,1.2 -2.8,2.1 -4.5,2.9 0,0 0,0 0,0 l -3.7,-3.5 -3.6,-3.5 -2.5,-2.3 5.8,-6.1 2.9,-3.1 3.2,-3.3 8,-8.3 21,20.1 -19.9,20.7 z"
   id="path10753"
   inkscape:connector-curvature="0" />
</g>
<g
   id="g10755"
   transform="translate(-40.8,-25.3)">
	<path
   d="m 93,103.4 -5.4,0 0,14.2 -4.8,0 0,-14.2 -5.4,0 0,-4.1 15.6,0 0,4.1 z"
   id="path10757"
   inkscape:connector-curvature="0" />
	<path
   d="m 93.5,99.3 14.5,0 0,3.8 -9.8,0 0,3.2 8.9,0 0,3.7 -8.9,0 0,3.5 10,0 0,4.1 -14.7,0 0,-18.3 z"
   id="path10759"
   inkscape:connector-curvature="0" />
	<path
   d="m 121.6,105.8 c -0.3,-1.8 -1.7,-2.8 -3.7,-2.8 -3.1,0 -4.2,2.7 -4.2,5.4 0,2.7 1.2,5.4 4.2,5.4 2.2,0 3.5,-1.3 3.7,-3.4 l 4.8,0 c -0.3,4.7 -3.7,7.5 -8.3,7.5 -5.5,0 -9.1,-4.2 -9.1,-9.5 0,-5.3 3.6,-9.5 9.1,-9.5 3.9,0 8.2,2.5 8.3,6.9 l -4.8,0 z"
   id="path10761"
   inkscape:connector-curvature="0" />
	<path
   d="m 127.3,99.3 4.7,0 0,6.6 6.3,0 0,-6.6 4.8,0 0,18.2 -4.8,0 0,-7.5 -6.3,0 0,7.5 -4.7,0 0,-18.2 z"
   id="path10763"
   inkscape:connector-curvature="0" />
</g>
<g
   id="g10765"
   transform="translate(-40.8,-25.3)">
	<path
   d="m 53.4,129.2 c -0.3,-1.8 -1.7,-2.8 -3.7,-2.8 -3.1,0 -4.2,2.7 -4.2,5.4 0,2.7 1.2,5.4 4.2,5.4 2.2,0 3.5,-1.3 3.7,-3.4 l 4.8,0 c -0.3,4.7 -3.7,7.5 -8.3,7.5 -5.5,0 -9.1,-4.2 -9.1,-9.5 0,-5.3 3.6,-9.5 9.1,-9.5 3.9,0 8.2,2.5 8.3,6.9 l -4.8,0 z"
   id="path10767"
   inkscape:connector-curvature="0" />
	<path
   d="m 59.1,122.6 4.8,0 0,6.6 6.3,0 0,-6.6 4.8,0 0,18.2 -4.8,0 0,-7.5 -6.3,0 0,7.5 -4.8,0 0,-18.2 z"
   id="path10769"
   inkscape:connector-curvature="0" />
	<path
   d="m 81.5,122.6 4.8,0 6.8,18.2 -5,0 -1.1,-3.3 -6.4,0 -1.2,3.3 -4.9,0 7,-18.2 z m 0.3,11.5 4.2,0 -2,-6.4 -0.1,0 -2.1,6.4 z"
   id="path10771"
   inkscape:connector-curvature="0" />
	<path
   d="m 93,122.6 4.8,0 0,14.2 8.5,0 0,4.1 -13.3,0 0,-18.3 z"
   id="path10773"
   inkscape:connector-curvature="0" />
	<path
   d="m 107.1,122.6 4.8,0 0,14.2 8.5,0 0,4.1 -13.3,0 0,-18.3 z"
   id="path10775"
   inkscape:connector-curvature="0" />
	<path
   d="m 121.2,122.6 14.5,0 0,3.8 -9.8,0 0,3.2 8.9,0 0,3.7 -8.9,0 0,3.5 10,0 0,4.1 -14.8,0 0,-18.3 z"
   id="path10777"
   inkscape:connector-curvature="0" />
	<path
   d="m 137.1,122.6 4.9,0 6.3,11.2 0.1,0 0,-11.2 4.5,0 0,18.2 -4.9,0 -6.3,-11.4 -0.1,0 0,11.4 -4.5,0 0,-18.2 z"
   id="path10779"
   inkscape:connector-curvature="0" />
	<path
   d="m 171.3,140.9 -3.1,0 -0.3,-2 c -1.3,1.8 -3.4,2.4 -5.1,2.4 -5.5,0 -9.1,-4.2 -9.1,-9.5 0,-5.3 3.6,-9.5 9.1,-9.5 3.8,0 7.8,2 8.3,6.6 l -4.8,0 c -0.2,-1.6 -1.7,-2.5 -3.6,-2.5 -3.1,0 -4.2,2.7 -4.2,5.4 0,2.7 1.2,5.4 4.2,5.4 2.3,0 3.9,-1.1 4.2,-2.8 l -3.3,0 0,-3.5 7.7,0 0,10 z"
   id="path10781"
   inkscape:connector-curvature="0" />
	<path
   d="m 172.9,122.6 14.5,0 0,3.8 -9.8,0 0,3.2 8.9,0 0,3.7 -8.9,0 0,3.5 10,0 0,4.1 -14.8,0 0,-18.3 z"
   id="path10783"
   inkscape:connector-curvature="0" />
</g>
<g
   id="g10785"
   transform="translate(-40.8,-25.3)">
	<path
   d="m 76.8,73.4 14.6,0 -1.4,5.6 -7,0 -0.7,3 7.3,0 -1.3,5.2 -7.2,0 -1.7,7.4 -7.5,0 4.9,-21.2 z"
   id="path10787"
   inkscape:connector-curvature="0" />
	<path
   d="m 93.4,73.4 7.5,0 -4.9,21.2 -7.5,0 4.9,-21.2 z"
   id="path10789"
   inkscape:connector-curvature="0" />
	<path
   d="m 102.9,73.5 0.5,-0.1 c 2.4,-0.3 5.4,-0.5 7.1,-0.5 2.8,0 4.9,0.3 6.5,1 2.1,0.9 3.3,2.7 3.3,5 0,1.9 -0.7,3.8 -1.9,5.2 -1.1,1.2 -2,1.8 -4,2.4 l -0.5,0.2 c 0.2,0.2 0.3,0.2 0.4,0.3 0.6,0.7 2.4,4.1 3.8,7.5 l -8.3,0 c -1.1,-3 -1.4,-3.8 -2.8,-7.2 l -1.7,7.2 -7.3,0 4.9,-21 z m 5.6,10 c 2.4,0 4.1,-1.4 4.1,-3.5 0,-1.1 -0.8,-1.6 -2.4,-1.6 -0.4,0 -0.7,0 -1.2,0.1 l -1.1,4.9 c 0.3,0.1 0.3,0.1 0.6,0.1 z"
   id="path10791"
   inkscape:connector-curvature="0" />
	<path
   d="m 138.2,73.4 18.3,0 -1.3,6.1 -5.4,0 -3.6,15 -7.5,0 3.6,-15 -5.9,0 1.8,-6.1 z"
   id="path10793"
   inkscape:connector-curvature="0" />
	<path
   d="m 149.7,90.8 c 1,0 1.8,0.8 1.8,1.8 0,1 -0.8,1.8 -1.8,1.8 -1,0 -1.8,-0.8 -1.8,-1.8 0,-1 0.8,-1.8 1.8,-1.8 z m 0,3.4 c 0.9,0 1.6,-0.7 1.6,-1.6 0,-0.9 -0.7,-1.6 -1.6,-1.6 -0.9,0 -1.6,0.7 -1.6,1.6 0,0.9 0.7,1.6 1.6,1.6 z M 149,91.7 c 0.1,0 0.1,0 0.3,0 0.2,0 0.3,0 0.3,0 0.6,0 0.9,0.2 0.9,0.7 0,0.3 -0.1,0.4 -0.4,0.5 l 0,0 c 0,0 0,0 0,0 0.1,0.1 0.3,0.4 0.5,0.7 l -0.6,0 c -0.1,-0.3 -0.2,-0.3 -0.4,-0.6 l 0,0.6 -0.6,0 0,-1.9 z m 0.7,0.9 c 0.2,0 0.3,-0.1 0.3,-0.2 0,-0.1 -0.1,-0.2 -0.2,-0.2 0,0 0,0 -0.1,0 l 0,0.4 c -0.1,0 -0.1,0 0,0 z"
   id="path10795"
   inkscape:connector-curvature="0" />
	<g
   id="g10797">
		<path
   d="m 118.9,94 c 2.1,0.6 4.4,1 6.6,1 2.9,0 5.2,-0.7 7.1,-2.1 2.1,-1.5 3.5,-3.9 3.5,-6 0,-1.4 -0.6,-2.7 -1.7,-3.7 -0.9,-0.7 -1.8,-1.2 -3.6,-2.1 l -1.5,-0.7 c -0.5,-0.3 -0.7,-0.5 -0.7,-0.8 0,-0.8 1,-1.3 2.3,-1.3 1,0 2.2,0.3 4.4,1 l 1.5,-5.7 c -1.7,-0.5 -3.3,-0.7 -4.9,-0.7 -6.2,0 -10.9,3.4 -10.9,7.7 0,2.3 1.5,3.9 5.3,5.7 1.8,0.8 2.1,1 2.1,1.6 0,0.9 -0.9,1.4 -2.5,1.4 -1.3,0 -3.1,-0.4 -5.4,-1.3 l 0,0 -1.6,6 z"
   id="path10799"
   inkscape:connector-curvature="0" />
	</g>
</g>
</svg>