<?xml version="1.0" encoding="UTF-8" standalone="no"?>
<!-- Generator: Adobe Illustrator 17.1.0, SVG Export Plug-In . SVG Version: 6.00 Build 0)  -->

<svg
   xmlns:dc="http://purl.org/dc/elements/1.1/"
   xmlns:cc="http://creativecommons.org/ns#"
   xmlns:rdf="http://www.w3.org/1999/02/22-rdf-syntax-ns#"
   xmlns:svg="http://www.w3.org/2000/svg"
   xmlns="http://www.w3.org/2000/svg"
   xmlns:sodipodi="http://sodipodi.sourceforge.net/DTD/sodipodi-0.dtd"
   xmlns:inkscape="http://www.inkscape.org/namespaces/inkscape"
   version="1.1"
   id="Layer_1"
   x="0px"
   y="0px"
   viewBox="0 0 300.89761 226.00001"
   enable-background="new 0 0 308 269.9"
   xml:space="preserve"
   inkscape:version="0.91 r13725"
   sodipodi:docname="logo-vertical.svg"
   width="300.89761"
   height="226"><metadata
   id="metadata10500"><rdf:RDF><cc:Work
       rdf:about=""><dc:format>image/svg+xml</dc:format><dc:type
         rdf:resource="http://purl.org/dc/dcmitype/StillImage" /><dc:title></dc:title></cc:Work></rdf:RDF></metadata><defs
   id="defs10498" /><sodipodi:namedview
   pagecolor="#ffffff"
   bordercolor="#666666"
   borderopacity="1"
   objecttolerance="10"
   gridtolerance="10"
   guidetolerance="10"
   inkscape:pageopacity="0"
   inkscape:pageshadow="2"
   inkscape:window-width="1777"
   inkscape:window-height="1025"
   id="namedview10496"
   showgrid="false"
   inkscape:zoom="2.8691183"
   inkscape:cx="149.54882"
   inkscape:cy="107.29999"
   inkscape:window-x="2560"
   inkscape:window-y="0"
   inkscape:window-maximized="0"
   inkscape:current-layer="Layer_1"
   fit-margin-top="0"
   fit-margin-left="0"
   fit-margin-right="0"
   fit-margin-bottom="0" />



<line
   style="fill:none"
   x1="69.799881"
   y1="94.242912"
   x2="69.799881"
   y2="94.242912"
   id="line10476" /><path
   inkscape:connector-curvature="0"
   d="m 266.52052,63.133601 0,0 0,0 L 200.64198,0.13071131 178.42105,23.266627 c -9.1498,-3.529207 -23.52805,-6.404858 -34.50781,-6.404858 -15.94679,0 -32.28571,5.489879 -43.78832,12.548294 l -30.978594,-29.41006308 0,0 0,0 0,0 0,0 L 58.035857,1.1764024 34.246384,131.88779 l 11.110469,1.1764 0,0 50.323885,-22.09022 c 0.130711,0.13071 0.130711,0.13071 0.261422,0.26142 12.02545,10.58763 29.93291,17.25391 50.06246,17.25391 13.98612,0 26.92655,-3.26779 37.51417,-8.75767 l 20.26027,19.476 62.74146,-65.355695 0,-10.718334 0,0 0,0 z M 143.3904,19.345286 c 10.45691,0 24.31231,2.614227 33.06998,5.882012 l -0.39214,0.392134 -9.80335,10.195489 0,0 c -6.14344,-2.091382 -13.07114,-3.267785 -20.26027,-3.267785 -12.679,0 -24.1816,3.529208 -32.67784,9.280509 l -0.13072,-0.130712 -10.3262,-9.803354 -0.91498,-0.91498 c 11.24118,-6.666281 25.88086,-11.633313 41.43552,-11.633313 z m 13.72469,26.011566 -19.21457,19.998843 -16.86177,-15.94679 c 7.18912,-3.137073 15.68536,-4.967032 24.83516,-4.967032 3.92134,-0.130712 7.71197,0.261422 11.24118,0.914979 z M 45.748987,130.18854 68.754191,2.2220936 101.56275,33.331404 l 10.3262,9.803355 7.84268,7.450549 18.69173,17.646038 0,8.104106 7.9734,7.58126 -24.70446,11.24118 c -5.62059,-2.352805 -10.45691,-5.489879 -14.24754,-9.280509 -0.13071,-0.130711 -0.13071,-0.130711 -0.26142,-0.261423 l 18.95315,-8.888374 -44.834005,-41.566222 -0.91498,-0.91498 -1.045691,5.751301 -10.587623,55.029495 -1.699248,8.49624 2.744939,-1.1764 0,-0.13071 14.378253,-6.143438 c 2.222094,4.705608 5.489879,9.149798 9.41122,13.071138 L 45.748987,130.18854 Z M 150.3181,87.838054 l 10.71833,10.3262 c -4.96703,1.176402 -10.19549,1.829959 -15.42394,1.829959 -6.53557,0 -12.94043,-0.914979 -18.82244,-2.744939 -0.78427,-0.261423 -1.56854,-0.522845 -2.35281,-0.784268 l 23.65877,-10.718334 2.22209,2.091382 z m -47.18681,-7.058415 c -0.13071,-0.130711 -0.26143,-0.392134 -0.39214,-0.522846 -1.56853,-2.483516 -2.744936,-5.097744 -3.398493,-7.711972 -0.130712,-0.261422 -0.130712,-0.522845 -0.130712,-0.784268 0.784269,-2.614228 1.960675,-5.228456 3.529205,-7.711972 l 12.41758,12.286871 -12.02544,4.444187 z M 79.211103,74.766915 c 0,0.130711 0,0.130711 0,0.261423 0,0.261423 0,0.522845 0,0.784268 0,3.137073 1.96067,10.587623 2.744939,13.593985 0,0 0,0 0,0 l -10.195489,4.313476 9.803355,-50.846731 4.052053,3.921342 c -4.444188,6.796992 -6.796993,14.11683 -6.796993,21.828802 -0.130711,2.091382 0,4.052053 0.392135,6.143435 z M 182.08097,107.8369 c -2.35281,1.1764 -4.96704,2.3528 -7.58126,3.26778 -9.01909,3.26779 -18.69173,4.96703 -28.88722,4.96703 -14.37825,0 -28.10295,-3.39849 -39.47484,-9.93406 C 99.863502,102.60844 94.504335,98.164254 90.452282,93.197221 88.883745,91.23655 87.44592,89.275879 86.269518,87.315208 83.786001,83.132444 82.217465,78.818968 81.563908,74.374781 81.171773,72.41411 81.041062,70.453439 81.041062,68.62348 c 0,-6.927704 1.960671,-13.593985 5.882013,-19.73742 l 10.456911,10.587622 c -0.653557,2.483517 -1.045691,4.967033 -1.045691,7.319838 0,2.091382 0.261422,4.182765 0.784268,6.143436 0.653557,2.87565 1.960671,5.751301 3.659917,8.49624 1.30712,2.091382 3.00636,4.182764 4.83632,6.012724 5.22846,5.228455 12.28687,9.280509 20.39098,11.764025 6.14344,1.960675 12.80972,2.875655 19.60671,2.875655 5.48988,0 10.97976,-0.65356 16.0775,-1.96068 3.00636,-0.784264 5.88201,-1.699243 8.49624,-2.744935 6.14344,-2.614227 11.63331,-6.143435 15.68537,-10.326199 4.18276,-4.313476 6.9277,-9.019086 8.1041,-14.247542 0.52285,-2.091382 0.78427,-4.182764 0.78427,-6.143435 0,-5.882013 -2.22209,-12.417582 -5.7513,-17.515326 l 8.88837,-9.280509 c 7.58127,7.973395 12.15616,18.561017 12.15616,28.625794 0,1.82996 -0.13071,3.790631 -0.52284,5.751301 -1.43783,8.365529 -5.88201,16.469636 -12.94043,23.135916 -3.92134,4.182765 -8.88837,7.581265 -14.50896,10.456915 z m 2.61422,-22.743785 -15.55465,-15.162521 13.20185,-13.724696 c 4.70561,3.921341 8.10411,8.626951 9.93406,13.724696 -0.13071,0.784268 -0.26142,1.699248 -0.52284,2.483516 -1.04569,4.574899 -3.52921,8.888375 -7.05842,12.679005 z m 27.31868,-10.849046 c 0.26143,-1.96067 0.39214,-3.79063 0.39214,-5.620589 0,-10.718334 -4.83632,-21.959514 -12.94043,-30.325043 l 2.09138,-2.222093 32.93927,31.632156 -27.31868,28.364372 c 2.87565,-6.796993 4.70561,-15.03181 4.70561,-21.044534 0.26143,-0.130712 0.13071,-0.392134 0.13071,-0.784269 z M 203.77906,128.4893 190.4465,115.67958 c 5.22845,-3.65992 9.67264,-7.84268 13.20185,-12.54829 0,0 0.13071,-0.13071 0.13071,-0.26143 l 32.54713,-33.854246 0.91498,-1.045691 4.31348,-4.444188 -39.73626,-38.167725 -8.88838,9.280508 -9.80335,10.3262 -6.66628,7.058415 -12.67901,13.201851 0,0 -1.04569,1.176402 3.65992,3.529208 16.86177,16.600346 c -3.79063,3.529208 -8.49624,6.53557 -13.85541,8.888375 0,0 0,0 0,0 L 158.03007,84.570269 146.9196,73.851935 139.33834,66.662809 157.2458,47.97108 166.26489,38.55986 176.06824,28.364372 200.51127,2.8756505 264.95199,64.571427 203.77906,128.4893 Z"
   id="path10478" /><g
   id="g10480"
   transform="matrix(1.3071139,0,0,1.3071139,-52.023133,-55.944475)">
	<path
   inkscape:connector-curvature="0"
   d="m 53.2,156.8 39.7,0 -3.7,15.3 -19,0 -1.9,8 19.8,0 -3.5,14.2 -19.6,0 -4.7,20.1 -20.5,0 13.4,-57.6 z"
   id="path10482" />
	<path
   inkscape:connector-curvature="0"
   d="m 98.3,156.8 20.5,0 -13.4,57.6 -20.5,0 13.4,-57.6 z"
   id="path10484" />
	<path
   inkscape:connector-curvature="0"
   d="m 124.1,157.2 1.3,-0.2 c 6.6,-0.8 14.8,-1.3 19.3,-1.3 7.5,0 13.4,0.9 17.8,2.7 5.6,2.3 9,7.4 9,13.6 0,5.3 -1.8,10.3 -5.2,14.2 -2.9,3.4 -5.5,5 -11,6.6 l -1.3,0.4 c 0.6,0.4 0.8,0.6 1,0.9 1.6,1.8 6.4,11.1 10.4,20.4 l -22.6,0 c -2.9,-8.2 -3.8,-10.4 -7.6,-19.7 l -4.5,19.7 -19.9,0 13.3,-57.3 z m 15.2,27.1 c 6.6,0 11.2,-3.9 11.2,-9.4 0,-2.9 -2.2,-4.4 -6.4,-4.4 -1.2,0 -1.9,0.1 -3.2,0.3 l -3.1,13.3 c 0.6,0.1 0.7,0.2 1.5,0.2 z"
   id="path10486" />
	<path
   inkscape:connector-curvature="0"
   d="m 220.2,156.8 49.8,0 -3.5,16.7 -14.8,0 -9.8,40.9 -20.5,0 9.8,-40.9 -16,0 5,-16.7 z"
   id="path10488" />
	<path
   inkscape:connector-curvature="0"
   d="m 251.5,204.1 c 2.8,0 5,2.2 5,5 0,2.8 -2.2,5 -5,5 -2.8,0 -5,-2.2 -5,-5 0,-2.8 2.2,-5 5,-5 z m 0,9.4 c 2.4,0 4.4,-2 4.4,-4.4 0,-2.4 -2,-4.4 -4.4,-4.4 -2.4,0 -4.4,2 -4.4,4.4 0.1,2.5 2,4.4 4.4,4.4 z m -1.9,-6.9 c 0.3,0 0.3,0 0.8,-0.1 0.5,0 0.7,-0.1 0.9,-0.1 1.6,0 2.5,0.6 2.5,1.9 0,0.7 -0.3,1.2 -1,1.4 l -0.1,0 c 0.1,0 0.1,0.1 0.1,0.1 0.2,0.2 0.8,1 1.2,1.8 l -1.9,0 c -0.4,-0.7 -0.5,-0.9 -1,-1.7 l 0,1.7 -1.6,0 0,-5 z m 1.8,2.4 c 0.4,0 0.7,-0.2 0.7,-0.6 0,-0.4 -0.2,-0.6 -0.7,-0.6 -0.1,0 -0.1,0 -0.2,0 l 0,1.2 c 0.1,0 0.1,0 0.2,0 z"
   id="path10490" />
	<g
   id="g10492">
		<path
   inkscape:connector-curvature="0"
   d="m 167.5,213 c 5.8,1.7 12.1,2.7 18,2.7 8,0 14.1,-1.8 19.4,-5.6 5.8,-4.1 9.6,-10.5 9.6,-16.3 0,-3.9 -1.7,-7.4 -4.7,-9.9 -2.4,-1.9 -4.8,-3.4 -9.8,-5.7 l -4,-1.9 c -1.3,-0.7 -2,-1.4 -2,-2.2 0,-2.1 2.6,-3.6 6.2,-3.6 2.7,0 5.9,0.8 12,2.8 l 4.2,-15.6 c -4.6,-1.2 -9,-1.9 -13.4,-1.9 -16.7,0 -29.6,9.2 -29.6,21 0,6.2 4.1,10.6 14.5,15.5 4.9,2.2 5.7,2.8 5.7,4.4 0,2.3 -2.5,3.8 -6.7,3.8 -3.7,0 -8.4,-1.1 -14.8,-3.5 l 0,0 -4.6,16 z"
   id="path10494" />
	</g>
</g>
</svg>