<?xml version="1.0" encoding="UTF-8" standalone="no"?>
<!-- Generator: Adobe Illustrator 17.1.0, SVG Export Plug-In . SVG Version: 6.00 Build 0)  -->

<svg
   xmlns:dc="http://purl.org/dc/elements/1.1/"
   xmlns:cc="http://creativecommons.org/ns#"
   xmlns:rdf="http://www.w3.org/1999/02/22-rdf-syntax-ns#"
   xmlns:svg="http://www.w3.org/2000/svg"
   xmlns="http://www.w3.org/2000/svg"
   xmlns:sodipodi="http://sodipodi.sourceforge.net/DTD/sodipodi-0.dtd"
   xmlns:inkscape="http://www.inkscape.org/namespaces/inkscape"
   version="1.1"
   id="Layer_1"
   x="0px"
   y="0px"
   viewBox="0 0 375.172 226.00003"
   enable-background="new 0 0 210 177.5"
   xml:space="preserve"
   inkscape:version="0.91 r13725"
   sodipodi:docname="FIRSTicon_OneColorTM.svg"
   width="375.172"
   height="226.00003"><metadata
   id="metadata5829"><rdf:RDF><cc:Work
       rdf:about=""><dc:format>image/svg+xml</dc:format><dc:type
         rdf:resource="http://purl.org/dc/dcmitype/StillImage" /><dc:title></dc:title></cc:Work></rdf:RDF></metadata><defs
   id="defs5827" /><sodipodi:namedview
   pagecolor="#ffffff"
   bordercolor="#666666"
   borderopacity="1"
   objecttolerance="10"
   gridtolerance="10"
   guidetolerance="10"
   inkscape:pageopacity="0"
   inkscape:pageshadow="2"
   inkscape:window-width="2560"
   inkscape:window-height="1377"
   id="namedview5825"
   showgrid="false"
   fit-margin-top="0"
   fit-margin-left="0"
   fit-margin-right="0"
   fit-margin-bottom="0"
   inkscape:zoom="5.6568543"
   inkscape:cx="130.44528"
   inkscape:cy="69.804137"
   inkscape:window-x="2552"
   inkscape:window-y="-8"
   inkscape:window-maximized="1"
   inkscape:current-layer="Layer_1" />



<g
   id="g5831"
   transform="matrix(2.9894183,0,0,2.9894183,-130.33864,-170.99473)"><line
     id="line5815"
     y2="108.1"
     x2="62.799999"
     y1="108.1"
     x1="62.799999"
     style="fill:none" /><path
     id="path5817"
     d="m 169.1,91.3 0,0 0,0 -35.6,-34 -12,12.5 c -4.9,-1.9 -12.7,-3.5 -18.6,-3.5 -8.6,0 -17.5,2.9 -23.7,6.8 l -16.7,-15.9 0,0 0,0 0,0 0,0 -6,0.6 -12.9,70.6 6,0.6 0,0 27.2,-11.9 c 0,0 0.1,0.1 0.1,0.1 6.5,5.7 16.2,9.3 27,9.3 7.5,0 14.5,-1.8 20.2,-4.7 l 10.9,10.5 34.1,-35.3 0,-5.7 0,0 0,0 z M 102.6,67.6 c 5.6,0 13.1,1.4 17.9,3.2 l -0.2,0.2 -5.3,5.5 0,0 c -3.3,-1.1 -7,-1.7 -10.9,-1.7 -6.8,0 -13,1.9 -17.7,5 L 86.3,79.7 80.8,74.4 80.3,74 c 6,-3.7 13.9,-6.4 22.3,-6.4 z m 7.5,14 -10.4,10.8 -9.1,-8.6 c 3.9,-1.7 8.5,-2.7 13.4,-2.7 2.1,0 4.1,0.2 6.1,0.5 z M 49.9,127.5 62.3,58.4 80,75.2 l 5.5,5.3 4.2,4 10.2,9.5 0,4.4 4.3,4.1 -13.4,6.1 c -3,-1.3 -5.6,-3 -7.7,-5 0,0 -0.1,-0.1 -0.1,-0.1 L 93.3,98.7 69.1,76.2 68.6,75.7 68,78.8 l -5.7,29.7 -0.9,4.6 1.5,-0.6 0,0 7.7,-3.3 c 1.2,2.6 2.9,4.9 5.1,7 l -25.8,11.3 z m 56.4,-22.9 5.8,5.5 c -2.7,0.7 -5.5,1 -8.3,1 -3.5,0 -7,-0.5 -10.2,-1.5 -0.4,-0.1 -0.8,-0.3 -1.3,-0.4 l 12.8,-5.8 1.2,1.2 z m -25.5,-3.8 c -0.1,-0.1 -0.1,-0.2 -0.2,-0.3 -0.8,-1.3 -1.5,-2.8 -1.8,-4.2 0,-0.2 -0.1,-0.3 -0.1,-0.5 0.4,-1.4 1.1,-2.8 1.9,-4.1 l 6.7,6.6 -6.5,2.5 z M 67.9,97.6 c 0,0 0,0.1 0,0.1 0,0.2 0,0.3 0,0.4 0,1.7 1,5.7 1.5,7.3 0,0 0,0 0,0 l -5.5,2.4 5.3,-27.5 2.2,2.1 c -2.4,3.7 -3.7,7.6 -3.7,11.8 0,1.1 0.1,2.2 0.2,3.4 z m 55.6,17.8 c -1.3,0.7 -2.7,1.3 -4.1,1.8 -4.9,1.8 -10.1,2.7 -15.6,2.7 -7.8,0 -15.1,-1.8 -21.3,-5.3 -3.4,-1.9 -6.3,-4.3 -8.5,-7 -0.9,-1 -1.6,-2.1 -2.2,-3.2 -1.3,-2.2 -2.2,-4.6 -2.6,-7 -0.2,-1.1 -0.3,-2.1 -0.3,-3.1 0,-3.7 1.1,-7.3 3.2,-10.7 l 5.7,5.7 c -0.4,1.3 -0.6,2.6 -0.6,4 0,1.1 0.1,2.2 0.4,3.3 0.4,1.6 1,3.1 2,4.6 0.7,1.2 1.6,2.3 2.6,3.3 2.8,2.8 6.6,5 11,6.4 3.3,1 6.9,1.6 10.6,1.6 3,0 5.9,-0.4 8.7,-1 1.6,-0.4 3.1,-0.9 4.6,-1.5 3.3,-1.4 6.3,-3.3 8.5,-5.6 2.3,-2.3 3.7,-4.9 4.4,-7.7 0.3,-1.1 0.4,-2.2 0.4,-3.3 0,-3.2 -1.2,-6.7 -3.1,-9.4 l 4.8,-5 c 4.1,4.3 6.6,10 6.6,15.4 0,1 -0.1,2 -0.3,3.1 -0.7,4.5 -3.2,8.9 -7,12.5 -2.2,2 -4.9,3.8 -7.9,5.4 z m 1.4,-12.3 -8.4,-8.2 7.1,-7.4 c 2.5,2.1 4.4,4.6 5.4,7.4 -0.1,0.5 -0.1,0.9 -0.3,1.4 -0.5,2.5 -1.8,4.8 -3.8,6.8 z m 14.8,-5.8 c 0.2,-1 0.2,-2 0.2,-3 0,-5.8 -2.6,-11.9 -7,-16.4 l 1.1,-1.2 17.8,17.1 -14.7,15.3 c 1.6,-3.6 2.6,-8.1 2.6,-11.3 0,-0.2 0,-0.3 0,-0.5 z m -4.5,29.2 -7.2,-6.9 c 2.8,-1.9 5.2,-4.2 7.1,-6.8 0,0 0,-0.1 0.1,-0.1 l 17.6,-18.3 0.5,-0.6 2.3,-2.4 -21.5,-20.6 -4.8,5 -5.3,5.5 -3.6,3.8 -6.8,7.1 0,0 -0.6,0.6 2,1.9 9.3,9 c -2,1.9 -4.6,3.6 -7.5,4.8 0,0 0,0 0,0 l -6.1,-5.9 -6,-5.8 -4.1,-3.9 9.7,-10.1 4.7,-4.8 5.3,-5.5 13.2,-13.8 34.8,33.3 -33.1,34.5 z"
     inkscape:connector-curvature="0" /><g
     id="g5819">
	<path
   id="path5821"
   d="m 139.3,130.7 -0.7,0 0,-0.2 1.6,0 0,0.2 -0.7,0 0,1.9 -0.3,0 0,-1.9 z"
   inkscape:connector-curvature="0" />
	<path
   id="path5823"
   d="m 142.2,131.7 c 0,-0.3 0,-0.7 0,-0.9 l 0,0 c -0.1,0.3 -0.2,0.5 -0.3,0.8 l -0.4,1.1 -0.2,0 -0.4,-1 c -0.1,-0.3 -0.2,-0.6 -0.3,-0.8 l 0,0 c 0,0.3 0,0.6 0,1 l -0.1,0.9 -0.3,0 0.2,-2.2 0.4,0 0.4,1.1 c 0.1,0.3 0.2,0.5 0.2,0.7 l 0,0 c 0.1,-0.2 0.1,-0.5 0.2,-0.7 l 0.4,-1.1 0.4,0 0.1,2.2 -0.3,0 0,-1.1 z"
   inkscape:connector-curvature="0" />
</g></g>
</svg>