<?xml version="1.0" encoding="UTF-8" standalone="no"?>
<!-- Generator: Adobe Illustrator 17.1.0, SVG Export Plug-In . SVG Version: 6.00 Build 0)  -->

<svg
   xmlns:dc="http://purl.org/dc/elements/1.1/"
   xmlns:cc="http://creativecommons.org/ns#"
   xmlns:rdf="http://www.w3.org/1999/02/22-rdf-syntax-ns#"
   xmlns:svg="http://www.w3.org/2000/svg"
   xmlns="http://www.w3.org/2000/svg"
   xmlns:sodipodi="http://sodipodi.sourceforge.net/DTD/sodipodi-0.dtd"
   xmlns:inkscape="http://www.inkscape.org/namespaces/inkscape"
   version="1.1"
   id="Layer_2"
   x="0px"
   y="0px"
   viewBox="0 0 862.19531 226"
   enable-background="new 0 0 486 190"
   xml:space="preserve"
   inkscape:version="0.91 r13725"
   sodipodi:docname="logo-horizontal.svg"
   width="862.19531"
   height="226"><metadata
   id="metadata9918"><rdf:RDF><cc:Work
       rdf:about=""><dc:format>image/svg+xml</dc:format><dc:type
         rdf:resource="http://purl.org/dc/dcmitype/StillImage" /><dc:title></dc:title></cc:Work></rdf:RDF></metadata><defs
   id="defs9916" /><sodipodi:namedview
   pagecolor="#ffffff"
   bordercolor="#666666"
   borderopacity="1"
   objecttolerance="10"
   gridtolerance="10"
   guidetolerance="10"
   inkscape:pageopacity="0"
   inkscape:pageshadow="2"
   inkscape:window-width="2151"
   inkscape:window-height="950"
   id="namedview9914"
   showgrid="false"
   fit-margin-top="0"
   fit-margin-left="0"
   fit-margin-right="0"
   fit-margin-bottom="0"
   inkscape:zoom="1.97989"
   inkscape:cx="431.74765"
   inkscape:cy="114.54999"
   inkscape:window-x="2560"
   inkscape:window-y="0"
   inkscape:window-maximized="0"
   inkscape:current-layer="Layer_2" />



<g
   id="g10460"
   transform="matrix(2.1220657,0,0,2.1220657,-83.184975,-91.885445)"><path
     id="path9892"
     d="m 66.4,115.4 -1.3,6.5 12.5,-5.3 c -0.8,-1.7 -1.4,-3.4 -1.9,-5.2 l -9.3,4 z"
     inkscape:connector-curvature="0" /><line
     id="line9894"
     y2="115.4"
     x2="66.400002"
     y1="115.4"
     x1="66.400002" /><path
     id="path9896"
     d="m 217,91.6 0,0 0,0 -50.4,-48.2 -17,17.7 c -7,-2.7 -18,-4.9 -26.4,-4.9 -12.2,0 -24.7,4.2 -33.5,9.6 L 66,43.3 l 0,0 0,0 0,0 0,0 -8.5,0.9 -18.3,100 8.5,0.9 0,0 38.5,-16.9 c 0.1,0.1 0.1,0.1 0.2,0.2 9.2,8.1 22.9,13.2 38.3,13.2 10.7,0 20.6,-2.5 28.7,-6.7 l 15.5,14.9 48,-50 0,-8.2 0.1,0 0,0 z M 122.8,58.1 c 8,0 18.6,2 25.3,4.5 l -0.3,0.3 -7.5,7.8 0,0 c -4.7,-1.6 -10,-2.5 -15.5,-2.5 -9.7,0 -18.5,2.7 -25,7.1 L 99.7,75.2 91.8,67.7 91.1,67 c 8.6,-5.1 19.8,-8.9 31.7,-8.9 z M 133.3,78 118.6,93.3 105.8,81 c 5.5,-2.4 12,-3.8 19,-3.8 2.9,0 5.8,0.3 8.5,0.8 z M 48.1,142.9 65.7,45 l 25.1,23.8 7.9,7.5 6,5.7 14.3,13.6 0,6.2 6.1,5.8 -18.9,8.6 c -4.3,-1.8 -8,-4.2 -10.9,-7.1 -0.1,-0.1 -0.1,-0.1 -0.2,-0.2 l 14.5,-6.8 -34.3,-31.9 -0.7,-0.7 -0.8,4.5 -8,42 -1.3,6.5 2.1,-0.9 0,-0.1 11,-4.7 c 1.7,3.6 4.2,7 7.2,10 l -36.7,16.1 z m 80,-32.4 8.2,7.9 c -3.8,0.9 -7.8,1.4 -11.8,1.4 -5,0 -9.9,-0.7 -14.4,-2.1 -0.6,-0.2 -1.2,-0.4 -1.8,-0.6 l 18.1,-8.2 1.7,1.6 z M 92,105.1 c -0.1,-0.1 -0.2,-0.3 -0.3,-0.4 -1.2,-1.9 -2.1,-3.9 -2.6,-5.9 C 89,98.6 89,98.4 89,98.2 c 0.6,-2 1.5,-4 2.7,-5.9 l 9.5,9.4 -9.2,3.4 z m -18.3,-4.6 c 0,0.1 0,0.1 0,0.2 0,0.2 0,0.4 0,0.6 0,2.4 1.5,8.1 2.1,10.4 0,0 0,0 0,0 l -7.8,3.3 7.5,-38.9 3.1,3 C 75,84.4 73.3,90 73.3,95.8 c 0,1.6 0.1,3.1 0.4,4.7 z m 78.7,25.3 c -1.8,0.9 -3.8,1.8 -5.8,2.5 -6.9,2.5 -14.3,3.8 -22.1,3.8 -11,0 -21.5,-2.6 -30.2,-7.6 -4.8,-2.7 -8.9,-6.1 -12,-9.9 -1.2,-1.5 -2.3,-3 -3.2,-4.5 -1.9,-3.2 -3.1,-6.5 -3.6,-9.9 -0.3,-1.5 -0.4,-3 -0.4,-4.4 0,-5.3 1.5,-10.4 4.5,-15.1 l 8,8.1 c -0.5,1.9 -0.8,3.8 -0.8,5.6 0,1.6 0.2,3.2 0.6,4.7 0.5,2.2 1.5,4.4 2.8,6.5 1,1.6 2.3,3.2 3.7,4.6 4,4 9.4,7.1 15.6,9 4.7,1.5 9.8,2.2 15,2.2 4.2,0 8.4,-0.5 12.3,-1.5 2.3,-0.6 4.5,-1.3 6.5,-2.1 4.7,-2 8.9,-4.7 12,-7.9 3.2,-3.3 5.3,-6.9 6.2,-10.9 0.4,-1.6 0.6,-3.2 0.6,-4.7 0,-4.5 -1.7,-9.5 -4.4,-13.4 l 6.8,-7.1 c 5.8,6.1 9.3,14.2 9.3,21.9 0,1.4 -0.1,2.9 -0.4,4.4 -1.1,6.4 -4.5,12.6 -9.9,17.7 -3.1,3.2 -6.8,5.8 -11.1,8 z m 2,-17.4 -11.9,-11.6 10.1,-10.5 c 3.6,3 6.2,6.6 7.6,10.5 -0.1,0.6 -0.2,1.3 -0.4,1.9 -0.8,3.5 -2.7,6.8 -5.4,9.7 z m 20.9,-8.3 c 0.2,-1.5 0.3,-2.9 0.3,-4.3 0,-8.2 -3.7,-16.8 -9.9,-23.2 l 1.6,-1.7 25.2,24.2 -20.9,21.7 c 2.2,-5.2 3.6,-11.5 3.6,-16.1 0.1,-0.1 0.1,-0.3 0.1,-0.6 z m -6.3,41.5 -10.2,-9.8 c 4,-2.8 7.4,-6 10.1,-9.6 0,0 0.1,-0.1 0.1,-0.2 l 24.9,-25.9 0.7,-0.8 3.3,-3.4 -30.4,-29.2 -6.8,7.1 -7.5,7.9 -5.1,5.4 -9.7,10.1 0,0 -0.8,0.9 2.8,2.7 13.1,12.8 c -2.9,2.7 -6.5,5 -10.6,6.8 0,0 0,0 0,0 l -8.9,-8.4 -8.5,-8.2 -5.8,-5.5 13.7,-14.3 6.9,-7.2 7.5,-7.8 18.7,-19.5 49.3,47.2 -46.8,48.9 z"
     inkscape:connector-curvature="0" /><g
     id="g9898">
	<path
   id="path9900"
   d="m 228.7,68.1 39.7,0 -3.7,15.3 -19,0 -1.9,8 19.8,0 -3.5,14.2 -19.6,0 -4.7,20.1 -20.5,0 13.4,-57.6 z"
   inkscape:connector-curvature="0" />
	<path
   id="path9902"
   d="m 273.8,68.1 20.5,0 -13.4,57.6 -20.5,0 13.4,-57.6 z"
   inkscape:connector-curvature="0" />
	<path
   id="path9904"
   d="m 299.6,68.4 1.3,-0.2 c 6.6,-0.8 14.8,-1.3 19.3,-1.3 7.5,0 13.4,0.9 17.8,2.7 5.6,2.3 9,7.4 9,13.6 0,5.3 -1.8,10.3 -5.2,14.2 -2.9,3.4 -5.5,5 -11,6.6 l -1.3,0.4 c 0.6,0.4 0.8,0.6 1,0.9 1.6,1.8 6.4,11.1 10.4,20.4 l -22.6,0 c -2.9,-8.2 -3.8,-10.4 -7.6,-19.7 l -4.5,19.7 -19.9,0 13.3,-57.3 z m 15.2,27.1 c 6.6,0 11.2,-3.9 11.2,-9.4 0,-2.9 -2.2,-4.4 -6.4,-4.4 -1.2,0 -1.9,0.1 -3.2,0.3 l -3.1,13.3 c 0.6,0.2 0.7,0.2 1.5,0.2 z"
   inkscape:connector-curvature="0" />
	<path
   id="path9906"
   d="m 395.7,68.1 49.8,0 -3.5,16.7 -14.8,0 -9.8,40.9 -20.5,0 9.8,-40.9 -16,0 5,-16.7 z"
   inkscape:connector-curvature="0" />
	<path
   id="path9908"
   d="m 427,115.4 c 2.8,0 5,2.2 5,5 0,2.8 -2.2,5 -5,5 -2.8,0 -5,-2.2 -5,-5 0,-2.8 2.2,-5 5,-5 z m 0,9.4 c 2.4,0 4.4,-2 4.4,-4.4 0,-2.4 -2,-4.4 -4.4,-4.4 -2.4,0 -4.4,2 -4.4,4.4 0.1,2.4 2,4.4 4.4,4.4 z m -1.9,-7 c 0.3,0 0.3,0 0.8,-0.1 0.5,0 0.7,-0.1 0.9,-0.1 1.6,0 2.5,0.6 2.5,1.9 0,0.7 -0.3,1.2 -1,1.4 l -0.1,0 c 0.1,0 0.1,0.1 0.1,0.1 0.2,0.2 0.8,1 1.2,1.8 l -1.9,0 c -0.4,-0.7 -0.5,-0.9 -1,-1.7 l 0,1.7 -1.6,0 0,-5 z m 1.8,2.4 c 0.4,0 0.7,-0.2 0.7,-0.6 0,-0.4 -0.2,-0.6 -0.7,-0.6 -0.1,0 -0.1,0 -0.2,0 l 0,1.2 c 0.1,0 0.1,0 0.2,0 z"
   inkscape:connector-curvature="0" />
	<g
   id="g9910">
		<path
   id="path9912"
   d="m 343,124.2 c 5.8,1.7 12.1,2.7 18,2.7 8,0 14.1,-1.8 19.4,-5.6 5.8,-4.1 9.6,-10.5 9.6,-16.3 0,-3.9 -1.7,-7.4 -4.7,-9.9 -2.4,-1.9 -4.8,-3.4 -9.8,-5.7 l -4,-1.9 c -1.3,-0.7 -2,-1.4 -2,-2.2 0,-2.1 2.6,-3.6 6.2,-3.6 2.7,0 5.9,0.8 12,2.8 l 4.2,-15.6 c -4.6,-1.2 -9,-1.9 -13.4,-1.9 -16.7,0 -29.6,9.2 -29.6,21 0,6.2 4.1,10.6 14.5,15.5 4.9,2.2 5.7,2.8 5.7,4.4 0,2.3 -2.5,3.8 -6.7,3.8 -3.7,0 -8.4,-1.1 -14.8,-3.5 l 0,0 -4.6,16 z"
   inkscape:connector-curvature="0" />
	</g>
</g></g>
</svg>