<?xml version="1.0" encoding="UTF-8" standalone="no"?>
<!-- Generator: Adobe Illustrator 17.1.0, SVG Export Plug-In . SVG Version: 6.00 Build 0)  -->

<svg
   xmlns:dc="http://purl.org/dc/elements/1.1/"
   xmlns:cc="http://creativecommons.org/ns#"
   xmlns:rdf="http://www.w3.org/1999/02/22-rdf-syntax-ns#"
   xmlns:svg="http://www.w3.org/2000/svg"
   xmlns="http://www.w3.org/2000/svg"
   xmlns:sodipodi="http://sodipodi.sourceforge.net/DTD/sodipodi-0.dtd"
   xmlns:inkscape="http://www.inkscape.org/namespaces/inkscape"
   version="1.1"
   id="Layer_2"
   x="0px"
   y="0px"
   viewBox="0 0 867.08669 226.00001"
   enable-background="new 0 0 245.4 99.7"
   xml:space="preserve"
   inkscape:version="0.91 r13725"
   sodipodi:docname="FIRSTWordMark_Black.svg"
   width="867.08667"
   height="226"><metadata
   id="metadata4157"><rdf:RDF><cc:Work
       rdf:about=""><dc:format>image/svg+xml</dc:format><dc:type
         rdf:resource="http://purl.org/dc/dcmitype/StillImage" /><dc:title></dc:title></cc:Work></rdf:RDF></metadata><defs
   id="defs4155" /><sodipodi:namedview
   pagecolor="#ffffff"
   bordercolor="#666666"
   borderopacity="1"
   objecttolerance="10"
   gridtolerance="10"
   guidetolerance="10"
   inkscape:pageopacity="0"
   inkscape:pageshadow="2"
   inkscape:window-width="1463"
   inkscape:window-height="834"
   id="namedview4153"
   showgrid="false"
   fit-margin-top="0"
   fit-margin-left="0"
   fit-margin-right="0"
   fit-margin-bottom="0"
   inkscape:zoom="2.4380476"
   inkscape:cx="436.64333"
   inkscape:cy="114.75"
   inkscape:window-x="2999"
   inkscape:window-y="132"
   inkscape:window-maximized="0"
   inkscape:current-layer="Layer_2" />
<g
   id="g4137"
   transform="matrix(3.7666667,0,0,3.7666667,-16.95,-81.360001)">
	<path
   d="m 17.8,22.8 39.7,0 -3.7,15.2 -19,0 -1.9,8 19.8,0 -3.5,14.2 -19.5,0 -4.7,20.1 -20.5,0 13.3,-57.5 z"
   id="path4139"
   inkscape:connector-curvature="0" />
	<path
   d="m 62.9,22.8 20.5,0 -13.3,57.5 -20.5,0 13.3,-57.5 z"
   id="path4141"
   inkscape:connector-curvature="0" />
	<path
   d="m 88.8,23.1 1.3,-0.2 c 6.6,-0.8 14.8,-1.3 19.3,-1.3 7.5,0 13.4,0.9 17.8,2.7 5.6,2.3 9,7.4 9,13.6 0,5.3 -1.8,10.3 -5.2,14.2 -2.9,3.4 -5.5,5 -11,6.6 l -1.3,0.4 c 0.6,0.4 0.8,0.6 1,0.9 1.6,1.8 6.4,11.1 10.4,20.4 l -22.6,0 C 104.6,72.2 103.7,70 99.9,60.7 l -4.5,19.7 -19.9,0 13.3,-57.3 z m 15.1,27.1 c 6.6,0 11.2,-3.9 11.2,-9.4 0,-2.9 -2.2,-4.4 -6.4,-4.4 -1.2,0 -1.9,0.1 -3.2,0.3 L 102.4,50 c 0.7,0.1 0.8,0.2 1.5,0.2 z"
   id="path4143"
   inkscape:connector-curvature="0" />
	<path
   d="m 184.9,22.8 49.8,0 -3.5,16.7 -14.8,0 -9.8,40.9 -20.5,0 9.8,-40.9 -16,0 5,-16.7 z"
   id="path4145"
   inkscape:connector-curvature="0" />
	<path
   d="m 216.2,70.1 c 2.8,0 5,2.2 5,5 0,2.8 -2.2,5 -5,5 -2.8,0 -5,-2.2 -5,-5 0,-2.8 2.2,-5 5,-5 z m 0,9.3 c 2.4,0 4.4,-2 4.4,-4.4 0,-2.4 -2,-4.4 -4.4,-4.4 -2.4,0 -4.4,2 -4.4,4.4 0,2.5 2,4.4 4.4,4.4 z m -1.9,-6.9 c 0.3,0 0.3,0 0.8,-0.1 0.5,0 0.7,-0.1 0.9,-0.1 1.6,0 2.5,0.6 2.5,1.9 0,0.7 -0.3,1.2 -1,1.4 l -0.1,0 c 0.1,0 0.1,0.1 0.1,0.1 0.2,0.2 0.8,1 1.2,1.8 l -1.9,0 c -0.4,-0.7 -0.5,-0.9 -1,-1.7 l 0,1.7 -1.6,0 0,-5 z m 1.8,2.4 c 0.4,0 0.7,-0.2 0.7,-0.6 0,-0.4 -0.2,-0.6 -0.7,-0.6 -0.1,0 -0.1,0 -0.2,0 l 0,1.2 c 0,0 0.1,0 0.2,0 z"
   id="path4147"
   inkscape:connector-curvature="0" />
	<g
   id="g4149">
		<path
   d="m 132.2,78.9 c 5.8,1.7 12.1,2.7 18,2.7 8,0 14.1,-1.8 19.4,-5.6 5.8,-4.1 9.6,-10.5 9.6,-16.3 0,-3.9 -1.7,-7.4 -4.7,-9.9 -2.4,-1.9 -4.8,-3.4 -9.8,-5.7 l -4,-1.9 c -1.3,-0.7 -2,-1.4 -2,-2.2 0,-2.1 2.6,-3.6 6.2,-3.6 2.7,0 5.9,0.8 12,2.8 l 4.2,-15.6 c -4.6,-1.2 -9,-1.9 -13.4,-1.9 -16.7,0 -29.6,9.2 -29.6,21 0,6.2 4.1,10.6 14.5,15.5 4.9,2.2 5.7,2.8 5.7,4.4 0,2.3 -2.5,3.8 -6.7,3.8 -3.7,0 -8.4,-1.1 -14.8,-3.5 l 0,0 -4.6,16 z"
   id="path4151"
   inkscape:connector-curvature="0" />
	</g>
</g>
</svg>